<svg xmlns="http://www.w3.org/2000/svg" width="32" height="32" viewBox="0 0 32 32" fill="none"><g><g transform="translate(1,-1)"><path d="M-0 6.8 A11.8 11.8 0 0 1 4.8 2 A49.3 49.3 0 0 1 15 11.6 A49.3 49.3 0 0 1 25.2 2 A11.8 11.8 0 0 1 30 6.8  A49.3 49.3 0 0 1 20.4 17 A49.3 49.3 0 0 1 30 27.2 A11.8 11.8 0 0 1 25.2 32 A49.3 49.3 0 0 1 15 22.4 A49.3  49.3 0 0 1 4.8 32 A11.8 11.8 0 0 1 -0 27.2 A49.3 49.3 0 0 1 9.6 17 A49.3 49.3 0 0 1 0 6.8 Z" style="fill:#ff0000;stroke:#7f0000;stroke-linecap:round;stroke-linejoin:round;stroke-width:1"/></g></g></svg>