<svg xmlns="http://www.w3.org/2000/svg" width="32" height="32" viewBox="0 0 32 32" fill="none"><g><g transform="translate(1,-1)"><path d="M15.8 5.2 A6.5 6.5 0 0 1 19.9 2.3 A1 1 -180 0 0 20 2.3 A5.6 5.6 0 0 1 24.6 2.6 A1 1  -180 0 0 24.7 2.6 A7.8 7.8 0 0 1 29.7 10.2 A1 1 -180 0 0 29.7 10.3 A13.9 13.9 0 0 1 26.3  20 A1 1 0 0 1 26.2 20 L15.7 31.2 A1 1 0 0 1 14.3 31.2 L3.8 20 A1 1 0 0 1 3.7 20 A13.9  13.9 0 0 1 0.3 10.3 A1 1 -180 0 0 0.3 10.2 A7.8 7.8 0 0 1 5.3 2.6 A1 1 -180 0 0 5.4 2.6  A5.5 5.5 0 0 1 9.9 2.3 A1 1 -180 0 0 10.1 2.3 A6.5 6.5 0 0 1 14.2 5.2 A1 1 -180 0  0 15.8 5.2 Z" style="fill:#e60000;stroke:#e60000;stroke-linecap:round;stroke-linejoin:round;stroke-opacity:0.3;stroke-width:1.5"/></g></g></svg>