<svg xmlns="http://www.w3.org/2000/svg" width="30" height="80" viewBox="0 0 30 80" fill="none"><g><g><g><path d="M0 12 A11 11 0 0 1 12 0 L18 0 A11 11 0 0 1 30 12 L30 68 A11 11 0 0 1 18 80 L12 80 A11 11 0 0 1 0 68 L0 12  Z" style="fill:#000000;stroke:none;stroke-linecap:round;stroke-linejoin:round;stroke-width:1"/></g><g><ellipse cx="15" cy="40" rx="11.2" ry="11.2" style="fill:#595959;stroke:none;stroke-linecap:round;stroke-linejoin:round;stroke-width:1"/></g><g><ellipse cx="15" cy="65" rx="11.2" ry="11.2" style="fill:#595959;stroke:none;stroke-linecap:round;stroke-linejoin:round;stroke-width:1"/></g><g transform="translate(3.8,-53.8)"><g><ellipse cx="11.2" cy="68.8" rx="11.2" ry="11.2" style="fill:#c00000;stroke:none;stroke-linecap:round;stroke-linejoin:round;stroke-width:1"/></g><g transform="translate(9.8,-9.8)"><path d="M0 71.6 L0 74.4 L0.8 80 L2 80 L2.8 74.4 L2.8 71.6 L0 71.6 Z" style="fill:#ffffff;stroke:none;stroke-linecap:round;stroke-linejoin:round;stroke-width:0.8"/></g><g transform="translate(10.2,-6)"><path d="M0 77.9 L2.1 77.9 L2.1 80 L0 80 L0 77.9 Z" style="fill:#ffffff;stroke:none;stroke-linecap:round;stroke-linejoin:round;stroke-width:0.8"/></g></g></g></g></svg>