<svg xmlns="http://www.w3.org/2000/svg" width="30" height="80" viewBox="0 0 30 80" fill="none"><g><g><g><path d="M0 12 A11 11 0 0 1 12 0 L18 0 A11 11 0 0 1 30 12 L30 68 A11 11 0 0 1 18 80 L12 80 A11 11 0 0 1 0 68 L0 12  Z" style="fill:#000000;stroke:none;stroke-linecap:round;stroke-linejoin:round;stroke-width:1"/></g><g transform="translate(3.8,-3.8)"><g><ellipse cx="11.2" cy="68.8" rx="11.2" ry="11.2" style="fill:#00b050;stroke:none;stroke-linecap:round;stroke-linejoin:round;stroke-width:1"/></g><g transform="translate(4.2,-4.9)"><path d="M0 74.7 L1.7 72.4 A24.7 24.7 0 0 1 4.9 75.4 A49.8 49.8 0 0 1 12.2 67.3 L14.1 69.9  A39.1 39.1 -180 0 0 4.9 80 A32.9 32.9 -180 0 0 0 74.7 Z" style="fill:#ffffff;stroke:none;stroke-linecap:round;stroke-linejoin:round;stroke-width:1"/></g></g><g><ellipse cx="15" cy="15" rx="11.2" ry="11.2" style="fill:#595959;stroke:none;stroke-linecap:round;stroke-linejoin:round;stroke-width:1"/></g><g><ellipse cx="15" cy="40" rx="11.2" ry="11.2" style="fill:#595959;stroke:none;stroke-linecap:round;stroke-linejoin:round;stroke-width:1"/></g></g></g></svg>