<svg xmlns="http://www.w3.org/2000/svg" width="32" height="32" viewBox="0 0 32 32" fill="none"><g><g transform="translate(1,-1)"><g transform="translate(15,-15)"><path d="M0 17 L0 32 L15 32 A14.9 14.9 -180 0 0 0 17 Z" style="fill:#a5a5a5;stroke:#262626;stroke-linecap:round;stroke-linejoin:round;stroke-width:1"/></g><g transform="translate(15,49) rotate(180)"><path d="M0 17 L0 32 L15 32 A14.9 14.9 -180 0 0 0 17 Z" style="fill:#a5a5a5;stroke:#262626;stroke-linecap:round;stroke-linejoin:round;stroke-width:1"/></g><g transform="translate(-17,17) rotate(-90)"><path d="M0 17 L0 32 L15 32 A14.9 14.9 -180 0 0 -0 17 Z" style="fill:#a5a5a5;stroke:#262626;stroke-linecap:round;stroke-linejoin:round;stroke-width:1"/></g><g transform="translate(47,17) rotate(90)"><path d="M0 17 L0 32 L15 32 A14.9 14.9 -180 0 0 -0 17 Z" style="fill:#a5a5a5;stroke:#262626;stroke-linecap:round;stroke-linejoin:round;stroke-width:1"/></g></g></g></svg>