<svg fill="none" viewBox="0 0 1024 1024" width="128" height="128" xmlns="http://www.w3.org/2000/svg"><view id="back" viewBox="0 0 128 128" preserveAspectRatio="none"/><g><path d="M2.3 84 L116 84" style="stroke:#0070f7;stroke-linecap:round;stroke-linejoin:round;stroke-width:11" transform="translate(6,-20)"/><path d="M46.4 40 L0 84 L46.4 128" style="stroke:#0070f7;stroke-linecap:round;stroke-linejoin:round;stroke-width:11" transform="translate(6,-20)"/></g><view id="changes" viewBox="128 0 128 128" preserveAspectRatio="none"/><g transform="translate(128, 0)"><path d="M74.6 35.7 L92.3 53.4 A12.5 12.5 -180 1 0 74.6 35.7 ZM0 128 L24.6 120.6 A16.8 16.8 -180  0 0 7.4 103.4 L0 128 ZM74.4 35.9 L7.8 102.5 A17.2 17.2 0 0 1 25.5 120.2 L92.1 53.6 L74.4 35.9  Z" style="fill:none;stroke:#0070f7;stroke-linecap:round;stroke-linejoin:round;stroke-width:6" transform="translate(28,-28)"/><path d="M52 128 A53.3 52 -135 0 0 104 76" style="stroke:#0070f7;stroke-linecap:round;stroke-linejoin:round;stroke-width:6" transform="translate(4,-4)"/><path d="M0 76 A53.3 52 -45 0 0 52 128" style="stroke:#0070f7;stroke-linecap:round;stroke-linejoin:round;stroke-width:6" transform="translate(4,-4)"/><path d="M52 24 A53.3 52 -135 0 0 0 76" style="stroke:#0070f7;stroke-linecap:round;stroke-linejoin:round;stroke-width:6" transform="translate(4,-4)"/><path d="M37 10 L53 24 L37 38" style="stroke:#0070f7;stroke-linecap:round;stroke-linejoin:round;stroke-width:6" transform="translate(4,-4)"/></g><view id="cog" viewBox="256 0 128 128" preserveAspectRatio="none"/><g transform="translate(256, 0)"><path d="M69.6 10 L93.2 19.4 L88.5 31.2 L96.8 39.5 L108.6 34.8 L118 57.2 L106.2 63.1 L106.2 74.9 L118 80.8 L108.6  103.2 L96.8 98.5 L87.3 106.8 L93.2 118.6 L69.6 128 L64.9 116.2 L53.1 116.2 L47.2 128 L24.8 118.6  L29.5 106.8 L21.2 98.5 L9.4 103.2 L0 80.8 L11.8 74.9 L11.8 63.1 L0 57.2 L9.4 34.8 L21.2 39.5 L29.5  31.2 L24.8 19.4 L48.4 10 L53.1 21.8 L64.9 21.8 L69.6 10 Z" style="fill:none;stroke:#0070f7;stroke-width:6" transform="translate(5,-5)"/><ellipse cx="64" cy="64" rx="12" ry="12" style="fill:none;stroke:#0070f7;stroke-linecap:round;stroke-linejoin:round;stroke-width:6"/></g><view id="compare" viewBox="384 0 128 128" preserveAspectRatio="none"/><g transform="translate(384, 0)"><path d="M8 116 L104 116 A8 8 -180 0 0 112 108 L112 32 A8 8 -180 0 0 104 24 L8 24 A8 8 -180 0  0 0 32 L0 108 A8 8 -180 0 0 8 116 Z" style="fill:none" transform="translate(8,-6)"/><path d="M8 116 L104 116 A8 8 -180 0 0 112 108 L112 32 A8 8 -180 0 0 104 24 L8 24 A8 8 -180 0  0 0 32 L0 108 A8 8 -180 0 0 8 116" style="stroke:#0070f7;stroke-linecap:round;stroke-linejoin:round;stroke-width:8" transform="translate(8,-6)"/><path d="M56 12 L56 128" style="stroke:#0070f7;stroke-linecap:round;stroke-linejoin:round;stroke-width:8" transform="translate(8,-6)"/></g><view id="controls" viewBox="512 0 128 128" preserveAspectRatio="none"/><g transform="translate(512, 0)"><path d="M28 120 A8 8 -180 1 0 12 120 A8 8 -180 1 0 28 120 Z" style="fill:none" transform="translate(12,-104)"/><path d="M104 120 L0 120" style="stroke:#0070f7;stroke-linecap:round;stroke-linejoin:round;stroke-width:8" transform="translate(12,-104)"/><path d="M28 120 A8 8 -180 1 0 12 120 A8 8 -180 1 0 28 120" style="stroke:#0070f7;stroke-linecap:round;stroke-linejoin:round;stroke-width:8" transform="translate(12,-104)"/><path d="M84 120 A8 8 -180 1 0 68 120 A8 8 -180 1 0 84 120 Z" style="fill:none" transform="translate(12,-72)"/><path d="M104 120 L0 120" style="stroke:#0070f7;stroke-linecap:round;stroke-linejoin:round;stroke-width:8" transform="translate(12,-72)"/><path d="M84 120 A8 8 -180 1 0 68 120 A8 8 -180 1 0 84 120" style="stroke:#0070f7;stroke-linecap:round;stroke-linejoin:round;stroke-width:8" transform="translate(12,-72)"/><path d="M54 120 A8 8 -180 1 0 38 120 A8 8 -180 1 0 54 120 Z" style="fill:none" transform="translate(12,-40)"/><path d="M104 120 L0 120" style="stroke:#0070f7;stroke-linecap:round;stroke-linejoin:round;stroke-width:8" transform="translate(12,-40)"/><path d="M54 120 A8 8 -180 1 0 38 120 A8 8 -180 1 0 54 120" style="stroke:#0070f7;stroke-linecap:round;stroke-linejoin:round;stroke-width:8" transform="translate(12,-40)"/><path d="M78 120 A8 8 -180 1 0 62 120 A8 8 -180 1 0 78 120 Z" style="fill:none" transform="translate(12,-8)"/><path d="M104 120 L0 120" style="stroke:#0070f7;stroke-linecap:round;stroke-linejoin:round;stroke-width:8" transform="translate(12,-8)"/><path d="M78 120 A8 8 -180 1 0 62 120 A8 8 -180 1 0 78 120" style="stroke:#0070f7;stroke-linecap:round;stroke-linejoin:round;stroke-width:8" transform="translate(12,-8)"/></g><view id="copy" viewBox="640 0 128 128" preserveAspectRatio="none"/><g transform="translate(640, 0)"><g transform="translate(4,-4)"><path d="M0 128 L48 128" style="stroke:#0070f7;stroke-linecap:round;stroke-linejoin:round;stroke-width:6" transform="translate(60,-48)"/><path d="M0 128 L48 128" style="stroke:#0070f7;stroke-linecap:round;stroke-linejoin:round;stroke-width:6" transform="translate(60,-32)"/><path d="M0 128 L48 128" style="stroke:#0070f7;stroke-linecap:round;stroke-linejoin:round;stroke-width:6" transform="translate(60,-16)"/><path d="M70 38 L70 29.8 L48.7 29.8 L48.7 8 L0 8 L0 98 L50 98 L50 38 L70 38 ZM48.7 8 L48.7 29.8 L70 29.8 L70  29.6 L49 8 L48.7 8 ZM50 38 L50 128 L120 128 L120 59.6 L99 38 L50 38 Z" style="fill:none"/><path d="M70 38 L70 29.8 L48.7 29.8 L48.7 8 L0 8 L0 98 L50 98 L50 38 L70 38" style="stroke:#0070f7;stroke-linecap:round;stroke-linejoin:round;stroke-width:6"/><path d="M48.7 8 L48.7 29.8 L70 29.8 L70 29.6 L49 8 L48.7 8" style="stroke:#0070f7;stroke-linecap:round;stroke-linejoin:round;stroke-width:6"/><path d="M98.7 38 L98.7 59.8 L120 59.8" style="stroke:#0070f7;stroke-linecap:round;stroke-linejoin:round;stroke-width:6"/><path d="M50 38 L50 128 L120 128 L120 59.6 L99 38 L50 38" style="stroke:#0070f7;stroke-linecap:round;stroke-linejoin:round;stroke-width:6"/></g></g><view id="defaults" viewBox="768 0 128 128" preserveAspectRatio="none"/><g transform="translate(768, 0)"><path d="M42.5 56 L56.9 61.8 L54 69 L59 74 L66.2 71.1 L72 84.8 L64.8 88.4 L64.8 95.6 L72 99.2 L66.2 112.9  L59 110 L53.3 115 L56.9 122.2 L42.5 128 L39.6 120.8 L32.4 120.8 L28.8 128 L15.1 122.2 L18 115  L13 110 L5.8 112.9 L0 99.2 L7.2 95.6 L7.2 88.4 L0 84.8 L5.8 71.1 L13 74 L18 69 L15.1 61.8  L29.5 56 L32.4 63.2 L39.6 63.2 L42.5 56 Z" style="fill:none;stroke:#0070f7;stroke-width:5" transform="translate(28,-28)"/><ellipse cx="64" cy="64" rx="8" ry="8" style="fill:none;stroke:#0070f7;stroke-linecap:round;stroke-linejoin:round;stroke-width:5"/><path d="M85.8 117.4 L81.7 96.6 L61.6 103.4" style="stroke:#0070f7;stroke-linecap:round;stroke-linejoin:round;stroke-width:8" transform="translate(34.3,-5.5)"/><path d="M81.1 97.8 A61.5 59.4 75 0 1 0 119.5" style="stroke:#0070f7;stroke-linecap:round;stroke-linejoin:round;stroke-width:8" transform="translate(34.3,-5.5)"/><path d="M1.1 127.6 A61.5 59.4 75 0 1 82.3 105.9" style="stroke:#0070f7;stroke-linecap:round;stroke-linejoin:round;stroke-width:8" transform="translate(11.4,-91.9)"/><path d="M0 106.7 L0.4 128 L21.4 124.7" style="stroke:#0070f7;stroke-linecap:round;stroke-linejoin:round;stroke-width:8" transform="translate(11.4,-91.9)"/></g><view id="delete" viewBox="896 0 128 128" preserveAspectRatio="none"/><g transform="translate(896, 0)"><path d="M112 16 L0 128" style="stroke:#0070f7;stroke-width:10" transform="translate(8,-8)"/><path d="M112 128 L0 16" style="stroke:#0070f7;stroke-width:10" transform="translate(8,-8)"/></g><view id="down" viewBox="0 128 128 128" preserveAspectRatio="none"/><g transform="translate(0, 128)"><path d="M0 100 L32 128 L64 100" style="stroke:#0070f7;stroke-width:6" transform="translate(32,-8)"/><path d="M32 122.4 L32 16" style="stroke:#0070f7;stroke-width:6" transform="translate(32,-8)"/></g><view id="download" viewBox="128 128 128 128" preserveAspectRatio="none"/><g transform="translate(128, 128)"><path d="M42 128 L24 128 A25 25.4 0 1 1 38.4 80.8 A29 27.9 0 0 1 96 84.9 A22.4 21.6 0 1 1 96  128 L78 128" style="stroke:#0070f7;stroke-width:6" transform="translate(4,-52)"/><path d="M0 116 L12 128 L24 116" style="stroke:#0070f7;stroke-width:6" transform="translate(52,-20)"/><path d="M12 124 L12 84" style="stroke:#0070f7;stroke-width:6" transform="translate(52,-20)"/></g><view id="draw" viewBox="256 128 128 128" preserveAspectRatio="none"/><g transform="translate(256, 128)"><g transform="translate(4,-4)"><path d="M0 105.8 A15.7 15.7 0 1 1 22.2 128 L0 105.8 Z" style="fill:#222d65;stroke:#0070f7;stroke-linecap:round;stroke-linejoin:round;stroke-width:6" transform="translate(93.2,-93.2)"/><path d="M0 128 L9.2 97.2 A21.1 21.1 0 0 1 30.8 118.8 L0 128 Z" style="fill:#ffff00;stroke:#0070f7;stroke-linecap:round;stroke-linejoin:round;stroke-width:6"/><path d="M83.3 22.6 L0 105.9 A21.5 21.5 0 0 1 22.1 128 L105.4 44.7 L83.3 22.6 Z" style="fill:#e60000;stroke:#0070f7;stroke-linecap:round;stroke-linejoin:round;stroke-width:6" transform="translate(9.7,-9.7)"/></g></g><view id="edit" viewBox="384 128 128 128" preserveAspectRatio="none"/><g transform="translate(384, 128)"><g transform="translate(133.3,-18.2) rotate(45)"><path d="M0 34 L18.2 34 A9.1 10 -180 1 0 0 34 ZM9.1 128 L18 110 A12.3 13.4 -180 0 0 0.2  110 L9.1 128 ZM0 34.2 L0 109.3 A12.5 13.7 0 0 1 18.2 109.3 L18.2 34.2 L0 34.2  Z" style="fill:none;stroke:#0070f7;stroke-linecap:round;stroke-linejoin:round;stroke-width:4"/></g><path d="M71.7 20 L11.2 20 A14.1 14.1 -180 0 0 -0 30.8 L0 117.2 A14.1 14.1 -180 0 0 11.2 128 L100.8 128  A14.1 14.1 -180 0 0 112 117.2 L112 52.4" style="stroke:#0070f7;stroke-linecap:round;stroke-linejoin:round;stroke-width:6" transform="translate(4,-4)"/></g><view id="erase" viewBox="512 128 128 128" preserveAspectRatio="none"/><g transform="translate(512, 128)"><g transform="translate(-52,32.9) rotate(-45)"><path d="M0 84.8 A5.2 5.2 0 0 1 3.9 80 L77.1 80 L77.1 128 L3.9 128 A5.2 5.2 0 0 1 0 123.2 L0  84.8 Z" style="fill:#ff2da6;stroke:#0070f7;stroke-width:4"/><path d="M38.6 80 A5.7 5.7 0 0 1 42.9 84.8 L42.9 123.2 A5.7 5.7 0 0 1 38.6 128 L0 128 L0 80 L38.6  80 Z" style="fill:#0070c0;stroke:#0070f7;stroke-width:4" transform="translate(77.1,0)"/></g></g><view id="etsy" viewBox="640 128 128 128" preserveAspectRatio="none"/><g transform="translate(640, 128)"><rect x="1" y="1" width="126" height="126" style="fill:#f56400;stroke:none;stroke-linecap:round;stroke-linejoin:round;stroke-width:0.8"/><path d="M70 50.9 C70.1 46.7 70.2 43.2 70.2 43 C70.1 42.9 68 43 65.4 43.3 C61 43.8 58.8 43.8  30.4 43.8 L0 43.8 L0 46.1 C0 47.3 0.1 48.4 0.2 48.4 C0.2 48.4 2.1 48.8 4.3 49.2  C10.1 50.5 11 51.2 11.4 54.3 C11.7 57.1 11.9 101.5 11.6 110.4 C11.4 118.6 11.4 118.9 10.3  120.1 C9.4 121 8.5 121.4 4.2 122.3 L0.2 123.2 L0 128 L3.2 127.8 C6.7 127.6 53.5 127.6 64.6  127.8 L72 127.9 L72.3 125 C72.9 119.6 74.4 107 74.7 104.9 L75 102.9 L70.6 103 L68.2  108.5 C65 115.6 64.9 115.7 63.4 117.4 C61.8 119.2 60.2 120.2 57.8 121 L56 121.7 L44.1  121.6 C32.2 121.6 30 121.5 28.4 120.7 C27.4 120.2 26.4 119.2 25.8 118 C25.2 117.1 25.2  116.9 25.2 102.5 L25.1 87.9 L29.4 87.9 C31.7 87.9 35.9 88.1 38.6 88.2 C44.1 88.4 45.2 88.7  46.6 90.1 C47.8 91.2 48.2 92.3 49 96.1 C49.4 98 49.8 99.6 49.9 99.8 C50 99.9 51.1  100 52.5 100 L54.9 100 L54.9 98.4 C54.9 97.6 54.8 94.2 54.7 90.8 C54.5 86 54.6 83.2  54.9 77.3 C55.2 73.2 55.3 69.8 55.2 69.7 C55.2 69.6 54 69.5 52.7 69.5 L50.3 69.5 L49.4 73.2  C48.9 75.3 48.5 77.4 48.4 77.9 C48.2 79.3 47 80.9 45.6 81.6 C44.2 82.4 44 82.4 33.2 82.7  L25.1 82.8 L25.1 66.5 C25.1 50.5 25.2 50.1 25.6 49.8 C26.3 49.5 54.6 49.5 56 49.9 C57.5 50.2  59.3 51.7 60.3 53.4 C61.3 55.1 61.9 56.8 63.6 63 L64.7 66.9 L67 67 L69.4 67.1 L69.5  62.8 C69.6 60.5 69.8 55.1 70 50.9 Z" style="fill:#ffffff;stroke:none;stroke-linecap:butt;stroke-width:1" transform="translate(26.5,-21.5)"/></g><view id="export-all" viewBox="768 128 128 128" preserveAspectRatio="none"/><g transform="translate(768, 128)"><path d="M0 116 L12 128 L24 116" style="stroke:#0070f7;stroke-width:6" transform="translate(66,-20)"/><path d="M12 124 L12 84" style="stroke:#0070f7;stroke-width:6" transform="translate(66,-20)"/><path d="M55.6 24 L55.6 8 L0 8 L0 112 L28 112 L28 24 L55.6 24 ZM28 24 L28 128 L108 128 L108 49 L84 24 L28 24 ZM55.6  24 L71.4 24 L56 8 L55.6 8 L55.6 24 Z" style="fill:none" transform="translate(10,-4)"/><path d="M55.6 24 L55.6 8 L0 8 L0 112 L28 112 L28 24 L55.6 24" style="stroke:#0070f7;stroke-linecap:round;stroke-linejoin:round;stroke-width:6" transform="translate(10,-4)"/><path d="M83.6 24 L83.6 49.1 L108 49.1" style="stroke:#0070f7;stroke-linecap:round;stroke-linejoin:round;stroke-width:6" transform="translate(10,-4)"/><path d="M28 24 L28 128 L108 128 L108 49 L84 24 L28 24" style="stroke:#0070f7;stroke-linecap:round;stroke-linejoin:round;stroke-width:6" transform="translate(10,-4)"/><path d="M55.6 24 L71.4 24 L56 8 L55.6 8 L55.6 24" style="stroke:#0070f7;stroke-linecap:round;stroke-linejoin:round;stroke-width:6" transform="translate(10,-4)"/></g><view id="export" viewBox="896 128 128 128" preserveAspectRatio="none"/><g transform="translate(896, 128)"><path d="M0 116 L12 128 L24 116" style="stroke:#0070f7;stroke-width:6" transform="translate(52,-20)"/><path d="M12 124 L12 84" style="stroke:#0070f7;stroke-width:6" transform="translate(52,-20)"/><path d="M0 8 L0 128 L92 128 L92 36.8 L64.4 8 L0 8 Z" style="fill:none" transform="translate(18,-4)"/><path d="M64 8 L64 37 L92 37" style="stroke:#0070f7;stroke-linecap:round;stroke-linejoin:round;stroke-width:6" transform="translate(18,-4)"/><path d="M0 8 L0 128 L92 128 L92 36.8 L64.4 8 L0 8" style="stroke:#0070f7;stroke-linecap:round;stroke-linejoin:round;stroke-width:6" transform="translate(18,-4)"/></g><view id="flagged" viewBox="0 256 128 128" preserveAspectRatio="none"/><g transform="translate(0, 256)"><path d="M60.9 26.3 A33.4 33.4 0 0 1 79.8 9.2 A1 1 0 0 1 80 9.2 A43.4 43.4 0 0 1 98.3 10.4 A1 1  0 0 1 98.5 10.4 A36.3 36.3 0 0 1 118.8 41 A1 1 0 0 1 118.8 41 A55.5 55.5 0 0 1 105  80 A1 1 0 0 1 105 80 L60.7 127.2 A1 1 0 0 1 59.3 127.2 L15 80 A1 1 0 0 1 15 80  A55.5 55.5 0 0 1 1.2 41 A1 1 0 0 1 1.2 41 A36.3 36.3 0 0 1 21.5 10.4 A1 1 0 0 1 21.7  10.4 A42.8 42.8 0 0 1 39.9 9.2 A1 1 0 0 1 40 9.2 A33.6 33.6 0 0 1 59.1 26.3 A1 1 -180  0 0 60.9 26.3 Z" style="fill:#e60000;stroke:#0070f7;stroke-linecap:round;stroke-linejoin:round;stroke-width:8" transform="translate(4,-4)"/></g><view id="github-dark" viewBox="128 256 128 128" preserveAspectRatio="none"/><g transform="translate(128, 256)"><path d="M62 6 A64.2 63.2 -180 0 0 40.9 128 C44.6 128 45.9 125.6 45.9 124.3 L45.9 113.4 C31 115.8 26  108.5 24.8 106 C24.8 103.6 21.1 97.5 18.6 96.3 C16.1 95.1 13.6 91.4 18.6 92.6 C23.6 92.6 27.3  97.5 28.5 98.7 C33.5 108.5 42.2 106 45.9 103.6 C47.1 99.9 48.4 97.5 50.8 96.3 C36 93.8  22.3 89 22.3 64.6 C22.3 58.5 24.8 52.4 28.5 48.7 C27.3 46.3 24.8 40.2 28.5 31.6 C28.5 31.6  34.7 30.4 45.9 37.7 A49.6 48.8 0 0 1 76.9 37.7 C89.3 30.4 94.2 30.4 94.2 31.6 C98 40.2  95.5 46.3 95.5 48.7 C99.2 52.4 101.7 57.2 101.7 64.6 C101.7 89 86.8 93.8 73.2 96.3 C75.6  97.5 76.9 101.2 76.9 107.3 L76.9 124.3 C76.9 125.6 78.1 128 81.8 128 A63.9 62.8 -180 0 0  62 6 Z" style="fill:#171516;stroke:none;stroke-linecap:butt;stroke-width:0.8" transform="translate(2,-3)"/></g><view id="github-light" viewBox="256 256 128 128" preserveAspectRatio="none"/><g transform="translate(256, 256)"><path d="M62 6 A64.2 63.2 -180 0 0 40.9 128 C44.6 128 45.9 125.6 45.9 124.3 L45.9 113.4 C31 115.8 26  108.5 24.8 106 C24.8 103.6 21.1 97.5 18.6 96.3 C16.1 95.1 13.6 91.4 18.6 92.6 C23.6 92.6 27.3  97.5 28.5 98.7 C33.5 108.5 42.2 106 45.9 103.6 C47.1 99.9 48.4 97.5 50.8 96.3 C36 93.8  22.3 89 22.3 64.6 C22.3 58.5 24.8 52.4 28.5 48.7 C27.3 46.3 24.8 40.2 28.5 31.6 C28.5 31.6  34.7 30.4 45.9 37.7 A49.6 48.8 0 0 1 76.9 37.7 C89.3 30.4 94.2 30.4 94.2 31.6 C98 40.2  95.5 46.3 95.5 48.7 C99.2 52.4 101.7 57.2 101.7 64.6 C101.7 89 86.8 93.8 73.2 96.3 C75.6  97.5 76.9 101.2 76.9 107.3 L76.9 124.3 C76.9 125.6 78.1 128 81.8 128 A63.9 62.8 -180 0 0  62 6 Z" style="fill:#ffffff;stroke:none;stroke-linecap:butt;stroke-width:0.8" transform="translate(2,-3)"/></g><view id="grip" viewBox="384 256 128 128" preserveAspectRatio="none"/><g transform="translate(384, 256)"><g transform="translate(96,-8) scale(-1,1)"><path d="M64 16 L0 72 L64 128" style="stroke:#663399;stroke-linecap:round;stroke-linejoin:round;stroke-width:14"/></g></g><view id="guide" viewBox="512 256 128 128" preserveAspectRatio="none"/><g transform="translate(512, 256)"><ellipse cx="64" cy="64" rx="60" ry="60" style="fill:none;stroke:#0070f7;stroke-linecap:round;stroke-linejoin:round;stroke-width:6"/><path d="M-0 87 A22.3 20.1 91 1 1 33.7 106.5 A9 9 0 0 1 29.5 109 A15.2 13.5 -103.2 0 0 20.3 118.6  A9 9 -180 0 0 20 121 L20 128" style="stroke:#0070f7;stroke-linecap:round;stroke-linejoin:round;stroke-width:12" transform="translate(44,-44)"/><ellipse cx="64" cy="105" rx="6" ry="6" style="fill:#0070f7;stroke:none;stroke-linecap:round;stroke-linejoin:round;stroke-width:6"/></g><view id="highlight" viewBox="640 256 128 128" preserveAspectRatio="none"/><g transform="translate(640, 256)"><g transform="translate(-59.3,90.1) rotate(-70)"><g transform="translate(167.7,86) rotate(90)"><path d="M0 128 L42 128 L35.7 42.4 A108.5 108.5 -180 0 0 6.3 42.4 L0 128 Z" style="fill:#ea7010;stroke:#0070f7;stroke-linecap:round;stroke-linejoin:round;stroke-width:6"/></g><g transform="translate(135.9,86) rotate(90)"><path d="M42 96.2 L0 96.2 L0 103.2 A38.8 38.8 0 0 1 16.8 128 L25.2 128 A38.8 38.8 0 0 1 42 103.2  L42 96.2 Z" style="fill:#222d65;stroke:#0070f7;stroke-linecap:round;stroke-linejoin:round;stroke-width:6"/></g><g transform="translate(128,102.8) rotate(90)"><path d="M8.4 120.1 L0 120.1 L0 128 L8.4 125.4 L8.4 120.1 Z" style="fill:#ea7010;stroke:#0070f7;stroke-linecap:round;stroke-linejoin:round;stroke-width:2"/></g></g></g><view id="history" viewBox="768 256 128 128" preserveAspectRatio="none"/><g transform="translate(768, 256)"><g transform="translate(-12.9,7.7) rotate(-51)"><path d="M36 70 L0 99 L36 128" style="stroke:#0070f7;stroke-linecap:round;stroke-linejoin:round;stroke-width:6"/></g><path d="M23.2 27.4 A55.5 55.5 0 1 1 0.2 68.4" style="stroke:#0070f7;stroke-linecap:round;stroke-linejoin:round;stroke-width:6" transform="translate(8.8,-3.4)"/><path d="M30 7.3 L23.2 27.4 L44 31.5" style="stroke:#0070f7;stroke-linecap:round;stroke-linejoin:round;stroke-width:6" transform="translate(8.8,-3.4)"/></g><view id="home" viewBox="896 256 128 128" preserveAspectRatio="none"/><g transform="translate(896, 256)"><path d="M72 128 L108 128 L108 68 L120 68 L60 8 L0 68 L12 68 L12 128 L48 128 L48 92 L72 92 L72 128 Z" style="fill:none;stroke:#0070f7;stroke-linecap:round;stroke-linejoin:round;stroke-width:6" transform="translate(4,-4)"/></g><view id="image" viewBox="0 384 128 128" preserveAspectRatio="none"/><g transform="translate(0, 384)"><ellipse cx="108" cy="36" rx="6" ry="6" style="fill:#ff0000;stroke:none;stroke-linecap:round;stroke-linejoin:round;stroke-width:6"/><path d="M0 106 L20.8 84 L52 128" style="stroke:#aa00cc;stroke-linecap:butt;stroke-width:6" transform="translate(72,-34)"/><path d="M0 100 L40 58 L100 128" style="stroke:#aa00cc;stroke-linecap:butt;stroke-width:6" transform="translate(4,-19)"/><rect x="4" y="19" width="120" height="90" style="fill:none;stroke:#0070f7;stroke-linecap:round;stroke-linejoin:round;stroke-width:6"/></g><view id="import" viewBox="128 384 128 128" preserveAspectRatio="none"/><g transform="translate(128, 384)"><path d="M0 96 L12 84 L24 96" style="stroke:#0070f7;stroke-width:6" transform="translate(52,-24)"/><path d="M12 128 L12 88" style="stroke:#0070f7;stroke-width:6" transform="translate(52,-24)"/><path d="M0 8 L0 128 L92 128 L92 36.8 L64.4 8 L0 8 Z" style="fill:none" transform="translate(18,-4)"/><path d="M64 8 L64 37 L92 37" style="stroke:#0070f7;stroke-linecap:round;stroke-linejoin:round;stroke-width:6" transform="translate(18,-4)"/><path d="M0 8 L0 128 L92 128 L92 36.8 L64.4 8 L0 8" style="stroke:#0070f7;stroke-linecap:round;stroke-linejoin:round;stroke-width:6" transform="translate(18,-4)"/></g><view id="link" viewBox="256 384 128 128" preserveAspectRatio="none"/><g transform="translate(256, 384)"><g transform="translate(4,-34)"><path d="M28 128 L20 128 A20 20 0 0 1 20 88 L60 88 A20 20 0 0 1 60 128 L52 128" style="stroke:#0070f7;stroke-linecap:round;stroke-linejoin:round;stroke-width:6" transform="translate(0,-20)"/><g transform="translate(40,216) scale(1,-1)"><path d="M28 128 L20 128 A20 20 0 0 1 20 88 L60 88 A20 20 0 0 1 60 128 L52 128" style="stroke:#0070f7;stroke-linecap:round;stroke-linejoin:round;stroke-width:6"/></g></g></g><view id="linkedin" viewBox="384 384 128 128" preserveAspectRatio="none"/><g transform="translate(384, 384)"><path d="M126 11.3 L126 118.7 A9.3 9.3 0 0 1 116.7 128 L9.3 128 A9.3 9.3 0 0 1 0 118.7 L0 11.3  A9.3 9.3 0 0 1 9.3 2 L116.7 2 A9.3 9.3 0 0 1 126 11.3 ZM37.1 50.2 L18.5 50.2 L18.5  109.5 L37.1 109.5 L37.1 50.2 ZM38.9 29.8 A10.7 10.7 -180 0 0 27.8 19 A10.7 10.7 -180  0 0 27.8 40.5 A10.7 10.7 -180 0 0 38.9 30.2 L38.9 29.8 ZM107.5 73.5 C107.5 55.7 96.4 48.7  84.9 48.7 A21.1 21.1 -180 0 0 66.3 58.3 L65.6 58.3 L65.6 50.2 L48.2 50.2 L48.2 109.5 L66.7  109.5 L66.7 78 A12.2 12.2 0 0 1 77.8 64.6 L78.6 64.6 C84.5 64.6 88.9 68.3 88.9 77.6  L88.9 109.5 L107.5 109.5 L107.5 73.5 Z" style="fill:#0a66c2;stroke:none;stroke-linecap:butt;stroke-width:0.8" transform="translate(1,-1)"/></g><view id="map" viewBox="512 384 128 128" preserveAspectRatio="none"/><g transform="translate(512, 384)"><path d="M30 103.9 A370.5 370.5 -180 0 0 0 128" style="stroke:#0070f7;stroke-width:10" transform="translate(79,-82)"/><path d="M27.4 128 A338.2 338.2 0 0 1 1.4 102" style="stroke:#0070f7;stroke-width:10" transform="translate(79,-82)"/><g transform="translate(5,-5)"><path d="M7.9 128 A286.4 286.4 0 0 1 108.6 128 A398.4 398.4 -180 0 0 116.5 15 A439.9 439.9 -180 0  0 0 13 A428 428 0 0 1 7.9 128 Z" style="fill:none;stroke:#0070f7;stroke-linecap:round;stroke-linejoin:round;stroke-width:6"/></g><g transform="translate(24.7,-31.1)"><g transform="translate(131.2,178.6) rotate(135)"><path d="M0 128 A20.1 20.1 -180 0 0 5.7 128" style="stroke:#0070f7;stroke-width:10"/></g><g transform="translate(114.5,197.6) rotate(135)"><path d="M-0 128 A20.1 20.1 0 0 1 5.7 128" style="stroke:#0070f7;stroke-width:10"/></g><g transform="translate(96.5,212.5) rotate(135)"><path d="M0 128 A45.1 45.1 -180 0 0 8.5 128" style="stroke:#0070f7;stroke-width:10"/></g></g></g><view id="matrix" viewBox="640 384 128 128" preserveAspectRatio="none"/><g transform="translate(640, 384)"><g transform="translate(4,-4)"><rect x="0" y="8" width="120" height="120" style="fill:none;stroke:#0070f7;stroke-linecap:round;stroke-linejoin:round;stroke-width:6"/><path d="M0 128 L116 128" style="stroke:#0070f7;stroke-width:8" transform="translate(2,-96)"/><g transform="translate(-92,126) rotate(-90)"><path d="M0 128 L116 128" style="stroke:#0070f7;stroke-width:4"/></g><g transform="translate(-44,126) rotate(-90)"><path d="M0 128 L116 128" style="stroke:#0070f7;stroke-width:4"/></g><path d="M0 128 L116 128" style="stroke:#0070f7;stroke-width:4" transform="translate(2,-72)"/><path d="M0 128 L116 128" style="stroke:#0070f7;stroke-width:4" transform="translate(2,-48)"/><path d="M0 128 L116 128" style="stroke:#0070f7;stroke-width:4" transform="translate(2,-24)"/></g></g><view id="menu" viewBox="768 384 128 128" preserveAspectRatio="none"/><g transform="translate(768, 384)"><path d="M0 128 L80 128" style="stroke:#0070f7;stroke-linecap:round;stroke-linejoin:round;stroke-width:6" transform="translate(24,-104)"/><path d="M0 128 L80 128" style="stroke:#0070f7;stroke-linecap:round;stroke-linejoin:round;stroke-width:6" transform="translate(24,-64)"/><path d="M0 128 L80 128" style="stroke:#0070f7;stroke-linecap:round;stroke-linejoin:round;stroke-width:6" transform="translate(24,-28)"/></g><view id="minus" viewBox="896 384 128 128" preserveAspectRatio="none"/><g transform="translate(896, 384)"><path d="M-0 72 L112 72" style="stroke:#0070f7;stroke-width:6" transform="translate(8,-8)"/></g><view id="move" viewBox="0 512 128 128" preserveAspectRatio="none"/><g transform="translate(0, 512)"><g transform="translate(97.9,-26.5) rotate(45)"><path d="M64 48 L80 48" style="stroke:#0070f7;stroke-linecap:round;stroke-linejoin:round;stroke-width:10"/><path d="M64 128 L80 128" style="stroke:#0070f7;stroke-linecap:round;stroke-linejoin:round;stroke-width:10"/><path d="M0 128 L16 128" style="stroke:#0070f7;stroke-linecap:round;stroke-linejoin:round;stroke-width:10"/><path d="M0 48 L16 48" style="stroke:#0070f7;stroke-linecap:round;stroke-linejoin:round;stroke-width:10"/><path d="M80 112 L80 128" style="stroke:#0070f7;stroke-linecap:round;stroke-linejoin:round;stroke-width:10"/><path d="M0 112 L0 128" style="stroke:#0070f7;stroke-linecap:round;stroke-linejoin:round;stroke-width:10"/><path d="M0 48 L0 64" style="stroke:#0070f7;stroke-linecap:round;stroke-linejoin:round;stroke-width:10"/><path d="M80 48 L80 64" style="stroke:#0070f7;stroke-linecap:round;stroke-linejoin:round;stroke-width:10"/><path d="M76 52 L4 124" style="stroke:#0070f7;stroke-linecap:round;stroke-linejoin:round;stroke-width:10"/><path d="M76 124 L4 52" style="stroke:#0070f7;stroke-linecap:round;stroke-linejoin:round;stroke-width:10"/></g></g><view id="new-page" viewBox="128 512 128 128" preserveAspectRatio="none"/><g transform="translate(128, 512)"><path d="M0 8 L0 128 L92 128 L92 36.8 L64.4 8 L0 8 Z" style="fill:none" transform="translate(18,-4)"/><path d="M64 8 L64 37 L92 37" style="stroke:#0070f7;stroke-linecap:round;stroke-linejoin:round;stroke-width:6" transform="translate(18,-4)"/><path d="M0 8 L0 128 L92 128 L92 36.8 L64.4 8 L0 8" style="stroke:#0070f7;stroke-linecap:round;stroke-linejoin:round;stroke-width:6" transform="translate(18,-4)"/></g><view id="new" viewBox="256 512 128 128" preserveAspectRatio="none"/><g transform="translate(256, 512)"><path d="M17.6 110.4 L102.4 25.6" style="stroke:#e60000;stroke-linecap:round;stroke-linejoin:round;stroke-width:6" transform="translate(4,-4)"/><path d="M17.6 25.6 L102.4 110.4" style="stroke:#e60000;stroke-linecap:round;stroke-linejoin:round;stroke-width:6" transform="translate(4,-4)"/><path d="M0 68 L120 68" style="stroke:#e60000;stroke-linecap:round;stroke-linejoin:round;stroke-width:6" transform="translate(4,-4)"/><path d="M60 8 L60 128" style="stroke:#e60000;stroke-linecap:round;stroke-linejoin:round;stroke-width:6" transform="translate(4,-4)"/></g><view id="notes" viewBox="384 512 128 128" preserveAspectRatio="none"/><g transform="translate(384, 512)"><path d="M33.8 94.2 L0 94.2 L0 8 L120 8 L120 94.2 L67.5 94.2 L33.8 128 L33.8 94.2 Z" style="fill:none;stroke:#0070f7;stroke-linecap:round;stroke-linejoin:round;stroke-width:6" transform="translate(4,-4)"/><path d="M0 128 L76 128" style="stroke:#aa00cc;stroke-linecap:round;stroke-linejoin:round;stroke-width:6" transform="translate(16,-72)"/><path d="M0 128 L96 128" style="stroke:#aa00cc;stroke-linecap:round;stroke-linejoin:round;stroke-width:6" transform="translate(16,-96)"/></g><view id="open" viewBox="512 512 128 128" preserveAspectRatio="none"/><g transform="translate(512, 512)"><g transform="translate(4,-12)"><path d="M0 128 L108 128 L120 67.7 L12 67.7 L0 128 Z" style="fill:none;stroke:#0070f7;stroke-linecap:round;stroke-linejoin:round;stroke-width:6"/><path d="M108 67.7 L108 44 L50.1 44 L42.4 24 L0 24 L0 128" style="stroke:#0070f7;stroke-linecap:round;stroke-linejoin:round;stroke-width:6"/></g></g><view id="paste" viewBox="640 512 128 128" preserveAspectRatio="none"/><g transform="translate(640, 512)"><g transform="translate(4,-4)"><path d="M0 128 L32 128" style="stroke:#0070f7;stroke-linecap:round;stroke-linejoin:round;stroke-width:6" transform="translate(76,-52)"/><path d="M0 128 L32 128" style="stroke:#0070f7;stroke-linecap:round;stroke-linejoin:round;stroke-width:6" transform="translate(76,-36)"/><path d="M0 128 L32 128" style="stroke:#0070f7;stroke-linecap:round;stroke-linejoin:round;stroke-width:6" transform="translate(76,-20)"/><path d="M64 128 L120 128 L120 56 L64 56 L64 128 ZM92 56 L92 16 L68 16 L68 24 L24 24 L24 16 L0 16 L0 116 L64 116  L64 56 L92 56 ZM24 14.4 L24 24 L68 24 L68 14.4 L60.1 14.4 L60.1 8 L31.9 8 L31.9 14.4 L24 14.4 Z" style="fill:none;stroke:#0070f7;stroke-linecap:round;stroke-linejoin:round;stroke-width:6"/></g></g><view id="paypal" viewBox="768 512 128 128" preserveAspectRatio="none"/><g transform="translate(768, 512)"><rect x="43.6" y="28.8" width="62.8" height="47.4" style="fill:#012169;stroke:none;stroke-linecap:round;stroke-linejoin:round;stroke-width:0.8"/><path d="M28.6 72.7 A41 41 180 0 0 69.8 35 A20.9 20.9 0 0 1 80.2 54.8 A38.7 38.7 0 0  1 36.7 93.5 A4.5 4.5 -86 0 0 32.3 97.4 L28 124.1 A4.9 4.9 0 0 1 23.9 128 L3.8  128 A3.3 3.3 97.4 0 1 0.2 123.5 L7.7 76.9 A5.4 5.4 68.2 0 1 12.5 72.7 L28.6 72.7  Z" style="fill:#009cde;stroke:none;stroke-linecap:round;stroke-linejoin:round;stroke-width:0.2" transform="translate(36.5,-1.4)"/><path d="M27.1 128 L39.5 49 A4.9 4.9 0 0 1 43.9 45 L76.7 45 A42 42 0 0 1 95 49 A24.2  24.2 -180 0 0 73.5 18.6 L62.9 17.4 L21.3 17.4 A5.1 5.1 -180 0 0 16.4 21.3 L0 124.4 A3.4  3.4 -180 0 0 2.9 128 L27.1 128 Z" style="fill:#003087;stroke:none;stroke-linecap:round;stroke-linejoin:round;stroke-width:0.2" transform="translate(11.3,-15.3)"/></g><view id="plus" viewBox="896 512 128 128" preserveAspectRatio="none"/><g transform="translate(896, 512)"><path d="M-0 72 L112 72" style="stroke:#0070f7;stroke-width:6" transform="translate(8,-8)"/><path d="M56 128 L56 16" style="stroke:#0070f7;stroke-width:6" transform="translate(8,-8)"/></g><view id="related" viewBox="0 640 128 128" preserveAspectRatio="none"/><g transform="translate(0, 640)"><path d="M24 89.9 L24 124 A4.5 4.5 -180 0 0 28 128 L46.1 128 A16 16 0 1 1 73.9 128 L92 128 A4.5 4.5 -180 0 0 96 124  L96 89.9 A16 16 -180 1 0 96 62.1 L96 44 A4.5 4.5 -180 0 0 92 40 L73.9 40 A16 16 -180 1 0 46.1 40 L28  40 A4.5 4.5 -180 0 0 24 44 L24 62.1 A16 16 -180 1 0 24 89.9 Z" style="fill:none;stroke:#0070f7;stroke-linecap:round;stroke-linejoin:round;stroke-width:6" transform="translate(4,-8)"/></g><view id="rename" viewBox="128 640 128 128" preserveAspectRatio="none"/><g transform="translate(128, 640)"><path d="M6 104 A5.7 5.7 -180 0 0 0 108.8 L0 123.2 A5.7 5.7 -180 0 0 6 128 L114 128 A5.7 5.7 -180 0 0 120 123.2  L120 108.8 A5.7 5.7 -180 0 0 114 104 L6 104 Z" style="fill:none;stroke:#0070f7;stroke-linecap:round;stroke-linejoin:round;stroke-width:6" transform="translate(4,-52)"/><ellipse cx="16" cy="64" rx="4.8" ry="4.8" style="fill:#0070f7;stroke:none;stroke-linecap:round;stroke-linejoin:round;stroke-width:6"/><ellipse cx="32" cy="64" rx="4.8" ry="4.8" style="fill:#0070f7;stroke:none;stroke-linecap:round;stroke-linejoin:round;stroke-width:6"/><ellipse cx="48" cy="64" rx="4.8" ry="4.8" style="fill:#0070f7;stroke:none;stroke-linecap:round;stroke-linejoin:round;stroke-width:6"/><g transform="translate(64,-30)"><g transform="translate(-112,126) rotate(-90)"><path d="M0 128 L64 128" style="stroke:#0070f7;stroke-width:6"/></g><g transform="translate(32,188) rotate(180)"><path d="M0 128 L12 128" style="stroke:#0070f7;stroke-width:6"/></g><g transform="translate(12,188) rotate(180)"><path d="M0 128 L12 128" style="stroke:#0070f7;stroke-width:6"/></g><g transform="translate(32,256) rotate(180)"><path d="M0 128 L12 128" style="stroke:#0070f7;stroke-width:6"/></g><g transform="translate(12,256) rotate(180)"><path d="M0 128 L12 128" style="stroke:#0070f7;stroke-width:6"/></g></g><ellipse cx="64" cy="64" rx="4.8" ry="4.8" style="fill:#0070f7;stroke:none;stroke-linecap:round;stroke-linejoin:round;stroke-width:6"/></g><view id="resize" viewBox="256 640 128 128" preserveAspectRatio="none"/><g transform="translate(256, 640)"><path d="M89.6 16 L112 16" style="stroke:#0070f7;stroke-linecap:round;stroke-linejoin:round;stroke-width:10" transform="translate(8,-8)"/><path d="M89.6 128 L112 128" style="stroke:#0070f7;stroke-linecap:round;stroke-linejoin:round;stroke-width:10" transform="translate(8,-8)"/><path d="M0 128 L22.4 128" style="stroke:#0070f7;stroke-linecap:round;stroke-linejoin:round;stroke-width:10" transform="translate(8,-8)"/><path d="M0 16 L22.4 16" style="stroke:#0070f7;stroke-linecap:round;stroke-linejoin:round;stroke-width:10" transform="translate(8,-8)"/><path d="M112 105.6 L112 128" style="stroke:#0070f7;stroke-linecap:round;stroke-linejoin:round;stroke-width:10" transform="translate(8,-8)"/><path d="M0 105.6 L0 128" style="stroke:#0070f7;stroke-linecap:round;stroke-linejoin:round;stroke-width:10" transform="translate(8,-8)"/><path d="M0 16 L0 38.4" style="stroke:#0070f7;stroke-linecap:round;stroke-linejoin:round;stroke-width:10" transform="translate(8,-8)"/><path d="M112 16 L112 38.4" style="stroke:#0070f7;stroke-linecap:round;stroke-linejoin:round;stroke-width:10" transform="translate(8,-8)"/><path d="M106.4 21.6 L5.6 122.4" style="stroke:#0070f7;stroke-linecap:round;stroke-linejoin:round;stroke-width:10" transform="translate(8,-8)"/><path d="M106.4 122.4 L5.6 21.6" style="stroke:#0070f7;stroke-linecap:round;stroke-linejoin:round;stroke-width:10" transform="translate(8,-8)"/></g><view id="rotate" viewBox="384 640 128 128" preserveAspectRatio="none"/><g transform="translate(384, 640)"><path d="M46 128 A47 45.9 -139.3 0 0 92 82.2" style="stroke:#0070f7;stroke-linecap:round;stroke-linejoin:round;stroke-width:6" transform="translate(18,-20)"/><path d="M0 82.2 A47 45.9 -40.7 0 0 46 128" style="stroke:#0070f7;stroke-linecap:round;stroke-linejoin:round;stroke-width:6" transform="translate(18,-20)"/><path d="M46 36.3 A47 45.9 -139.3 0 0 0 82.2" style="stroke:#0070f7;stroke-linecap:round;stroke-linejoin:round;stroke-width:6" transform="translate(18,-20)"/><path d="M32.7 24 L46.9 36.3 L32.7 48.7" style="stroke:#0070f7;stroke-linecap:round;stroke-linejoin:round;stroke-width:6" transform="translate(18,-20)"/></g><view id="save" viewBox="512 640 128 128" preserveAspectRatio="none"/><g transform="translate(512, 640)"><path d="M0 8 L0 110 L18 128 L120 128 L120 8 L0 8 Z" style="fill:none" transform="translate(4,-4)"/><path d="M0 8 L0 110 L18 128 L120 128 L120 8 L0 8" style="stroke:#0070f7;stroke-linecap:round;stroke-linejoin:round;stroke-width:6" transform="translate(4,-4)"/><path d="M12 8 L12 68 L108 68 L108 8" style="stroke:#0070f7;stroke-linecap:round;stroke-linejoin:round;stroke-width:6" transform="translate(4,-4)"/><path d="M96 128 L96 92 L24 92 L24 128" style="stroke:#0070f7;stroke-linecap:round;stroke-linejoin:round;stroke-width:6" transform="translate(4,-4)"/></g><view id="search" viewBox="640 640 128 128" preserveAspectRatio="none"/><g transform="translate(640, 640)"><g transform="translate(177.5,-3.5) rotate(45)"><path d="M0 128 L52.3 128" style="stroke:#0070f7;stroke-linecap:round;stroke-linejoin:round;stroke-width:6"/></g><ellipse cx="52" cy="52" rx="48" ry="48" style="fill:none;stroke:#0070f7;stroke-linecap:round;stroke-linejoin:round;stroke-width:6"/><g transform="translate(39,-49.4)"><path d="M-0 103.1 A13.5 13.1 93 1 1 23.3 113.3 A9 9 0 0 1 18.7 116.6 A9.3 8.7 -117.1 0 0 13.2  122.5 A4.5 4.5 -180 0 0 13 123.6 L13 128" style="stroke:#0070f7;stroke-linecap:round;stroke-linejoin:round;stroke-width:6" transform="translate(0,-16.9)"/><ellipse cx="13" cy="124.1" rx="3.9" ry="3.9" style="fill:#0070f7;stroke:none;stroke-linecap:round;stroke-linejoin:round;stroke-width:6"/></g></g><view id="section-top" viewBox="768 640 128 128" preserveAspectRatio="none"/><g transform="translate(768, 640)"><path d="M0 128 L120 128" style="stroke:#0070f7;stroke-linecap:round;stroke-linejoin:round;stroke-width:6" transform="translate(4,-124)"/><path d="M0 128 L52 128" style="stroke:#0070f7;stroke-linecap:round;stroke-linejoin:round;stroke-width:6" transform="translate(72,-104)"/><path d="M0 72 L24 44 L48 72" style="stroke:#0070f7;stroke-width:6" transform="translate(74,-4)"/><path d="M24 128 L24 48" style="stroke:#0070f7;stroke-width:6" transform="translate(74,-4)"/></g><view id="select-all" viewBox="896 640 128 128" preserveAspectRatio="none"/><g transform="translate(896, 640)"><path d="M0 100.2 L26 128 L80 57" style="stroke:#0070f7;stroke-width:10" transform="translate(30,-24)"/><path d="M12 128 L8 128 A8.4 8.4 0 0 1 0 120 L0 24 A8.4 8.4 0 0 1 8 16 L104 16 A8.4 8.4 0 0 1  112 24 L112 28" style="stroke:#0070f7;stroke-linecap:round;stroke-linejoin:round;stroke-width:6" transform="translate(4,-12)"/><path d="M8 20 A8.4 8.4 -180 0 0 0 28 L0 120 A8.4 8.4 -180 0 0 8 128 L100 128 A8.4 8.4 -180 0  0 108 120 L108 28 A8.4 8.4 -180 0 0 100 20 L8 20 Z" style="fill:none;stroke:#0070f7;stroke-linecap:round;stroke-linejoin:round;stroke-width:6" transform="translate(16,-4)"/></g><view id="select-none" viewBox="0 768 128 128" preserveAspectRatio="none"/><g transform="translate(0, 768)"><path d="M12 128 L8 128 A8.4 8.4 0 0 1 0 120 L0 24 A8.4 8.4 0 0 1 8 16 L104 16 A8.4 8.4 0 0 1  112 24 L112 28" style="stroke:#0070f7;stroke-linecap:round;stroke-linejoin:round;stroke-width:6" transform="translate(4,-12)"/><path d="M8 20 A8.4 8.4 -180 0 0 0 28 L0 120 A8.4 8.4 -180 0 0 8 128 L100 128 A8.4 8.4 -180 0  0 108 120 L108 28 A8.4 8.4 -180 0 0 100 20 L8 20 Z" style="fill:none;stroke:#0070f7;stroke-linecap:round;stroke-linejoin:round;stroke-width:6" transform="translate(16,-4)"/><path d="M76 52 L0 128" style="stroke:#0070f7;stroke-width:10" transform="translate(32,-20)"/><path d="M76 128 L0 52" style="stroke:#0070f7;stroke-width:10" transform="translate(32,-20)"/></g><view id="text" viewBox="128 768 128 128" preserveAspectRatio="none"/><g transform="translate(128, 768)"><path d="M83.1 75.1 L38.9 75.1 L61 18.2 L83.1 75.1 ZM0 128 L18.3 128 L32.5 91.4 L89.5 91.4 L103.7 128 L122 128  L73.2 6 L48.8 6 L0 128 Z" style="fill:#008800;stroke:none;stroke-linecap:round;stroke-linejoin:round;stroke-width:4" transform="translate(3,-3)"/></g><view id="theme" viewBox="256 768 128 128" preserveAspectRatio="none"/><g transform="translate(256, 768)"><ellipse cx="64" cy="64" rx="22" ry="22" style="fill:#ffff00;stroke:#0070f7;stroke-linecap:round;stroke-linejoin:round;stroke-width:6"/><g transform="translate(192,4) rotate(90)"><path d="M0 128 L24 128" style="stroke:#0070f7;stroke-linecap:round;stroke-linejoin:round;stroke-width:6"/></g><g transform="translate(192,100) rotate(90)"><path d="M0 128 L24 128" style="stroke:#0070f7;stroke-linecap:round;stroke-linejoin:round;stroke-width:6"/></g><g transform="translate(112.1,-68.9) rotate(45)"><path d="M0 128 L24 128" style="stroke:#0070f7;stroke-linecap:round;stroke-linejoin:round;stroke-width:6"/></g><g transform="translate(180,-1.1) rotate(45)"><path d="M0 128 L24 128" style="stroke:#0070f7;stroke-linecap:round;stroke-linejoin:round;stroke-width:6"/></g><path d="M0 128 L24 128" style="stroke:#0070f7;stroke-linecap:round;stroke-linejoin:round;stroke-width:6" transform="translate(4,-64)"/><path d="M0 128 L24 128" style="stroke:#0070f7;stroke-linecap:round;stroke-linejoin:round;stroke-width:6" transform="translate(100,-64)"/><g transform="translate(-68.9,15.9) rotate(-45)"><path d="M0 128 L24 128" style="stroke:#0070f7;stroke-linecap:round;stroke-linejoin:round;stroke-width:6"/></g><g transform="translate(-1.1,-52) rotate(-45)"><path d="M0 128 L24 128" style="stroke:#0070f7;stroke-linecap:round;stroke-linejoin:round;stroke-width:6"/></g></g><view id="top" viewBox="384 768 128 128" preserveAspectRatio="none"/><g transform="translate(384, 768)"><path d="M0 128 L120 128" style="stroke:#0070f7;stroke-linecap:round;stroke-linejoin:round;stroke-width:6" transform="translate(4,-124)"/><path d="M0 128 L52 128" style="stroke:#0070f7;stroke-linecap:round;stroke-linejoin:round;stroke-width:6" transform="translate(72,-64)"/><path d="M0 128 L52 128" style="stroke:#0070f7;stroke-linecap:round;stroke-linejoin:round;stroke-width:6" transform="translate(72,-4)"/><path d="M0 128 L52 128" style="stroke:#0070f7;stroke-linecap:round;stroke-linejoin:round;stroke-width:6" transform="translate(72,-34)"/><path d="M0 52 L24 24 L48 52" style="stroke:#0070f7;stroke-width:6" transform="translate(6,-4)"/><path d="M24 128 L24 28" style="stroke:#0070f7;stroke-width:6" transform="translate(6,-4)"/></g><view id="twitter" viewBox="512 768 128 128" preserveAspectRatio="none"/><g transform="translate(512, 768)"><path d="M8.8 30.8 A76.2 76.2 -180 0 0 62.1 57.8 A25.8 25.8 0 0 1 106.2 34.2 A38.2 38.2 -180  0 0 122.5 28 A21.5 21.5 0 0 1 111.2 42.3 A29.7 29.7 -180 0 0 126 38.2 A40.9 40.9  0 0 1 113.4 51.3 A73.9 73.9 0 0 1 -0 116.6 A51.3 51.3 -180 0 0 38.3 105.9 A25.1 25.1  0 0 1 14.1 88 A17.5 17.5 -180 0 0 25.8 87.6 A25.6 25.6 0 0 1 5.1 62 A18.9 18.9  -180 0 0 16.8 65.2 A25.8 25.8 0 0 1 8.8 30.8 Z" style="fill:#1da1f2;stroke:none;stroke-linecap:round;stroke-linejoin:round;stroke-width:0.2" transform="translate(1,-13)"/></g><view id="unflagged" viewBox="640 768 128 128" preserveAspectRatio="none"/><g transform="translate(640, 768)"><path d="M60.9 26.3 A33.4 33.4 0 0 1 79.8 9.2 A1 1 0 0 1 80 9.2 A43.4 43.4 0 0 1 98.3 10.4 A1 1  0 0 1 98.5 10.4 A36.3 36.3 0 0 1 118.8 41 A1 1 0 0 1 118.8 41 A55.5 55.5 0 0 1 105  80 A1 1 0 0 1 105 80 L60.7 127.2 A1 1 0 0 1 59.3 127.2 L15 80 A1 1 0 0 1 15 80  A55.5 55.5 0 0 1 1.2 41 A1 1 0 0 1 1.2 41 A36.3 36.3 0 0 1 21.5 10.4 A1 1 0 0 1 21.7  10.4 A42.8 42.8 0 0 1 39.9 9.2 A1 1 0 0 1 40 9.2 A33.6 33.6 0 0 1 59.1 26.3 A1 1 -180  0 0 60.9 26.3 Z" style="fill:none;stroke:#0070f7;stroke-linecap:round;stroke-linejoin:round;stroke-width:8" transform="translate(4,-4)"/></g><view id="up" viewBox="768 768 128 128" preserveAspectRatio="none"/><g transform="translate(768, 768)"><path d="M0 44 L32 16 L64 44" style="stroke:#0070f7;stroke-width:6" transform="translate(32,-8)"/><path d="M32 128 L32 21.6" style="stroke:#0070f7;stroke-width:6" transform="translate(32,-8)"/></g><view id="vimeo" viewBox="896 768 128 128" preserveAspectRatio="none"/><g transform="translate(896, 768)"><path d="M8 2 A8.4 8.4 -180 0 0 -0 10 L0 120 A8.4 8.4 -180 0 0 8 128 L118 128 A8.4 8.4 -180 0  0 126 120 L126 10 A8.4 8.4 -180 0 0 118 2 L8 2 ZM105.2 45.5 C104.8 53.8 99 65 87.9 79.4  C76.3 94.4 66.6 101.8 58.6 101.8 C53.6 101.8 49.4 97.3 46 88.2 L39.2 63 C36.6 53.8 33.9  49.3 31 49.3 C30.3 49.3 28.1 50.6 24.3 53.3 L20.3 48.1 C24.5 44.5 28.6 40.8 32.7 37.1 C38.3  32.3 42.5 29.8 45.2 29.5 C51.8 28.9 55.9 33.4 57.4 43 C59.1 53.4 60.2 59.9 60.8 62.4 C62.8  71 64.8 75.4 67.1 75.4 C68.9 75.4 71.6 72.6 75.1 67 C78.7 61.4 80.6 57.2 80.8 54.3 C81.3  49.4 79.4 47 75.1 47 C73.1 47 71 47.5 68.9 48.3 C73 34.7 81 28.2 92.8 28.5 C101.6  28.8 105.7 34.4 105.2 45.5 Z" style="fill:#2caceb;stroke:none;stroke-linecap:round;stroke-linejoin:round;stroke-width:6" transform="translate(1,-1)"/></g><view id="zoom" viewBox="0 896 128 128" preserveAspectRatio="none"/><g transform="translate(0, 896)"><g transform="translate(177.5,-3.5) rotate(45)"><path d="M0 128 L52.3 128" style="stroke:#0070f7;stroke-linecap:round;stroke-linejoin:round;stroke-width:6"/></g><ellipse cx="52" cy="52" rx="48" ry="48" style="fill:none;stroke:#0070f7;stroke-linecap:round;stroke-linejoin:round;stroke-width:6"/></g></svg>