<svg xmlns="http://www.w3.org/2000/svg" width="976" height="784" viewBox="0 0 976 784" class="a"><style>
.b {fill:#a5a5a5;fill-opacity:0.2;stroke:#7030a0;stroke-linecap:round;stroke-linejoin:round;stroke-width:2.25}
.c {fill:#7030a0;stroke:#7030a0;stroke-linecap:round;stroke-linejoin:round;stroke-width:2.25}
.d {fill:#ffffff;font-family:Arial;font-size:1.5em;font-weight:bold}
.e {fill:none;stroke:none;stroke-linecap:round;stroke-linejoin:round;stroke-width:0.75}
.f {fill:#0070f7;font-family:Arial;font-size:3em;font-weight:bold}
.g {fill:#0070f7;font-family:Arial;font-size:2.50001em;font-weight:bold}
.h {fill:#0070f7;font-family:Arial;font-size:1.5em;font-weight:bold}
.i {fill:#a41500;stroke:none;stroke-linecap:round;stroke-linejoin:round;stroke-width:1}
.j {fill:#ffffff;font-family:Arial;font-size:1.16666em;font-weight:bold}
.k {font-size:1em}
.l {fill:#ffffff;font-family:Arial;font-size:1.08334em;font-weight:bold}
.a {fill:none;fill-rule:evenodd;font-size:12px;overflow:visible;stroke-linecap:square;stroke-miterlimit:3}
</style><rect x="16" y="144" width="944" height="624" rx="8" ry="8" class="b"/><a target="_blank" href="https://www.microsoft.com/microsoft-365/business/microsoft-365-business-standard"><rect x="16" y="144" width="944" height="48" rx="8" ry="8" class="c"/><text x="346" y="173.4" class="d">Microsoft 365 Business Standard</text></a><a target="_blank" href="https://m365maps.com/"><rect x="16" y="16" width="944" height="48" class="e"/><text x="203.9" y="50.8" class="f">Microsoft 365 Business Standard</text></a><rect x="16" y="64" width="944" height="32" class="e"/><text x="406.3" y="89" class="g">March 2023</text><a target="_blank" href="https://m365maps.com/"><rect x="16" y="96" width="944" height="32" class="e"/><text x="420.5" y="117.4" class="h">m365maps.com</text></a><a target="_blank" href="https://www.microsoft.com/microsoft-365/business/microsoft-365-business-standard"><rect x="16" y="720" width="944" height="48" rx="8" ry="8" class="c"/><text x="346" y="749.4" class="d">Microsoft 365 Business Standard</text></a><a target="_blank" href="https://learn.microsoft.com/office365/servicedescriptions/exchange-online-service-description/exchange-online-service-description#feature-availability-across-exchange-online-standalone-plans"><rect x="272" y="320" width="96" height="80" rx="8" ry="8" class="i" data-feature="1F97224E-BB22-114F-B70E-A27C23070C1E"/><text x="286.9" y="347.4" class="j">Exchange <tspan x="298.2" dy="1.2em" class="k">Online </tspan><tspan x="299.4" dy="1.2em" class="k">Plan 1</tspan></text></a><a target="_blank" href="https://learn.microsoft.com/sharepoint/introduction"><rect x="496" y="512" width="96" height="80" rx="8" ry="8" class="i" data-feature="1F2336EF-5D0C-1345-A67D-B8B1D5807E45"/><text x="507" y="539.4" class="j">SharePoint <tspan x="522.2" dy="1.2em" class="k">Online</tspan><tspan x="523.4" dy="1.2em" class="k">Plan 1</tspan></text></a><a target="_blank" href="https://learn.microsoft.com/office365/servicedescriptions/onedrive-for-business-service-description"><rect x="608" y="416" width="96" height="80" rx="8" ry="8" class="i" data-feature="96B3F2C3-1008-4F45-B714-7B8DCBFB3119"/><text x="613.6" y="443.4" class="j">OneDrive for <tspan x="624.9" dy="1.2em" class="k">Business </tspan><tspan x="635.4" dy="1.2em" class="k">Plan 1</tspan></text></a><a target="_blank" href="https://products.office.com/business/task-management-software"><rect x="720" y="416" width="96" height="80" rx="8" ry="8" class="i" data-feature="6D135CF7-EE0E-B745-977C-3364388FF33F"/><text x="742.3" y="460.2" class="j">Planner</text></a><a target="_blank" href="https://products.office.com/microsoft-teams/"><rect x="160" y="416" width="96" height="80" rx="8" ry="8" class="i" data-feature="543B8269-DF36-CC4B-9823-FB05B4D1A849"/><text x="176.5" y="451.8" class="j">Microsoft <tspan x="185.8" dy="1.2em" class="k">Teams</tspan></text></a><a target="_blank" href="https://learn.microsoft.com/stream/"><rect x="608" y="512" width="96" height="80" rx="8" ry="8" class="i" data-feature="DB95A14F-DCD6-7743-9E57-AE0113AF61E6"/><text x="621" y="547.8" class="j">Stream for <tspan x="622.5" dy="1.2em" class="k">Office 365</tspan></text></a><a target="_blank" href="https://learn.microsoft.com/viva/insights/personal/overview/plans-environments"><rect x="160" y="608" width="96" height="80" rx="8" ry="8" class="i" data-feature="B3843CC9-43FF-1442-BF42-BBC4CD47FFD7"/><text x="164.8" y="635.4" class="j">Viva Insights <tspan x="174.2" dy="1.2em" class="k">-</tspan> Personal <tspan x="185.4" dy="1.2em" class="k">(basic)</tspan></text></a><a target="_blank" href="https://support.office.com/sway"><rect x="720" y="512" width="96" height="80" rx="8" ry="8" class="i" data-feature="ED122C37-BAA0-8440-8FEB-21E7B044C63C"/><text x="750.1" y="556.2" class="j">Sway</text></a><a target="_blank" href="https://support.office.com/forms"><rect x="720" y="320" width="96" height="80" rx="8" ry="8" class="i" data-feature="BB2AC066-B28A-BB44-AE1B-D1FB72598720"/><text x="736.5" y="355.8" class="j">Microsoft <tspan x="746.6" dy="1.2em" class="k">Forms</tspan></text></a><a target="_blank" href="https://learn.microsoft.com/microsoft-365/bookings/bookings-overview"><rect x="832" y="224" width="96" height="80" rx="8" ry="8" class="i" data-feature="DCC883D8-5878-A246-B691-B5F309BDED3A"/><text x="848.1" y="268.2" class="j">Bookings</text></a><a target="_blank" href="https://www.microsoft.com/microsoft-365/business/microsoft-365-apps-for-business"><rect x="384" y="320" width="96" height="80" rx="8" ry="8" class="i" data-feature="BBAFE1A1-9AF8-1A43-8962-AA02F9A096E1"/><text x="400.5" y="339" class="j">Microsoft <tspan x="389.6" dy="1.2em" class="k">365 Apps for </tspan><tspan x="400.9" dy="1.2em" class="k">Business </tspan><tspan x="402.1" dy="1.2em" class="k">(no SCA)</tspan></text></a><a target="_blank" href="https://learn.microsoft.com/powerapps/teams/overview-data-platform"><rect x="608" y="320" width="96" height="80" rx="8" ry="8" class="i" data-feature="2D026000-4DF7-DE43-A2E7-B4B8C40AE475"/><text x="624.5" y="347.4" class="j">Microsoft <tspan x="622.5" dy="1.2em" class="k">Dataverse </tspan><tspan x="622.6" dy="1.2em" class="k">for Teams</tspan></text></a><a target="_blank" href="https://www.microsoft.com/microsoft-365/mobile"><rect x="496" y="320" width="96" height="80" rx="8" ry="8" class="i" data-feature="6E7D2ACF-ECB0-0748-BC79-4D1931250DB5"/><text x="512.5" y="347.4" class="j">Microsoft <tspan x="508.2" dy="1.2em" class="k">365 Mobile </tspan><tspan x="530.4" dy="1.2em" class="k">App</tspan></text></a><a target="_blank" href="https://learn.microsoft.com/office365/servicedescriptions/office-online-service-description/office-online-service-description"><rect x="496" y="416" width="96" height="80" rx="8" ry="8" class="i" data-feature="A0E8EC70-C846-AC45-B82C-D036D8F58F6A"/><text x="524.2" y="443.4" class="j">Office<tspan x="505.5" dy="1.2em" class="k">for the Web</tspan><tspan x="508.6" dy="1.2em" class="k">(incl Visio)</tspan></text></a><a target="_blank" href="https://www.microsoft.com/microsoft-365/microsoft-lists"><rect x="832" y="320" width="96" height="80" rx="8" ry="8" class="i" data-feature="F9326F34-585B-0E4F-ADB9-333C255E15E7"/><text x="848.5" y="355.8" class="j">Microsoft <tspan x="863.7" dy="1.2em" class="k">Lists</tspan></text></a><a target="_blank" href="https://learn.microsoft.com/microsoft-365/whiteboard/"><rect x="384" y="416" width="96" height="80" rx="8" ry="8" class="i" data-feature="141927E2-F8BF-CA48-8B9B-D4092C4563CB"/><text x="400.5" y="451.8" class="j">Microsoft <tspan x="393.5" dy="1.2em" class="k">Whiteboard</tspan></text></a><a target="_blank" href="https://www.microsoft.com/microsoft-365/microsoft-to-do-list-app"><rect x="272" y="416" width="96" height="80" rx="8" ry="8" class="i" data-feature="41DD4B93-73C7-C24A-84D9-E6B62756A0C5"/><text x="288.5" y="451.8" class="j">Microsoft <tspan x="300.2" dy="1.2em" class="k">To Do</tspan></text></a><a target="_blank" href="https://learn.microsoft.com/power-virtual-agents/teams/fundamentals-what-is-power-virtual-agents-teams"><rect x="160" y="512" width="96" height="80" rx="8" ry="8" class="i" data-feature="97B016E0-64CB-1040-9667-0B44302DCA50"/><text x="166.5" y="540.3" class="l">Power Virtual <tspan x="175.5" dy="1.2em" class="k">Agents for </tspan><tspan x="187.4" dy="1.2em" class="k">Teams</tspan></text></a><a target="_blank" href="https://learn.microsoft.com/microsoft-365/admin/basic-mobility-security/capabilities"><rect x="720" y="224" width="96" height="80" rx="8" ry="8" class="i" data-feature="8330882F-39BB-5D48-A321-46276FC0F1B8"/><text x="749.3" y="251.4" class="j">Basic <tspan x="734.6" dy="1.2em" class="k">Mobility &amp; </tspan><tspan x="740.4" dy="1.2em" class="k">Security</tspan></text></a><a target="_blank" href="https://www.microsoft.com/microsoft-viva/connections"><rect x="832" y="512" width="96" height="80" rx="8" ry="8" class="i" data-feature="213EE8A8-722C-D640-8BD8-008F939E3535"/><text x="865.6" y="547.8" class="j">Viva <tspan x="837.6" dy="1.2em" class="k">Connections</tspan></text></a><a target="_blank" href="https://www.microsoft.com/microsoft-viva/learning"><rect x="272" y="608" width="96" height="80" rx="8" ry="8" class="i" data-feature="C5598362-2311-A84B-933E-19D1583914D4"/><text x="305.6" y="635.4" class="j">Viva <tspan x="290.4" dy="1.2em" class="k">Learning </tspan><tspan x="297.4" dy="1.2em" class="k">(basic)</tspan></text></a><a target="_blank" href="https://learn.microsoft.com/microsoft-365/compliance/search-the-audit-log-in-security-and-compliance"><rect x="496" y="224" width="96" height="80" rx="8" ry="8" class="i" data-feature="E67D07C0-53F5-FB41-B04D-D30974A72A1F"/><text x="526.1" y="259.8" class="j">Audit <tspan x="509.8" dy="1.2em" class="k">(standard)</tspan></text></a><a target="_blank" href="https://learn.microsoft.com/microsoft-365/compliance/alert-policies"><rect x="272" y="224" width="96" height="80" rx="8" ry="8" class="i" data-feature="A46AE7F8-3904-944A-9E4B-B3138DAB33CC"/><text x="304" y="259.8" class="j">Alert <tspan x="293.5" dy="1.2em" class="k">Policies</tspan></text></a><a target="_blank" href="https://www.microsoftpartnercommunity.com/t5/Announcement-Discussions/Microsoft-365-Pricing-and-Audio-Conferencing-Licensing-Updates/td-p/60233#toc-hId--2041231687"><rect x="384" y="224" width="96" height="80" rx="8" ry="8" class="i" data-feature="91D948B6-82D9-E24F-B5C0-77D2E3C6443D"/><text x="413.6" y="252.3" class="l">Audio <tspan x="390.1" dy="1.2em" class="k">Conferencing </tspan><tspan x="392.3" dy="1.2em" class="k">(free add</tspan>-on)</text></a><a target="_blank" href="https://learn.microsoft.com/project-for-the-web/office-365-user-view-access-to-project-and-roadmap"><rect x="272" y="512" width="96" height="80" rx="8" ry="8" class="i" data-feature="FBF2EADB-FDA1-DE4F-B0CE-7E4B637C269B"/><text x="289.3" y="539.4" class="j">Project &amp; <tspan x="288.1" dy="1.2em" class="k">Roadmap </tspan><tspan x="277.6" dy="1.2em" class="k">View Access</tspan></text></a><a target="_blank" href="https://learn.microsoft.com/microsoftteams/set-up-webinars"><rect x="384" y="608" width="96" height="80" rx="8" ry="8" class="i" data-feature="1AF037AF-D6DD-4645-BC14-54EBB04542A6"/><text x="400.5" y="652.2" class="j">Webinars</text></a><a target="_blank" href="https://learn.microsoft.com/microsoft-365/compliance/compliance-manager-overview"><rect x="160" y="320" width="96" height="80" rx="8" ry="8" class="i" data-feature="5AE727ED-3979-B649-A986-6BA7098735F1"/><text x="168.3" y="355.8" class="j">Compliance <tspan x="179.2" dy="1.2em" class="k">Manager</tspan></text></a><a target="_blank" href="https://learn.microsoft.com/microsoft-365/security/defender/microsoft-secure-score"><rect x="384" y="512" width="96" height="80" rx="8" ry="8" class="i" data-feature="96B903EE-221F-DC4D-90C0-AE7FDE8D31CA"/><text x="408.6" y="547.8" class="j">Secure <tspan x="412.6" dy="1.2em" class="k">Score</tspan></text></a><a target="_blank" href="https://learn.microsoft.com/microsoft-365/admin/adoption/adoption-score"><rect x="160" y="224" width="96" height="80" rx="8" ry="8" class="i" data-feature="DED671DE-3A0F-C747-B5D8-5EE47650A117"/><text x="177.3" y="259.8" class="j">Adoption <tspan x="188.6" dy="1.2em" class="k">Score</tspan></text></a><a target="_blank" href="https://learn.microsoft.com/microsoft-365/admin/activity-reports/activity-reports"><rect x="48" y="224" width="96" height="80" rx="8" ry="8" class="i" data-feature="550D7638-34DC-364E-8932-11FAF49F5D4B"/><text x="70.7" y="259.8" class="j">Activity <tspan x="69.6" dy="1.2em" class="k">Reports</tspan></text></a><a target="_blank" href="https://learn.microsoft.com/viva/engage/overview"><rect x="48" y="608" width="96" height="80" rx="8" ry="8" class="i" data-feature="12330CC8-93BE-E043-8231-12CEA55876CC"/><text x="81.6" y="643.8" class="j">Viva <tspan x="70.7" dy="1.2em" class="k">Engage</tspan></text></a><a target="_blank" href="https://learn.microsoft.com/viva/insights/personal/briefing/be-overview"><rect x="48" y="320" width="96" height="80" rx="8" ry="8" class="i" data-feature="471EE84F-6301-804C-8E35-0F908F7FE28F"/><text x="69.6" y="355.8" class="j">Briefing <tspan x="77.3" dy="1.2em" class="k">Email</tspan></text></a><a target="_blank" href="https://learn.microsoft.com/microsoftsearch/overview-microsoft-search"><rect x="48" y="416" width="96" height="80" rx="8" ry="8" class="i" data-feature="3DF10631-B76A-1D47-9EB0-71A21637557F"/><text x="64.5" y="451.8" class="j">Microsoft <tspan x="72.6" dy="1.2em" class="k">Search</tspan></text></a><a target="_blank" href="https://powerapps.microsoft.com/"><rect x="832" y="416" width="96" height="80" rx="8" ry="8" class="i" data-feature="5F33A943-8E80-574B-8C6C-816268621A0A"/><text x="839.6" y="443.4" class="j">Power Apps<tspan x="870.7" dy="1.2em" class="k">for </tspan><tspan x="846.5" dy="1.2em" class="k">Office 365</tspan></text></a><a target="_blank" href="https://powerautomate.microsoft.com/"><rect x="48" y="512" width="96" height="80" rx="8" ry="8" class="i" data-feature="80D7F572-D88C-AF4E-8444-5DC902D3A938"/><text x="75" y="539.4" class="j">Power <tspan x="52.4" dy="1.2em" class="k">Automate for</tspan><tspan x="62.5" dy="1.2em" class="k">Office 365</tspan></text></a><a target="_blank" href="https://www.microsoft.com/security/business/identity-access/azure-active-directory-pricing"><rect x="608" y="224" width="96" height="80" rx="8" ry="8" class="i" data-feature="BA717BF8-8E2E-C949-87C3-2E6955BFAFD9"/><text x="624.5" y="259.8" class="j">Azure AD <tspan x="641.2" dy="1.2em" class="k">Free</tspan></text></a></svg>