<svg xmlns="http://www.w3.org/2000/svg" width="1472" height="1104" viewBox="0 0 1472 1104" class="a"><style>
.b {fill:#a5a5a5;fill-opacity:0.2;stroke:#a058c0;stroke-linecap:round;stroke-linejoin:round;stroke-width:2.25}
.c {fill:#a5a5a5;fill-opacity:0.2;stroke:#a41500;stroke-dasharray:33.75,20.25;stroke-linecap:round;stroke-linejoin:round;stroke-width:2.25}
.d {fill:#a5a5a5;fill-opacity:0.2;stroke:#2080a0;stroke-dasharray:33.75,20.25;stroke-linecap:round;stroke-linejoin:round;stroke-width:2.25}
.e {fill:#a058c0;stroke:#a058c0;stroke-linecap:round;stroke-linejoin:round;stroke-width:2.25}
.f {fill:#ffffff;font-family:Arial;font-size:1.66667em;font-weight:bold}
.g {fill:#a41500;stroke:#a41500;stroke-linecap:round;stroke-linejoin:round;stroke-width:2.25}
.h {fill:#2080a0;stroke:#2080a0;stroke-linecap:round;stroke-linejoin:round;stroke-width:2.25}
.i {font-size:1em}
.j {fill:none;stroke:none;stroke-linecap:round;stroke-linejoin:round;stroke-width:0.75}
.k {fill:#0070f7;font-family:Arial;font-size:4.00001em;font-weight:bold}
.l {fill:none;stroke:none;stroke-linecap:round;stroke-linejoin:round;stroke-width:1}
.m {fill:#0070f7;font-family:Arial;font-size:2.50001em;font-weight:bold}
.n {fill:#0070f7;font-family:Arial;font-size:1.5em;font-weight:bold}
.o {fill:#a41500;stroke:none;stroke-linecap:round;stroke-linejoin:round;stroke-width:1}
.p {fill:#ffffff;font-family:Arial;font-size:1.16666em;font-weight:bold}
.q {font-size:0.928588em}
.r {fill:#ffffff;font-family:Arial;font-size:1.00001em;font-weight:bold}
.s {fill:#ffffff;font-family:Arial;font-size:1.08334em;font-weight:bold}
.t {fill:#a5a5a5;fill-opacity:0.2;stroke:#0070f7;stroke-dasharray:2.25,4.5;stroke-linecap:round;stroke-linejoin:round;stroke-width:2.25}
.u {fill:#000000;font-family:Arial;font-size:1.33333em}
.v {fill:#0070f7;stroke:none;stroke-linecap:round;stroke-linejoin:round;stroke-width:1}
.w {font-size:0.857157em}
.x {fill:#000000;font-family:Arial;font-size:1.99999em}
.y {font-family:Symbol;font-size:0.750003em}
.z {font-size:0.750003em}
.ba {fill:#2080a0;stroke:none;stroke-linecap:round;stroke-linejoin:round;stroke-width:1}
.bb {fill:#a5a5a5;fill-opacity:0.2;stroke:#50b0d0;stroke-dasharray:2.25,4.5;stroke-linecap:round;stroke-linejoin:round;stroke-width:2.25}
.bc {fill:#50b0d0;stroke:none;stroke-linecap:round;stroke-linejoin:round;stroke-width:1}
.a {fill:none;fill-rule:evenodd;font-size:12px;overflow:visible;stroke-linecap:square;stroke-miterlimit:3}
</style><rect x="16" y="272" width="1440" height="720" rx="8" ry="8" class="b"/><rect x="112" y="224" width="608" height="864" rx="8" ry="8" class="c"/><rect x="752" y="224" width="608" height="864" rx="8" ry="8" class="d"/><a target="_blank" href="https://www.microsoft.com/microsoft-365/compare-all-microsoft-365-plans"><g transform="translate(-1024,992) rotate(-90)"><rect x="0" y="1040" width="720" height="64" rx="8" ry="8" class="e"/><text x="281.1" y="1078" class="f">Microsoft 365 F1</text></g></a><a target="_blank" href="https://www.microsoft.com/microsoft-365/compare-all-microsoft-365-plans"><g transform="translate(352,992) rotate(-90)"><rect x="0" y="1040" width="720" height="64" rx="8" ry="8" class="e"/><text x="281.1" y="1078" class="f">Microsoft 365 F1</text></g></a><a target="_blank" href="https://www.microsoft.com/microsoft-365/enterprise/compare-office-365-plans"><rect x="112" y="176" width="608" height="64" rx="8" ry="8" class="g"/><text x="270.4" y="214" class="f">Office 365 for Microsoft 365 F1</text></a><a target="_blank" href="https://www.microsoft.com/microsoft-365/enterprise/compare-office-365-plans"><rect x="112" y="1024" width="608" height="64" rx="8" ry="8" class="g"/><text x="270.4" y="1062" class="f">Office 365 for Microsoft 365 F1</text></a><a target="_blank" href="https://www.microsoft.com/cloud-platform/enterprise-mobility-security"><rect x="752" y="176" width="608" height="64" rx="8" ry="8" class="h"/><text x="900.1" y="202" class="f">Enterprise Mobility + Security E3  <tspan x="1012.7" dy="1.2em" class="i">(EMS E3)</tspan></text></a><a target="_blank" href="https://www.microsoft.com/cloud-platform/enterprise-mobility-security"><rect x="752" y="1024" width="608" height="64" rx="8" ry="8" class="h"/><text x="900.1" y="1050" class="f">Enterprise Mobility + Security E3  <tspan x="1012.7" dy="1.2em" class="i">(EMS E3)</tspan></text></a><a target="_blank" href="https://m365maps.com/"><rect x="16" y="16" width="1440" height="64" class="j"/><text x="546.6" y="62.4" class="k">Microsoft 365 F1</text></a><rect x="16" y="80" width="1440" height="32" rx="8" ry="8" class="l"/><text x="654.3" y="105" class="m">March 2023</text><a target="_blank" href="https://m365maps.com/"><rect x="16" y="112" width="1440" height="32" class="j"/><text x="668.5" y="133.4" class="n">m365maps.com</text></a><a target="_blank" href="https://products.office.com/microsoft-teams/"><rect x="256" y="592" width="96" height="80" rx="8" ry="8" class="o" data-feature="543B8269-DF36-CC4B-9823-FB05B4D1A849"/><text x="272.5" y="627.8" class="p">Microsoft <tspan x="281.8" dy="1.2em" class="i">Teams</tspan></text></a><a target="_blank" href="https://learn.microsoft.com/sharepoint/introduction"><rect x="256" y="688" width="96" height="80" rx="8" ry="8" class="o" data-feature="1F2336EF-5D0C-1345-A67D-B8B1D5807E45"/><text x="267" y="723.8" class="p">SharePoint <tspan x="261.2" dy="1.2em" class="i">Online Kiosk</tspan></text></a><a target="_blank" href="https://learn.microsoft.com/stream/"><rect x="368" y="688" width="96" height="80" rx="8" ry="8" class="o" data-feature="DB95A14F-DCD6-7743-9E57-AE0113AF61E6"/><text x="392.3" y="723.8" class="p">Stream <tspan x="380.6" dy="1.2em" class="i">(consume)</tspan></text></a><a target="_blank" href="https://products.office.com/business/task-management-software"><rect x="592" y="592" width="96" height="80" rx="8" ry="8" class="o" data-feature="6D135CF7-EE0E-B745-977C-3364388FF33F"/><text x="614.3" y="636.2" class="p">Planner</text></a><a target="_blank" href="https://support.office.com/sway"><rect x="480" y="688" width="96" height="80" rx="8" ry="8" class="o" data-feature="ED122C37-BAA0-8440-8FEB-21E7B044C63C"/><text x="510.1" y="732.2" class="p">Sway</text></a><a target="_blank" href="https://support.office.com/forms"><rect x="480" y="496" width="96" height="80" rx="8" ry="8" class="o" data-feature="BB2AC066-B28A-BB44-AE1B-D1FB72598720"/><text x="496.5" y="523.4" class="p">Microsoft <tspan x="506.6" dy="1.2em" class="i">Forms </tspan><tspan x="495.1" dy="1.292em" class="q">(consume)</tspan></text></a><a target="_blank" href="https://learn.microsoft.com/office365/servicedescriptions/office-online-service-description/office-online-service-description"><rect x="368" y="592" width="96" height="80" rx="8" ry="8" class="o" data-feature="A0E8EC70-C846-AC45-B82C-D036D8F58F6A"/><text x="396.2" y="619.4" class="p">Office<tspan x="377.5" dy="1.2em" class="i">for the Web </tspan><tspan x="379.8" dy="1.2em" class="i">(read</tspan>-only)</text></a><a target="_blank" href="https://learn.microsoft.com/office365/servicedescriptions/exchange-online-service-description/exchange-online-service-description#feature-availability-across-exchange-online-standalone-plans"><rect x="592" y="400" width="96" height="80" rx="8" ry="8" class="o" data-feature="1F97224E-BB22-114F-B70E-A27C23070C1E"/><text x="606.9" y="427.4" class="p">Exchange <tspan x="597.2" dy="1.2em" class="i">Online Kiosk</tspan><tspan x="606.6" dy="1.2em" class="i">(calendar)</tspan></text></a><a target="_blank" href="https://learn.microsoft.com/microsoft-365/compliance/sensitivity-labels"><rect x="144" y="496" width="96" height="80" rx="8" ry="8" class="o" data-feature="1288BA2E-3A78-2647-8176-0E24BBD5D1D0"/><text x="159" y="518" class="r">Information <tspan x="162.3" dy="1.2em" class="i">Protection</tspan><tspan x="167.3" dy="1.2em" class="i">for M365</tspan><tspan x="151" dy="1.2em" class="i">(from EMS E3)</tspan></text></a><a target="_blank" href="https://learn.microsoft.com/microsoft-365/bookings/bookings-overview"><rect x="368" y="400" width="96" height="80" rx="8" ry="8" class="o" data-feature="DCC883D8-5878-A246-B691-B5F309BDED3A"/><text x="384.1" y="444.2" class="p">Bookings</text></a><a target="_blank" href="https://learn.microsoft.com/office365/servicedescriptions/onedrive-for-business-service-description"><rect x="480" y="592" width="96" height="80" rx="8" ry="8" class="o" data-feature="96B3F2C3-1008-4F45-B714-7B8DCBFB3119"/><text x="485.6" y="619.4" class="p">OneDrive for <tspan x="496.9" dy="1.2em" class="i">Business </tspan><tspan x="507" dy="1.2em" class="i">(2 GB)</tspan></text></a><a target="_blank" href="https://www.microsoft.com/microsoft-viva/connections"><rect x="592" y="688" width="96" height="80" rx="8" ry="8" class="o" data-feature="213EE8A8-722C-D640-8BD8-008F939E3535"/><text x="625.6" y="723.8" class="p">Viva <tspan x="597.6" dy="1.2em" class="i">Connections</tspan></text></a><a target="_blank" href="https://www.microsoft.com/microsoft-viva/learning"><rect x="256" y="784" width="96" height="80" rx="8" ry="8" class="o" data-feature="C5598362-2311-A84B-933E-19D1583914D4"/><text x="289.6" y="811.4" class="p">Viva <tspan x="274.4" dy="1.2em" class="i">Learning </tspan><tspan x="281.4" dy="1.2em" class="i">(basic)</tspan></text></a><a target="_blank" href="https://www.microsoftpartnercommunity.com/t5/Announcement-Discussions/Microsoft-365-Pricing-and-Audio-Conferencing-Licensing-Updates/td-p/60233#toc-hId--2041231687"><rect x="480" y="304" width="96" height="80" rx="8" ry="8" class="o" data-feature="91D948B6-82D9-E24F-B5C0-77D2E3C6443D"/><text x="509.6" y="332.3" class="s">Audio <tspan x="486.1" dy="1.2em" class="i">Conferencing </tspan><tspan x="488.3" dy="1.2em" class="i">(free add</tspan>-on)</text></a><a target="_blank" href="https://learn.microsoft.com/microsoft-365/compliance/search-the-audit-log-in-security-and-compliance"><rect x="592" y="304" width="96" height="80" rx="8" ry="8" class="o" data-feature="E67D07C0-53F5-FB41-B04D-D30974A72A1F"/><text x="622.1" y="339.8" class="p">Audit <tspan x="608.2" dy="1.292em" class="q">(standard)</tspan></text></a><a target="_blank" href="https://learn.microsoft.com/microsoft-365/compliance/alert-policies"><rect x="368" y="304" width="96" height="80" rx="8" ry="8" class="o" data-feature="A46AE7F8-3904-944A-9E4B-B3138DAB33CC"/><text x="400" y="339.8" class="p">Alert <tspan x="389.5" dy="1.2em" class="i">Policies</tspan></text></a><a target="_blank" href="https://learn.microsoft.com/viva/engage/overview"><rect x="144" y="784" width="96" height="80" rx="8" ry="8" class="o" data-feature="12330CC8-93BE-E043-8231-12CEA55876CC"/><text x="177.6" y="819.8" class="p">Viva <tspan x="166.7" dy="1.2em" class="i">Engage</tspan></text></a><a target="_blank" href="https://learn.microsoft.com/microsoft-365/compliance/compliance-manager-overview"><rect x="480" y="400" width="96" height="80" rx="8" ry="8" class="o" data-feature="5AE727ED-3979-B649-A986-6BA7098735F1"/><text x="488.3" y="435.8" class="p">Compliance <tspan x="499.2" dy="1.2em" class="i">Manager</tspan></text></a><a target="_blank" href="https://learn.microsoft.com/microsoft-365/security/defender/microsoft-secure-score"><rect x="144" y="688" width="96" height="80" rx="8" ry="8" class="o" data-feature="96B903EE-221F-DC4D-90C0-AE7FDE8D31CA"/><text x="168.6" y="723.8" class="p">Secure <tspan x="172.6" dy="1.2em" class="i">Score</tspan></text></a><a target="_blank" href="https://learn.microsoft.com/microsoft-365/admin/adoption/adoption-score"><rect x="256" y="304" width="96" height="80" rx="8" ry="8" class="o" data-feature="DED671DE-3A0F-C747-B5D8-5EE47650A117"/><text x="273.3" y="339.8" class="p">Adoption <tspan x="284.6" dy="1.2em" class="i">Score</tspan></text></a><a target="_blank" href="https://learn.microsoft.com/microsoft-365/admin/activity-reports/activity-reports"><rect x="144" y="304" width="96" height="80" rx="8" ry="8" class="o" data-feature="550D7638-34DC-364E-8932-11FAF49F5D4B"/><text x="166.7" y="339.8" class="p">Activity <tspan x="165.6" dy="1.2em" class="i">Reports</tspan></text></a><rect x="768" y="544" width="576" height="432" rx="8" ry="8" class="t" data-feature="1F1086A6-7FCA-5E4C-A18A-BC78EFEB4ABB" data-group=""/><a target="_blank" href="https://azure.microsoft.com/pricing/details/active-directory/"><rect x="768" y="928" width="576" height="48" rx="8" ry="8" class="l" data-feature="1F1086A6-7FCA-5E4C-A18A-BC78EFEB4ABB" data-header=""/><text x="987.5" y="947.2" class="u">Azure AD Premium <tspan x="1033.3" dy="1.2em" class="i">Plan 1</tspan></text></a><a target="_blank" href="https://www.microsoft.com/microsoft-365/microsoft-lists"><rect x="592" y="496" width="96" height="80" rx="8" ry="8" class="o" data-feature="F9326F34-585B-0E4F-ADB9-333C255E15E7"/><text x="608.5" y="531.8" class="p">Microsoft <tspan x="623.7" dy="1.2em" class="i">Lists</tspan></text></a><a target="_blank" href="https://learn.microsoft.com/azure/active-directory/reports-monitoring/"><rect x="896" y="560" width="96" height="80" rx="8" ry="8" class="v" data-feature="15F96782-5680-4241-B985-A5B60EF8874D"/><text x="910.6" y="579" class="p">Advanced <tspan x="916.4" dy="1.2em" class="i">Security </tspan><tspan x="910.6" dy="1.2em" class="i">Reports &amp; </tspan><tspan x="924.2" dy="1.2em" class="i">Alerts</tspan></text></a><a target="_blank" href="https://learn.microsoft.com/azure/active-directory/hybrid/how-to-connect-sso"><rect x="784" y="848" width="96" height="80" rx="8" ry="8" class="v" data-feature="97E7B551-14BA-864E-B072-BDF675691663"/><text x="791.2" y="875.4" class="p">Single-Sign-<tspan x="794.3" dy="1.2em" class="i">On to other </tspan><tspan x="814.9" dy="1.2em" class="i">SaaS</tspan></text></a><a target="_blank" href="https://learn.microsoft.com/azure/active-directory/manage-apps/application-proxy"><rect x="1008" y="560" width="96" height="80" rx="8" ry="8" class="v" data-feature="47F0B490-1358-5F4B-9A7C-801110EA9C28"/><text x="1019" y="587.4" class="p">App Proxy, <tspan x="1024.9" dy="1.2em" class="i">including </tspan><tspan x="1016.3" dy="1.2em" class="i">PingAccess</tspan></text></a><a target="_blank" href="https://learn.microsoft.com/azure/active-directory/authentication/concept-mfa-howitworks"><rect x="784" y="752" width="96" height="80" rx="8" ry="8" class="v" data-feature="16776ADB-C861-984C-A523-632D5B6401E8"/><text x="792" y="787.8" class="p">Multi-Factor <tspan x="794.3" dy="1.2em" class="i">Auth (MFA)</tspan></text></a><a target="_blank" href="https://learn.microsoft.com/azure/active-directory/hybrid/whatis-azure-ad-connect#what-is-azure-ad-connect-health"><rect x="1120" y="560" width="96" height="80" rx="8" ry="8" class="v" data-feature="884DFD2F-1CB1-F845-AA6F-4D998025F92F"/><text x="1136.5" y="587.4" class="p">Azure AD <tspan x="1140" dy="1.2em" class="i">Connect </tspan><tspan x="1146.6" dy="1.2em" class="i">Health</tspan></text></a><a target="_blank" href="https://learn.microsoft.com/cloud-app-security/set-up-cloud-discovery"><rect x="1232" y="560" width="96" height="80" rx="8" ry="8" class="v" data-feature="100F02FD-5685-4E42-AD7A-61F61A466208"/><text x="1244.6" y="595.8" class="p">Cloud App <tspan x="1246.5" dy="1.2em" class="i">Discovery</tspan></text></a><a target="_blank" href="https://learn.microsoft.com/azure/active-directory/users-groups-roles/users-sharing-accounts"><rect x="1232" y="752" width="96" height="80" rx="8" ry="8" class="v" data-feature="2C4C85AB-F365-6E45-B0F0-11A76CCBCC41"/><text x="1256.3" y="771" class="p">Shared <tspan x="1252" dy="1.2em" class="i">Account </tspan><tspan x="1246.9" dy="1.2em" class="i">Password </tspan><tspan x="1248.5" dy="1.2em" class="i">Roll</tspan>-Over</text></a><a target="_blank" href="https://learn.microsoft.com/azure/active-directory/authentication/concept-sspr-howitworks"><rect x="1120" y="752" width="96" height="80" rx="8" ry="8" class="v" data-feature="A1C4145B-80F8-E54D-825B-F69A9FB27C1F"/><text x="1127.9" y="779.4" class="p">Self-Service <tspan x="1134.9" dy="1.2em" class="i">Password </tspan><tspan x="1128.7" dy="1.2em" class="i">Reset in AD</tspan></text></a><a target="_blank" href="https://learn.microsoft.com/azure/active-directory/users-groups-roles/groups-self-service-management"><rect x="1008" y="752" width="96" height="80" rx="8" ry="8" class="v" data-feature="B9B02C39-8262-5A46-9A2C-C50F858D9437"/><text x="1015.9" y="779.4" class="p">Self-Service <tspan x="1035" dy="1.2em" class="i">Group </tspan><tspan x="1013.2" dy="1.2em" class="i">Management</tspan></text></a><a target="_blank" href="https://learn.microsoft.com/azure/active-directory/conditional-access/overview"><rect x="784" y="656" width="96" height="80" rx="8" ry="8" class="v" data-feature="95878F29-DE69-BB49-81E1-96E68B0D606F"/><text x="793.5" y="691.8" class="p">Conditional <tspan x="807.5" dy="1.2em" class="i">Access</tspan></text></a><a target="_blank" href="https://learn.microsoft.com/azure/active-directory/external-identities/"><rect x="1120" y="656" width="96" height="80" rx="8" ry="8" class="v" data-feature="DBDF5582-91DD-DB4B-9F23-D2257087DC9E"/><text x="1140.4" y="691.8" class="p">External <tspan x="1137.3" dy="1.2em" class="i">Identities</tspan></text></a><a target="_blank" href="https://learn.microsoft.com/azure/active-directory/devices/enterprise-state-roaming-overview"><rect x="1008" y="656" width="96" height="80" rx="8" ry="8" class="v" data-feature="8A4424BC-A80A-D04F-BB5D-7988A0D742C5"/><text x="1021.4" y="683.4" class="p">Enterprise <tspan x="1038.9" dy="1.2em" class="i">State </tspan><tspan x="1026.1" dy="1.2em" class="i">Roaming</tspan></text></a><a target="_blank" href="https://learn.microsoft.com/azure/active-directory/governance/active-directory-tou"><rect x="1120" y="848" width="96" height="80" rx="8" ry="8" class="v" data-feature="00419498-969D-3540-BF87-0260AB26BA11"/><text x="1138.4" y="883.8" class="p">Terms of <tspan x="1155.2" dy="1.2em" class="i">Use</tspan></text></a><a target="_blank" href="https://learn.microsoft.com/azure/active-directory/authentication/concept-password-ban-bad"><rect x="896" y="752" width="96" height="80" rx="8" ry="8" class="v" data-feature="B3AB70BB-44D7-9B4F-9CE2-4E795E6B473A"/><text x="910.9" y="787.8" class="p">Password <tspan x="909.4" dy="1.2em" class="i">Protection</tspan></text></a><a target="_blank" href="https://learn.microsoft.com/microsoft-identity-manager/"><rect x="1232" y="656" width="96" height="80" rx="8" ry="8" class="v" data-feature="9D38115A-5FEA-9240-8F13-5336528BA9D3"/><text x="1248.5" y="683.4" class="p">Microsoft <tspan x="1255.1" dy="1.2em" class="i">Identity </tspan><tspan x="1251.2" dy="1.2em" class="i">Manager</tspan></text></a><a target="_blank" href="https://learn.microsoft.com/azure/active-directory/roles/administrative-units"><rect x="784" y="560" width="96" height="80" rx="8" ry="8" class="v" data-feature="F4B7FD10-FA96-8947-AA92-7EBE73BFC9C6"/><text x="790.3" y="596.4" class="r">Administrative <tspan x="817" dy="1.2em" class="i">Units</tspan></text></a><a target="_blank" href="https://learn.microsoft.com/azure/active-directory/enterprise-users/groups-create-rule"><rect x="896" y="656" width="96" height="80" rx="8" ry="8" class="v" data-feature="1B2DD13A-482A-8A40-82DE-97AEC6A842C2"/><text x="914.8" y="691.8" class="p">Dynamic <tspan x="919.1" dy="1.2em" class="i">Groups</tspan></text></a><a target="_blank" href="https://learn.microsoft.com/azure/active-directory/authentication/howto-authentication-sms-signin"><rect x="896" y="848" width="96" height="80" rx="8" ry="8" class="v" data-feature="1F70EEED-D208-FC48-8B14-D3D4A5745A1D"/><text x="903.2" y="892.2" class="p">SMS Sign-In</text></a><a target="_blank" href="https://learn.microsoft.com/azure/active-directory/authentication/howto-authentication-temporary-access-pass"><rect x="1008" y="848" width="96" height="80" rx="8" ry="8" class="v" data-feature="9770865D-C7BF-2649-9B29-C5BC1A929F4F"/><text x="1019.8" y="883.8" class="p">Temporary <tspan x="1013.2" dy="1.2em" class="i">Access Pass</tspan></text></a><a target="_blank" href="https://learn.microsoft.com/microsoft-365/admin/basic-mobility-security/capabilities"><rect x="256" y="400" width="96" height="80" rx="8" ry="8" class="o" data-feature="8330882F-39BB-5D48-A321-46276FC0F1B8"/><text x="285.3" y="427.4" class="p">Basic <tspan x="270.6" dy="1.2em" class="i">Mobility &amp; </tspan><tspan x="276.4" dy="1.2em" class="i">Security</tspan></text></a><a target="_blank" href="https://azure.microsoft.com/pricing/details/active-directory/"><rect x="144" y="400" width="96" height="80" rx="8" ry="8" class="o" data-feature="3E639B79-39CA-2141-81C1-BB7B9E63CE75"/><text x="149.2" y="435.8" class="p">Azure AD for <tspan x="158.5" dy="1.2em" class="i">Office 365</tspan></text></a><a target="_blank" href="https://learn.microsoft.com/microsoftsearch/overview-microsoft-search"><rect x="144" y="592" width="96" height="80" rx="8" ry="8" class="o" data-feature="3DF10631-B76A-1D47-9EB0-71A21637557F"/><text x="160.5" y="627.8" class="p">Microsoft <tspan x="168.6" dy="1.2em" class="i">Search</tspan></text></a><a target="_blank" href="https://learn.microsoft.com/microsoft-365/compliance/ome"><rect x="256" y="496" width="96" height="80" rx="8" ry="8" class="o" data-feature="50B3A769-5F38-BC4E-9856-7CCFDDAB1DD3"/><text x="274.4" y="516.2" class="p">Message <tspan x="267.4" dy="1.2em" class="i">Encryption </tspan><tspan x="281.4" dy="1.2em" class="i">(basic)</tspan><tspan x="263" dy="1.25em" class="w">(from EMS E3)</tspan></text></a><rect x="368" y="784" width="320" height="80" rx="8" ry="8" class="l"/><text x="372" y="809.6" class="x">Limitations: <tspan x="386.2" dy="1.312em" class="y">·</tspan><tspan class="y"></tspan><tspan class="z">No access to productivity servers </tspan><tspan x="386.2" dy="1.216em" class="y">·</tspan><tspan class="y"></tspan><tspan class="z">No Outlook Desktop access</tspan></text><a target="_blank" href="https://learn.microsoft.com/advanced-threat-analytics/"><rect x="1136" y="304" width="96" height="80" rx="8" ry="8" class="ba" data-feature="58F50BBE-9314-E84E-AA5D-7ABC87C23161"/><text x="1150.6" y="323" class="p">Advanced <tspan x="1162.6" dy="1.2em" class="i">Threat </tspan><tspan x="1152.9" dy="1.2em" class="i">Analytics </tspan><tspan x="1155.2" dy="1.2em" class="i">(retiring)</tspan></text></a><a target="_blank" href="https://learn.microsoft.com/azure/information-protection/what-is-information-protection"><rect x="1136" y="400" width="96" height="80" rx="8" ry="8" class="ba" data-feature="B1C476C7-DF1F-FB4A-BC58-ED0E2C2C1F4A"/><text x="1145.5" y="435.8" class="p">Information <tspan x="1149.4" dy="1.2em" class="i">Protection</tspan></text></a><a target="_blank" href="https://www.microsoft.com/licensing/product-licensing/client-access-license"><rect x="1248" y="400" width="96" height="80" rx="8" ry="8" class="ba" data-feature="8CC59B6D-A665-A646-97CA-AE9B51F0653D"/><text x="1265.3" y="427.4" class="p">Windows <tspan x="1257.9" dy="1.2em" class="i">Server CAL </tspan><tspan x="1274.2" dy="1.2em" class="i">Rights</tspan></text></a><a target="_blank" href="https://learn.microsoft.com/sccm/protect/deploy-use/endpoint-protection"><rect x="1024" y="400" width="96" height="80" rx="8" ry="8" class="ba" data-feature="A0D08C85-BA3B-7540-AD6C-7BD1FAD0A5C8"/><text x="1049.8" y="419" class="p">Config <tspan x="1043.2" dy="1.2em" class="i">Manager </tspan><tspan x="1041.7" dy="1.2em" class="i">Endpoint </tspan><tspan x="1037.4" dy="1.2em" class="i">Protection</tspan></text></a><a target="_blank" href="https://learn.microsoft.com/azure/information-protection/compare-on-premise"><rect x="1024" y="304" width="96" height="80" rx="8" ry="8" class="ba" data-feature="18083F2D-BB19-3B44-B7C0-B07BBEFDBA89"/><text x="1051" y="331.4" class="p">Active <tspan x="1041.3" dy="1.2em" class="i">Directory </tspan><tspan x="1056.4" dy="1.2em" class="i">RMS</tspan></text></a><a target="_blank" href="https://learn.microsoft.com/azure/information-protection/what-is-azure-rms"><rect x="1248" y="304" width="96" height="80" rx="8" ry="8" class="ba" data-feature="4AF1E05B-6B8D-184B-8A15-EFB3F08AD799"/><text x="1276.6" y="339.8" class="p">Azure <tspan x="1280.4" dy="1.2em" class="i">RMS</tspan></text></a><rect x="768" y="288" width="240" height="240" rx="8" ry="8" class="bb" data-feature="72F7F5F7-0D1C-2840-9FCC-42923DEF66B0" data-group=""/><a target="_blank" href="https://learn.microsoft.com/mem/intune/fundamentals/what-is-intune"><rect x="768" y="480" width="240" height="48" rx="8" ry="8" class="l" data-feature="72F7F5F7-0D1C-2840-9FCC-42923DEF66B0" data-header=""/><text x="865.8" y="499.2" class="u">Intune <tspan x="865.3" dy="1.2em" class="i">Plan 1</tspan></text></a><a target="_blank" href="https://learn.microsoft.com/mem/intune/fundamentals/manage-apps"><rect x="784" y="304" width="96" height="80" rx="8" ry="8" class="bc" data-feature="38A6053F-F98E-E44C-8084-998397ACEA36"/><text x="793.9" y="339.8" class="p">Application <tspan x="789.2" dy="1.2em" class="i">Management</tspan></text></a><a target="_blank" href="https://learn.microsoft.com/mem/intune/fundamentals/manage-devices"><rect x="784" y="400" width="96" height="80" rx="8" ry="8" class="bc" data-feature="50D5B6AB-0B7A-144F-8C7C-DAC4EDF9E9B2"/><text x="809.4" y="435.8" class="p">Device <tspan x="789.2" dy="1.2em" class="i">Management</tspan></text></a><a target="_blank" href="https://learn.microsoft.com/configmgr/core/understand/introduction"><rect x="896" y="304" width="96" height="80" rx="8" ry="8" class="bc" data-feature="0B8DFA69-643F-D844-96F6-C74DC8192940"/><text x="921.8" y="339.8" class="p">Config <tspan x="915.2" dy="1.2em" class="i">Manager</tspan></text></a><a target="_blank" href="https://learn.microsoft.com/mem/analytics/overview"><rect x="896" y="400" width="96" height="80" rx="8" ry="8" class="bc" data-feature="AFD49B44-7348-B441-B024-5C7720D4F9D7"/><text x="913.7" y="435.8" class="p">Endpoint <tspan x="912.9" dy="1.2em" class="i">Analytics</tspan></text></a><a target="_blank" href="https://www.microsoft.com/microsoft-365/mobile"><rect x="368" y="496" width="96" height="80" rx="8" ry="8" class="o" data-feature="6E7D2ACF-ECB0-0748-BC79-4D1931250DB5"/><text x="384.5" y="515" class="p">Microsoft <tspan x="380.2" dy="1.2em" class="i">365 Mobile </tspan><tspan x="402.4" dy="1.2em" class="i">App </tspan><tspan x="379.8" dy="1.2em" class="i">(read</tspan>-only)</text></a><a target="_blank" href="https://learn.microsoft.com/azure/active-directory/conditional-access/controls#custom-controls-preview"><rect x="1232" y="848" width="96" height="80" rx="8" ry="8" class="v" data-feature="99B8D3F2-2140-D846-8972-32A16D1C07C1"/><text x="1249.6" y="875.4" class="p">3rd Party <tspan x="1264.8" dy="1.2em" class="i">MFA </tspan><tspan x="1243.8" dy="1.2em" class="i">Integration</tspan></text></a></svg>