<svg xmlns="http://www.w3.org/2000/svg" width="416" height="1040" viewBox="0 0 416 1040" class="a"><style>
.b {fill:#a5a5a5;fill-opacity:0.2;stroke:#d04a00;stroke-linecap:round;stroke-linejoin:round;stroke-width:2.25}
.c {fill:#a5a5a5;fill-opacity:0.2;stroke:#e82200;stroke-dasharray:15.75,11.25;stroke-linecap:round;stroke-linejoin:round;stroke-width:2.25}
.d {fill:#a5a5a5;fill-opacity:0.2;stroke:#c42500;stroke-dasharray:2.25,4.5;stroke-linecap:round;stroke-linejoin:round;stroke-width:2.25}
.e {fill:#d04a00;stroke:#d04a00;stroke-linecap:round;stroke-linejoin:round;stroke-width:2.25}
.f {fill:#ffffff;font-family:Arial;font-size:1.5em;font-weight:bold}
.g {fill:#21a366;stroke:none;stroke-linecap:butt;stroke-width:9.5625}
.h {fill:#33c481;stroke:none;stroke-linecap:butt;stroke-width:9.5625}
.i {fill:#185c37;stroke:none;stroke-linecap:butt;stroke-width:9.5625}
.j {fill:#107c41;stroke:none;stroke-linecap:butt;stroke-width:9.5625}
.k {fill:#000000;fill-opacity:0.2;stroke:none;stroke-linecap:butt;stroke-width:9.5625}
.l {fill:#000000;fill-opacity:0.098;stroke:none;stroke-linecap:butt;stroke-width:9.5625}
.m {fill:#ffffff;stroke:none;stroke-linecap:butt;stroke-width:9.5625}
.n {fill:#000000;font-family:Arial;font-size:0.916672em;font-weight:bold}
.o {fill:#41a5ee;stroke:none;stroke-linecap:butt;stroke-width:9.5625}
.p {fill:#2b7cd3;stroke:none;stroke-linecap:butt;stroke-width:9.5625}
.q {fill:#185abd;stroke:none;stroke-linecap:butt;stroke-width:9.5625}
.r {fill:#103f91;stroke:none;stroke-linecap:butt;stroke-width:9.5625}
.s {fill:#d35230;stroke:none;stroke-linecap:butt;stroke-width:9.5625}
.t {fill:#ff8f6b;stroke:none;stroke-linecap:butt;stroke-width:9.5625}
.u {fill:#ed6c47;stroke:none;stroke-linecap:butt;stroke-width:9.5625}
.v {fill:#c43e1c;stroke:none;stroke-linecap:butt;stroke-width:9.5625}
.w {fill:#123b6d;stroke:none;stroke-linecap:butt;stroke-width:9.5625}
.x {fill:#0364b8;stroke:none;stroke-linecap:butt;stroke-width:9.5625}
.y {fill:#0358a7;stroke:none;stroke-linecap:butt;stroke-width:9.5625}
.z {fill:#0078d4;stroke:none;stroke-linecap:butt;stroke-width:9.5625}
.ba {fill:#28a8ea;stroke:none;stroke-linecap:butt;stroke-width:9.5625}
.bb {fill:#50d9ff;stroke:none;stroke-linecap:butt;stroke-width:9.5625}
.bc {fill:#14447d;stroke:none;stroke-linecap:butt;stroke-width:9.5625}
.bd {fill:#35b8f1;stroke:none;stroke-linecap:butt;stroke-width:9.5625}
.be {fill:#1490df;stroke:none;stroke-linecap:butt;stroke-width:9.5625}
.bf {fill:#0a2767;fill-opacity:0.5;stroke:none;stroke-linecap:butt;stroke-width:9.5625}
.bg {fill:#0f78d4;stroke:none;stroke-linecap:butt;stroke-width:9.5625}
.bh {fill:#000000;fill-opacity:0.047;stroke:none;stroke-linecap:butt;stroke-width:9.5625}
.bi {fill:#ca64ea;stroke:none;stroke-linecap:butt;stroke-width:9.5625}
.bj {fill:#ae4bd5;stroke:none;stroke-linecap:butt;stroke-width:9.5625}
.bk {fill:#9332bf;stroke:none;stroke-linecap:butt;stroke-width:9.5625}
.bl {fill:#7719aa;stroke:none;stroke-linecap:butt;stroke-width:9.5625}
.bm {fill:#881421;stroke:none;stroke-linecap:butt;stroke-width:9.5625}
.bn {fill:#af2031;stroke:none;stroke-linecap:butt;stroke-width:9.5625}
.bo {fill:#c94f60;stroke:none;stroke-linecap:butt;stroke-width:9.5625}
.bp {fill:#e08095;stroke:none;stroke-linecap:butt;stroke-width:9.5625}
.bq {fill:#038387;stroke:none;stroke-linecap:butt;stroke-width:9.5625}
.br {fill:#37c6d0;stroke:none;stroke-linecap:butt;stroke-width:9.5625}
.bs {fill:#1a9ba1;stroke:none;stroke-linecap:butt;stroke-width:9.5625}
.bt {font-size:1em}
.bu {fill:#ffffff}
.bv {stroke:none;stroke-linecap:butt;stroke-width:9.5625}
.bw {fill:none;stroke:none;stroke-linecap:butt;stroke-width:9.5625}
.bx {fill:#e82200;stroke:none;stroke-linecap:round;stroke-linejoin:round;stroke-width:2.25}
.by {fill:#ffffff;font-family:Arial;font-size:1.00001em;font-weight:bold}
.bz {fill:#e82200;stroke:#e82200;stroke-linecap:round;stroke-linejoin:round;stroke-width:2.25}
.ca {fill:#d04a00;stroke:none;stroke-linecap:round;stroke-linejoin:round;stroke-width:2.25}
.cb {fill:#0b5b50;stroke:none;stroke-linecap:butt;stroke-width:9.5625}
.cc {fill:#047769;stroke:none;stroke-linecap:butt;stroke-width:9.5625}
.cd {fill:#30e5d0;stroke:none;stroke-linecap:butt;stroke-width:9.5625}
.ce {fill:#24cdb9;stroke:none;stroke-linecap:butt;stroke-width:9.5625}
.cf {fill:#0c9d8c;stroke:none;stroke-linecap:butt;stroke-width:9.5625}
.cg {fill:none;stroke:none;stroke-linecap:round;stroke-linejoin:round;stroke-width:0.75}
.ch {fill:#7f7f7f;font-family:Arial;font-size:1.00001em}
.ci {fill:url(#grad0-313);stroke:none;stroke-linecap:butt;stroke-width:0.75}
.cj {fill:#5a4cdb;stroke:none;stroke-linecap:butt;stroke-width:0.75}
.ck {fill:#885ede;stroke:none;stroke-linecap:butt;stroke-width:0.75}
.cl {fill:#aa72e1;stroke:none;stroke-linecap:butt;stroke-width:0.75}
.cm {fill:url(#grad0-323);stroke:none;stroke-linecap:butt;stroke-width:0.75}
.cn {fill:#c689e6;stroke:none;stroke-linecap:butt;stroke-width:0.75}
.co {fill:#c42500;stroke:#c42500;stroke-linecap:round;stroke-linejoin:round;stroke-width:2.25}
.cp {fill:#c42500;stroke:none;stroke-linecap:round;stroke-linejoin:round;stroke-width:2.25}
.a {fill:none;fill-rule:evenodd;font-size:12px;overflow:visible;stroke-linecap:square;stroke-miterlimit:3}
</style><defs><linearGradient id="grad0-313" x1="0" y1="0" x2="1" y2="0" gradientTransform="rotate(32.235784290807 0.5 0.5)"><stop offset="0" stop-color="#fccef5" stop-opacity="1"/><stop offset="1" stop-color="#5a4cdb" stop-opacity="1"/></linearGradient><linearGradient id="grad0-323" x1="0" y1="0" x2="1" y2="0" gradientTransform="rotate(64.2678045674 0.5 0.5)"><stop offset="0" stop-color="#5a4cdb" stop-opacity="1"/><stop offset="1" stop-color="#ad58db" stop-opacity="1"/></linearGradient></defs><rect x="16" y="16" width="384" height="1008" rx="8" ry="8" class="b"/><rect x="32" y="176" width="352" height="832" rx="8" ry="8" class="c"/><rect x="208" y="688" width="160" height="304" rx="8" ry="8" class="d"/><a target="_blank" href="https://www.microsoft.com/microsoft-365/p/office-365-home/cfq7ttc0k5dm"><rect x="16" y="16" width="384" height="32" rx="8" ry="8" class="e"/><text x="119" y="37.4" class="f">Microsoft 365 Family</text></a><a target="_blank" href="https://www.microsoft.com/microsoft-365/excel"><g transform="translate(64,-632)"><path d="M24.44 1006.87 L2.68 1006.87 C1.28 1006.87 0 1008.03 0 1009.43 L0 1020.87 L24.44 1040 L48.87 1034.87  L48.87 1020.87 L24.44 1006.87 Z" class="g" transform="translate(15.1273,-22.8667)"/><path d="M21.76 1026 L0 1026 L0 1040 L24.44 1040 L24.44 1028.68 C24.44 1027.28 23.27 1026 21.76 1026 Z" class="h" transform="translate(39.5636,-42)"/><path d="M0 998 L0 1037.32 C0 1038.72 1.16 1040 2.56 1040 L46.2 1040 C47.59 1040 48.87 1038.83 48.87 1037.43  L48.87 1026 L0 998 Z" class="i" transform="translate(15.1273,0)"/><rect x="15.1" y="998" width="24.4" height="14" class="j"/><path d="M18.62 1006.63 L18.62 1037.78 C18.39 1039.07 17.22 1040 15.94 1040 L0 1040 L0 1003.95 L15.94 1003.95  C17.34 1003.95 18.62 1005.12 18.62 1006.63 Z" class="k" transform="translate(15.1273,-8.28333)"/><path d="M19.78 1007.8 L19.78 1036.15 C19.78 1038.25 18.04 1040 15.94 1040 L0 1040 L0 1003.95 L15.94 1003.95  C18.04 1003.95 19.78 1005.7 19.78 1007.8 Z" class="l" transform="translate(15.1273,-9.45)"/><path d="M18.62 1008.97 L18.62 1037.32 C18.62 1038.72 17.45 1040 16.06 1040 L0 1040 L0 1006.28 L15.94 1006.28  C17.34 1006.28 18.62 1007.45 18.62 1008.97 Z" class="k" transform="translate(15.1273,-10.6167)"/><path d="M17.45 1008.97 L17.45 1037.32 C17.45 1038.72 16.29 1040 14.89 1040 L0 1040 L0 1006.28 L14.78 1006.28  C16.17 1006.28 17.45 1007.45 17.45 1008.97 Z" class="l" transform="translate(15.1273,-10.6167)"/><path d="M2.68 1007.33 L29.79 1007.33 C31.19 1007.33 32.47 1008.5 32.47 1009.9 L32.47 1037.2 C32.47 1038.6 31.3  1039.88 29.91 1039.88 L2.68 1039.88 C1.28 1040 0.12 1038.95 0 1037.67 L0 1010.02 C0 1008.62 1.16  1007.33 2.68 1007.33 Z" class="j" transform="translate(-3.15747E-13,-11.6667)"/><path d="M0 1040 L5.7 1031.13 L0.47 1022.27 L4.65 1022.27 L7.56 1027.87 C7.68 1028.22 7.91 1028.68 8.15 1029.03  C8.38 1028.57 8.49 1028.22 8.73 1027.75 L11.75 1022.15 L15.59 1022.15 L10.24 1031.02 L15.71 1039.88  L11.64 1039.88 L8.38 1033.7 C8.26 1033.47 8.15 1033.12 8.03 1032.88 C7.91 1033.12 7.8 1033.47 7.68  1033.7 L4.31 1039.88 L0 1040 Z" class="m" transform="translate(8.37818,-19.1333)"/><rect x="39.6" y="1012" width="24.4" height="14" class="j"/><text x="17.6" y="1059.9" class="n">Excel</text></g></a><a target="_blank" href="https://www.microsoft.com/microsoft-365/word"><g transform="translate(176,-408)"><path d="M46.16 1020.17 L2.72 1020.17 A2.71515 2.72222 -180 0 0 0 1022.89 L0 1034.17 L25.6 1040 L48.87 1034.17  L48.87 1022.89 A2.71515 2.72222 -180 0 0 46.16 1020.17 Z" class="o" transform="translate(15.1273,-36.1667)"/><path d="M48.87 1019 L0 1019 L0 1033 L25.6 1040 L48.87 1033 L48.87 1019 Z" class="p" transform="translate(15.1273,-21)"/><path d="M0 1017.83 L0 1031.83 L25.6 1040 L48.87 1031.83 L48.87 1017.83 L0 1017.83 Z" class="q" transform="translate(15.1273,-5.83333)"/><path d="M2.72 1040 L46.16 1040 A2.71515 2.72222 -180 0 0 48.87 1037.28 L48.87 1026 L0 1026 L0 1037.28 A2.71515  2.72222 -180 0 0 2.72 1040 Z" class="r" transform="translate(15.1273,0)"/><path d="M18.62 1006.55 L18.62 1037.28 A2.01826 2.02351 0 0 1 18.57 1037.75 A2.6924 2.69941 0 0 1 15.91 1040  L0 1040 L0 1003.83 L15.91 1003.83 A2.70662 2.71367 0 0 1 18.62 1006.55 Z" class="k" transform="translate(15.1273,-8.16667)"/><path d="M19.78 1007.72 L19.78 1036.11 A3.91181 3.92199 0 0 1 15.91 1040 L0 1040 L0 1003.83 L15.91 1003.83 A3.88861  3.89873 0 0 1 19.78 1007.72 Z" class="l" transform="translate(15.1273,-9.33333)"/><path d="M18.62 1008.89 L18.62 1037.28 A2.70662 2.71367 0 0 1 15.91 1040 L0 1040 L0 1006.17 L15.91 1006.17 A2.70662  2.71367 0 0 1 18.62 1008.89 Z" class="k" transform="translate(15.1273,-10.5)"/><path d="M17.45 1008.89 L17.45 1037.28 A2.70662 2.71367 0 0 1 14.74 1040 L0 1040 L0 1006.17 L14.74 1006.17 A2.70662  2.71367 0 0 1 17.45 1008.89 Z" class="l" transform="translate(15.1273,-10.5)"/><path d="M0 1037.28 A2.71521 2.72228 -180 0 0 2.72 1040 L29.87 1040 A2.71521 2.72228 -180 0 0 32.58 1037.28 L32.58  1010.06 A2.71521 2.72228 -180 0 0 29.87 1007.33 L2.72 1007.33 A2.71521 2.72228 -180 0 0 0 1010.06  L0 1037.28 Z" class="q" transform="translate(-3.25739E-13,-11.6667)"/><path d="M6.16 1035.69 C6.21 1036.11 6.25 1036.48 6.26 1036.79 L6.33 1036.79 C6.35 1036.5 6.4 1036.14 6.47 1035.72  C6.54 1035.3 6.6 1034.95 6.67 1034.66 L9.53 1022.31 L13.22 1022.31 L16.17 1034.47 A17.6068 17.6527  0 0 1 16.54 1036.77 L16.59 1036.77 A17.476 17.5215 0 0 1 16.9 1034.55 L19.26 1022.31 L22.62 1022.31  L18.49 1040 L14.56 1040 L11.74 1028.28 C11.66 1027.94 11.57 1027.5 11.46 1026.96 C11.36 1026.41  11.3 1026.02 11.27 1025.77 L11.22 1025.77 C11.19 1026.06 11.13 1026.49 11.03 1027.06 C10.94 1027.62  10.86 1028.04 10.81 1028.31 L8.16 1040 L4.17 1040 L0 1022.31 L3.42 1022.31 L5.99 1034.68 C6.05 1034.94  6.11 1035.27 6.16 1035.69 Z" class="m" transform="translate(4.98088,-19.1528)"/><text x="18" y="1059.9" class="n">Word</text></g></a><a target="_blank" href="https://www.microsoft.com/microsoft-365/powerpoint"><g transform="translate(176,-520)"><path d="M55.85 1011.71 L55.85 1012.29 A27.7213 27.7935 0 0 1 28.22 1040 L27.64 1040 A27.52 27.5917 0 0 1 8.1  1031.83 C7.73 1031.46 7.35 1031.06 7.01 1030.67 C6.67 1030.29 6.34 1029.9 6.03 1029.5 A27.4153 27.4867  0 0 1 0 1012.29 L0 1011.71 A27.3455 27.4167 0 0 1 5.15 995.67 A13.7693 13.8052 0 0 1 6.03 994.5  A27.5828 27.6547 0 0 1 27.64 984 L28.22 984 A27.7213 27.7935 0 0 1 55.85 1011.71 Z" class="s" transform="translate(8.14545,0)"/><path d="M27.93 1040 L27.93 1039.73 A27.7434 27.8157 -180 0 0 0.27 1012 L0 1012 L0 1040 L27.93 1040 Z" class="t" transform="translate(36.0727,-28)"/><path d="M0 1039.73 L0 1040 L27.93 1040 L27.93 1012 L27.66 1012 A27.7434 27.8157 -180 0 0 0 1039.73 Z" class="u" transform="translate(8.14545,-28)"/><path d="M25.6 1006.55 L25.6 1037.28 A2.01775 2.023 0 0 1 25.55 1037.75 A2.69265 2.69967 0 0 1 22.89 1040 L8.1  1040 C7.73 1039.63 7.35 1039.23 7.01 1038.83 C6.67 1038.46 6.34 1038.06 6.03 1037.67 A27.4153 27.4867  0 0 1 0 1020.46 L0 1019.87 A27.3455 27.4167 0 0 1 5.15 1003.83 L22.89 1003.83 A2.70662 2.71367 0  0 1 25.6 1006.55 Z" class="k" transform="translate(8.14545,-8.16667)"/><path d="M26.76 1007.72 L26.76 1036.11 A3.91215 3.92233 0 0 1 22.89 1040 L7.01 1040 C6.67 1039.63 6.34 1039.23  6.03 1038.83 A27.4153 27.4867 0 0 1 0 1021.62 L0 1021.04 A27.3455 27.4167 0 0 1 5.15 1005 A13.7693  13.8052 0 0 1 6.03 1003.83 L22.89 1003.83 A3.88887 3.899 0 0 1 26.76 1007.72 Z" class="l" transform="translate(8.14545,-9.33333)"/><path d="M25.6 1008.88 L25.6 1037.28 A2.70662 2.71367 0 0 1 22.89 1040 L6.03 1040 A27.4153 27.4867 0 0 1 0 1022.79  L0 1022.21 A27.3455 27.4167 0 0 1 5.15 1006.17 L22.89 1006.17 A2.70662 2.71367 0 0 1 25.6 1008.88  Z" class="k" transform="translate(8.14545,-10.5)"/><path d="M24.44 1008.88 L24.44 1037.28 A2.70662 2.71367 0 0 1 21.73 1040 L6.03 1040 A27.4153 27.4867 0 0 1 0  1022.79 L0 1022.21 A27.3455 27.4167 0 0 1 5.15 1006.17 L21.73 1006.17 A2.70662 2.71367 0 0 1 24.44  1008.88 Z" class="l" transform="translate(8.14545,-10.5)"/><path d="M-0 1037.28 A2.71599 2.72306 -180 0 0 2.72 1040 L29.87 1040 A2.71599 2.72306 -180 0 0 32.58 1037.28  L32.58 1010.06 A2.71599 2.72306 -180 0 0 29.87 1007.33 L2.72 1007.33 A2.71599 2.72306 -180 0 0 0  1010.06 L0 1037.28 Z" class="v" transform="translate(-3.17746E-13,-11.6667)"/><path d="M7.01 1021.85 A7.17265 7.19133 0 0 1 11.84 1023.31 A5.25847 5.27217 0 0 1 13.52 1027.52 A5.96945 5.985  0 0 1 12.69 1030.67 A5.60058 5.61517 0 0 1 10.33 1032.82 A7.82895 7.84933 0 0 1 6.79 1033.58 L3.44  1033.58 L3.44 1040 L0 1040 L0 1021.85 L7.01 1021.85 ZM3.44 1030.81 L6.4 1030.81 A3.776 3.78583 -180  0 0 9.01 1030.01 A2.99985 3.00767 -180 0 0 9.9 1027.66 C9.9 1025.66 8.77 1024.66 6.51 1024.66 L3.44  1024.66 L3.44 1030.81 Z" class="m" transform="translate(9.8176,-19.0015)"/><text x="1.8" y="1059.9" class="n">PowerPoint</text></g></a><a target="_blank" href="https://www.microsoft.com/microsoft-365/outlook/email-and-calendar-software-microsoft-outlook"><g transform="translate(64,-520.4)"><path d="M48.27 1025.48 A1.38473 1.38833 -180 0 0 47.6 1024.28 L47.59 1024.28 L47.57 1024.26 L25.77 1011.46 A2.97891  2.98667 -180 0 0 25.48 1011.29 A2.94284 2.9505 -180 0 0 22.79 1011.29 A2.97309 2.98083 -180 0 0  22.5 1011.46 L0.7 1024.26 L0.68 1024.28 L0.67 1024.28 A1.39869 1.40233 -180 0 0 0.7 1026.7 L22.5  1039.5 A3.00451 3.01233 -180 0 0 22.79 1039.68 L22.79 1039.68 A2.94284 2.9505 -180 0 0 25.47 1039.68  A3.00567 3.0135 -180 0 0 25.77 1039.5 L47.57 1026.7 A1.38473 1.38833 -180 0 0 48.27 1025.48 Z" class="w" transform="translate(15.6877,-12.2714)"/><rect x="18.1" y="1004.7" width="14.5" height="13.3" class="x"/><path d="M44.22 1040 L44.22 1034.56 A2.7392 2.74633 -180 0 0 41.45 1031.83 L2.76 1031.83 A2.7392 2.74633 -180  0 0 0 1034.56 L0 1040 L44.22 1040 Z" class="y" transform="translate(17.4545,-47.8333)"/><rect x="17.5" y="991" width="15.1" height="14" class="z"/><path d="M0 1012 L15.13 1012 L29.09 1026 L29.09 1040 L15.13 1040 L0 1026 L0 1012 Z" class="ba" transform="translate(32.5818,-21)"/><rect x="47.7" y="991" width="14" height="14" class="bb"/><rect x="32.6" y="1005" width="15.1" height="14" class="z"/><rect x="32.6" y="1019" width="15.1" height="14" class="x"/><rect x="18.1" y="1018" width="14.5" height="12.1" class="bc"/><rect x="47.7" y="1019" width="14" height="12.8" class="z"/><path d="M48.19 1014.27 L48.19 1014.27 L48.17 1014.29 L48.16 1014.29 L26.09 1026.12 A3.1872 3.1955 0 0 1 25.79  1026.28 A3.20465 3.213 0 0 1 24.44 1026.58 C24.41 1026.58 24.39 1026.58 24.36 1026.58 L23.12 1025.89  A3.03825 3.04617 0 0 1 22.82 1025.73 L0.71 1013.56 L0.71 1013.56 L0.7 1013.55 L0 1013.17 L0 1037.13  A2.96611 2.97383 -180 0 0 3.05 1040 L45.9 1040 A3.12087 3.129 -180 0 0 47.71 1039.43 L47.66 1039.4  A2.79855 2.80583 -180 0 0 48.87 1037.13 L48.87 1013.17 A1.26022 1.2635 0 0 1 48.19 1014.27 Z" class="bd" transform="translate(15.1273,2.27374E-13)"/><path d="M48.19 1014.27 L48.17 1014.29 L48.16 1014.29 L26.09 1026.12 A3.10691 3.115 0 0 1 25.79 1026.28 A3.23375  3.24217 0 0 1 23.08 1026.28 A3.10458 3.11267 0 0 1 22.78 1026.12 L0.71 1014.29 L0.71 1014.29 L0.68  1014.27 A1.26138 1.26467 0 0 1 0 1013.17 L0 1037.13 A2.96495 2.97267 -180 0 0 3.05 1040 L45.82 1040  A2.96495 2.97267 -180 0 0 48.87 1037.13 L48.87 1013.17 A1.26138 1.26467 0 0 1 48.19 1014.27 Z" class="be" transform="translate(15.1273,2.27374E-13)"/><path d="M3.06 1040 L45.9 1040 A3.1232 3.13133 -180 0 0 47.71 1039.43 L23.12 1025.89 A3.08713 3.09517 0 0 1 22.82  1025.73 L0.71 1013.56 L0.71 1013.56 L0.7 1013.55 L0 1013.17 L0 1037.04 A3.00567 3.0135 -180 0 0  3.06 1040 Z" class="ba" transform="translate(15.1273,2.27374E-13)"/><path d="M44.22 1027.25 L44.22 1028.57 L23.76 1039.54 C23.67 1039.6 23.56 1039.65 23.47 1039.7 A3.11622 3.12433  0 0 1 22.11 1040 L22.04 1040 L20.79 1039.31 C20.69 1039.26 20.6 1039.21 20.49 1039.15 L0 1027.87  L0 1026.54 L21.06 1038.12 C21.17 1038.19 21.24 1038.23 21.29 1038.26 L22.32 1038.82 A1.93629 1.94133  -180 0 0 22.97 1038.65 C23.03 1038.61 39.78 1029.63 44.22 1027.25 Z" class="bf" transform="translate(17.4545,-13.4167)"/><path d="M18.62 1006.55 L18.62 1037.28 A2.01891 2.02417 0 0 1 18.57 1037.75 A2.69265 2.69967 0 0 1 15.91 1040  L0 1040 L0 1021.33 L0.59 1021.66 A1.17644 1.1795 0 0 1 0.56 1021.38 A1.38822 1.39183 0 0 1 1.23  1020.18 C1.25 1020.17 1.26 1020.17 1.27 1020.15 L2.98 1019.15 L2.98 1013.17 L2.33 1013.17 L2.33  1003.83 L15.91 1003.83 A2.70662 2.71367 0 0 1 18.62 1006.54 L18.62 1006.55 Z" class="k" transform="translate(15.1273,-8.16667)"/><path d="M19.78 1007.72 L19.78 1036.11 A3.91215 3.92233 0 0 1 15.91 1040 L0 1040 L0 1022.5 L0.59 1022.83 A1.17644  1.1795 0 0 1 0.56 1022.55 A1.38822 1.39183 0 0 1 1.23 1021.34 C1.25 1021.33 1.26 1021.33 1.27 1021.32  L2.98 1020.32 L2.98 1014.33 L2.33 1014.33 L2.33 1003.83 L15.91 1003.83 A3.88887 3.899 0 0 1 19.78  1007.72 Z" class="l" transform="translate(15.1273,-9.33333)"/><path d="M18.62 1008.88 L18.62 1037.28 A2.70662 2.71367 0 0 1 15.92 1040 L0 1040 L0 1023.67 L0.59 1023.99 A1.17644  1.1795 0 0 1 0.56 1023.71 A1.38822 1.39183 0 0 1 1.23 1022.51 C1.25 1022.5 1.26 1022.5 1.27 1022.49  L2.98 1021.48 L2.98 1015.5 L2.33 1015.5 L2.33 1006.17 L15.91 1006.17 A2.70662 2.71367 0 0 1 18.62  1008.88 L18.62 1008.88 Z" class="k" transform="translate(15.1273,-10.5)"/><path d="M17.45 1008.88 L17.45 1037.28 A2.70662 2.71367 0 0 1 14.75 1040 L0 1040 L0 1023.67 L0.59 1023.99 A1.17644  1.1795 0 0 1 0.56 1023.71 A1.38822 1.39183 0 0 1 1.23 1022.51 C1.25 1022.5 1.26 1022.5 1.27 1022.49  L2.98 1021.48 L2.98 1015.5 L2.33 1015.5 L2.33 1006.17 L14.74 1006.17 A2.70662 2.71367 0 0 1 17.45  1008.88 L17.45 1008.88 Z" class="l" transform="translate(15.1273,-10.5)"/><path d="M0 1037.28 A2.71483 2.7219 -180 0 0 2.71 1040 L29.87 1040 A2.71483 2.7219 -180 0 0 32.58 1037.28 L32.58  1010.06 A2.71483 2.7219 -180 0 0 29.87 1007.33 L2.71 1007.33 A2.71483 2.7219 -180 0 0 -0 1010.06  L0 1037.28 Z" class="bg" transform="translate(-3.17746E-13,-11.6667)"/><path d="M0.98 1026.67 A7.37978 7.399 0 0 1 3.88 1023.46 A8.76218 8.785 0 0 1 8.49 1022.31 A8.14778 8.169 0 0  1 12.75 1023.4 A7.30531 7.32433 0 0 1 15.57 1026.47 A9.87811 9.90383 0 0 1 16.55 1030.98 A10.4145  10.4417 0 0 1 15.54 1035.7 A7.48218 7.50167 0 0 1 12.63 1038.87 A8.47011 8.49217 0 0 1 8.21 1040  A8.3456 8.36733 0 0 1 3.86 1038.89 A7.41935 7.43867 0 0 1 1 1035.82 A9.63491 9.66 0 0 1 -0 1031.36  A10.6868 10.7147 0 0 1 0.98 1026.67 L0.98 1026.67 ZM4.07 1034.21 A4.79418 4.80667 -180 0 0 5.7 1036.32  A4.25542 4.2665 -180 0 0 8.25 1037.09 A4.47069 4.48233 -180 0 0 10.97 1036.29 A4.59404 4.606 -180  0 0 12.55 1034.18 A8.16407 8.18533 -180 0 0 13.05 1031.23 A8.9344 8.95767 -180 0 0 12.58 1028.25  A4.7104 4.72267 -180 0 0 11.05 1026.05 A4.21236 4.22333 -180 0 0 8.35 1025.22 A4.39971 4.41117 -180  0 0 5.75 1025.99 A4.83724 4.84983 -180 0 0 4.08 1028.12 A8.42822 8.45017 -180 0 0 4.07 1034.21 Z" class="m" transform="translate(8.01396,-19.0552)"/><path d="M2.88 1026.1 L1.72 1026.72 A3.16625 3.1745 0 0 1 0.06 1027.18 L0 1027.18 L23.3 1040 A2.83695 2.84433  -180 0 0 24.47 1037.99 L2.88 1026.1 Z" class="bh" transform="translate(39.4996,-0.593833)"/><path d="M23.3 1040 A2.95331 2.961 -180 0 0 24.11 1039.12 L1.65 1026.75 A3.26982 3.27833 0 0 1 1.42 1026.87 A3.20465  3.213 0 0 1 0.06 1027.17 L0 1027.17 L23.3 1040 Z" class="bh" transform="translate(39.4996,-0.5915)"/><text x="11.2" y="1059.9" class="n">Outlook</text></g></a><a target="_blank" href="https://www.microsoft.com/microsoft-365/onenote/digital-note-taking-app"><g transform="translate(176,-632.4)"><path d="M45.38 1040 L2.71 1040 A2.7136 2.72067 0 0 1 0 1037.28 L0 986.72 A2.7136 2.72067 0 0 1 2.71 984 L46.16  984 A2.70429 2.71133 0 0 1 48.86 986.72 L48.87 1036.5 A4.22982 4.24083 0 0 1 45.38 1040 Z" class="bi" transform="translate(15.1273,0)"/><rect x="50" y="998" width="14" height="14" class="bj"/><rect x="50" y="1012" width="14" height="14" class="bk"/><path d="M0 1026 L13.96 1026 L13.96 1037.28 A2.71127 2.71833 0 0 1 11.25 1040 L0 1040 L0 1026 Z" class="bl" transform="translate(50.0364,0)"/><path d="M18.62 1006.55 L18.62 1037.28 A2.01775 2.023 0 0 1 18.57 1037.75 A2.69265 2.69967 0 0 1 15.91 1040 L0  1040 L0 1003.83 L15.91 1003.83 A2.70662 2.71367 0 0 1 18.62 1006.55 Z" class="k" transform="translate(15.1273,-8.16667)"/><path d="M19.78 1007.72 L19.78 1036.11 A3.91215 3.92233 0 0 1 15.91 1040 L0 1040 L0 1003.83 L15.91 1003.83 A3.88887  3.899 0 0 1 19.78 1007.72 Z" class="l" transform="translate(15.1273,-9.33333)"/><path d="M18.62 1008.88 L18.62 1037.28 A2.70662 2.71367 0 0 1 15.91 1040 L0 1040 L0 1006.17 L15.91 1006.17 A2.70662  2.71367 0 0 1 18.62 1008.88 Z" class="k" transform="translate(15.1273,-10.5)"/><path d="M17.45 1008.88 L17.45 1037.28 A2.70662 2.71367 0 0 1 14.74 1040 L0 1040 L0 1006.17 L14.74 1006.17 A2.70662  2.71367 0 0 1 17.45 1008.88 Z" class="l" transform="translate(15.1273,-10.5)"/><path d="M-0 1037.28 A2.71483 2.7219 -180 0 0 2.71 1040 L29.87 1040 A2.71483 2.7219 -180 0 0 32.58 1037.28 L32.58  1010.06 A2.71483 2.7219 -180 0 0 29.87 1007.33 L2.71 1007.33 A2.71483 2.7219 -180 0 0 -0 1010.06  L0 1037.28 Z" class="bl" transform="translate(-3.23741E-13,-11.6667)"/><path d="M0 1022.31 L3.68 1022.31 L10.91 1034.04 C11.24 1034.57 11.49 1034.99 11.65 1035.31 L11.7 1035.31 A17.9631  18.0098 0 0 1 11.6 1032.91 L11.6 1022.31 L14.73 1022.31 L14.73 1040 L11.29 1040 L3.79 1027.94 A9.43942  9.464 0 0 1 3.12 1026.7 L3.06 1026.7 A25.7699 25.837 0 0 1 3.15 1029.34 L3.15 1040 L0 1040 L0 1022.31  Z" class="m" transform="translate(8.92393,-19.1532)"/><text x="9.1" y="1059.9" class="n">OneNote</text></g></a><a target="_blank" href="https://www.microsoft.com/microsoft-365/access"><g transform="translate(64,-742.4)"><path d="M0 1018.4 L0 1032.8 C0 1036.78 10.94 1040 24.44 1040 C37.93 1040 48.87 1036.78 48.87 1032.8 L48.87 1018.4  L0 1018.4 Z" class="bm" transform="translate(15.1269,0)"/><path d="M0 1018.4 L0 1032.8 C0 1036.78 10.94 1040 24.44 1040 C37.93 1040 48.87 1036.78 48.87 1032.8 L48.87 1018.4  L0 1018.4 Z" class="bn" transform="translate(15.1269,-14.4)"/><path d="M0 1018.4 L0 1032.8 C0 1036.78 10.94 1040 24.44 1040 C37.93 1040 48.87 1036.78 48.87 1032.8 L48.87 1018.4  L0 1018.4 Z" class="bo" transform="translate(15.1269,-28.8)"/><ellipse cx="39.5" cy="989.6" rx="24.4" ry="7.2" class="bp"/><path d="M18.62 1008.24 L18.62 1037.42 A2.01827 1.92123 0 0 1 18.57 1037.86 A2.69242 2.56296 0 0 1 15.91 1040  L0 1040 L0 1005.66 L15.91 1005.66 A2.70664 2.57649 0 0 1 18.62 1008.24 Z" class="k" transform="translate(15.1271,-9.96923)"/><path d="M19.78 1009.35 L19.78 1036.31 A3.91184 3.72374 0 0 1 15.91 1040 L0 1040 L0 1005.66 L15.91 1005.66 A3.88864  3.70165 0 0 1 19.78 1009.35 Z" class="l" transform="translate(15.1271,-11.0769)"/><path d="M18.62 1010.46 L18.62 1037.42 A2.70664 2.57649 0 0 1 15.91 1040 L0 1040 L0 1007.88 L15.91 1007.88 A2.70664  2.57649 0 0 1 18.62 1010.46 Z" class="k" transform="translate(15.1271,-12.1846)"/><path d="M17.45 1010.46 L17.45 1037.42 A2.70664 2.57649 0 0 1 14.74 1040 L0 1040 L0 1007.88 L14.74 1007.88 A2.70664  2.57649 0 0 1 17.45 1010.46 Z" class="l" transform="translate(15.1271,-12.1846)"/><path d="M0 1037.42 A2.71523 2.58467 -180 0 0 2.72 1040 L29.87 1040 A2.71523 2.58467 -180 0 0 32.58 1037.42 L32.58  1011.57 A2.71523 2.58467 -180 0 0 29.87 1008.98 L2.72 1008.98 A2.71523 2.58467 -180 0 0 -0 1011.57  L0 1037.42 Z" class="bn" transform="translate(0,-13.2923)"/><path d="M6.52 1023.2 L10.52 1023.2 L16.95 1040 L13.17 1040 L11.75 1035.99 L5.14 1035.99 L3.75 1040 L0 1040 L6.52  1023.2 ZM10.9 1033.4 L8.85 1027.32 A8.48421 8.07625 0 0 1 8.47 1025.95 L8.39 1025.95 A8.16422 7.77165  0 0 1 8.02 1027.36 L5.94 1033.4 L10.9 1033.4 Z" class="m" transform="translate(7.8173,-20.3998)"/><text x="12.7" y="1058.3" class="n">Access</text></g></a><a target="_blank" href="https://www.microsoft.com/microsoft-365/publisher"><g transform="translate(288,-520)"><path d="M0 1037.24 A2.75261 2.75978 -180 0 0 2.75 1040 L20.52 1040 A2.75261 2.75978 -180 0 0 23.27 1037.24 L23.27  993.76 A2.75261 2.75978 -180 0 0 20.52 991 L2.75 991 A2.75261 2.75978 -180 0 0 -0 993.76 L0 1037.24  Z" class="bq" transform="translate(40.7272,-3.50002)"/><path d="M35.74 1040 L2.66 1040 A2.65879 2.66572 0 0 1 0 1037.33 L0 1026 L20.95 1021.33 L38.4 1026 L38.4 1037.33  A2.65879 2.66572 0 0 1 35.74 1040 Z" class="bq" transform="translate(15.1271,-2.27374E-13)"/><path d="M35.66 1009.67 L2.74 1009.67 A2.74674 2.7539 -180 0 0 -0 1012.42 L0 1037.67 L19.78 1040 L38.4 1037.67  L38.4 1012.42 A2.74669 2.75385 -180 0 0 35.66 1009.67 Z" class="br" transform="translate(15.1271,-25.6665)"/><rect x="15.1" y="1012" width="38.4" height="14" class="bs"/><path d="M18.62 1006.55 L18.62 1037.28 A2.01827 2.02352 0 0 1 18.57 1037.75 A2.69241 2.69942 0 0 1 15.91 1040  L0 1040 L0 1003.83 L15.91 1003.83 A2.70663 2.71368 0 0 1 18.62 1006.55 Z" class="k" transform="translate(15.1271,-8.16671)"/><path d="M19.78 1007.72 L19.78 1036.11 A3.91182 3.92201 0 0 1 15.91 1040 L0 1040 L0 1003.83 L15.91 1003.83 A3.88862  3.89875 0 0 1 19.78 1007.72 Z" class="l" transform="translate(15.1271,-9.33338)"/><path d="M18.62 1008.88 L18.62 1037.28 A2.70663 2.71368 0 0 1 15.91 1040 L0 1040 L0 1006.17 L15.91 1006.17 A2.70663  2.71368 0 0 1 18.62 1008.88 Z" class="k" transform="translate(15.1271,-10.5001)"/><path d="M17.45 1008.88 L17.45 1037.28 A2.70663 2.71368 0 0 1 14.74 1040 L0 1040 L0 1006.17 L14.74 1006.17 A2.70663  2.71368 0 0 1 17.45 1008.88 Z" class="l" transform="translate(15.1271,-10.5001)"/><path d="M0 1037.28 A2.71556 2.72263 -180 0 0 2.72 1040 L29.87 1040 A2.71556 2.72263 -180 0 0 32.58 1037.28 L32.58  1010.06 A2.71556 2.72263 -180 0 0 29.87 1007.33 L2.72 1007.33 A2.71556 2.72263 -180 0 0 0 1010.06  L0 1037.28 Z" class="bq" transform="translate(0,-11.6667)"/><path d="M7.01 1021.85 A7.17305 7.19174 0 0 1 11.84 1023.31 A5.25849 5.27219 0 0 1 13.52 1027.52 A5.96976 5.98531  0 0 1 12.69 1030.67 A5.60014 5.61473 0 0 1 10.33 1032.82 A7.82882 7.84922 0 0 1 6.79 1033.58 L3.44  1033.58 L3.44 1040 L0 1040 L0 1021.85 L7.01 1021.85 ZM3.44 1030.81 L6.4 1030.81 A3.77654 3.78638  -180 0 0 9.01 1030.01 A2.99959 3.0074 -180 0 0 9.9 1027.66 C9.9 1025.66 8.77 1024.66 6.51 1024.66  L3.44 1024.66 L3.44 1030.81 Z" class="m" transform="translate(9.81701,-19.0014)"/><rect x="53.5" y="987.5" width="1.2" height="49" class="k"/><rect x="54.7" y="987.5" width="1.2" height="49" class="l"/><text x="6.9" y="1059.9" class="n">Publisher</text></g></a><a target="_blank" href="https://www.microsoft.com/microsoft-365/onedrive/online-cloud-storage"><g transform="translate(256,-247.2)"><path d="M22.19 1040 C22.19 1040 36.03 1032.22 36.26 1032.34 A20.1634 20.2242 -180 0 0 11.81 1017.75 A19.8464  19.9063 -180 0 0 -0 1026.24 C0.12 1026.24 22.19 1040 22.19 1040 Z" class="x" transform="translate(15.8654,-18.5455)"/><path d="M24.57 1016.91 A16.2149 16.2638 -180 0 0 16.1 1014.51 L15.87 1014.51 A16.1159 16.1645 -180 0 0 0 1030.91  A16.6325 16.6827 -180 0 0 2.86 1040 L25.05 1037.73 L38.05 1025.16 L24.57 1016.91 Z" class="bg" transform="translate(3.19744E-13,-6.81994)"/><path d="M14.08 1020.74 L13.24 1020.74 A12.354 12.3912 -180 0 0 8.11 1021.81 L0 1025.16 L8.83 1034.97 L24.81  1040 A13.0821 13.1216 -180 0 0 19.44 1022.17 A14.3777 14.4211 -180 0 0 14.08 1020.74 Z" class="be" transform="translate(38.1723,-6.93959)"/><path d="M48.55 1026.24 L45.21 1024.21 L37.58 1019.66 L35.19 1018.22 L29.11 1020.86 L17.3 1025.88 L11.93 1028.04  L0 1033.06 A16.232 16.281 -180 0 0 13.24 1040 L48.43 1040 A13.2588 13.2987 -180 0 0 60 1033.06 L48.55  1026.24 Z" class="ba" transform="translate(2.86292,-2.27374E-13)"/><text x="7.6" y="1061.9" class="n">OneDrive <tspan x="9.4" dy="1.2em" class="bt">(100 GB)</tspan></text></g></a><a target="_blank" href="https://go.microsoft.com/fwlink/p/?linkid=2116636"><g transform="translate(64,-400)"><ellipse cx="18.6" cy="994.5" rx="18.6" ry="18.6" class="ba"/><ellipse cx="45.5" cy="1021.4" rx="18.6" ry="18.6" class="ba"/><ellipse cx="32" cy="1008" rx="30.7" ry="30.7" class="ba"/><path d="M3.93 1022.12 A9.33632 9.33632 0 0 1 1 1019.03 A8.54016 8.54016 0 0 1 0 1014.76 A7.6736 7.6736 0 0 1  1.81 1009.59 A10.8813 10.8813 0 0 1 6.52 1006.44 A18.199 18.199 0 0 1 12.69 1005.4 A23.9616 23.9616  0 0 1 16.8 1005.72 A14.8224 14.8224 0 0 1 19.64 1006.45 A5.51936 5.51936 0 0 1 21.87 1007.87 A2.88  2.88 0 0 1 22.56 1009.79 A2.7712 2.7712 0 0 1 21.84 1011.78 A2.40768 2.40768 0 0 1 20.02 1012.54  A3.27552 3.27552 0 0 1 18.66 1012.24 A24.4915 24.4915 -180 0 0 15.44 1011.06 A11.6864 11.6864 -180  0 0 12.34 1010.68 A7.08096 7.08096 -180 0 0 8.46 1011.67 A3.232 3.232 -180 0 0 6.91 1014.57 A2.91968  2.91968 -180 0 0 7.71 1016.61 A7.33952 7.33952 -180 0 0 9.88 1018.16 C10.79 1018.61 12.15 1019.21  13.95 1019.96 A4.21888 4.21888 0 0 1 14.53 1020.19 A28.9139 28.9139 0 0 1 19.57 1022.78 A10.1594  10.1594 0 0 1 22.68 1025.97 A8.3968 8.3968 0 0 1 23.8 1030.39 A8.89344 8.89344 0 0 1 22.24 1035.72  A9.22112 9.22112 0 0 1 17.9 1038.94 A18.2886 18.2886 0 0 1 11.38 1040 A20.544 20.544 0 0 1 2.5 1038.32  A4.8384 4.8384 0 0 1 0.67 1036.9 A3.2 3.2 0 0 1 0.07 1034.96 A2.53056 2.53056 0 0 1 0.85 1032.99  A2.88256 2.88256 0 0 1 2.87 1032.28 A5.15712 5.15712 0 0 1 5.22 1032.88 C6.13 1033.34 6.84 1033.67  7.36 1033.9 A10.729 10.729 -180 0 0 9.2 1034.48 A10.5382 10.5382 -180 0 0 11.57 1034.73 A6.31936  6.31936 -180 0 0 15.55 1033.67 A3.50336 3.50336 -180 0 0 16.89 1030.76 A3.08736 3.08736 -180 0 0  16.05 1028.64 A8.928 8.928 -180 0 0 13.58 1026.84 C12.49 1026.27 10.96 1025.57 8.98 1024.74 A28.4723  28.4723 0 0 1 3.93 1022.12 L3.93 1022.12 Z" class="bu" transform="translate(20.1024,-14.7008)"/><path d="M3.93 1022.12 A9.33632 9.33632 0 0 1 1 1019.03 A8.54016 8.54016 0 0 1 0 1014.76 A7.6736 7.6736 0 0 1  1.81 1009.59 A10.8813 10.8813 0 0 1 6.52 1006.44 A18.199 18.199 0 0 1 12.69 1005.4 A23.9616 23.9616  0 0 1 16.8 1005.72 A14.8224 14.8224 0 0 1 19.64 1006.45 A5.51936 5.51936 0 0 1 21.87 1007.87 A2.88  2.88 0 0 1 22.56 1009.79 A2.7712 2.7712 0 0 1 21.84 1011.78 A2.40768 2.40768 0 0 1 20.02 1012.54  A3.27552 3.27552 0 0 1 18.66 1012.24 A24.4915 24.4915 -180 0 0 15.44 1011.06 A11.6864 11.6864 -180  0 0 12.34 1010.68 A7.08096 7.08096 -180 0 0 8.46 1011.67 A3.232 3.232 -180 0 0 6.91 1014.57 A2.91968  2.91968 -180 0 0 7.71 1016.61 A7.33952 7.33952 -180 0 0 9.88 1018.16 C10.79 1018.61 12.15 1019.21  13.95 1019.96 A4.21888 4.21888 0 0 1 14.53 1020.19 A28.9139 28.9139 0 0 1 19.57 1022.78 A10.1594  10.1594 0 0 1 22.68 1025.97 A8.3968 8.3968 0 0 1 23.8 1030.39 A8.89344 8.89344 0 0 1 22.24 1035.72  A9.22112 9.22112 0 0 1 17.9 1038.94 A18.2886 18.2886 0 0 1 11.38 1040 A20.544 20.544 0 0 1 2.5 1038.32  A4.8384 4.8384 0 0 1 0.67 1036.9 A3.2 3.2 0 0 1 0.07 1034.96 A2.53056 2.53056 0 0 1 0.85 1032.99  A2.88256 2.88256 0 0 1 2.87 1032.28 A5.15712 5.15712 0 0 1 5.22 1032.88 C6.13 1033.34 6.84 1033.67  7.36 1033.9 A10.729 10.729 -180 0 0 9.2 1034.48 A10.5382 10.5382 -180 0 0 11.57 1034.73 A6.31936  6.31936 -180 0 0 15.55 1033.67 A3.50336 3.50336 -180 0 0 16.89 1030.76 A3.08736 3.08736 -180 0 0  16.05 1028.64 A8.928 8.928 -180 0 0 13.58 1026.84 C12.49 1026.27 10.96 1025.57 8.98 1024.74 A28.4723  28.4723 0 0 1 3.93 1022.12" class="bv" transform="translate(20.1024,-14.7008)"/><path d="M24.06 1014.44 A18.1158 18.1158 -180 0 0 21.58 1013.8 A33.376 33.376 -180 0 0 -0 1035.38 A18.1248 18.1248  -180 0 0 0.64 1037.86 A14.057 14.057 -180 0 0 1.5 1040 A30.6522 30.6522 0 0 1 26.2 1015.3 A14.0672  14.0672 -180 0 0 24.06 1014.44 Z" class="l" transform="translate(0.2944,-37.504)"/><path d="M23.42 977.23 A32.0256 32.0256 -180 0 0 -0 1000.65 A14.057 14.057 -180 0 0 0.86 1002.79 A30.6522 30.6522  0 0 1 25.56 978.09 A14.0672 14.0672 -180 0 0 23.42 977.23 ZM62.13 1015.94 A14.057 14.057 -180 0  0 61.27 1013.8 A30.6522 30.6522 0 0 1 36.57 1038.5 A14.0595 14.0595 -180 0 0 38.71 1039.36 A18.1158  18.1158 -180 0 0 41.19 1040 A33.376 33.376 -180 0 0 62.77 1018.42 A18.1261 18.1261 -180 0 0 62.13  1015.94 Z" class="l" transform="translate(0.9344,-0.2944)"/><path d="M24.7 1014.44 A30.6522 30.6522 0 0 1 -0 1039.14 A14.0595 14.0595 -180 0 0 2.14 1040 A32.0256 32.0256  -180 0 0 25.56 1016.58 A14.057 14.057 -180 0 0 24.7 1014.44 Z" class="l" transform="translate(37.504,-0.9344)"/><text x="15.8" y="1051.9" class="n">Skype</text></g></a><a target="_blank" href="https://www.microsoft.com/microsoft-365/microsoft-editor"><g transform="translate(288,-736)"><path d="M23.5 1029 L9.88 1029 L4.54 1036.36 L0 1039.59 L0 1040 L23.5 1040 A5.5 5.5 -180 0 0 23.5 1029 Z" class="r" transform="translate(12,-7)"/><path d="M20.71 1029 L7.99 1029 L0 1040 L20.71 1040 A5.5 5.5 -180 0 0 20.71 1029 Z" class="q" transform="translate(24.7886,-22)"/><path d="M19.82 1029 L7.99 1029 L0 1040 L19.82 1040 A5.5 5.5 -180 0 0 19.82 1029 Z" class="q" transform="translate(35.6836,-37)"/><path d="M4.54 1036.35 L0 1039.59 L0 1040 L5.46 1040 L7.04 1038.87 L14.21 1029 L9.88 1029 L4.54 1036.35 Z" class="l" transform="translate(12,-7)"/><path d="M7.99 1029 L0 1040 L4.33 1040 L12.32 1029 L7.99 1029 Z" class="l" transform="translate(35.684,-37)"/><path d="M0 1040 L4.32 1040 L12.32 1029 L7.99 1029 L0 1040 Z" class="l" transform="translate(24.789,-22)"/><path d="M4.54 1036.35 L0 1039.59 L0 1040 L3.74 1040 L6.32 1038.15 L12.97 1029 L9.88 1029 L4.54 1036.35 Z" class="l" transform="translate(12,-7)"/><path d="M0 1040 L3.09 1040 L11.08 1029 L7.99 1029 L0 1040 Z" class="l" transform="translate(24.789,-22)"/><path d="M7.99 1029 L0 1040 L3.09 1040 L11.08 1029 L7.99 1029 Z" class="l" transform="translate(35.684,-37)"/><rect x="0" y="976" width="64" height="64" class="bw"/><path d="M4.54 1036.35 L0 1039.59 L0 1040 L2.01 1040 L5.61 1037.43 L11.74 1029 L9.88 1029 L4.54 1036.35 Z" class="l" transform="translate(12,-7)"/><path d="M7.99 1029 L0 1040 L1.85 1040 L9.84 1029 L7.99 1029 Z" class="l" transform="translate(35.684,-37)"/><path d="M0 1040 L1.85 1040 L9.84 1029 L7.99 1029 L0 1040 Z" class="l" transform="translate(24.789,-22)"/><path d="M3.18 1040 L25.16 1014.89 L42.43 993.09 L33.04 987.22 L31.86 987.9 L3.04 1027.41 L0 1037.53 a0.96939  0.96939 -180 0 0 0.35115 1.04628 L0.35 1038.58 L3.18 1040 Z" class="o" transform="translate(2.30038,-5.86894)"/><path d="M2.37 1039.86 a0.959 0.959 -180 0 0 1.04118 -0.03193 L12.08 1033.65 L40.77 994.15 L35.69 988.47  L0 1037.9 L2.37 1039.86 Z" class="p" transform="translate(4.8157,-3.9329)"/><path d="M11.47 1040 L14.64 1035.62 C14.9 1035.24 14.77 1034.91 14.44 1034.46 C12.07 1031.2 5.01 1027.07  4.08 1027.15 A1.186 1.186 -180 0 0 3.17 1027.51 L0 1031.88 L11.47 1040 Z" class="r" transform="translate(34.1142,-49.7848)"/><path d="M5.21 1032.83 L1.38 1033.89 L0.06 1038.24 C0 1038.61 0.4 1039.14 0.69 1039.38 C0.99 1039.63 1.94  1040 2.32 1039.77 L5.91 1037.11 C5.93 1037.12 5.21 1032.83 5.21 1032.83 Z" class="r" transform="translate(1.27667,-1.1769)"/><text x="16.1" y="1051.9" class="n">Editor</text></g></a><rect x="64" y="768" width="128" height="48" rx="8" ry="8" class="bx"/><text x="94.3" y="788.4" class="by">One Person<tspan x="91.6" dy="1.2em" class="bt">Five Devices</tspan></text><rect x="64" y="848" width="128" height="48" rx="8" ry="8" class="bx"/><text x="79.7" y="868.4" class="by">PC, Mac, iPhone, <tspan x="76.7" dy="1.2em" class="bt">iPad, and Android</tspan></text><a target="_blank" href="https://www.microsoft.com/microsoft-365/p/office-365-personal/cfq7ttc0k5bf"><rect x="32" y="176" width="352" height="32" rx="8" ry="8" class="bz"/><text x="109.5" y="197.4" class="f">Microsoft 365 Personal</text></a><rect x="208" y="80" width="128" height="64" rx="8" ry="8" class="ca"/><text x="241.6" y="108.4" class="by">Six People <tspan x="219.6" dy="1.2em" class="bt">Five Devices Each</tspan></text><a target="_blank" href="https://www.microsoft.com/partner-benefits"><rect x="64" y="688" width="128" height="48" rx="8" ry="8" class="bx"/><text x="87.6" y="701.2" class="by">Partner Offers  <tspan x="79.7" dy="1.2em" class="bt">(US, UK, AU, CA)  </tspan><tspan x="77.6" dy="1.2em" class="bt">(ends 2023</tspan>-06-30)</text></a><rect x="64" y="928" width="128" height="48" rx="8" ry="8" class="bx"/><text x="78" y="955.6" class="by">Premium Content</text><a target="_blank" href="https://www.microsoft.com/microsoft-365/family-safety"><g transform="translate(64,-912)"><path d="M44.71 1004.19 C43.85 1003.33 42.79 1002.57 41.64 1002.1 C39.53 1001.43 37.33 1001.05 35.21 1000.96  L31.18 1002.76 L28.02 1005.52 C28.02 1009.32 26.48 1012.92 23.8 1015.58 L19.67 1022.99 C14.1 1028.03  5.47 1027.93 0 1022.71 L15.26 1037.62 C17.75 1040 21.69 1040 24.18 1037.62 L43.18 1019 C44.52 1017.29  47.78 1013.59 47.78 1011.31 C47.78 1008.65 46.63 1006.09 44.71 1004.19 Z" class="cb" transform="translate(13.6252,-1.995)"/><path d="M33.3 1031.73 L31.38 1023.47 C28.69 1020.81 27.15 1017.2 27.15 1013.4 L21.78 1011.5 L18.04 1010.17 C0  1010.17 6.14 1023.66 9.69 1027.65 L13.15 1031.07 L13.63 1031.54 C22.16 1040 32.53 1037.24 33.3 1031.73  Z" class="cc" transform="translate(-7.99361E-15,-10.735)"/><path d="M23.03 1019.76 L23.03 1022.71 C23.03 1026.51 21.49 1030.12 18.81 1032.78 L11.99 1039.52 C11.8 1039.71  11.71 1039.81 11.51 1040 L4.22 1032.78 C1.54 1030.12 0 1026.51 0 1022.71 L0 1010.84 L23.03 1010.84  L23.03 1019.76 Z" class="cd" transform="translate(21.7811,-19)"/><path d="M30.7 1015.11 C30.7 1020.05 25.52 1023.94 19.19 1023.94 L15.35 1023.94 C9.69 1023.94 5.09 1028.5 5.09  1034.01 C5.09 1036.2 5.76 1038.29 7.1 1040 L4.8 1037.81 C1.73 1034.39 0 1029.93 0 1025.27 C0 1024.51  0.1 1023.66 0.19 1022.9 C1.34 1013.4 9.5 1006.28 19.19 1006.28 C25.52 1006.28 30.7 1010.27 30.7  1015.11 Z" class="ce" transform="translate(2.5907,-23.275)"/><path d="M0 1015.11 C0 1020.05 5.18 1023.94 11.51 1023.94 L15.35 1023.94 C21.01 1023.94 25.62 1028.5 25.62 1034.01  C25.62 1036.2 24.95 1038.29 23.6 1040 L25.91 1037.72 C28.98 1034.3 30.7 1029.74 30.7 1025.18 C30.7  1024.42 30.61 1023.56 30.51 1022.8 C29.36 1013.4 21.21 1006.28 11.51 1006.28 C5.18 1006.28 0 1010.27  0 1015.11 Z" class="cf" transform="translate(33.2954,-23.275)"/><rect x="2.6" y="979.2" width="61.4" height="60.8" class="bw"/><text x="14.6" y="1052.5" class="n">Family <tspan x="15.5" dy="1.2em" class="bt">Safety</tspan></text></g></a><a target="_blank" href="https://m365maps.com/"><rect x="0" y="1024" width="416" height="16" class="cg"/><text x="326.6" y="1035.6" class="ch">m365maps.com</text></a><a target="_blank" href="https://clipchamp.com/"><g transform="translate(178,-738)"><path d="M57.57 1000.24 L4.43 1000.24 C1.97 1000.24 0 997.43 0 994.94 L0 1000.24 L0 1035.46 C0 1037.95 1.99 1040  4.43 1040 L57.57 1040 C60.01 1040 62 1037.95 62 1035.46 L62 1004.78 C62 1002.28 60.01 1000.24 57.57  1000.24 Z" class="ci"/><path d="M0 1026.37 L62 1026.37 L62 1035.46 C62 1037.96 60.01 1040 57.57 1040 L4.43 1040 C1.99 1040 0 1037.96  0 1035.46 L0 1026.37 Z" class="cj" transform="translate(1.59872E-14,-0.00184658)"/><path d="M39.86 1026.75 L0 1026.75 L0 1040 L39.86 1040 L39.86 1026.75 Z" class="ck" transform="translate(22.1422,-13.2584)"/><path d="M22.14 1026.75 L0 1026.75 L0 1040 L22.14 1040 L22.14 1026.75 Z" class="cl" transform="translate(7.99361E-15,-13.2584)"/><path d="M52.2 1014.6 L3.44 1026.15 C1.26 1026.67 0 1028.32 0 1030.97 C0.02 1031.18 0 1032.3 0 1032.3 L1.29 1036.27  C1.84 1038.72 4.04 1040 6.42 1039.44 L55.18 1027.88 C57.57 1027.32 59.05 1024.88 58.5 1022.43 L57.51  1018.01 C56.96 1015.56 54.58 1014.04 52.2 1014.6 Z" class="cm" transform="translate(0,-36.036)"/><path d="M0 1026.75 L17.71 1026.75 C20.15 1026.75 22.14 1028.79 22.14 1031.29 L22.14 1040 L0 1040 L0 1026.75 Z" class="cl" transform="translate(39.8574,-26.5126)"/><path d="M39.86 1026.75 L0 1026.75 L0 1040 L39.86 1040 L39.86 1026.75 Z" class="cn" transform="translate(1.59872E-14,-26.5126)"/><path d="M0 1034.7 L0 1040 L4.43 1040 C1.99 1040 0 1037.2 0 1034.7 Z" class="cn" transform="translate(9.49241E-15,-39.7631)"/><path d="M0 1034.7 L0 1040 L5.17 1040 C2.32 1040 0 1037.61 0 1034.7 Z" class="cj" transform="translate(8.49321E-15,-13.2547)"/><path d="M0 1034.7 L0 1040 L5.17 1040 C2.32 1040 0 1037.61 0 1034.7 Z" class="cl" transform="translate(8.49321E-15,-26.5089)"/><text x="2.9" y="1053.9" class="n">Clipchamp</text></g></a><a target="_blank" href="https://www.microsoft.com/microsoft-365/microsoft-365-basic-faqs"><rect x="208" y="688" width="160" height="32" rx="8" ry="8" class="co"/><text x="231.6" y="707.6" class="by">Microsoft 365 Basic</text></a><rect x="224" y="848" width="128" height="32" rx="8" ry="8" class="cp"/><text x="237.7" y="860.4" class="by">Monthly or Yearly <tspan x="251.3" dy="1.2em" class="bt">Subscription</tspan></text><a target="_blank" href="https://support.microsoft.com/office/882d2243-eab9-4545-a58a-b36fee4a46e2"><rect x="224" y="896" width="128" height="32" rx="8" ry="8" class="cp"/><text x="251.3" y="908.4" class="by">Outlook.com <tspan x="249.6" dy="1.2em" class="bt">Adv. Security</tspan></text></a><a target="_blank" href="https://support.microsoft.com/office/96162163-b3aa-498b-bbbb-5e757b0f31da"><rect x="224" y="944" width="128" height="32" rx="8" ry="8" class="cp"/><text x="248.7" y="956.4" class="by">Phone &amp; Chat <tspan x="265" dy="1.2em" class="bt">Support</tspan></text></a><a target="_blank" href="https://www.microsoft.com/microsoft-365/onedrive/online-cloud-storage"><g transform="translate(288,-647.2)"><path d="M22.19 1040 C22.19 1040 36.03 1032.22 36.26 1032.34 A20.1634 20.2242 -180 0 0 11.81 1017.75 A19.8464  19.9063 -180 0 0 0 1026.24 C0.12 1026.24 22.19 1040 22.19 1040 Z" class="x" transform="translate(15.8654,-18.5455)"/><path d="M24.57 1016.91 A16.2149 16.2638 -180 0 0 16.1 1014.51 L15.87 1014.51 A16.1159 16.1645 -180 0 0 -0 1030.91  A16.6325 16.6827 -180 0 0 2.86 1040 L25.05 1037.73 L38.05 1025.16 L24.57 1016.91 Z" class="bg" transform="translate(3.23741E-13,-6.81994)"/><path d="M14.08 1020.74 L13.24 1020.74 A12.354 12.3912 -180 0 0 8.11 1021.81 L0 1025.16 L8.83 1034.97 L24.81  1040 A13.0821 13.1216 -180 0 0 19.44 1022.17 A14.3777 14.4211 -180 0 0 14.08 1020.74 Z" class="be" transform="translate(38.1723,-6.93959)"/><path d="M48.55 1026.24 L45.21 1024.21 L37.58 1019.66 L35.19 1018.22 L29.11 1020.86 L17.3 1025.88 L11.93 1028.04  L0 1033.06 A16.232 16.281 -180 0 0 13.24 1040 L48.43 1040 A13.2588 13.2987 -180 0 0 60 1033.06 L48.55  1026.24 Z" class="ba" transform="translate(2.86292,-2.27374E-13)"/><text x="7.6" y="1061.9" class="n">OneDrive <tspan x="16.4" dy="1.2em" class="bt">(1 TB)</tspan></text></g></a></svg>