<svg xmlns="http://www.w3.org/2000/svg" width="464" height="1424" viewBox="0 0 464 1424" class="a"><style>
.b {fill:#a5a5a5;fill-opacity:0.2;stroke:#d04a00;stroke-linecap:round;stroke-linejoin:round;stroke-width:2.25}
.c {fill:#a5a5a5;fill-opacity:0.2;stroke:#e82200;stroke-dasharray:15.75,11.25;stroke-linecap:round;stroke-linejoin:round;stroke-width:2.25}
.d {fill:#a5a5a5;fill-opacity:0.2;stroke:#c42500;stroke-dasharray:6.75,6.75;stroke-linecap:round;stroke-linejoin:round;stroke-width:2.25}
.e {fill:#a5a5a5;fill-opacity:0.2;stroke:#c42500;stroke-dasharray:2.25,4.5;stroke-linecap:round;stroke-linejoin:round;stroke-width:2.25}
.f {fill:#a5a5a5;fill-opacity:0.2;stroke:#c42500;stroke-dasharray:0,6.75;stroke-linecap:round;stroke-linejoin:round;stroke-width:2.25}
.g {fill:#d04a00;stroke:#d04a00;stroke-linecap:round;stroke-linejoin:round;stroke-width:2.25}
.h {fill:#ffffff;font-family:Arial;font-size:1.5em;font-weight:bold}
.i {fill:#c42500;stroke:#c42500;stroke-linecap:round;stroke-linejoin:round;stroke-width:2.25}
.j {fill:#ffffff;font-family:Arial;font-size:1.00001em;font-weight:bold}
.k {font-size:1em}
.l {fill:#c42500;stroke:none;stroke-linecap:round;stroke-linejoin:round;stroke-width:0.24}
.m {fill:#21a366;stroke:none;stroke-linecap:butt;stroke-width:9.5625}
.n {fill:#33c481;stroke:none;stroke-linecap:butt;stroke-width:9.5625}
.o {fill:#185c37;stroke:none;stroke-linecap:butt;stroke-width:9.5625}
.p {fill:#107c41;stroke:none;stroke-linecap:butt;stroke-width:9.5625}
.q {fill:#000000;fill-opacity:0.2;stroke:none;stroke-linecap:butt;stroke-width:9.5625}
.r {fill:#000000;fill-opacity:0.098;stroke:none;stroke-linecap:butt;stroke-width:9.5625}
.s {fill:#ffffff;stroke:none;stroke-linecap:butt;stroke-width:9.5625}
.t {fill:#000000;font-family:Arial;font-size:1.00001em;font-weight:bold}
.u {fill:#41a5ee;stroke:none;stroke-linecap:butt;stroke-width:9.5625}
.v {fill:#2b7cd3;stroke:none;stroke-linecap:butt;stroke-width:9.5625}
.w {fill:#185abd;stroke:none;stroke-linecap:butt;stroke-width:9.5625}
.x {fill:#103f91;stroke:none;stroke-linecap:butt;stroke-width:9.5625}
.y {fill:#000000;font-family:Arial;font-size:0.916672em;font-weight:bold}
.z {fill:#d35230;stroke:none;stroke-linecap:butt;stroke-width:9.5625}
.ba {fill:#ff8f6b;stroke:none;stroke-linecap:butt;stroke-width:9.5625}
.bb {fill:#ed6c47;stroke:none;stroke-linecap:butt;stroke-width:9.5625}
.bc {fill:#c43e1c;stroke:none;stroke-linecap:butt;stroke-width:9.5625}
.bd {fill:#123b6d;stroke:none;stroke-linecap:butt;stroke-width:9.5625}
.be {fill:#0364b8;stroke:none;stroke-linecap:butt;stroke-width:9.5625}
.bf {fill:#0358a7;stroke:none;stroke-linecap:butt;stroke-width:9.5625}
.bg {fill:#0078d4;stroke:none;stroke-linecap:butt;stroke-width:9.5625}
.bh {fill:#28a8ea;stroke:none;stroke-linecap:butt;stroke-width:9.5625}
.bi {fill:#50d9ff;stroke:none;stroke-linecap:butt;stroke-width:9.5625}
.bj {fill:#14447d;stroke:none;stroke-linecap:butt;stroke-width:9.5625}
.bk {fill:#35b8f1;stroke:none;stroke-linecap:butt;stroke-width:9.5625}
.bl {fill:#1490df;stroke:none;stroke-linecap:butt;stroke-width:9.5625}
.bm {fill:#0a2767;fill-opacity:0.5;stroke:none;stroke-linecap:butt;stroke-width:9.5625}
.bn {fill:#0f78d4;stroke:none;stroke-linecap:butt;stroke-width:9.5625}
.bo {fill:#000000;fill-opacity:0.047;stroke:none;stroke-linecap:butt;stroke-width:9.5625}
.bp {fill:#ca64ea;stroke:none;stroke-linecap:butt;stroke-width:9.5625}
.bq {fill:#ae4bd5;stroke:none;stroke-linecap:butt;stroke-width:9.5625}
.br {fill:#9332bf;stroke:none;stroke-linecap:butt;stroke-width:9.5625}
.bs {fill:#7719aa;stroke:none;stroke-linecap:butt;stroke-width:9.5625}
.bt {fill:#881421;stroke:none;stroke-linecap:butt;stroke-width:9.5625}
.bu {fill:#af2031;stroke:none;stroke-linecap:butt;stroke-width:9.5625}
.bv {fill:#c94f60;stroke:none;stroke-linecap:butt;stroke-width:9.5625}
.bw {fill:#e08095;stroke:none;stroke-linecap:butt;stroke-width:9.5625}
.bx {fill:#038387;stroke:none;stroke-linecap:butt;stroke-width:9.5625}
.by {fill:#37c6d0;stroke:none;stroke-linecap:butt;stroke-width:9.5625}
.bz {fill:#1a9ba1;stroke:none;stroke-linecap:butt;stroke-width:9.5625}
.ca {fill:#ffffff}
.cb {stroke:none;stroke-linecap:butt;stroke-width:9.5625}
.cc {fill:none;stroke:none;stroke-linecap:butt;stroke-width:9.5625}
.cd {fill:#e82200;stroke:none;stroke-linecap:round;stroke-linejoin:round;stroke-width:2.25}
.ce {fill:#c42500;stroke:none;stroke-linecap:round;stroke-linejoin:round;stroke-width:2.25}
.cf {fill:#e82200;stroke:#e82200;stroke-linecap:round;stroke-linejoin:round;stroke-width:2.25}
.cg {fill:#0b5b50;stroke:none;stroke-linecap:butt;stroke-width:9.5625}
.ch {fill:#047769;stroke:none;stroke-linecap:butt;stroke-width:9.5625}
.ci {fill:#30e5d0;stroke:none;stroke-linecap:butt;stroke-width:9.5625}
.cj {fill:#24cdb9;stroke:none;stroke-linecap:butt;stroke-width:9.5625}
.ck {fill:#0c9d8c;stroke:none;stroke-linecap:butt;stroke-width:9.5625}
.cl {fill:none;stroke:none;stroke-linecap:round;stroke-linejoin:round;stroke-width:0.75}
.cm {fill:#7f7f7f;font-family:Arial;font-size:1.00001em}
.cn {fill:url(#grad0-346);stroke:none;stroke-linecap:butt;stroke-width:0.75}
.co {fill:#5a4cdb;stroke:none;stroke-linecap:butt;stroke-width:0.75}
.cp {fill:#885ede;stroke:none;stroke-linecap:butt;stroke-width:0.75}
.cq {fill:#aa72e1;stroke:none;stroke-linecap:butt;stroke-width:0.75}
.cr {fill:url(#grad0-356);stroke:none;stroke-linecap:butt;stroke-width:0.75}
.cs {fill:#c689e6;stroke:none;stroke-linecap:butt;stroke-width:0.75}
.a {fill:none;fill-rule:evenodd;font-size:12px;overflow:visible;stroke-linecap:square;stroke-miterlimit:3}
</style><defs><linearGradient id="grad0-346" x1="0" y1="0" x2="1" y2="0" gradientTransform="rotate(32.235784290807 0.5 0.5)"><stop offset="0" stop-color="#fccef5" stop-opacity="1"/><stop offset="1" stop-color="#5a4cdb" stop-opacity="1"/></linearGradient><linearGradient id="grad0-356" x1="0" y1="0" x2="1" y2="0" gradientTransform="rotate(64.2678045674 0.5 0.5)"><stop offset="0" stop-color="#5a4cdb" stop-opacity="1"/><stop offset="1" stop-color="#ad58db" stop-opacity="1"/></linearGradient></defs><rect x="16" y="16" width="432" height="1392" rx="8" ry="8" class="b"/><rect x="32" y="208" width="400" height="1184" rx="8" ry="8" class="c"/><rect x="256" y="1056" width="160" height="320" rx="8" ry="8" class="d"/><rect x="48" y="272" width="192" height="1104" rx="8" ry="8" class="d"/><rect x="64" y="576" width="160" height="784" rx="8" ry="8" class="e"/><rect x="80" y="768" width="128" height="576" rx="8" ry="8" class="f"/><a target="_blank" href="https://www.microsoft.com/microsoft-365/p/office-365-home/cfq7ttc0k5dm"><rect x="16" y="16" width="432" height="32" rx="8" ry="8" class="g"/><text x="143" y="37.4" class="h">Microsoft 365 Family</text></a><a target="_blank" href="https://www.microsoft.com/microsoft-365/p/office-home-business-2021/CFQ7TTC0HPN4"><rect x="64" y="576" width="160" height="32" rx="8" ry="8" class="i"/><text x="102.7" y="588.4" class="j">Office Home &amp; <tspan x="117.3" dy="1.2em" class="k">Business</tspan></text></a><rect x="96" y="1264" width="96" height="48" rx="8" ry="8" class="l"/><text x="121" y="1284.4" class="j">For One <tspan x="115.7" dy="1.2em" class="k">Computer</tspan></text><a target="_blank" href="https://www.microsoft.com/microsoft-365/excel"><g transform="translate(112,-536)"><path d="M24.44 1390.87 L2.68 1390.87 C1.28 1390.87 0 1392.03 0 1393.43 L0 1404.87 L24.44 1424 L48.87 1418.87  L48.87 1404.87 L24.44 1390.87 Z" class="m" transform="translate(15.1273,-22.8667)"/><path d="M21.76 1410 L0 1410 L0 1424 L24.44 1424 L24.44 1412.68 C24.44 1411.28 23.27 1410 21.76 1410 Z" class="n" transform="translate(39.5636,-42)"/><path d="M0 1382 L0 1421.32 C0 1422.72 1.16 1424 2.56 1424 L46.2 1424 C47.59 1424 48.87 1422.83 48.87 1421.43  L48.87 1410 L0 1382 Z" class="o" transform="translate(15.1273,2.27374E-13)"/><rect x="15.1" y="1382" width="24.4" height="14" class="p"/><path d="M18.62 1390.63 L18.62 1421.78 C18.39 1423.07 17.22 1424 15.94 1424 L0 1424 L0 1387.95 L15.94 1387.95  C17.34 1387.95 18.62 1389.12 18.62 1390.63 Z" class="q" transform="translate(15.1273,-8.28333)"/><path d="M19.78 1391.8 L19.78 1420.15 C19.78 1422.25 18.04 1424 15.94 1424 L0 1424 L0 1387.95 L15.94 1387.95  C18.04 1387.95 19.78 1389.7 19.78 1391.8 Z" class="r" transform="translate(15.1273,-9.45)"/><path d="M18.62 1392.97 L18.62 1421.32 C18.62 1422.72 17.45 1424 16.06 1424 L0 1424 L0 1390.28 L15.94 1390.28  C17.34 1390.28 18.62 1391.45 18.62 1392.97 Z" class="q" transform="translate(15.1273,-10.6167)"/><path d="M17.45 1392.97 L17.45 1421.32 C17.45 1422.72 16.29 1424 14.89 1424 L0 1424 L0 1390.28 L14.78 1390.28  C16.17 1390.28 17.45 1391.45 17.45 1392.97 Z" class="r" transform="translate(15.1273,-10.6167)"/><path d="M2.68 1391.33 L29.79 1391.33 C31.19 1391.33 32.47 1392.5 32.47 1393.9 L32.47 1421.2 C32.47 1422.6 31.3  1423.88 29.91 1423.88 L2.68 1423.88 C1.28 1424 0.12 1422.95 0 1421.67 L0 1394.02 C0 1392.62 1.16  1391.33 2.68 1391.33 Z" class="p" transform="translate(-3.25739E-13,-11.6667)"/><path d="M0 1424 L5.7 1415.13 L0.47 1406.27 L4.65 1406.27 L7.56 1411.87 C7.68 1412.22 7.91 1412.68 8.15 1413.03  C8.38 1412.57 8.49 1412.22 8.73 1411.75 L11.75 1406.15 L15.59 1406.15 L10.24 1415.02 L15.71 1423.88  L11.64 1423.88 L8.38 1417.7 C8.26 1417.47 8.15 1417.12 8.03 1416.88 C7.91 1417.12 7.8 1417.47 7.68  1417.7 L4.31 1423.88 L0 1424 Z" class="s" transform="translate(8.37818,-19.1333)"/><rect x="39.6" y="1396" width="24.4" height="14" class="p"/><text x="16.3" y="1450.8" class="t">Excel</text></g></a><a target="_blank" href="https://www.microsoft.com/microsoft-365/word"><g transform="translate(112,-296)"><path d="M46.16 1404.17 L2.72 1404.17 A2.71515 2.72222 -180 0 0 0 1406.89 L0 1418.17 L25.6 1424 L48.87 1418.17  L48.87 1406.89 A2.71515 2.72222 -180 0 0 46.16 1404.17 Z" class="u" transform="translate(15.1273,-36.1667)"/><path d="M48.87 1403 L0 1403 L0 1417 L25.6 1424 L48.87 1417 L48.87 1403 Z" class="v" transform="translate(15.1273,-21)"/><path d="M0 1401.83 L0 1415.83 L25.6 1424 L48.87 1415.83 L48.87 1401.83 L0 1401.83 Z" class="w" transform="translate(15.1273,-5.83333)"/><path d="M2.72 1424 L46.16 1424 A2.71515 2.72222 -180 0 0 48.87 1421.28 L48.87 1410 L0 1410 L0 1421.28 A2.71515  2.72222 -180 0 0 2.72 1424 Z" class="x" transform="translate(15.1273,2.27374E-13)"/><path d="M18.62 1390.55 L18.62 1421.28 A2.01826 2.02351 0 0 1 18.57 1421.75 A2.6924 2.69941 0 0 1 15.91 1424  L0 1424 L0 1387.83 L15.91 1387.83 A2.70662 2.71367 0 0 1 18.62 1390.55 Z" class="q" transform="translate(15.1273,-8.16667)"/><path d="M19.78 1391.72 L19.78 1420.11 A3.91181 3.92199 0 0 1 15.91 1424 L0 1424 L0 1387.83 L15.91 1387.83 A3.88861  3.89873 0 0 1 19.78 1391.72 Z" class="r" transform="translate(15.1273,-9.33333)"/><path d="M18.62 1392.89 L18.62 1421.28 A2.70662 2.71367 0 0 1 15.91 1424 L0 1424 L0 1390.17 L15.91 1390.17 A2.70662  2.71367 0 0 1 18.62 1392.89 Z" class="q" transform="translate(15.1273,-10.5)"/><path d="M17.45 1392.89 L17.45 1421.28 A2.70662 2.71367 0 0 1 14.74 1424 L0 1424 L0 1390.17 L14.74 1390.17 A2.70662  2.71367 0 0 1 17.45 1392.89 Z" class="r" transform="translate(15.1273,-10.5)"/><path d="M0 1421.28 A2.71521 2.72228 -180 0 0 2.72 1424 L29.87 1424 A2.71521 2.72228 -180 0 0 32.58 1421.28 L32.58  1394.06 A2.71521 2.72228 -180 0 0 29.87 1391.33 L2.72 1391.33 A2.71521 2.72228 -180 0 0 0 1394.06  L0 1421.28 Z" class="w" transform="translate(-3.17746E-13,-11.6667)"/><path d="M6.16 1419.69 C6.21 1420.11 6.25 1420.48 6.26 1420.79 L6.33 1420.79 C6.35 1420.5 6.4 1420.14 6.47 1419.72  C6.54 1419.3 6.6 1418.95 6.67 1418.66 L9.53 1406.31 L13.22 1406.31 L16.17 1418.47 A17.6068 17.6527  0 0 1 16.54 1420.77 L16.59 1420.77 A17.476 17.5215 0 0 1 16.9 1418.55 L19.26 1406.31 L22.62 1406.31  L18.49 1424 L14.56 1424 L11.74 1412.28 C11.66 1411.94 11.57 1411.5 11.46 1410.96 C11.36 1410.41  11.3 1410.02 11.27 1409.77 L11.22 1409.77 C11.19 1410.06 11.13 1410.49 11.03 1411.06 C10.94 1411.62  10.86 1412.04 10.81 1412.31 L8.16 1424 L4.17 1424 L0 1406.31 L3.42 1406.31 L5.99 1418.68 C6.05 1418.94  6.11 1419.27 6.16 1419.69 Z" class="s" transform="translate(4.98088,-19.1528)"/><text x="18" y="1443.9" class="y">Word</text></g></a><a target="_blank" href="https://www.microsoft.com/microsoft-365/powerpoint"><g transform="translate(112,-408)"><path d="M55.85 1395.71 L55.85 1396.29 A27.7213 27.7935 0 0 1 28.22 1424 L27.64 1424 A27.52 27.5917 0 0 1 8.1  1415.83 C7.73 1415.46 7.35 1415.06 7.01 1414.67 C6.67 1414.29 6.34 1413.9 6.03 1413.5 A27.4153 27.4867  0 0 1 0 1396.29 L0 1395.71 A27.3455 27.4167 0 0 1 5.15 1379.67 A13.7693 13.8052 0 0 1 6.03 1378.5  A27.5828 27.6547 0 0 1 27.64 1368 L28.22 1368 A27.7213 27.7935 0 0 1 55.85 1395.71 Z" class="z" transform="translate(8.14545,2.27374E-13)"/><path d="M27.93 1424 L27.93 1423.73 A27.7434 27.8157 -180 0 0 0.27 1396 L0 1396 L0 1424 L27.93 1424 Z" class="ba" transform="translate(36.0727,-28)"/><path d="M0 1423.73 L0 1424 L27.93 1424 L27.93 1396 L27.66 1396 A27.7434 27.8157 -180 0 0 -0 1423.73 Z" class="bb" transform="translate(8.14545,-28)"/><path d="M25.6 1390.55 L25.6 1421.28 A2.01775 2.023 0 0 1 25.55 1421.75 A2.69265 2.69967 0 0 1 22.89 1424 L8.1  1424 C7.73 1423.63 7.35 1423.23 7.01 1422.83 C6.67 1422.46 6.34 1422.06 6.03 1421.67 A27.4153 27.4867  0 0 1 -0 1404.46 L0 1403.88 A27.3455 27.4167 0 0 1 5.15 1387.83 L22.89 1387.83 A2.70662 2.71367  0 0 1 25.6 1390.55 Z" class="q" transform="translate(8.14545,-8.16667)"/><path d="M26.76 1391.72 L26.76 1420.11 A3.91215 3.92233 0 0 1 22.89 1424 L7.01 1424 C6.67 1423.63 6.34 1423.23  6.03 1422.83 A27.4153 27.4867 0 0 1 -0 1405.63 L0 1405.04 A27.3455 27.4167 0 0 1 5.15 1389 A13.7693  13.8052 0 0 1 6.03 1387.83 L22.89 1387.83 A3.88887 3.899 0 0 1 26.76 1391.72 Z" class="r" transform="translate(8.14545,-9.33333)"/><path d="M25.6 1392.89 L25.6 1421.28 A2.70662 2.71367 0 0 1 22.89 1424 L6.03 1424 A27.4153 27.4867 0 0 1 -0 1406.79  L0 1406.21 A27.3455 27.4167 0 0 1 5.15 1390.17 L22.89 1390.17 A2.70662 2.71367 0 0 1 25.6 1392.89  Z" class="q" transform="translate(8.14545,-10.5)"/><path d="M24.44 1392.89 L24.44 1421.28 A2.70662 2.71367 0 0 1 21.73 1424 L6.03 1424 A27.4153 27.4867 0 0 1 0  1406.79 L0 1406.21 A27.3455 27.4167 0 0 1 5.15 1390.17 L21.73 1390.17 A2.70662 2.71367 0 0 1 24.44  1392.89 Z" class="r" transform="translate(8.14545,-10.5)"/><path d="M-0 1421.28 A2.71599 2.72306 -180 0 0 2.72 1424 L29.87 1424 A2.71599 2.72306 -180 0 0 32.58 1421.28  L32.58 1394.06 A2.71599 2.72306 -180 0 0 29.87 1391.33 L2.72 1391.33 A2.71599 2.72306 -180 0 0 -0  1394.06 L0 1421.28 Z" class="bc" transform="translate(-3.15747E-13,-11.6667)"/><path d="M7.01 1405.85 A7.17265 7.19133 0 0 1 11.84 1407.31 A5.25847 5.27217 0 0 1 13.52 1411.52 A5.96945 5.985  0 0 1 12.69 1414.67 A5.60058 5.61517 0 0 1 10.33 1416.82 A7.82895 7.84933 0 0 1 6.79 1417.58 L3.44  1417.58 L3.44 1424 L0 1424 L0 1405.85 L7.01 1405.85 ZM3.44 1414.81 L6.4 1414.81 A3.776 3.78583 -180  0 0 9.01 1414.01 A2.99985 3.00767 -180 0 0 9.9 1411.66 C9.9 1409.66 8.77 1408.66 6.51 1408.66 L3.44  1408.66 L3.44 1414.81 Z" class="s" transform="translate(9.8176,-19.0015)"/><text x="1.8" y="1443.9" class="y">PowerPoint</text></g></a><a target="_blank" href="https://www.microsoft.com/microsoft-365/outlook/email-and-calendar-software-microsoft-outlook"><g transform="translate(112,-728)"><path d="M48.27 1409.48 A1.38473 1.38833 -180 0 0 47.6 1408.28 L47.59 1408.28 L47.57 1408.26 L25.77 1395.46 A2.97891  2.98667 -180 0 0 25.48 1395.29 A2.94284 2.9505 -180 0 0 22.79 1395.29 A2.97309 2.98083 -180 0 0  22.5 1395.46 L0.7 1408.26 L0.68 1408.28 L0.67 1408.28 A1.39869 1.40233 -180 0 0 0.7 1410.7 L22.5  1423.5 A3.00451 3.01233 -180 0 0 22.79 1423.68 L22.79 1423.68 A2.94284 2.9505 -180 0 0 25.47 1423.68  A3.00567 3.0135 -180 0 0 25.77 1423.5 L47.57 1410.7 A1.38473 1.38833 -180 0 0 48.27 1409.48 Z" class="bd" transform="translate(15.6877,-12.2714)"/><rect x="18.1" y="1388.7" width="14.5" height="13.3" class="be"/><path d="M44.22 1424 L44.22 1418.56 A2.7392 2.74633 -180 0 0 41.45 1415.83 L2.76 1415.83 A2.7392 2.74633 -180  0 0 -0 1418.56 L0 1424 L44.22 1424 Z" class="bf" transform="translate(17.4545,-47.8333)"/><rect x="17.5" y="1375" width="15.1" height="14" class="bg"/><path d="M0 1396 L15.13 1396 L29.09 1410 L29.09 1424 L15.13 1424 L0 1410 L0 1396 Z" class="bh" transform="translate(32.5818,-21)"/><rect x="47.7" y="1375" width="14" height="14" class="bi"/><rect x="32.6" y="1389" width="15.1" height="14" class="bg"/><rect x="32.6" y="1403" width="15.1" height="14" class="be"/><rect x="18.1" y="1402" width="14.5" height="12.1" class="bj"/><rect x="47.7" y="1403" width="14" height="12.8" class="bg"/><path d="M48.19 1398.27 L48.19 1398.27 L48.17 1398.29 L48.16 1398.29 L26.09 1410.12 A3.1872 3.1955 0 0 1 25.79  1410.28 A3.20465 3.213 0 0 1 24.44 1410.58 C24.41 1410.58 24.39 1410.58 24.36 1410.58 L23.12 1409.89  A3.03825 3.04617 0 0 1 22.82 1409.73 L0.71 1397.56 L0.71 1397.56 L0.7 1397.55 L0 1397.17 L0 1421.13  A2.96611 2.97383 -180 0 0 3.05 1424 L45.9 1424 A3.12087 3.129 -180 0 0 47.71 1423.43 L47.66 1423.4  A2.79855 2.80583 -180 0 0 48.87 1421.13 L48.87 1397.17 A1.26022 1.2635 0 0 1 48.19 1398.27 Z" class="bk" transform="translate(15.1273,4.54747E-13)"/><path d="M48.19 1398.27 L48.17 1398.29 L48.16 1398.29 L26.09 1410.12 A3.10691 3.115 0 0 1 25.79 1410.28 A3.23375  3.24217 0 0 1 23.08 1410.28 A3.10458 3.11267 0 0 1 22.78 1410.12 L0.71 1398.29 L0.71 1398.29 L0.68  1398.27 A1.26138 1.26467 0 0 1 0 1397.17 L0 1421.13 A2.96495 2.97267 -180 0 0 3.05 1424 L45.82 1424  A2.96495 2.97267 -180 0 0 48.87 1421.13 L48.87 1397.17 A1.26138 1.26467 0 0 1 48.19 1398.27 Z" class="bl" transform="translate(15.1273,4.54747E-13)"/><path d="M3.06 1424 L45.9 1424 A3.1232 3.13133 -180 0 0 47.71 1423.43 L23.12 1409.89 A3.08713 3.09517 0 0 1 22.82  1409.73 L0.71 1397.56 L0.71 1397.56 L0.7 1397.55 L0 1397.17 L0 1421.04 A3.00567 3.0135 -180 0 0  3.06 1424 Z" class="bh" transform="translate(15.1273,4.54747E-13)"/><path d="M44.22 1411.25 L44.22 1412.57 L23.76 1423.54 C23.67 1423.6 23.56 1423.65 23.47 1423.7 A3.11622 3.12433  0 0 1 22.11 1424 L22.04 1424 L20.79 1423.31 C20.69 1423.26 20.6 1423.21 20.49 1423.15 L0 1411.87  L0 1410.54 L21.06 1422.12 C21.17 1422.19 21.24 1422.23 21.29 1422.26 L22.32 1422.82 A1.93629 1.94133  -180 0 0 22.97 1422.65 C23.03 1422.61 39.78 1413.63 44.22 1411.25 Z" class="bm" transform="translate(17.4545,-13.4167)"/><path d="M18.62 1390.55 L18.62 1421.28 A2.01891 2.02417 0 0 1 18.57 1421.75 A2.69265 2.69967 0 0 1 15.91 1424  L0 1424 L0 1405.33 L0.59 1405.66 A1.17644 1.1795 0 0 1 0.56 1405.38 A1.38822 1.39183 0 0 1 1.23  1404.18 C1.25 1404.17 1.26 1404.17 1.27 1404.16 L2.98 1403.15 L2.98 1397.17 L2.33 1397.17 L2.33  1387.83 L15.91 1387.83 A2.70662 2.71367 0 0 1 18.62 1390.54 L18.62 1390.55 Z" class="q" transform="translate(15.1273,-8.16667)"/><path d="M19.78 1391.72 L19.78 1420.11 A3.91215 3.92233 0 0 1 15.91 1424 L0 1424 L0 1406.5 L0.59 1406.83 A1.17644  1.1795 0 0 1 0.56 1406.55 A1.38822 1.39183 0 0 1 1.23 1405.35 C1.25 1405.33 1.26 1405.33 1.27 1405.32  L2.98 1404.32 L2.98 1398.33 L2.33 1398.33 L2.33 1387.83 L15.91 1387.83 A3.88887 3.899 0 0 1 19.78  1391.72 Z" class="r" transform="translate(15.1273,-9.33333)"/><path d="M18.62 1392.89 L18.62 1421.28 A2.70662 2.71367 0 0 1 15.92 1424 L0 1424 L0 1407.67 L0.59 1407.99 A1.17644  1.1795 0 0 1 0.56 1407.71 A1.38822 1.39183 0 0 1 1.23 1406.51 C1.25 1406.5 1.26 1406.5 1.27 1406.49  L2.98 1405.49 L2.98 1399.5 L2.33 1399.5 L2.33 1390.17 L15.91 1390.17 A2.70662 2.71367 0 0 1 18.62  1392.88 L18.62 1392.89 Z" class="q" transform="translate(15.1273,-10.5)"/><path d="M17.45 1392.89 L17.45 1421.28 A2.70662 2.71367 0 0 1 14.75 1424 L0 1424 L0 1407.67 L0.59 1407.99 A1.17644  1.1795 0 0 1 0.56 1407.71 A1.38822 1.39183 0 0 1 1.23 1406.51 C1.25 1406.5 1.26 1406.5 1.27 1406.49  L2.98 1405.49 L2.98 1399.5 L2.33 1399.5 L2.33 1390.17 L14.74 1390.17 A2.70662 2.71367 0 0 1 17.45  1392.88 L17.45 1392.89 Z" class="r" transform="translate(15.1273,-10.5)"/><path d="M0 1421.28 A2.71483 2.7219 -180 0 0 2.71 1424 L29.87 1424 A2.71483 2.7219 -180 0 0 32.58 1421.28 L32.58  1394.06 A2.71483 2.7219 -180 0 0 29.87 1391.33 L2.71 1391.33 A2.71483 2.7219 -180 0 0 -0 1394.06  L0 1421.28 Z" class="bn" transform="translate(-3.17746E-13,-11.6667)"/><path d="M0.98 1410.67 A7.37978 7.399 0 0 1 3.88 1407.46 A8.76218 8.785 0 0 1 8.49 1406.31 A8.14778 8.169 0 0  1 12.75 1407.4 A7.30531 7.32433 0 0 1 15.57 1410.47 A9.87811 9.90383 0 0 1 16.55 1414.98 A10.4145  10.4417 0 0 1 15.54 1419.7 A7.48218 7.50167 0 0 1 12.63 1422.87 A8.47011 8.49217 0 0 1 8.21 1424  A8.3456 8.36733 0 0 1 3.86 1422.89 A7.41935 7.43867 0 0 1 1 1419.82 A9.63491 9.66 0 0 1 -0 1415.36  A10.6868 10.7147 0 0 1 0.98 1410.67 L0.98 1410.67 ZM4.07 1418.21 A4.79418 4.80667 -180 0 0 5.7 1420.32  A4.25542 4.2665 -180 0 0 8.25 1421.09 A4.47069 4.48233 -180 0 0 10.97 1420.29 A4.59404 4.606 -180  0 0 12.55 1418.18 A8.16407 8.18533 -180 0 0 13.05 1415.23 A8.9344 8.95767 -180 0 0 12.58 1412.25  A4.7104 4.72267 -180 0 0 11.05 1410.05 A4.21236 4.22333 -180 0 0 8.35 1409.22 A4.39971 4.41117 -180  0 0 5.75 1409.99 A4.83724 4.84983 -180 0 0 4.08 1412.12 A8.42822 8.45017 -180 0 0 4.07 1418.21 Z" class="s" transform="translate(8.01396,-19.0552)"/><path d="M2.88 1410.1 L1.72 1410.72 A3.16625 3.1745 0 0 1 0.06 1411.18 L0 1411.18 L23.3 1424 A2.83695 2.84433  -180 0 0 24.47 1421.99 L2.88 1410.1 Z" class="bo" transform="translate(39.4996,-0.593833)"/><path d="M23.3 1424 A2.95331 2.961 -180 0 0 24.11 1423.12 L1.65 1410.75 A3.26982 3.27833 0 0 1 1.42 1410.88 A3.20465  3.213 0 0 1 0.06 1411.17 L0 1411.17 L23.3 1424 Z" class="bo" transform="translate(39.4996,-0.5915)"/><text x="11.2" y="1443.9" class="y">Outlook</text></g></a><rect x="96" y="1184" width="96" height="48" rx="8" ry="8" class="l"/><text x="118" y="1204.4" class="j">One-time <tspan x="117" dy="1.2em" class="k">Purchase</tspan></text><a target="_blank" href="https://www.microsoft.com/microsoft-365/onenote/digital-note-taking-app"><g transform="translate(304,-760)"><path d="M45.38 1424 L2.71 1424 A2.7136 2.72067 0 0 1 0 1421.28 L0 1370.72 A2.7136 2.72067 0 0 1 2.71 1368 L46.16  1368 A2.70429 2.71133 0 0 1 48.86 1370.72 L48.87 1420.5 A4.22982 4.24083 0 0 1 45.38 1424 Z" class="bp" transform="translate(15.1273,2.27374E-13)"/><rect x="50" y="1382" width="14" height="14" class="bq"/><rect x="50" y="1396" width="14" height="14" class="br"/><path d="M0 1410 L13.96 1410 L13.96 1421.28 A2.71127 2.71833 0 0 1 11.25 1424 L0 1424 L0 1410 Z" class="bs" transform="translate(50.0364,2.27374E-13)"/><path d="M18.62 1390.55 L18.62 1421.28 A2.01775 2.023 0 0 1 18.57 1421.75 A2.69265 2.69967 0 0 1 15.91 1424 L0  1424 L0 1387.83 L15.91 1387.83 A2.70662 2.71367 0 0 1 18.62 1390.55 Z" class="q" transform="translate(15.1273,-8.16667)"/><path d="M19.78 1391.72 L19.78 1420.11 A3.91215 3.92233 0 0 1 15.91 1424 L0 1424 L0 1387.83 L15.91 1387.83 A3.88887  3.899 0 0 1 19.78 1391.72 Z" class="r" transform="translate(15.1273,-9.33333)"/><path d="M18.62 1392.89 L18.62 1421.28 A2.70662 2.71367 0 0 1 15.91 1424 L0 1424 L0 1390.17 L15.91 1390.17 A2.70662  2.71367 0 0 1 18.62 1392.89 Z" class="q" transform="translate(15.1273,-10.5)"/><path d="M17.45 1392.89 L17.45 1421.28 A2.70662 2.71367 0 0 1 14.74 1424 L0 1424 L0 1390.17 L14.74 1390.17 A2.70662  2.71367 0 0 1 17.45 1392.89 Z" class="r" transform="translate(15.1273,-10.5)"/><path d="M0 1421.28 A2.71483 2.7219 -180 0 0 2.71 1424 L29.87 1424 A2.71483 2.7219 -180 0 0 32.58 1421.28 L32.58  1394.06 A2.71483 2.7219 -180 0 0 29.87 1391.33 L2.71 1391.33 A2.71483 2.7219 -180 0 0 -0 1394.06  L0 1421.28 Z" class="bs" transform="translate(-3.15747E-13,-11.6667)"/><path d="M0 1406.31 L3.68 1406.31 L10.91 1418.04 C11.24 1418.57 11.49 1418.99 11.65 1419.31 L11.7 1419.31 A17.9631  18.0098 0 0 1 11.6 1416.91 L11.6 1406.31 L14.73 1406.31 L14.73 1424 L11.29 1424 L3.79 1411.94 A9.43942  9.464 0 0 1 3.12 1410.7 L3.06 1410.7 A25.7699 25.837 0 0 1 3.15 1413.34 L3.15 1424 L0 1424 L0 1406.31  Z" class="s" transform="translate(8.92393,-19.1532)"/><text x="9.1" y="1443.9" class="y">OneNote</text></g></a><a target="_blank" href="https://www.microsoft.com/microsoft-365/access"><g transform="translate(112,-1030.4)"><path d="M0 1402.4 L0 1416.8 C0 1420.78 10.94 1424 24.44 1424 C37.93 1424 48.87 1420.78 48.87 1416.8 L48.87 1402.4  L0 1402.4 Z" class="bt" transform="translate(15.1269,2.27374E-13)"/><path d="M0 1402.4 L0 1416.8 C0 1420.78 10.94 1424 24.44 1424 C37.93 1424 48.87 1420.78 48.87 1416.8 L48.87 1402.4  L0 1402.4 Z" class="bu" transform="translate(15.1269,-14.4)"/><path d="M0 1402.4 L0 1416.8 C0 1420.78 10.94 1424 24.44 1424 C37.93 1424 48.87 1420.78 48.87 1416.8 L48.87 1402.4  L0 1402.4 Z" class="bv" transform="translate(15.1269,-28.8)"/><ellipse cx="39.5" cy="1373.6" rx="24.4" ry="7.2" class="bw"/><path d="M18.62 1392.24 L18.62 1421.42 A2.01827 1.92123 0 0 1 18.57 1421.86 A2.69242 2.56296 0 0 1 15.91 1424  L0 1424 L0 1389.66 L15.91 1389.66 A2.70664 2.57649 0 0 1 18.62 1392.24 Z" class="q" transform="translate(15.1271,-9.96923)"/><path d="M19.78 1393.35 L19.78 1420.31 A3.91184 3.72374 0 0 1 15.91 1424 L0 1424 L0 1389.66 L15.91 1389.66 A3.88864  3.70165 0 0 1 19.78 1393.35 Z" class="r" transform="translate(15.1271,-11.0769)"/><path d="M18.62 1394.46 L18.62 1421.42 A2.70664 2.57649 0 0 1 15.91 1424 L0 1424 L0 1391.88 L15.91 1391.88 A2.70664  2.57649 0 0 1 18.62 1394.46 Z" class="q" transform="translate(15.1271,-12.1846)"/><path d="M17.45 1394.46 L17.45 1421.42 A2.70664 2.57649 0 0 1 14.74 1424 L0 1424 L0 1391.88 L14.74 1391.88 A2.70664  2.57649 0 0 1 17.45 1394.46 Z" class="r" transform="translate(15.1271,-12.1846)"/><path d="M0 1421.42 A2.71523 2.58467 -180 0 0 2.72 1424 L29.87 1424 A2.71523 2.58467 -180 0 0 32.58 1421.42 L32.58  1395.57 A2.71523 2.58467 -180 0 0 29.87 1392.98 L2.72 1392.98 A2.71523 2.58467 -180 0 0 0 1395.57  L0 1421.42 Z" class="bu" transform="translate(0,-13.2923)"/><path d="M6.52 1407.2 L10.52 1407.2 L16.95 1424 L13.17 1424 L11.75 1419.99 L5.14 1419.99 L3.75 1424 L0 1424 L6.52  1407.2 ZM10.9 1417.4 L8.85 1411.32 A8.48421 8.07625 0 0 1 8.47 1409.95 L8.39 1409.95 A8.16422 7.77165  0 0 1 8.02 1411.36 L5.94 1417.4 L10.9 1417.4 Z" class="s" transform="translate(7.8173,-20.3998)"/><text x="12.7" y="1442.3" class="y">Access</text></g></a><a target="_blank" href="https://www.microsoft.com/microsoft-365/publisher"><g transform="translate(112,-920)"><path d="M0 1421.24 A2.75261 2.75978 -180 0 0 2.75 1424 L20.52 1424 A2.75261 2.75978 -180 0 0 23.27 1421.24 L23.27  1377.76 A2.75261 2.75978 -180 0 0 20.52 1375 L2.75 1375 A2.75261 2.75978 -180 0 0 0 1377.76 L0 1421.24  Z" class="bx" transform="translate(40.7272,-3.50002)"/><path d="M35.74 1424 L2.66 1424 A2.65879 2.66572 0 0 1 0 1421.33 L0 1410 L20.95 1405.33 L38.4 1410 L38.4 1421.33  A2.65879 2.66572 0 0 1 35.74 1424 Z" class="bx" transform="translate(15.1271,0)"/><path d="M35.66 1393.67 L2.74 1393.67 A2.74674 2.7539 -180 0 0 -0 1396.42 L0 1421.67 L19.78 1424 L38.4 1421.67  L38.4 1396.42 A2.74669 2.75385 -180 0 0 35.66 1393.67 Z" class="by" transform="translate(15.1271,-25.6665)"/><rect x="15.1" y="1396" width="38.4" height="14" class="bz"/><path d="M18.62 1390.55 L18.62 1421.28 A2.01827 2.02352 0 0 1 18.57 1421.75 A2.69241 2.69942 0 0 1 15.91 1424  L0 1424 L0 1387.83 L15.91 1387.83 A2.70663 2.71368 0 0 1 18.62 1390.55 Z" class="q" transform="translate(15.1271,-8.16671)"/><path d="M19.78 1391.72 L19.78 1420.11 A3.91182 3.92201 0 0 1 15.91 1424 L0 1424 L0 1387.83 L15.91 1387.83 A3.88862  3.89875 0 0 1 19.78 1391.72 Z" class="r" transform="translate(15.1271,-9.33338)"/><path d="M18.62 1392.88 L18.62 1421.28 A2.70663 2.71368 0 0 1 15.91 1424 L0 1424 L0 1390.17 L15.91 1390.17 A2.70663  2.71368 0 0 1 18.62 1392.88 Z" class="q" transform="translate(15.1271,-10.5001)"/><path d="M17.45 1392.88 L17.45 1421.28 A2.70663 2.71368 0 0 1 14.74 1424 L0 1424 L0 1390.17 L14.74 1390.17 A2.70663  2.71368 0 0 1 17.45 1392.88 Z" class="r" transform="translate(15.1271,-10.5001)"/><path d="M0 1421.28 A2.71556 2.72263 -180 0 0 2.72 1424 L29.87 1424 A2.71556 2.72263 -180 0 0 32.58 1421.28 L32.58  1394.06 A2.71556 2.72263 -180 0 0 29.87 1391.33 L2.72 1391.33 A2.71556 2.72263 -180 0 0 0 1394.06  L0 1421.28 Z" class="bx" transform="translate(0,-11.6667)"/><path d="M7.01 1405.85 A7.17305 7.19174 0 0 1 11.84 1407.31 A5.25849 5.27219 0 0 1 13.52 1411.52 A5.96976 5.98531  0 0 1 12.69 1414.67 A5.60014 5.61473 0 0 1 10.33 1416.82 A7.82882 7.84922 0 0 1 6.79 1417.58 L3.44  1417.58 L3.44 1424 L0 1424 L0 1405.85 L7.01 1405.85 ZM3.44 1414.81 L6.4 1414.81 A3.77654 3.78638  -180 0 0 9.01 1414.01 A2.99959 3.0074 -180 0 0 9.9 1411.66 C9.9 1409.66 8.77 1408.66 6.51 1408.66  L3.44 1408.66 L3.44 1414.81 Z" class="s" transform="translate(9.81701,-19.0014)"/><rect x="53.5" y="1371.5" width="1.2" height="49" class="q"/><rect x="54.7" y="1371.5" width="1.2" height="49" class="r"/><text x="6.9" y="1443.9" class="y">Publisher</text></g></a><a target="_blank" href="https://www.microsoft.com/microsoft-365/onedrive/online-cloud-storage"><g transform="translate(304,-263.2)"><path d="M22.19 1424 C22.19 1424 36.03 1416.22 36.26 1416.34 A20.1634 20.2242 -180 0 0 11.81 1401.75 A19.8464  19.9063 -180 0 0 0 1410.24 C0.12 1410.24 22.19 1424 22.19 1424 Z" class="be" transform="translate(15.8654,-18.5455)"/><path d="M24.57 1400.91 A16.2149 16.2638 -180 0 0 16.1 1398.51 L15.87 1398.51 A16.1159 16.1645 -180 0 0 -0 1414.91  A16.6325 16.6827 -180 0 0 2.86 1424 L25.05 1421.73 L38.05 1409.16 L24.57 1400.91 Z" class="bn" transform="translate(3.23741E-13,-6.81994)"/><path d="M14.08 1404.74 L13.24 1404.74 A12.354 12.3912 -180 0 0 8.11 1405.81 L0 1409.16 L8.83 1418.97 L24.81  1424 A13.0821 13.1216 -180 0 0 19.44 1406.17 A14.3777 14.4211 -180 0 0 14.08 1404.74 Z" class="bl" transform="translate(38.1723,-6.93959)"/><path d="M48.55 1410.24 L45.21 1408.21 L37.58 1403.66 L35.19 1402.22 L29.11 1404.86 L17.3 1409.88 L11.93 1412.04  L0 1417.06 A16.232 16.281 -180 0 0 13.24 1424 L48.43 1424 A13.2588 13.2987 -180 0 0 60 1417.06 L48.55  1410.24 Z" class="bh" transform="translate(2.86292,0)"/><text x="7.6" y="1445.9" class="y">OneDrive <tspan x="9.4" dy="1.2em" class="k">(100 GB)</tspan></text></g></a><a target="_blank" href="https://www.skype.com/"><g transform="translate(304,-640)"><ellipse cx="18.6" cy="1378.5" rx="18.6" ry="18.6" class="bh"/><ellipse cx="45.5" cy="1405.4" rx="18.6" ry="18.6" class="bh"/><ellipse cx="32" cy="1392" rx="30.7" ry="30.7" class="bh"/><path d="M3.93 1406.12 A9.33632 9.33632 0 0 1 1 1403.03 A8.54016 8.54016 0 0 1 0 1398.76 A7.6736 7.6736 0 0 1  1.81 1393.59 A10.8813 10.8813 0 0 1 6.52 1390.44 A18.199 18.199 0 0 1 12.69 1389.4 A23.9616 23.9616  0 0 1 16.8 1389.72 A14.8224 14.8224 0 0 1 19.64 1390.45 A5.51936 5.51936 0 0 1 21.87 1391.87 A2.88  2.88 0 0 1 22.56 1393.79 A2.7712 2.7712 0 0 1 21.84 1395.78 A2.40768 2.40768 0 0 1 20.02 1396.54  A3.27552 3.27552 0 0 1 18.66 1396.24 A24.4915 24.4915 -180 0 0 15.44 1395.06 A11.6864 11.6864 -180  0 0 12.34 1394.68 A7.08096 7.08096 -180 0 0 8.46 1395.67 A3.232 3.232 -180 0 0 6.91 1398.57 A2.91968  2.91968 -180 0 0 7.71 1400.61 A7.33952 7.33952 -180 0 0 9.88 1402.16 C10.79 1402.61 12.15 1403.21  13.95 1403.96 A4.21888 4.21888 0 0 1 14.53 1404.19 A28.9139 28.9139 0 0 1 19.57 1406.78 A10.1594  10.1594 0 0 1 22.68 1409.97 A8.3968 8.3968 0 0 1 23.8 1414.39 A8.89344 8.89344 0 0 1 22.24 1419.72  A9.22112 9.22112 0 0 1 17.9 1422.94 A18.2886 18.2886 0 0 1 11.38 1424 A20.544 20.544 0 0 1 2.5 1422.32  A4.8384 4.8384 0 0 1 0.67 1420.9 A3.2 3.2 0 0 1 0.07 1418.96 A2.53056 2.53056 0 0 1 0.85 1416.99  A2.88256 2.88256 0 0 1 2.87 1416.28 A5.15712 5.15712 0 0 1 5.22 1416.88 C6.13 1417.34 6.84 1417.67  7.36 1417.9 A10.729 10.729 -180 0 0 9.2 1418.48 A10.5382 10.5382 -180 0 0 11.57 1418.73 A6.31936  6.31936 -180 0 0 15.55 1417.67 A3.50336 3.50336 -180 0 0 16.89 1414.76 A3.08736 3.08736 -180 0 0  16.05 1412.64 A8.928 8.928 -180 0 0 13.58 1410.84 C12.49 1410.27 10.96 1409.57 8.98 1408.74 A28.4723  28.4723 0 0 1 3.93 1406.12 L3.93 1406.12 Z" class="ca" transform="translate(20.1024,-14.7008)"/><path d="M3.93 1406.12 A9.33632 9.33632 0 0 1 1 1403.03 A8.54016 8.54016 0 0 1 0 1398.76 A7.6736 7.6736 0 0 1  1.81 1393.59 A10.8813 10.8813 0 0 1 6.52 1390.44 A18.199 18.199 0 0 1 12.69 1389.4 A23.9616 23.9616  0 0 1 16.8 1389.72 A14.8224 14.8224 0 0 1 19.64 1390.45 A5.51936 5.51936 0 0 1 21.87 1391.87 A2.88  2.88 0 0 1 22.56 1393.79 A2.7712 2.7712 0 0 1 21.84 1395.78 A2.40768 2.40768 0 0 1 20.02 1396.54  A3.27552 3.27552 0 0 1 18.66 1396.24 A24.4915 24.4915 -180 0 0 15.44 1395.06 A11.6864 11.6864 -180  0 0 12.34 1394.68 A7.08096 7.08096 -180 0 0 8.46 1395.67 A3.232 3.232 -180 0 0 6.91 1398.57 A2.91968  2.91968 -180 0 0 7.71 1400.61 A7.33952 7.33952 -180 0 0 9.88 1402.16 C10.79 1402.61 12.15 1403.21  13.95 1403.96 A4.21888 4.21888 0 0 1 14.53 1404.19 A28.9139 28.9139 0 0 1 19.57 1406.78 A10.1594  10.1594 0 0 1 22.68 1409.97 A8.3968 8.3968 0 0 1 23.8 1414.39 A8.89344 8.89344 0 0 1 22.24 1419.72  A9.22112 9.22112 0 0 1 17.9 1422.94 A18.2886 18.2886 0 0 1 11.38 1424 A20.544 20.544 0 0 1 2.5 1422.32  A4.8384 4.8384 0 0 1 0.67 1420.9 A3.2 3.2 0 0 1 0.07 1418.96 A2.53056 2.53056 0 0 1 0.85 1416.99  A2.88256 2.88256 0 0 1 2.87 1416.28 A5.15712 5.15712 0 0 1 5.22 1416.88 C6.13 1417.34 6.84 1417.67  7.36 1417.9 A10.729 10.729 -180 0 0 9.2 1418.48 A10.5382 10.5382 -180 0 0 11.57 1418.73 A6.31936  6.31936 -180 0 0 15.55 1417.67 A3.50336 3.50336 -180 0 0 16.89 1414.76 A3.08736 3.08736 -180 0 0  16.05 1412.64 A8.928 8.928 -180 0 0 13.58 1410.84 C12.49 1410.27 10.96 1409.57 8.98 1408.74 A28.4723  28.4723 0 0 1 3.93 1406.12" class="cb" transform="translate(20.1024,-14.7008)"/><path d="M24.06 1398.44 A18.1158 18.1158 -180 0 0 21.58 1397.8 A33.376 33.376 -180 0 0 -0 1419.38 A18.1248 18.1248  -180 0 0 0.64 1421.86 A14.057 14.057 -180 0 0 1.5 1424 A30.6522 30.6522 0 0 1 26.2 1399.3 A14.0672  14.0672 -180 0 0 24.06 1398.44 Z" class="r" transform="translate(0.2944,-37.504)"/><path d="M23.42 1361.23 A32.0256 32.0256 -180 0 0 -0 1384.65 A14.057 14.057 -180 0 0 0.86 1386.79 A30.6522 30.6522  0 0 1 25.56 1362.09 A14.0672 14.0672 -180 0 0 23.42 1361.23 ZM62.13 1399.94 A14.057 14.057 -180  0 0 61.27 1397.8 A30.6522 30.6522 0 0 1 36.57 1422.5 A14.0595 14.0595 -180 0 0 38.71 1423.36 A18.1158  18.1158 -180 0 0 41.19 1424 A33.376 33.376 -180 0 0 62.77 1402.42 A18.1261 18.1261 -180 0 0 62.13  1399.94 Z" class="r" transform="translate(0.9344,-0.2944)"/><path d="M24.7 1398.44 A30.6522 30.6522 0 0 1 -0 1423.14 A14.0595 14.0595 -180 0 0 2.14 1424 A32.0256 32.0256  -180 0 0 25.56 1400.58 A14.057 14.057 -180 0 0 24.7 1398.44 Z" class="r" transform="translate(37.504,-0.9344)"/><text x="15.8" y="1435.9" class="y">Skype</text></g></a><a target="_blank" href="https://www.microsoft.com/microsoft-365/microsoft-editor"><g transform="translate(304,-976)"><path d="M23.5 1413 L9.88 1413 L4.54 1420.36 L0 1423.59 L0 1424 L23.5 1424 A5.5 5.5 -180 0 0 23.5 1413 Z" class="x" transform="translate(12,-7)"/><path d="M20.71 1413 L7.99 1413 L0 1424 L20.71 1424 A5.5 5.5 -180 0 0 20.71 1413 Z" class="w" transform="translate(24.7886,-22)"/><path d="M19.82 1413 L7.99 1413 L0 1424 L19.82 1424 A5.5 5.5 -180 0 0 19.82 1413 Z" class="w" transform="translate(35.6836,-37)"/><path d="M4.54 1420.35 L0 1423.59 L0 1424 L5.46 1424 L7.04 1422.87 L14.21 1413 L9.88 1413 L4.54 1420.35 Z" class="r" transform="translate(12,-7)"/><path d="M7.99 1413 L0 1424 L4.33 1424 L12.32 1413 L7.99 1413 Z" class="r" transform="translate(35.684,-37)"/><path d="M0 1424 L4.32 1424 L12.32 1413 L7.99 1413 L0 1424 Z" class="r" transform="translate(24.789,-22)"/><path d="M4.54 1420.35 L0 1423.59 L0 1424 L3.74 1424 L6.32 1422.15 L12.97 1413 L9.88 1413 L4.54 1420.35 Z" class="r" transform="translate(12,-7)"/><path d="M0 1424 L3.09 1424 L11.08 1413 L7.99 1413 L0 1424 Z" class="r" transform="translate(24.789,-22)"/><path d="M7.99 1413 L0 1424 L3.09 1424 L11.08 1413 L7.99 1413 Z" class="r" transform="translate(35.684,-37)"/><rect x="0" y="1360" width="64" height="64" class="cc"/><path d="M4.54 1420.35 L0 1423.59 L0 1424 L2.01 1424 L5.61 1421.43 L11.74 1413 L9.88 1413 L4.54 1420.35 Z" class="r" transform="translate(12,-7)"/><path d="M7.99 1413 L0 1424 L1.85 1424 L9.84 1413 L7.99 1413 Z" class="r" transform="translate(35.684,-37)"/><path d="M0 1424 L1.85 1424 L9.84 1413 L7.99 1413 L0 1424 Z" class="r" transform="translate(24.789,-22)"/><path d="M3.18 1424 L25.16 1398.89 L42.43 1377.09 L33.04 1371.22 L31.86 1371.9 L3.04 1411.41 L0 1421.53 a0.96939  0.96939 -180 0 0 0.35115 1.04628 L0.35 1422.58 L3.18 1424 Z" class="u" transform="translate(2.30038,-5.86894)"/><path d="M2.37 1423.86 a0.959 0.959 -180 0 0 1.04118 -0.03193 L12.08 1417.65 L40.77 1378.15 L35.69 1372.47  L0 1421.9 L2.37 1423.86 Z" class="v" transform="translate(4.8157,-3.9329)"/><path d="M11.47 1424 L14.64 1419.62 C14.9 1419.24 14.77 1418.91 14.44 1418.46 C12.07 1415.2 5.01 1411.07  4.08 1411.15 A1.186 1.186 -180 0 0 3.17 1411.51 L0 1415.88 L11.47 1424 Z" class="x" transform="translate(34.1142,-49.7848)"/><path d="M5.21 1416.83 L1.38 1417.89 L0.06 1422.24 C0 1422.61 0.4 1423.14 0.69 1423.38 C0.99 1423.63 1.94  1424 2.32 1423.77 L5.91 1421.11 C5.93 1421.12 5.21 1416.83 5.21 1416.83 Z" class="x" transform="translate(1.27667,-1.1769)"/><text x="16.1" y="1435.9" class="y">Editor</text></g></a><rect x="272" y="832" width="128" height="32" rx="8" ry="8" class="cd"/><text x="302.3" y="844.4" class="j">One Person<tspan x="299.6" dy="1.2em" class="k">Five Devices</tspan></text><rect x="272" y="880" width="128" height="32" rx="8" ry="8" class="cd"/><text x="287.7" y="892.4" class="j">PC, Mac, iPhone, <tspan x="284.7" dy="1.2em" class="k">iPad, and Android</tspan></text><rect x="272" y="1232" width="128" height="32" rx="8" ry="8" class="ce"/><text x="285.7" y="1244.4" class="j">Monthly or Yearly <tspan x="299.3" dy="1.2em" class="k">Subscription</tspan></text><a target="_blank" href="https://www.microsoft.com/microsoft-365/p/office-home-student-2021/CFQ7TTC0H8N8"><rect x="80" y="768" width="128" height="32" rx="8" ry="8" class="i"/><text x="102.7" y="780.4" class="j">Office Home &amp; <tspan x="121.7" dy="1.2em" class="k">Student</tspan></text></a><a target="_blank" href="https://www.microsoft.com/microsoft-365/p/office-365-personal/cfq7ttc0k5bf"><rect x="32" y="208" width="400" height="32" rx="8" ry="8" class="cf"/><text x="133.5" y="229.4" class="h">Microsoft 365 Personal</text></a><rect x="256" y="96" width="128" height="64" rx="8" ry="8" class="cd"/><text x="289.6" y="124.4" class="j">Six People <tspan x="267.6" dy="1.2em" class="k">Five Devices Each</tspan></text><a target="_blank" href="https://www.microsoft.com/microsoft-365/p/office-professional-2021/CFQ7TTC0HHJ9"><rect x="48" y="272" width="192" height="32" rx="8" ry="8" class="i"/><text x="89.3" y="291.6" class="j">Office Professional</text></a><a target="_blank" href="https://www.microsoft.com/partner-benefits"><rect x="272" y="976" width="128" height="48" rx="8" ry="8" class="cd"/><text x="295.6" y="989.2" class="j">Partner Offers  <tspan x="287.7" dy="1.2em" class="k">(US, UK, AU, CA)  </tspan><tspan x="285.6" dy="1.2em" class="k">(ends 2023</tspan>-06-30)</text></a><rect x="272" y="928" width="128" height="32" rx="8" ry="8" class="cd"/><text x="286" y="947.6" class="j">Premium Content</text><a target="_blank" href="https://support.microsoft.com/office/882d2243-eab9-4545-a58a-b36fee4a46e2"><rect x="272" y="1280" width="128" height="32" rx="8" ry="8" class="ce"/><text x="299.3" y="1292.4" class="j">Outlook.com <tspan x="297.6" dy="1.2em" class="k">Adv. Security</tspan></text></a><a target="_blank" href="https://www.microsoft.com/microsoft-365/family-safety"><g transform="translate(112,-1280)"><path d="M44.71 1388.19 C43.85 1387.33 42.79 1386.57 41.64 1386.1 C39.53 1385.43 37.33 1385.05 35.21 1384.96  L31.18 1386.76 L28.02 1389.52 C28.02 1393.32 26.48 1396.93 23.8 1399.59 L19.67 1407 C14.1 1412.03  5.47 1411.94 0 1406.71 L15.26 1421.62 C17.75 1424 21.69 1424 24.18 1421.62 L43.18 1403.01 C44.52  1401.3 47.78 1397.59 47.78 1395.31 C47.78 1392.65 46.63 1390.09 44.71 1388.19 Z" class="cg" transform="translate(13.6252,-1.995)"/><path d="M33.3 1415.73 L31.38 1407.47 C28.69 1404.81 27.15 1401.2 27.15 1397.4 L21.78 1395.5 L18.04 1394.17 C0  1394.17 6.14 1407.66 9.69 1411.65 L13.15 1415.07 L13.63 1415.54 C22.16 1424 32.53 1421.24 33.3 1415.73  Z" class="ch" transform="translate(-7.99361E-15,-10.735)"/><path d="M23.03 1403.77 L23.03 1406.71 C23.03 1410.51 21.49 1414.12 18.81 1416.78 L11.99 1423.52 C11.8 1423.71  11.71 1423.81 11.51 1424 L4.22 1416.78 C1.54 1414.12 0 1410.51 0 1406.71 L0 1394.84 L23.03 1394.84  L23.03 1403.77 Z" class="ci" transform="translate(21.7811,-19)"/><path d="M30.7 1399.11 C30.7 1404.05 25.52 1407.95 19.19 1407.95 L15.35 1407.95 C9.69 1407.95 5.09 1412.5 5.09  1418.01 C5.09 1420.2 5.76 1422.29 7.1 1424 L4.8 1421.81 C1.73 1418.4 0 1413.93 0 1409.28 C0 1408.52  0.1 1407.66 0.19 1406.9 C1.34 1397.4 9.5 1390.28 19.19 1390.28 C25.52 1390.28 30.7 1394.27 30.7  1399.11 Z" class="cj" transform="translate(2.5907,-23.275)"/><path d="M0 1399.11 C0 1404.05 5.18 1407.95 11.51 1407.95 L15.35 1407.95 C21.01 1407.95 25.62 1412.5 25.62 1418.01  C25.62 1420.2 24.95 1422.29 23.6 1424 L25.91 1421.72 C28.98 1418.3 30.7 1413.74 30.7 1409.18 C30.7  1408.42 30.61 1407.57 30.51 1406.81 C29.36 1397.4 21.21 1390.28 11.51 1390.28 C5.18 1390.28 0 1394.27  0 1399.11 Z" class="ck" transform="translate(33.2954,-23.275)"/><rect x="2.6" y="1363.2" width="61.4" height="60.8" class="cc"/><text x="14.6" y="1436.5" class="y">Family <tspan x="15.5" dy="1.2em" class="k">Safety</tspan></text></g></a><a target="_blank" href="https://m365maps.com/"><rect x="0" y="1408" width="464" height="16" class="cl"/><text x="374.6" y="1419.6" class="cm">m365maps.com</text></a><a target="_blank" href="https://clipchamp.com/"><g transform="translate(305,-1090)"><path d="M57.57 1384.24 L4.43 1384.24 C1.97 1384.24 0 1381.43 0 1378.94 L0 1384.24 L0 1419.46 C0 1421.95 1.99  1424 4.43 1424 L57.57 1424 C60.01 1424 62 1421.95 62 1419.46 L62 1388.78 C62 1386.28 60.01 1384.24  57.57 1384.24 Z" class="cn"/><path d="M0 1410.37 L62 1410.37 L62 1419.46 C62 1421.96 60.01 1424 57.57 1424 L4.43 1424 C1.99 1424 0 1421.96  0 1419.46 L0 1410.37 Z" class="co" transform="translate(1.59872E-14,-0.00184658)"/><path d="M39.86 1410.75 L0 1410.75 L0 1424 L39.86 1424 L39.86 1410.75 Z" class="cp" transform="translate(22.1422,-13.2584)"/><path d="M22.14 1410.75 L0 1410.75 L0 1424 L22.14 1424 L22.14 1410.75 Z" class="cq" transform="translate(7.99361E-15,-13.2584)"/><path d="M52.2 1398.6 L3.44 1410.15 C1.26 1410.67 0 1412.32 0 1414.97 C0.02 1415.18 0 1416.3 0 1416.3 L1.29 1420.27  C1.84 1422.72 4.04 1424 6.42 1423.44 L55.18 1411.88 C57.57 1411.32 59.05 1408.88 58.5 1406.43 L57.51  1402.01 C56.96 1399.56 54.58 1398.04 52.2 1398.6 Z" class="cr" transform="translate(0,-36.036)"/><path d="M0 1410.75 L17.71 1410.75 C20.15 1410.75 22.14 1412.79 22.14 1415.29 L22.14 1424 L0 1424 L0 1410.75 Z" class="cq" transform="translate(39.8574,-26.5126)"/><path d="M39.86 1410.75 L0 1410.75 L0 1424 L39.86 1424 L39.86 1410.75 Z" class="cs" transform="translate(1.59872E-14,-26.5126)"/><path d="M0 1418.7 L0 1424 L4.43 1424 C1.99 1424 0 1421.2 0 1418.7 Z" class="cs" transform="translate(9.49241E-15,-39.7631)"/><path d="M0 1418.7 L0 1424 L5.17 1424 C2.32 1424 0 1421.61 0 1418.7 Z" class="co" transform="translate(8.49321E-15,-13.2547)"/><path d="M0 1418.7 L0 1424 L5.17 1424 C2.32 1424 0 1421.61 0 1418.7 Z" class="cq" transform="translate(8.49321E-15,-26.5089)"/><text x="2.9" y="1437.9" class="y">Clipchamp</text></g></a><a target="_blank" href="https://www.microsoft.com/microsoft-365/microsoft-365-basic-faqs"><rect x="256" y="1056" width="160" height="32" rx="8" ry="8" class="i"/><text x="279.6" y="1075.6" class="j">Microsoft 365 Basic</text></a><a target="_blank" href="https://www.microsoft.com/microsoft-365/onedrive/online-cloud-storage"><g transform="translate(304,-887.2)"><path d="M22.19 1424 C22.19 1424 36.03 1416.22 36.26 1416.34 A20.1634 20.2242 -180 0 0 11.81 1401.75 A19.8464  19.9063 -180 0 0 0 1410.24 C0.12 1410.24 22.19 1424 22.19 1424 Z" class="be" transform="translate(15.8654,-18.5455)"/><path d="M24.57 1400.91 A16.2149 16.2638 -180 0 0 16.1 1398.51 L15.87 1398.51 A16.1159 16.1645 -180 0 0 -0 1414.91  A16.6325 16.6827 -180 0 0 2.86 1424 L25.05 1421.73 L38.05 1409.16 L24.57 1400.91 Z" class="bn" transform="translate(3.23741E-13,-6.81994)"/><path d="M14.08 1404.74 L13.24 1404.74 A12.354 12.3912 -180 0 0 8.11 1405.81 L0 1409.16 L8.83 1418.97 L24.81  1424 A13.0821 13.1216 -180 0 0 19.44 1406.17 A14.3777 14.4211 -180 0 0 14.08 1404.74 Z" class="bl" transform="translate(38.1723,-6.93959)"/><path d="M48.55 1410.24 L45.21 1408.21 L37.58 1403.66 L35.19 1402.22 L29.11 1404.86 L17.3 1409.88 L11.93 1412.04  L0 1417.06 A16.232 16.281 -180 0 0 13.24 1424 L48.43 1424 A13.2588 13.2987 -180 0 0 60 1417.06 L48.55  1410.24 Z" class="bh" transform="translate(2.86292,0)"/><text x="7.6" y="1445.9" class="y">OneDrive <tspan x="16.4" dy="1.2em" class="k">(1 TB)</tspan></text></g></a><a target="_blank" href="https://support.microsoft.com/office/96162163-b3aa-498b-bbbb-5e757b0f31da"><rect x="272" y="1328" width="128" height="32" rx="8" ry="8" class="ce"/><text x="296.7" y="1340.4" class="j">Phone &amp; Chat <tspan x="313" dy="1.2em" class="k">Support</tspan></text></a></svg>