<svg xmlns="http://www.w3.org/2000/svg" width="1728" height="1184" viewBox="0 0 1728 1184" class="a"><style>
.b {fill:#a5a5a5;fill-opacity:0.2;stroke:#9248c8;stroke-linecap:round;stroke-linejoin:round;stroke-width:2.25}
.c {fill:#a5a5a5;fill-opacity:0.2;stroke:#431d5f;stroke-linecap:round;stroke-linejoin:round;stroke-width:2.25}
.d {fill:#a5a5a5;fill-opacity:0.2;stroke:#2080a0;stroke-dasharray:33.75,20.25;stroke-linecap:round;stroke-linejoin:round;stroke-width:2.25}
.e {fill:#a5a5a5;fill-opacity:0.2;stroke:#105868;stroke-linecap:round;stroke-linejoin:round;stroke-width:2.25}
.f {fill:#a5a5a5;fill-opacity:0.2;stroke:#e82200;stroke-dasharray:33.75,20.25;stroke-linecap:round;stroke-linejoin:round;stroke-width:2.25}
.g {fill:#a5a5a5;fill-opacity:0.2;stroke:#d04a00;stroke-linecap:round;stroke-linejoin:round;stroke-width:2.25}
.h {fill:#a5a5a5;fill-opacity:0.2;stroke:#e82200;stroke-linecap:round;stroke-linejoin:round;stroke-width:2.25}
.i {fill:#a5a5a5;fill-opacity:0.2;stroke:#2080a0;stroke-linecap:round;stroke-linejoin:round;stroke-width:2.25}
.j {fill:#a5a5a5;fill-opacity:0.2;stroke:#303040;stroke-linecap:round;stroke-linejoin:round;stroke-width:2.25}
.k {fill:#a5a5a5;fill-opacity:0.2;stroke:#006600;stroke-dasharray:33.75,20.25;stroke-linecap:round;stroke-linejoin:round;stroke-width:2.25}
.l {fill:#431d5f;stroke:#431d5f;stroke-linecap:round;stroke-linejoin:round;stroke-width:2.25}
.m {fill:#ffffff;font-family:Arial;font-size:1.66667em;font-weight:bold}
.n {fill:#105868;stroke:#105868;stroke-linecap:round;stroke-linejoin:round;stroke-width:2.25}
.o {fill:#ffffff;font-family:Arial;font-size:1.5em;font-weight:bold}
.p {fill:#2080a0;stroke:#2080a0;stroke-linecap:round;stroke-linejoin:round;stroke-width:2.25}
.q {fill:#006600;stroke:#006600;stroke-linecap:round;stroke-linejoin:round;stroke-width:2.25}
.r {fill:#e82200;stroke:#e82200;stroke-linecap:round;stroke-linejoin:round;stroke-width:2.25}
.s {fill:none;stroke:none;stroke-linecap:round;stroke-linejoin:round;stroke-width:1}
.t {fill:#0070f7;font-family:Arial;font-size:4.00001em;font-weight:bold}
.u {fill:#0070f7;font-family:Arial;font-size:2.50001em;font-weight:bold}
.v {fill:#0070f7;font-family:Arial;font-size:1.5em;font-weight:bold}
.w {fill:#105868;stroke:none;stroke-linecap:round;stroke-linejoin:round;stroke-width:1}
.x {fill:#ffffff;font-family:Arial;font-size:1.16666em;font-weight:bold}
.y {font-size:1em}
.z {fill:#303040;stroke:#303040;stroke-linecap:round;stroke-linejoin:round;stroke-width:2.25}
.ba {fill:#ffffff;font-family:Arial;font-size:1.33333em;font-weight:bold}
.bb {fill:#0050c0;stroke:none;stroke-linecap:round;stroke-linejoin:round;stroke-width:1}
.bc {fill:#2080a0;stroke:none;stroke-linecap:round;stroke-linejoin:round;stroke-width:1}
.bd {font-size:0.928588em}
.be {fill:#e82200;stroke:none;stroke-linecap:round;stroke-linejoin:round;stroke-width:1}
.bf {fill:#7030a0;stroke:#7030a0;stroke-linecap:round;stroke-linejoin:round;stroke-width:2.25}
.bg {fill:#d04a00;stroke:none;stroke-linecap:round;stroke-linejoin:round;stroke-width:1}
.bh {fill:#006600;stroke:none;stroke-linecap:round;stroke-linejoin:round;stroke-width:1}
.bi {fill:#d04a00;stroke:#d04a00;stroke-linecap:round;stroke-linejoin:round;stroke-width:2.25}
.bj {fill:#a5a5a5;fill-opacity:0.2;stroke:#303040;stroke-dasharray:15.75,11.25;stroke-linecap:round;stroke-linejoin:round;stroke-width:2.25}
.bk {fill:#000000;font-family:Arial;font-size:1.5em}
.bl {fill:#907000;stroke:none;stroke-linecap:round;stroke-linejoin:round;stroke-width:1}
.bm {fill:#e00080;stroke:none;stroke-linecap:round;stroke-linejoin:round;stroke-width:1}
.bn {fill:#50b0d0;stroke:none;stroke-linecap:round;stroke-linejoin:round;stroke-width:1}
.a {fill:none;fill-rule:evenodd;font-size:12px;overflow:visible;stroke-linecap:square;stroke-miterlimit:3}
</style><rect x="112" y="176" width="544" height="960" rx="8" ry="8" class="b"/><rect x="976" y="176" width="640" height="960" rx="8" ry="8" class="c"/><rect x="16" y="672" width="1696" height="192" rx="8" ry="8" class="d"/><rect x="992" y="688" width="576" height="160" rx="8" ry="8" class="e"/><rect x="16" y="384" width="1696" height="256" rx="8" ry="8" class="f"/><rect x="992" y="400" width="608" height="224" rx="8" ry="8" class="g"/><rect x="128" y="416" width="464" height="160" rx="8" ry="8" class="h"/><rect x="128" y="686.8" width="352" height="160" rx="8" ry="8" class="i"/><rect x="704" y="304" width="224" height="816" rx="8" ry="8" class="j"/><rect x="16" y="896" width="1696" height="144" rx="8" ry="8" class="k"/><rect x="976" y="176" width="640" height="64" rx="8" ry="8" class="l"/><text x="1118.2" y="214" class="m">Microsoft 365 A5 Student Use Benefit</text><rect x="992" y="800" width="576" height="48" rx="8" ry="8" class="n"/><text x="1158.5" y="829.4" class="o">EMS A5 Student Use Benefit</text><a target="_blank" href="https://www.microsoft.com/cloud-platform/enterprise-mobility-security"><g transform="translate(-1104,864) rotate(-90)"><rect x="0" y="1120" width="192" height="64" rx="8" ry="8" class="p"/><text x="74.3" y="1158" class="m">EMS</text></g></a><a target="_blank" href="https://www.microsoft.com/microsoft-365/windows/windows-11-enterprise"><g transform="translate(-1104,1040) rotate(-90)"><rect x="0" y="1120" width="144" height="64" rx="8" ry="8" class="q"/><text x="28.1" y="1158" class="m">Windows</text></g></a><a target="_blank" href="https://learn.microsoft.com/office365/servicedescriptions/office-365-platform-service-description/office-365-education"><g transform="translate(-1104,640) rotate(-90)"><rect x="0" y="1120" width="256" height="64" rx="8" ry="8" class="r"/><text x="80.2" y="1158" class="m">Office 365</text></g></a><a target="_blank" href="https://m365maps.com/"><rect x="16" y="16" width="1696" height="64" rx="8" ry="8" class="s" data-feature="B3BF2B9F-EF70-714A-BE3F-A18EABB21AFD"/><text x="330.6" y="62.4" class="t">Microsoft 365 Education: Student Use Benefits</text></a><rect x="16" y="80" width="1696" height="32" rx="8" ry="8" class="s"/><text x="782.3" y="105" class="u">March 2023</text><a target="_blank" href="https://m365maps.com/"><rect x="16" y="112" width="1696" height="32" rx="8" ry="8" class="s"/><text x="796.5" y="133.4" class="v">m365maps.com</text></a><a target="_blank" href="https://learn.microsoft.com/defender-for-identity/what-is"><rect x="1344" y="704" width="96" height="80" rx="8" ry="8" class="w" data-feature="81F4050A-FCE9-464E-9DFA-186D3B7F99E7"/><text x="1350.4" y="739.8" class="x">Defender for <tspan x="1367.1" dy="1.2em" class="y">Identity</tspan></text></a><a target="_blank" href="https://learn.microsoft.com/defender-cloud-apps/what-is-defender-for-cloud-apps"><rect x="1232" y="704" width="96" height="80" rx="8" ry="8" class="w" data-feature="3C8173CB-CE42-0048-B875-84762117FCB2"/><text x="1238.4" y="739.8" class="x">Defender for <tspan x="1240.7" dy="1.2em" class="y">Cloud Apps</tspan></text></a><rect x="704" y="304" width="224" height="48" rx="8" ry="8" class="z"/><text x="718.2" y="323.2" class="ba">Microsoft 365 A5 Security <tspan x="740" dy="1.2em" class="y">Student Use Benefit</tspan></text><rect x="704" y="1072" width="224" height="48" rx="8" ry="8" class="z"/><text x="718.2" y="1091.2" class="ba">Microsoft 365 A5 Security <tspan x="740" dy="1.2em" class="y">Student Use Benefit</tspan></text><a target="_blank" href="https://azure.microsoft.com/pricing/details/active-directory/"><rect x="768" y="704" width="96" height="80" rx="8" ry="8" class="bb" data-feature="9D59E848-1FE6-A347-A6A7-C72209FAA157"/><text x="784.5" y="731.4" class="x">Azure AD <tspan x="786" dy="1.2em" class="y">Premium </tspan><tspan x="795.4" dy="1.2em" class="y">Plan 2</tspan></text></a><a target="_blank" href="https://www.microsoft.com/licensing/terms/product/StudentUseBenefitsandAcademicPrograms/all"><rect x="16" y="1136" width="1696" height="32" rx="8" ry="8" class="s"/><text x="386.5" y="1157.4" class="v">Refer to the Microsoft Product Terms for more information, including program eligibility and staff/student ratios</text></a><a target="_blank" href="https://azure.microsoft.com/pricing/details/active-directory/"><rect x="256" y="704" width="96" height="80" rx="8" ry="8" class="bc" data-feature="1F1086A6-7FCA-5E4C-A18A-BC78EFEB4ABB"/><text x="272.5" y="731.4" class="x">Azure AD <tspan x="274" dy="1.2em" class="y">Premium </tspan><tspan x="283.4" dy="1.2em" class="y">Plan 1</tspan></text></a><a target="_blank" href="https://learn.microsoft.com/advanced-threat-analytics/"><rect x="144" y="704" width="96" height="80" rx="8" ry="8" class="bc" data-feature="58F50BBE-9314-E84E-AA5D-7ABC87C23161"/><text x="158.6" y="723" class="x">Advanced <tspan x="170.6" dy="1.2em" class="y">Threat </tspan><tspan x="160.9" dy="1.2em" class="y">Analytics </tspan><tspan x="165.3" dy="1.292em" class="bd">(retiring)</tspan></text></a><a target="_blank" href="https://learn.microsoft.com/cloud-app-security/editions-cloud-app-security-o365"><rect x="480" y="432" width="96" height="80" rx="8" ry="8" class="be" data-feature="8D7EB58E-7580-EE4F-9A22-85087CAB7B0A"/><text x="494.5" y="459.4" class="x">Office 365 <tspan x="492.6" dy="1.2em" class="y">Cloud App </tspan><tspan x="500.4" dy="1.2em" class="y">Security</tspan></text></a><a target="_blank" href="https://www.microsoft.com/microsoft-365/business/microsoft-365-apps-for-enterprise-product"><rect x="256" y="432" width="96" height="80" rx="8" ry="8" class="be" data-feature="BBAFE1A1-9AF8-1A43-8962-AA02F9A096E1"/><text x="272.5" y="459.4" class="x">Microsoft <tspan x="261.6" dy="1.2em" class="y">365 Apps for </tspan><tspan x="270.2" dy="1.2em" class="y">Education</tspan></text></a><rect x="128" y="800" width="352" height="48" rx="8" ry="8" class="p"/><text x="182.5" y="829.4" class="o">EMS A3 Student Use Benefit</text><rect x="128" y="528" width="464" height="48" rx="8" ry="8" class="r"/><text x="215" y="557.4" class="o">Office 365 A3 Student Use Benefit</text><rect x="112" y="176" width="544" height="64" rx="8" ry="8" class="bf"/><text x="206.2" y="214" class="m">Microsoft 365 A3 Student Use Benefit</text><a target="_blank" href="https://learn.microsoft.com/office365/servicedescriptions/office-365-advanced-threat-protection-service-description#feature-availability-across-advanced-threat-protection-atp-plans"><rect x="1488" y="432" width="96" height="80" rx="8" ry="8" class="bg" data-feature="75399014-B3B3-0C4E-AC86-1AEB141F804B"/><text x="1494.4" y="459.4" class="x">Defender for <tspan x="1502.5" dy="1.2em" class="y">Office 365 </tspan><tspan x="1515.4" dy="1.2em" class="y">Plan 2</tspan></text></a><a target="_blank" href="https://learn.microsoft.com/office365/servicedescriptions/office-365-advanced-threat-protection-service-description#feature-availability-across-advanced-threat-protection-atp-plans"><rect x="768" y="432" width="96" height="80" rx="8" ry="8" class="bg" data-feature="E329E2BF-4252-3D4A-A8BE-F7FAC9E07214"/><text x="774.4" y="459.4" class="x">Defender for <tspan x="782.5" dy="1.2em" class="y">Office 365 </tspan><tspan x="795.4" dy="1.2em" class="y">Plan 1</tspan></text></a><a target="_blank" href="https://learn.microsoft.com/education/windows/windows-editions-for-education-customers"><rect x="1008" y="928" width="96" height="80" rx="8" ry="8" class="bh"/><text x="1014.4" y="972.2" class="x">Windows A3</text></a><a target="_blank" href="https://learn.microsoft.com/advanced-threat-analytics/"><rect x="1008" y="704" width="96" height="80" rx="8" ry="8" class="bc" data-feature="58F50BBE-9314-E84E-AA5D-7ABC87C23161"/><text x="1022.6" y="723" class="x">Advanced <tspan x="1034.6" dy="1.2em" class="y">Threat </tspan><tspan x="1024.9" dy="1.2em" class="y">Analytics </tspan><tspan x="1027.2" dy="1.2em" class="y">(retiring)</tspan></text></a><rect x="992" y="576" width="608" height="48" rx="8" ry="8" class="bi"/><text x="1151" y="605.4" class="o">Office 365 A5 Student Use Benefit</text><a target="_blank" href="https://azure.microsoft.com/pricing/details/active-directory/"><rect x="1120" y="704" width="96" height="80" rx="8" ry="8" class="bb" data-feature="9D59E848-1FE6-A347-A6A7-C72209FAA157"/><text x="1136.5" y="731.4" class="x">Azure AD <tspan x="1138" dy="1.2em" class="y">Premium </tspan><tspan x="1147.4" dy="1.2em" class="y">Plan 2</tspan></text></a><a target="_blank" href="https://www.microsoft.com/education/products/office"><rect x="368" y="432" width="96" height="80" rx="8" ry="8" class="be"/><text x="382.5" y="467.8" class="x">Office 365 <tspan x="407" dy="1.2em" class="y">A1</tspan></text></a><a target="_blank" href="https://learn.microsoft.com/education/windows/windows-editions-for-education-customers"><rect x="144" y="928" width="96" height="80" rx="8" ry="8" class="bh"/><text x="150.4" y="972.2" class="x">Windows A3</text></a><a target="_blank" href="https://www.microsoft.com/cloud-platform/enterprise-mobility-security"><g transform="translate(528,864) rotate(-90)"><rect x="0" y="1120" width="192" height="64" rx="8" ry="8" class="p"/><text x="74.3" y="1158" class="m">EMS</text></g></a><a target="_blank" href="https://www.microsoft.com/microsoft-365/windows/windows-11-enterprise"><g transform="translate(528,1040) rotate(-90)"><rect x="0" y="1120" width="144" height="64" rx="8" ry="8" class="q"/><text x="28.1" y="1158" class="m">Windows</text></g></a><a target="_blank" href="https://learn.microsoft.com/office365/servicedescriptions/office-365-platform-service-description/office-365-education"><g transform="translate(528,640) rotate(-90)"><rect x="0" y="1120" width="256" height="64" rx="8" ry="8" class="r"/><text x="80.2" y="1158" class="m">Office 365</text></g></a><rect x="976" y="1072" width="640" height="64" rx="8" ry="8" class="l"/><text x="1118.2" y="1110" class="m">Microsoft 365 A5 Student Use Benefit</text><rect x="112" y="1072" width="544" height="64" rx="8" ry="8" class="bf"/><text x="206.2" y="1110" class="m">Microsoft 365 A3 Student Use Benefit</text><rect x="704" y="192" width="224" height="96" rx="8" ry="8" class="bj"/><text x="748.5" y="223.8" class="bk">Microsoft 365 A5 <tspan x="739" dy="1.2em" class="y">Compliance has no </tspan><tspan x="736" dy="1.2em" class="y">Student Use Benefit</tspan></text><a target="_blank" href="https://education.minecraft.net/homepage"><rect x="144" y="272" width="96" height="80" rx="8" ry="8" class="bl" data-feature="48A5C224-3A8A-C746-B48D-76EE1BD16F41"/><text x="160.9" y="299.4" class="x">Minecraft <tspan x="158.2" dy="1.2em" class="y">Education </tspan><tspan x="168.3" dy="1.2em" class="y">Edition</tspan></text></a><a target="_blank" href="https://education.minecraft.net/homepage"><rect x="1008" y="272" width="96" height="80" rx="8" ry="8" class="bl" data-feature="48A5C224-3A8A-C746-B48D-76EE1BD16F41"/><text x="1024.9" y="299.4" class="x">Minecraft <tspan x="1022.2" dy="1.2em" class="y">Education </tspan><tspan x="1032.3" dy="1.2em" class="y">Edition</tspan></text></a><rect x="368" y="272" width="272" height="80" rx="8" ry="8" class="bj"/><text x="384.4" y="295.8" class="bk">Microsoft 365 A3 Student Use <tspan x="407.9" dy="1.2em" class="y">Benefit does not include </tspan><tspan x="387.9" dy="1.2em" class="y">Defender for Endpoint Plan 1</tspan></text><rect x="1120" y="928" width="416" height="80" rx="8" ry="8" class="bj"/><text x="1137.9" y="951.8" class="bk">Microsoft 365 A5 and Microsoft 365 A5 Security<tspan x="1184.9" dy="1.2em" class="y">Student Use Benefits do not include </tspan><tspan x="1211.9" dy="1.2em" class="y">Defender for Endpoint Plan 2</tspan></text><a target="_blank" href="https://learn.microsoft.com/microsoft-365/bookings/bookings-overview"><rect x="144" y="432" width="96" height="80" rx="8" ry="8" class="be" data-feature="DCC883D8-5878-A246-B691-B5F309BDED3A"/><text x="160.1" y="476.2" class="x">Bookings</text></a><rect x="1008" y="416" width="464" height="144" rx="8" ry="8" class="h"/><a target="_blank" href="https://learn.microsoft.com/cloud-app-security/editions-cloud-app-security-o365"><rect x="1360" y="432" width="96" height="80" rx="8" ry="8" class="be" data-feature="8D7EB58E-7580-EE4F-9A22-85087CAB7B0A"/><text x="1374.5" y="459.4" class="x">Office 365 <tspan x="1372.6" dy="1.2em" class="y">Cloud App </tspan><tspan x="1380.4" dy="1.2em" class="y">Security</tspan></text></a><a target="_blank" href="https://www.microsoft.com/microsoft-365/business/microsoft-365-apps-for-enterprise-product"><rect x="1136" y="432" width="96" height="80" rx="8" ry="8" class="be" data-feature="BBAFE1A1-9AF8-1A43-8962-AA02F9A096E1"/><text x="1152.5" y="459.4" class="x">Microsoft <tspan x="1141.6" dy="1.2em" class="y">365 Apps for </tspan><tspan x="1150.2" dy="1.2em" class="y">Education</tspan></text></a><rect x="1008" y="528" width="464" height="32" rx="8" ry="8" class="r"/><text x="1111.1" y="548.8" class="ba">Office 365 A3 Student Use Benefit</text><a target="_blank" href="https://www.microsoft.com/education/products/office"><rect x="1248" y="432" width="96" height="80" rx="8" ry="8" class="be"/><text x="1262.5" y="467.8" class="x">Office 365 <tspan x="1287" dy="1.2em" class="y">A1</tspan></text></a><a target="_blank" href="https://learn.microsoft.com/microsoft-365/bookings/bookings-overview"><rect x="1024" y="432" width="96" height="80" rx="8" ry="8" class="be" data-feature="DCC883D8-5878-A246-B691-B5F309BDED3A"/><text x="1040.1" y="476.2" class="x">Bookings</text></a><a target="_blank" href="https://learn.microsoft.com/mem/intune/remote-actions/remote-help"><rect x="1120" y="272" width="96" height="80" rx="8" ry="8" class="bm" data-feature="9AEF260E-C3DC-8041-A2BD-B404B33AB38D"/><text x="1142.3" y="307.8" class="x">Remote  <tspan x="1152.8" dy="1.2em" class="y">Help</tspan></text></a><a target="_blank" href="https://learn.microsoft.com/mem/intune/remote-actions/remote-help"><rect x="256" y="272" width="96" height="80" rx="8" ry="8" class="bm" data-feature="9AEF260E-C3DC-8041-A2BD-B404B33AB38D"/><text x="278.3" y="307.8" class="x">Remote  <tspan x="288.8" dy="1.2em" class="y">Help</tspan></text></a><a target="_blank" href="https://learn.microsoft.com/intune-education/what-is-intune-for-education"><rect x="368" y="704" width="96" height="80" rx="8" ry="8" class="bn" data-feature="72F7F5F7-0D1C-2840-9FCC-42923DEF66B0"/><text x="372.4" y="731.4" class="x">Intune Plan 1 <tspan x="406.7" dy="1.2em" class="y">for </tspan><tspan x="382.2" dy="1.2em" class="y">Education</tspan></text></a><a target="_blank" href="https://learn.microsoft.com/intune-education/what-is-intune-for-education"><rect x="1456" y="704" width="96" height="80" rx="8" ry="8" class="bn" data-feature="72F7F5F7-0D1C-2840-9FCC-42923DEF66B0"/><text x="1460.4" y="731.4" class="x">Intune Plan 1 <tspan x="1494.7" dy="1.2em" class="y">for </tspan><tspan x="1470.2" dy="1.2em" class="y">Education</tspan></text></a></svg>