<svg xmlns="http://www.w3.org/2000/svg" width="1168" height="1696" viewBox="0 0 1168 1696" class="a"><style>
.b {fill:#a5a5a5;fill-opacity:0.2;stroke:#006600;stroke-dasharray:33.75,20.25;stroke-linecap:round;stroke-linejoin:round;stroke-width:2.25}
.c {fill:#a5a5a5;fill-opacity:0.2;stroke:#2080a0;stroke-dasharray:33.75,20.25;stroke-linecap:round;stroke-linejoin:round;stroke-width:2.25}
.d {fill:#a5a5a5;fill-opacity:0.2;stroke:#e82200;stroke-dasharray:33.75,20.25;stroke-linecap:round;stroke-linejoin:round;stroke-width:2.25}
.e {fill:#a5a5a5;fill-opacity:0.2;stroke:#a058c0;stroke-linecap:round;stroke-linejoin:round;stroke-width:2.25}
.f {fill:#2080a0;stroke:#2080a0;stroke-linecap:round;stroke-linejoin:round;stroke-width:2.25}
.g {fill:#ffffff;font-family:Arial;font-size:1.66667em;font-weight:bold}
.h {fill:#006600;stroke:#006600;stroke-linecap:round;stroke-linejoin:round;stroke-width:2.25}
.i {fill:#e82200;stroke:#e82200;stroke-linecap:round;stroke-linejoin:round;stroke-width:2.25}
.j {fill:#a058c0;stroke:#a058c0;stroke-linecap:round;stroke-linejoin:round;stroke-width:2.25}
.k {fill:none;stroke:none;stroke-linecap:round;stroke-linejoin:round;stroke-width:0.75}
.l {fill:#0070f7;font-family:Arial;font-size:4.00001em;font-weight:bold}
.m {fill:none;stroke:none;stroke-linecap:round;stroke-linejoin:round;stroke-width:1}
.n {fill:#0070f7;font-family:Arial;font-size:2.50001em;font-weight:bold}
.o {fill:#0070f7;font-family:Arial;font-size:1.5em;font-weight:bold}
.p {fill:#907000;stroke:none;stroke-linecap:round;stroke-linejoin:round;stroke-width:1}
.q {fill:#ffffff;font-family:Arial;font-size:1.16666em;font-weight:bold}
.r {font-size:1em}
.s {fill:#e00080;stroke:none;stroke-linecap:round;stroke-linejoin:round;stroke-width:1}
.t {fill:#e82200;stroke:none;stroke-linecap:round;stroke-linejoin:round;stroke-width:1}
.u {fill:#a41500;stroke:none;stroke-linecap:round;stroke-linejoin:round;stroke-width:1}
.v {fill:#008800;stroke:none;stroke-linecap:round;stroke-linejoin:round;stroke-width:2}
.w {fill:#ffffff;font-family:Arial;font-size:1.00001em;font-weight:bold}
.x {fill:#008800;stroke:none;stroke-linecap:round;stroke-linejoin:round;stroke-width:2.5}
.y {fill:#a5a5a5;fill-opacity:0.2;stroke:#50b0d0;stroke-dasharray:2.25,4.5;stroke-linecap:round;stroke-linejoin:round;stroke-width:2.25}
.z {fill:#000000;font-family:Arial;font-size:1.33333em}
.ba {fill:#50b0d0;stroke:none;stroke-linecap:round;stroke-linejoin:round;stroke-width:1}
.a {fill:none;fill-rule:evenodd;font-size:12px;overflow:visible;stroke-linecap:square;stroke-miterlimit:3}
</style><rect x="16" y="1248" width="1136" height="336" rx="8" ry="8" class="b"/><rect x="16" y="1040" width="1136" height="176" rx="8" ry="8" class="c"/><rect x="16" y="384" width="1136" height="624" rx="8" ry="8" class="d"/><rect x="112" y="176" width="944" height="1504" rx="8" ry="8" class="e"/><a target="_blank" href="https://www.microsoft.com/cloud-platform/enterprise-mobility-security"><g transform="translate(-1616,1216) rotate(-90)"><rect x="0" y="1632" width="176" height="64" rx="8" ry="8" class="f"/><text x="66.3" y="1670" class="g">EMS</text></g></a><a target="_blank" href="https://www.microsoft.com/microsoft-365/windows/windows-11-enterprise"><g transform="translate(-1616,1584) rotate(-90)"><rect x="0" y="1632" width="336" height="64" rx="8" ry="8" class="h"/><text x="61.3" y="1670" class="g">Windows Pro Upgrade</text></g></a><a target="_blank" href="https://learn.microsoft.com/office365/servicedescriptions/office-365-platform-service-description/office-365-education"><g transform="translate(-1616,1008) rotate(-90)"><rect x="0" y="1632" width="624" height="64" rx="8" ry="8" class="i"/><text x="264.2" y="1670" class="g">Office 365</text></g></a><a target="_blank" href="https://www.microsoft.com/microsoft-365/compare-all-microsoft-365-plans"><rect x="112" y="1616" width="944" height="64" rx="8" ry="8" class="j"/><text x="447.3" y="1654" class="g">Microsoft 365 A1 for Devices</text></a><a target="_blank" href="https://www.microsoft.com/microsoft-365/compare-all-microsoft-365-plans"><rect x="112" y="176" width="944" height="64" rx="8" ry="8" class="j"/><text x="447.3" y="214" class="g">Microsoft 365 A1 for Devices</text></a><a target="_blank" href="https://www.microsoft.com/cloud-platform/enterprise-mobility-security"><g transform="translate(-544,1216) rotate(-90)"><rect x="0" y="1632" width="176" height="64" rx="8" ry="8" class="f"/><text x="66.3" y="1670" class="g">EMS</text></g></a><a target="_blank" href="https://www.microsoft.com/microsoft-365/windows/windows-11-enterprise"><g transform="translate(-544,1584) rotate(-90)"><rect x="0" y="1632" width="336" height="64" rx="8" ry="8" class="h"/><text x="61.3" y="1670" class="g">Windows Pro Upgrade</text></g></a><a target="_blank" href="https://learn.microsoft.com/office365/servicedescriptions/office-365-platform-service-description/office-365-education"><g transform="translate(-544,1008) rotate(-90)"><rect x="0" y="1632" width="624" height="64" rx="8" ry="8" class="i"/><text x="264.2" y="1670" class="g">Office 365</text></g></a><a target="_blank" href="https://m365maps.com/"><rect x="16" y="16" width="1136" height="64" class="k"/><text x="255.9" y="62.4" class="l">Microsoft 365 A1 for Devices</text></a><rect x="16" y="80" width="1136" height="32" rx="8" ry="8" class="m"/><text x="502.3" y="105" class="n">March 2023</text><a target="_blank" href="https://m365maps.com/"><rect x="16" y="112" width="1136" height="32" class="k"/><text x="516.5" y="133.4" class="o">m365maps.com</text></a><a target="_blank" href="https://education.minecraft.net/homepage"><rect x="144" y="272" width="96" height="80" rx="8" ry="8" class="p" data-feature="48A5C224-3A8A-C746-B48D-76EE1BD16F41"/><text x="160.9" y="299.4" class="q">Minecraft <tspan x="158.2" dy="1.2em" class="r">Education </tspan><tspan x="168.3" dy="1.2em" class="r">Edition</tspan></text></a><a target="_blank" href="https://learn.microsoft.com/mem/intune/remote-actions/remote-help"><rect x="256" y="272" width="96" height="80" rx="8" ry="8" class="s" data-feature="9AEF260E-C3DC-8041-A2BD-B404B33AB38D"/><text x="278.3" y="307.8" class="q">Remote  <tspan x="288.8" dy="1.2em" class="r">Help</tspan></text></a><a target="_blank" href="https://www.microsoft.com/microsoft-365/business/microsoft-365-apps-for-enterprise-product"><rect x="256" y="608" width="96" height="80" rx="8" ry="8" class="t" data-feature="BBAFE1A1-9AF8-1A43-8962-AA02F9A096E1"/><text x="272.5" y="635.4" class="q">Microsoft <tspan x="261.6" dy="1.2em" class="r">365 Apps for </tspan><tspan x="270.2" dy="1.2em" class="r">Education</tspan></text></a><a target="_blank" href="https://support.office.com/sway"><rect x="928" y="800" width="96" height="80" rx="8" ry="8" class="u" data-feature="ED122C37-BAA0-8440-8FEB-21E7B044C63C"/><text x="958.1" y="844.2" class="q">Sway</text></a><a target="_blank" href="https://learn.microsoft.com/office365/servicedescriptions/exchange-online-protection-service-description/exchange-online-protection-service-description"><rect x="592" y="512" width="96" height="80" rx="8" ry="8" class="u" data-feature="BAC5A674-C259-6249-AB8A-12C313A32549"/><text x="606.9" y="539.4" class="q">Exchange <tspan x="618.2" dy="1.2em" class="r">Online </tspan><tspan x="605.4" dy="1.2em" class="r">Protection</tspan></text></a><a target="_blank" href="https://products.office.com/microsoft-teams/"><rect x="816" y="608" width="96" height="80" rx="8" ry="8" class="u" data-feature="543B8269-DF36-CC4B-9823-FB05B4D1A849"/><text x="832.5" y="643.8" class="q">Microsoft <tspan x="841.8" dy="1.2em" class="r">Teams</tspan></text></a><a target="_blank" href="https://learn.microsoft.com/office365/servicedescriptions/exchange-online-service-description/exchange-online-service-description#feature-availability-across-exchange-online-standalone-plans"><rect x="480" y="512" width="96" height="80" rx="8" ry="8" class="u" data-feature="1F97224E-BB22-114F-B70E-A27C23070C1E"/><text x="494.9" y="539.4" class="q">Exchange <tspan x="506.2" dy="1.2em" class="r">Online </tspan><tspan x="507.4" dy="1.2em" class="r">Plan 1</tspan></text></a><a target="_blank" href="https://learn.microsoft.com/sharepoint/introduction"><rect x="704" y="800" width="96" height="80" rx="8" ry="8" class="u" data-feature="1F2336EF-5D0C-1345-A67D-B8B1D5807E45"/><text x="715" y="827.4" class="q">SharePoint <tspan x="730.2" dy="1.2em" class="r">Online </tspan><tspan x="727.3" dy="1.2em" class="r">Plan 1+</tspan></text></a><a target="_blank" href="https://learn.microsoft.com/office365/servicedescriptions/onedrive-for-business-service-description"><rect x="368" y="704" width="96" height="80" rx="8" ry="8" class="u" data-feature="96B3F2C3-1008-4F45-B714-7B8DCBFB3119"/><text x="373.6" y="731.4" class="q">OneDrive for <tspan x="384.9" dy="1.2em" class="r">Business </tspan><tspan x="395.4" dy="1.2em" class="r">Plan 1</tspan></text></a><a target="_blank" href="https://products.office.com/business/task-management-software"><rect x="592" y="704" width="96" height="80" rx="8" ry="8" class="u" data-feature="6D135CF7-EE0E-B745-977C-3364388FF33F"/><text x="614.3" y="748.2" class="q">Planner</text></a><a target="_blank" href="https://learn.microsoft.com/stream/"><rect x="816" y="800" width="96" height="80" rx="8" ry="8" class="u" data-feature="DB95A14F-DCD6-7743-9E57-AE0113AF61E6"/><text x="829" y="835.8" class="q">Stream for <tspan x="830.5" dy="1.2em" class="r">Office 365</tspan></text></a><a target="_blank" href="https://support.microsoft.com/office/1315665a-c6af-4409-a28d-49f8916878ca"><rect x="144" y="512" width="96" height="80" rx="8" ry="8" class="u" data-feature="74119099-BD75-764C-9212-820A6640E3AF"/><text x="173.3" y="556.2" class="q">Delve</text></a><a target="_blank" href="https://sds.microsoft.com/"><rect x="480" y="800" width="96" height="80" rx="8" ry="8" class="u" data-feature="B1C0709F-1960-FE41-BA56-D130F2913705"/><text x="487.6" y="835.8" class="q">School Data <tspan x="511.3" dy="1.2em" class="r">Sync</tspan></text></a><a target="_blank" href="https://support.office.com/forms"><rect x="480" y="608" width="96" height="80" rx="8" ry="8" class="u" data-feature="BB2AC066-B28A-BB44-AE1B-D1FB72598720"/><text x="496.5" y="643.8" class="q">Microsoft <tspan x="506.6" dy="1.2em" class="r">Forms</tspan></text></a><a target="_blank" href="https://www.onenote.com/classnotebook"><rect x="480" y="704" width="96" height="80" rx="8" ry="8" class="u" data-feature="38A753B3-CD2F-514F-A993-961ACD5E092A"/><text x="498.8" y="731.4" class="q">OneNote <tspan x="509.3" dy="1.2em" class="r">Class </tspan><tspan x="495.7" dy="1.2em" class="r">Notebook</tspan></text></a><a target="_blank" href="https://www.microsoft.com/en-us/microsoft-365/blog/2016/06/20/professional-learning-community-groups-in-office-365-education/"><rect x="704" y="704" width="96" height="80" rx="8" ry="8" class="u" data-feature="91D66096-E694-C44B-BDEE-5F0A765BB153"/><text x="738" y="739.8" class="q">PLC<tspan x="727.1" dy="1.2em" class="r">Groups</tspan></text></a><a target="_blank" href="https://learn.microsoft.com/microsoft-365/whiteboard/"><rect x="144" y="704" width="96" height="80" rx="8" ry="8" class="u" data-feature="141927E2-F8BF-CA48-8B9B-D4092C4563CB"/><text x="160.5" y="739.8" class="q">Microsoft <tspan x="153.5" dy="1.2em" class="r">Whiteboard</tspan></text></a><a target="_blank" href="https://www.microsoft.com/microsoft-365/microsoft-to-do-list-app"><rect x="928" y="608" width="96" height="80" rx="8" ry="8" class="u" data-feature="41DD4B93-73C7-C24A-84D9-E6B62756A0C5"/><text x="944.5" y="643.8" class="q">Microsoft <tspan x="956.2" dy="1.2em" class="r">To Do</tspan></text></a><a target="_blank" href="https://learn.microsoft.com/microsoft-365/compliance/get-started-core-ediscovery"><rect x="256" y="512" width="96" height="80" rx="8" ry="8" class="u" data-feature="8D90A5EA-9F8F-8D42-8676-FFE24CF363CE"/><text x="266.6" y="547.8" class="q">eDiscovery <tspan x="269.8" dy="1.2em" class="r">(standard)</tspan></text></a><a target="_blank" href="https://www.microsoft.com/microsoft-365/microsoft-lists"><rect x="592" y="608" width="96" height="80" rx="8" ry="8" class="u" data-feature="F9326F34-585B-0E4F-ADB9-333C255E15E7"/><text x="608.5" y="643.8" class="q">Microsoft <tspan x="623.7" dy="1.2em" class="r">Lists</tspan></text></a><a target="_blank" href="https://products.office.com/en/business/microsoft-kaizala"><rect x="928" y="512" width="96" height="80" rx="8" ry="8" class="u" data-feature="C1069EA8-18FC-D445-B5EC-9A17D2AEB587"/><text x="938.3" y="547.8" class="q">Kaizala Pro<tspan x="947.2" dy="1.2em" class="r">(retiring)</tspan></text></a><a target="_blank" href="https://learn.microsoft.com/microsoft-365/compliance/sensitivity-labels"><rect x="816" y="512" width="96" height="80" rx="8" ry="8" class="u" data-feature="1288BA2E-3A78-2647-8176-0E24BBD5D1D0"/><text x="825.5" y="539.4" class="q">Information <tspan x="829.4" dy="1.2em" class="r">Protection</tspan><tspan x="835.2" dy="1.2em" class="r">for M365</tspan></text></a><a target="_blank" href="https://learn.microsoft.com/microsoft-365/compliance/ome"><rect x="144" y="608" width="96" height="80" rx="8" ry="8" class="u" data-feature="50B3A769-5F38-BC4E-9856-7CCFDDAB1DD3"/><text x="162.4" y="635.4" class="q">Message <tspan x="155.4" dy="1.2em" class="r">Encryption </tspan><tspan x="169.4" dy="1.2em" class="r">(basic)</tspan></text></a><a target="_blank" href="https://www.microsoft.com/microsoft-viva/connections"><rect x="144" y="896" width="96" height="80" rx="8" ry="8" class="u" data-feature="213EE8A8-722C-D640-8BD8-008F939E3535"/><text x="177.6" y="931.8" class="q">Viva <tspan x="149.6" dy="1.2em" class="r">Connections</tspan></text></a><a target="_blank" href="https://www.microsoft.com/microsoft-viva/learning"><rect x="368" y="896" width="96" height="80" rx="8" ry="8" class="u" data-feature="C5598362-2311-A84B-933E-19D1583914D4"/><text x="401.6" y="923.4" class="q">Viva <tspan x="386.4" dy="1.2em" class="r">Learning </tspan><tspan x="393.4" dy="1.2em" class="r">(basic)</tspan></text></a><a target="_blank" href="https://learn.microsoft.com/microsoft-365/compliance/search-the-audit-log-in-security-and-compliance"><rect x="480" y="416" width="96" height="80" rx="8" ry="8" class="u" data-feature="E67D07C0-53F5-FB41-B04D-D30974A72A1F"/><text x="510.1" y="451.8" class="q">Audit <tspan x="493.8" dy="1.2em" class="r">(standard)</tspan></text></a><a target="_blank" href="https://learn.microsoft.com/microsoft-365/compliance/alert-policies"><rect x="368" y="416" width="96" height="80" rx="8" ry="8" class="u" data-feature="A46AE7F8-3904-944A-9E4B-B3138DAB33CC"/><text x="400" y="451.8" class="q">Alert <tspan x="389.5" dy="1.2em" class="r">Policies</tspan></text></a><a target="_blank" href="https://www.microsoft.com/microsoft-365/mobile"><rect x="368" y="608" width="96" height="80" rx="8" ry="8" class="u" data-feature="6E7D2ACF-ECB0-0748-BC79-4D1931250DB5"/><text x="384.5" y="635.4" class="q">Microsoft <tspan x="380.2" dy="1.2em" class="r">365 Mobile </tspan><tspan x="402.4" dy="1.2em" class="r">App</tspan></text></a><a target="_blank" href="https://learn.microsoft.com/office365/servicedescriptions/office-online-service-description/office-online-service-description"><rect x="256" y="704" width="96" height="80" rx="8" ry="8" class="u" data-feature="A0E8EC70-C846-AC45-B82C-D036D8F58F6A"/><text x="284.2" y="731.4" class="q">Office<tspan x="265.5" dy="1.2em" class="r">for the Web</tspan><tspan x="268.6" dy="1.2em" class="r">(incl Visio)</tspan></text></a><a target="_blank" href="https://learn.microsoft.com/viva/engage/overview"><rect x="256" y="896" width="96" height="80" rx="8" ry="8" class="u" data-feature="12330CC8-93BE-E043-8231-12CEA55876CC"/><text x="289.6" y="931.8" class="q">Viva <tspan x="278.7" dy="1.2em" class="r">Engage</tspan></text></a><a target="_blank" href="https://learn.microsoft.com/microsoft-365/compliance/compliance-manager-overview"><rect x="816" y="416" width="96" height="80" rx="8" ry="8" class="u" data-feature="5AE727ED-3979-B649-A986-6BA7098735F1"/><text x="824.3" y="451.8" class="q">Compliance <tspan x="835.2" dy="1.2em" class="r">Manager</tspan></text></a><a target="_blank" href="https://learn.microsoft.com/microsoft-365/security/defender/microsoft-secure-score"><rect x="592" y="800" width="96" height="80" rx="8" ry="8" class="u" data-feature="96B903EE-221F-DC4D-90C0-AE7FDE8D31CA"/><text x="616.6" y="835.8" class="q">Secure <tspan x="620.6" dy="1.2em" class="r">Score</tspan></text></a><a target="_blank" href="https://learn.microsoft.com/microsoft-365/admin/adoption/adoption-score"><rect x="256" y="416" width="96" height="80" rx="8" ry="8" class="u" data-feature="DED671DE-3A0F-C747-B5D8-5EE47650A117"/><text x="273.3" y="451.8" class="q">Adoption <tspan x="284.6" dy="1.2em" class="r">Score</tspan></text></a><a target="_blank" href="https://learn.microsoft.com/microsoft-365/admin/activity-reports/activity-reports"><rect x="144" y="416" width="96" height="80" rx="8" ry="8" class="u" data-feature="550D7638-34DC-364E-8932-11FAF49F5D4B"/><text x="166.7" y="451.8" class="q">Activity <tspan x="165.6" dy="1.2em" class="r">Reports</tspan></text></a><a target="_blank" href="https://learn.microsoft.com/microsoft-365/compliance/information-barriers"><rect x="704" y="512" width="96" height="80" rx="8" ry="8" class="u" data-feature="F1375179-3953-074E-AF12-B724EFE6E49F"/><text x="713.5" y="547.8" class="q">Information <tspan x="725.2" dy="1.2em" class="r">Barriers</tspan></text></a><a target="_blank" href="https://support.microsoft.com/topic/27b56255-90c0-47aa-bac3-1c9f50157181"><rect x="368" y="512" width="96" height="80" rx="8" ry="8" class="u" data-feature="C940BD6F-A65A-4849-811B-7A031D9C2AE3"/><text x="382.2" y="547.8" class="q">Education <tspan x="389.2" dy="1.2em" class="r">Insights</tspan></text></a><a target="_blank" href="https://learn.microsoft.com/microsoft-365/admin/basic-mobility-security/capabilities"><rect x="704" y="416" width="96" height="80" rx="8" ry="8" class="u" data-feature="8330882F-39BB-5D48-A321-46276FC0F1B8"/><text x="733.3" y="443.4" class="q">Basic <tspan x="718.6" dy="1.2em" class="r">Mobility &amp; </tspan><tspan x="724.4" dy="1.2em" class="r">Security</tspan></text></a><a target="_blank" href="https://azure.microsoft.com/pricing/details/active-directory/"><rect x="592" y="416" width="96" height="80" rx="8" ry="8" class="u" data-feature="3E639B79-39CA-2141-81C1-BB7B9E63CE75"/><text x="597.2" y="451.8" class="q">Azure AD for <tspan x="606.5" dy="1.2em" class="r">Office 365</tspan></text></a><a target="_blank" href="https://learn.microsoft.com/project-for-the-web/office-365-user-view-access-to-project-and-roadmap"><rect x="144" y="800" width="96" height="80" rx="8" ry="8" class="u" data-feature="FBF2EADB-FDA1-DE4F-B0CE-7E4B637C269B"/><text x="161.3" y="827.4" class="q">Project &amp; <tspan x="160.1" dy="1.2em" class="r">Roadmap </tspan><tspan x="149.6" dy="1.2em" class="r">View Access</tspan></text></a><a target="_blank" href="https://learn.microsoft.com/microsoft-365/compliance/dlp-learn-about-dlp"><rect x="928" y="416" width="96" height="80" rx="8" ry="8" class="u" data-feature="4DE7C810-36B6-114D-AC36-ECCE84D1622B"/><text x="942.6" y="451.8" class="q">Data Loss <tspan x="939.8" dy="1.2em" class="r">Prevention</tspan></text></a><a target="_blank" href="https://learn.microsoft.com/microsoftsearch/overview-microsoft-search"><rect x="704" y="608" width="96" height="80" rx="8" ry="8" class="u" data-feature="3DF10631-B76A-1D47-9EB0-71A21637557F"/><text x="720.5" y="643.8" class="q">Microsoft <tspan x="728.6" dy="1.2em" class="r">Search</tspan></text></a><a target="_blank" href="https://powerapps.microsoft.com/"><rect x="816" y="704" width="96" height="80" rx="8" ry="8" class="u" data-feature="5F33A943-8E80-574B-8C6C-816268621A0A"/><text x="823.6" y="731.4" class="q">Power Apps<tspan x="854.7" dy="1.2em" class="r">for </tspan><tspan x="830.5" dy="1.2em" class="r">Office 365</tspan></text></a><a target="_blank" href="https://powerautomate.microsoft.com/"><rect x="928" y="704" width="96" height="80" rx="8" ry="8" class="u" data-feature="80D7F572-D88C-AF4E-8444-5DC902D3A938"/><text x="955" y="731.4" class="q">Power <tspan x="932.4" dy="1.2em" class="r">Automate for</tspan><tspan x="942.5" dy="1.2em" class="r">Office 365</tspan></text></a><a target="_blank" href="https://learn.microsoft.com/windows/client-management/mdm/mdm-overview"><rect x="480" y="1376" width="96" height="80" rx="8" ry="8" class="v" data-feature="74E3F0F9-EDFE-5640-8C04-9E3AC548549E"/><text x="491.8" y="1411.8" class="q">Manage by <tspan x="511.3" dy="1.2em" class="r">MDM</tspan></text></a><a target="_blank" href="https://learn.microsoft.com/windows-server/identity/ad-fs/operations/configure-device-based-conditional-access-on-premises"><rect x="928" y="1376" width="96" height="80" rx="8" ry="8" class="v" data-feature="FCBE089F-FECE-B84C-8B39-F37889332AAE"/><text x="945.3" y="1403.4" class="q">Windows <tspan x="937.5" dy="1.2em" class="r">Conditional </tspan><tspan x="951.5" dy="1.2em" class="r">Access</tspan></text></a><a target="_blank" href="https://learn.microsoft.com/windows/security/information-protection/windows-information-protection/protect-enterprise-data-using-wip"><rect x="368" y="1472" width="96" height="80" rx="8" ry="8" class="v" data-feature="D63029D0-2F8C-844D-8BB8-92D273F7296D"/><text x="385.3" y="1491" class="q">Windows <tspan x="377.5" dy="1.2em" class="r">Information </tspan><tspan x="381.4" dy="1.2em" class="r">Protection </tspan><tspan x="387.2" dy="1.2em" class="r">(retiring)</tspan></text></a><a target="_blank" href="https://learn.microsoft.com/windows/deployment/update/waas-manage-updates-wufb"><rect x="480" y="1472" width="96" height="80" rx="8" ry="8" class="v" data-feature="ADA6E3BF-7AA8-0045-9E07-FF460FBEFDAC"/><text x="497.3" y="1499.4" class="q">Windows <tspan x="493" dy="1.2em" class="r">Update for </tspan><tspan x="496.9" dy="1.2em" class="r">Business</tspan></text></a><a target="_blank" href="https://learn.microsoft.com/windows/security/identity-protection/hello-for-business/hello-identity-verification"><rect x="256" y="1472" width="96" height="80" rx="8" ry="8" class="v" data-feature="40AE14A9-E8E0-4549-9780-62826C7C37AA"/><text x="273.3" y="1499.4" class="q">Windows <tspan x="275.6" dy="1.2em" class="r">Hello for </tspan><tspan x="272.9" dy="1.2em" class="r">Business</tspan></text></a><a target="_blank" href="https://www.microsoft.com/edge/business"><rect x="368" y="1376" width="96" height="80" rx="8" ry="8" class="v" data-feature="C33E73C7-B2B3-124C-AF11-4ECBB7C10116"/><text x="387.6" y="1411.8" class="q">Edge for <tspan x="384.9" dy="1.2em" class="r">Business</tspan></text></a><a target="_blank" href="https://support.microsoft.com/help/17214/windows-10-what-is"><rect x="928" y="1280" width="96" height="80" rx="8" ry="8" class="v" data-feature="45E64BF9-B458-D04A-BBDE-5C03E30BDC61"/><text x="949.6" y="1324.2" class="q">Cortana</text></a><a target="_blank" href="https://learn.microsoft.com/windows/security/threat-protection/windows-defender-application-guard/wd-app-guard-overview"><rect x="256" y="1280" width="96" height="80" rx="8" ry="8" class="v" data-feature="115442BC-2643-3244-AC9D-9BC2A41A3A8E"/><text x="265.9" y="1315.8" class="q">Application <tspan x="283.4" dy="1.2em" class="r">Guard</tspan></text></a><a target="_blank" href="https://www.microsoft.com/windows/comprehensive-security"><rect x="144" y="1376" width="96" height="80" rx="8" ry="8" class="v" data-feature="2A10CD3C-BC89-624E-B7AE-265B3E29E699"/><text x="161.7" y="1411.8" class="q">Defender <tspan x="161.7" dy="1.2em" class="r">Antivirus</tspan></text></a><a target="_blank" href="https://learn.microsoft.com/windows/deployment/windows-autopilot/windows-autopilot"><rect x="816" y="1376" width="96" height="80" rx="8" ry="8" class="v" data-feature="52861257-8E60-9E4A-AF0F-863274C411FC"/><text x="833.3" y="1411.8" class="q">Windows <tspan x="833.3" dy="1.2em" class="r">Autopilot</tspan></text></a><a target="_blank" href="https://learn.microsoft.com/windows/security/threat-protection/windows-firewall/windows-firewall-with-advanced-security"><rect x="144" y="1472" width="96" height="80" rx="8" ry="8" class="v" data-feature="7A8EC75A-6A39-7D49-89B4-5419C3FD4AE8"/><text x="161.3" y="1507.8" class="q">Windows <tspan x="165.9" dy="1.2em" class="r">Firewall</tspan></text></a><a target="_blank" href="https://learn.microsoft.com/windows/security/threat-protection/windows-defender-application-control/windows-defender-application-control"><rect x="144" y="1280" width="96" height="80" rx="8" ry="8" class="v" data-feature="705A05A1-7E08-BC4A-800D-9AE0EAFDA753"/><text x="153.9" y="1315.8" class="q">Application <tspan x="167.1" dy="1.2em" class="r">Control</tspan></text></a><a target="_blank" href="https://go.microsoft.com/fwlink/?linkid=2085130"><rect x="592" y="1376" width="96" height="80" rx="8" ry="8" class="v" data-feature="CD1A941A-F2E4-F949-A897-1266E8DC602F"/><text x="622" y="1398" class="w">Power <tspan x="612.3" dy="1.2em" class="r">Automate </tspan><tspan x="614" dy="1.2em" class="r">Attended </tspan><tspan x="597.7" dy="1.2em" class="r">Desktop Flows</tspan></text></a><a target="_blank" href="https://learn.microsoft.com/windows-hardware/customize/enterprise/unbranded-boot"><rect x="704" y="1376" width="96" height="80" rx="8" ry="8" class="v" data-feature="DE6AF908-FF0B-0047-997A-D9F27F89E1D7"/><text x="715.1" y="1411.8" class="q">Unbranded <tspan x="736.1" dy="1.2em" class="r">Boot</tspan></text></a><a target="_blank" href="https://learn.microsoft.com/windows/whats-new/windows-11-plan#servicing-and-support"><rect x="592" y="1472" width="96" height="80" rx="8" ry="8" class="x" data-feature="170CD503-9722-6146-8466-B08B830C2D93"/><text x="605" y="1499.4" class="q">24 months <tspan x="602.7" dy="1.2em" class="r">support for </tspan><tspan x="599.6" dy="1.2em" class="r">Windows 11</tspan></text></a><a target="_blank" href="https://learn.microsoft.com/windows/security/threat-protection/windows-defender-application-control/applocker/applocker-overview"><rect x="368" y="1280" width="96" height="80" rx="8" ry="8" class="v" data-feature="CDCD2458-CA1C-D540-887E-E81CA1FBC3D4"/><text x="379.4" y="1324.2" class="q">AppLocker</text></a><a target="_blank" href="https://learn.microsoft.com/windows/configuration/kiosk-single-app"><rect x="480" y="1280" width="96" height="80" rx="8" ry="8" class="x" data-feature="62F183F9-8468-2D48-953F-43CDC49FA37A"/><text x="496.5" y="1315.8" class="q">Assigned <tspan x="503.5" dy="1.2em" class="r">Access</tspan></text></a><a target="_blank" href="https://learn.microsoft.com/azure/active-directory/user-help/user-help-join-device-on-network"><rect x="256" y="1376" width="96" height="80" rx="8" ry="8" class="x" data-feature="2D77E2BF-E6B5-484B-A0CE-64AD47E805E0"/><text x="262" y="1420.2" class="q">Domain Join</text></a><a target="_blank" href="https://learn.microsoft.com/windows/security/information-protection/bitlocker/bitlocker-overview"><rect x="704" y="1280" width="96" height="80" rx="8" ry="8" class="x" data-feature="D5C6F67E-3B40-F547-B428-087645BFD77D"/><text x="719.7" y="1324.2" class="q">BitLocker</text></a><a target="_blank" href="https://learn.microsoft.com/azure/active-directory/devices/concept-azure-ad-join"><rect x="592" y="1280" width="96" height="80" rx="8" ry="8" class="x" data-feature="FF9D7685-C9A5-104E-AC71-A24D44B09676"/><text x="608.5" y="1315.8" class="q">Azure AD <tspan x="625.6" dy="1.2em" class="r">Join</tspan></text></a><a target="_blank" href="https://learn.microsoft.com/windows/security/information-protection/bitlocker/bitlocker-to-go-faq"><rect x="816" y="1280" width="96" height="80" rx="8" ry="8" class="x" data-feature="EDDB4F08-2AA8-DA4C-A34A-5BC609EE6B06"/><text x="823.2" y="1315.8" class="q">BitLocker to <tspan x="854.3" dy="1.2em" class="r">Go</tspan></text></a><a target="_blank" href="https://learn.microsoft.com/microsoft-365/compliance/retention"><rect x="256" y="800" width="96" height="80" rx="8" ry="8" class="u" data-feature="6D33576F-3845-1949-BB35-4D68A5BE59E0"/><text x="271.7" y="835.8" class="q">Retention <tspan x="281.8" dy="1.2em" class="r">Labels</tspan></text></a><a target="_blank" href="https://learn.microsoft.com/microsoft-365/compliance/create-retention-policies"><rect x="368" y="800" width="96" height="80" rx="8" ry="8" class="u" data-feature="A68AD6BA-4F38-474D-B943-0C392CFB6754"/><text x="383.7" y="835.8" class="q">Retention <tspan x="389.5" dy="1.2em" class="r">Policies</tspan></text></a><rect x="128" y="1056" width="240" height="144" rx="8" ry="8" class="y" data-feature="72F7F5F7-0D1C-2840-9FCC-42923DEF66B0" data-group=""/><a target="_blank" href="https://learn.microsoft.com/intune-education/what-is-intune-for-education"><rect x="128" y="1152" width="240" height="48" rx="8" ry="8" class="m" data-feature="72F7F5F7-0D1C-2840-9FCC-42923DEF66B0" data-header=""/><text x="151.5" y="1180.8" class="z">Intune Plan 1 for Education</text></a><a target="_blank" href="https://learn.microsoft.com/mem/intune/fundamentals/manage-apps"><rect x="144" y="1072" width="96" height="80" rx="8" ry="8" class="ba" data-feature="38A6053F-F98E-E44C-8084-998397ACEA36"/><text x="153.9" y="1107.8" class="q">Application <tspan x="149.2" dy="1.2em" class="r">Management</tspan></text></a><a target="_blank" href="https://learn.microsoft.com/mem/intune/fundamentals/manage-devices"><rect x="256" y="1072" width="96" height="80" rx="8" ry="8" class="ba" data-feature="50D5B6AB-0B7A-144F-8C7C-DAC4EDF9E9B2"/><text x="281.4" y="1107.8" class="q">Device <tspan x="261.2" dy="1.2em" class="r">Management</tspan></text></a></svg>