<svg xmlns="http://www.w3.org/2000/svg" width="384" height="576" viewBox="0 0 384 576" class="a"><style>
.b {fill:#a5a5a5;fill-opacity:0.2;stroke:#e82200;stroke-linecap:round;stroke-linejoin:round;stroke-width:2.25}
.c {fill:#e82200;stroke:#e82200;stroke-linecap:round;stroke-linejoin:round;stroke-width:2.25}
.d {fill:#ffffff;font-family:Arial;font-size:1.5em;font-weight:bold}
.e {fill:#e82200;stroke:none;stroke-linecap:round;stroke-linejoin:round;stroke-width:1}
.f {fill:#ffffff;font-family:Arial;font-size:1.16666em;font-weight:bold}
.g {font-size:1em}
.h {fill:none;stroke:none;stroke-linecap:round;stroke-linejoin:round;stroke-width:0.75}
.i {fill:#7f7f7f;font-family:Arial;font-size:1.00001em}
.a {fill:none;fill-rule:evenodd;font-size:12px;overflow:visible;stroke-linecap:square;stroke-miterlimit:3}
</style><rect x="16" y="16" width="352" height="544" rx="8" ry="8" class="b"/><a target="_blank" href="https://www.microsoft.com/microsoft-365/business/microsoft-365-apps-for-enterprise-product"><rect x="16" y="16" width="352" height="48" rx="8" ry="8" class="c" data-feature="BBAFE1A1-9AF8-1A43-8962-AA02F9A096E1"/><text x="47.5" y="45.4" class="d">Microsoft 365 Apps for Enterprise</text></a><a target="_blank" href="https://www.microsoft.com/microsoft-365/mobile"><rect x="144" y="272" width="96" height="80" rx="8" ry="8" class="e" data-feature="6E7D2ACF-ECB0-0748-BC79-4D1931250DB5"/><text x="160.5" y="299.4" class="f">Microsoft <tspan x="156.2" dy="1.2em" class="g">365 Mobile </tspan><tspan x="178.4" dy="1.2em" class="g">App</tspan></text></a><a target="_blank" href="https://learn.microsoft.com/office365/servicedescriptions/office-online-service-description/office-online-service-description"><rect x="32" y="272" width="96" height="80" rx="8" ry="8" class="e" data-feature="A0E8EC70-C846-AC45-B82C-D036D8F58F6A"/><text x="60.2" y="299.4" class="f">Office<tspan x="41.5" dy="1.2em" class="g">for the Web</tspan><tspan x="44.6" dy="1.2em" class="g">(incl Visio)</tspan></text></a><a target="_blank" href="https://www.microsoft.com/microsoft-365/business/microsoft-365-apps-for-business"><rect x="32" y="176" width="96" height="80" rx="8" ry="8" class="e"/><text x="60.2" y="203.4" class="f">Office <tspan x="38" dy="1.2em" class="g">Applications </tspan><tspan x="43" dy="1.2em" class="g">(PC &amp; Mac)</tspan></text></a><a target="_blank" href="https://support.office.com/sway"><rect x="144" y="464" width="96" height="80" rx="8" ry="8" class="e" data-feature="ED122C37-BAA0-8440-8FEB-21E7B044C63C"/><text x="174.1" y="508.2" class="f">Sway</text></a><a target="_blank" href="https://support.office.com/forms"><rect x="144" y="80" width="96" height="80" rx="8" ry="8" class="e" data-feature="BB2AC066-B28A-BB44-AE1B-D1FB72598720"/><text x="160.5" y="115.8" class="f">Microsoft <tspan x="170.6" dy="1.2em" class="g">Forms</tspan></text></a><a target="_blank" href="https://learn.microsoft.com/office365/servicedescriptions/onedrive-for-business-service-description"><rect x="144" y="368" width="96" height="80" rx="8" ry="8" class="e" data-feature="96B3F2C3-1008-4F45-B714-7B8DCBFB3119"/><text x="149.6" y="395.4" class="f">OneDrive for <tspan x="160.9" dy="1.2em" class="g">Business </tspan><tspan x="171.4" dy="1.2em" class="g">Plan 1</tspan></text></a><a target="_blank" href="https://learn.microsoft.com/DeployOffice/overview-shared-computer-activation"><rect x="32" y="464" width="96" height="80" rx="8" ry="8" class="e"/><text x="56.3" y="491.4" class="f">Shared <tspan x="47" dy="1.2em" class="g">Computer </tspan><tspan x="46.2" dy="1.2em" class="g">Activation</tspan></text></a><a target="_blank" href="https://learn.microsoft.com/office365/servicedescriptions/office-applications-service-description/office-applications-service-description"><rect x="144" y="176" width="96" height="80" rx="8" ry="8" class="e"/><text x="148.1" y="211.8" class="f">Office Add-in <tspan x="165.2" dy="1.2em" class="g">Support</tspan></text></a><a target="_blank" href="https://learn.microsoft.com/office365/servicedescriptions/office-applications-service-description/office-applications-service-description"><rect x="256" y="272" width="96" height="80" rx="8" ry="8" class="e"/><text x="261.2" y="299.4" class="f">Office Group <tspan x="283.4" dy="1.2em" class="g">Policy </tspan><tspan x="277.2" dy="1.2em" class="g">Support</tspan></text></a><a target="_blank" href="https://learn.microsoft.com/office365/servicedescriptions/office-applications-service-description/office-applications-service-description"><rect x="256" y="368" width="96" height="80" rx="8" ry="8" class="e"/><text x="274.1" y="403.8" class="f">Roaming <tspan x="276.4" dy="1.2em" class="g">Settings</tspan></text></a><a target="_blank" href="https://support.microsoft.com/office/1315665a-c6af-4409-a28d-49f8916878ca"><rect x="32" y="80" width="96" height="80" rx="8" ry="8" class="e" data-feature="74119099-BD75-764C-9212-820A6640E3AF"/><text x="61.3" y="124.2" class="f">Delve</text></a><a target="_blank" href="https://learn.microsoft.com/deployoffice/compat/compatibility-and-telemetry-in-office"><rect x="32" y="368" width="96" height="80" rx="8" ry="8" class="e"/><text x="60.2" y="403.8" class="f">Office <tspan x="46.9" dy="1.2em" class="g">Telemetry</tspan></text></a><a target="_blank" href="https://learn.microsoft.com/deployoffice/overview-office-cloud-policy-service"><rect x="256" y="176" width="96" height="80" rx="8" ry="8" class="e"/><text x="262.4" y="203.4" class="f">Office Cloud <tspan x="283.4" dy="1.2em" class="g">Policy </tspan><tspan x="279.1" dy="1.2em" class="g">Service</tspan></text></a><a target="_blank" href="https://learn.microsoft.com/office365/servicedescriptions/office-applications-service-description/office-applications-service-description"><rect x="256" y="464" width="96" height="80" rx="8" ry="8" class="e"/><text x="282.2" y="491.4" class="f">Virtual <tspan x="261.6" dy="1.2em" class="g">Desktop Use </tspan><tspan x="282.2" dy="1.2em" class="g">Rights</tspan></text></a><a target="_blank" href="https://learn.microsoft.com/microsoft-365/whiteboard/"><rect x="256" y="80" width="96" height="80" rx="8" ry="8" class="e" data-feature="141927E2-F8BF-CA48-8B9B-D4092C4563CB"/><text x="272.5" y="115.8" class="f">Microsoft <tspan x="265.5" dy="1.2em" class="g">Whiteboard</tspan></text></a><a target="_blank" href="https://m365maps.com/"><rect x="0" y="560" width="384" height="16" class="h"/><text x="294.6" y="571.6" class="i">m365maps.com</text></a></svg>