<svg xmlns="http://www.w3.org/2000/svg" width="1200" height="816" viewBox="0 0 1200 816" class="a"><style>
.b {fill:#a5a5a5;fill-opacity:0.2;stroke:#d04a00;stroke-linecap:round;stroke-linejoin:round;stroke-width:2.25}
.c {fill:#d04a00;stroke:#d04a00;stroke-linecap:round;stroke-linejoin:round;stroke-width:2.25}
.d {fill:#ffffff;font-family:Arial;font-size:1.66667em;font-weight:bold}
.e {fill:none;stroke:none;stroke-linecap:round;stroke-linejoin:round;stroke-width:1}
.f {fill:#000000;font-family:Arial;font-size:1.16666em;font-weight:bold}
.g {fill:#d04a00;stroke:none;stroke-linecap:round;stroke-linejoin:round;stroke-width:1}
.h {fill:#ffffff;font-family:Arial;font-size:1.16666em;font-weight:bold}
.i {font-size:1em}
.j {fill:#ffffff;font-family:Arial;font-size:1.08334em;font-weight:bold}
.k {fill:none;stroke:none;stroke-linecap:round;stroke-linejoin:round;stroke-width:0.75}
.l {fill:#7f7f7f;font-family:Arial;font-size:1.00001em}
.a {fill:none;fill-rule:evenodd;font-size:12px;overflow:visible;stroke-linecap:square;stroke-miterlimit:3}
</style><rect x="16" y="16" width="1168" height="784" rx="8" ry="8" class="b"/><a target="_blank" href="https://www.microsoft.com/microsoft-365/enterprise/compare-office-365-plans"><rect x="16" y="16" width="1168" height="64" rx="8" ry="8" class="c"/><text x="537.2" y="54" class="d">Office 365 E5</text></a><rect x="16" y="80" width="1168" height="32" rx="8" ry="8" class="e"/><text x="34.2" y="100.2" class="f">Enterprise</text><a target="_blank" href="https://learn.microsoft.com/MicrosoftTeams/what-is-phone-system-in-office-365"><rect x="48" y="688" width="96" height="80" rx="8" ry="8" class="g" data-feature="EE5462AC-7DA2-B246-B249-8B2F748638CD"/><text x="73.8" y="723.8" class="h">Teams <tspan x="74.6" dy="1.2em" class="i">Phone</tspan></text></a><a target="_blank" href="https://learn.microsoft.com/microsoftteams/audio-conferencing-in-office-365"><rect x="496" y="112" width="96" height="80" rx="8" ry="8" class="g" data-feature="91D948B6-82D9-E24F-B5C0-77D2E3C6443D"/><text x="525.6" y="140.3" class="j">Audio <tspan x="502.1" dy="1.2em" class="i">Conferencing </tspan><tspan x="529.9" dy="1.2em" class="i">(full)</tspan></text></a><a target="_blank" href="https://learn.microsoft.com/power-bi/service-get-started"><rect x="384" y="496" width="96" height="80" rx="8" ry="8" class="g" data-feature="20663929-8D99-4849-AC90-36D5C2BA35BC"/><text x="388.4" y="540.2" class="h">Power BI Pro</text></a><a target="_blank" href="https://learn.microsoft.com/microsoft-365/compliance/customer-lockbox-requests"><rect x="384" y="208" width="96" height="80" rx="8" ry="8" class="g" data-feature="9673533A-0417-1A4D-AA9A-D28DD99FA3D2"/><text x="399.3" y="243.8" class="h">Customer <tspan x="403.2" dy="1.2em" class="i">Lockbox</tspan></text></a><a target="_blank" href="https://learn.microsoft.com/microsoft-365/compliance/customer-key-overview"><rect x="272" y="208" width="96" height="80" rx="8" ry="8" class="g" data-feature="E1E7FB24-1340-E046-AD37-940C3623CB4C"/><text x="287.3" y="243.8" class="h">Customer <tspan x="307.2" dy="1.2em" class="i">Key</tspan></text></a><a target="_blank" href="https://learn.microsoft.com/microsoft-365/compliance/overview-ediscovery-20"><rect x="1056" y="208" width="96" height="80" rx="8" ry="8" class="g" data-feature="56C05B00-C1D4-244D-93F9-48E7F42CB8F6"/><text x="1066.6" y="243.8" class="h">eDiscovery <tspan x="1069.8" dy="1.2em" class="i">(premium)</tspan></text></a><a target="_blank" href="https://learn.microsoft.com/microsoft-365/compliance/privileged-access-management-solution-overview"><rect x="832" y="496" width="96" height="80" rx="8" ry="8" class="g" data-feature="49B8E745-E9DA-E44F-BC8A-A40B0D86FDD1"/><text x="846.5" y="523.4" class="h">Privileged <tspan x="855.5" dy="1.2em" class="i">Access </tspan><tspan x="837.2" dy="1.2em" class="i">Management</tspan></text></a><a target="_blank" href="https://learn.microsoft.com/microsoft-365/compliance/dlp-microsoft-teams"><rect x="1056" y="592" width="96" height="80" rx="8" ry="8" class="g" data-feature="B757A084-ED7A-F04D-9CD7-D76682858898"/><text x="1081.8" y="619.4" class="h">Teams<tspan x="1070.6" dy="1.2em" class="i">Data Loss </tspan><tspan x="1067.8" dy="1.2em" class="i">Prevention</tspan></text></a><a target="_blank" href="https://learn.microsoft.com/microsoft-365/compliance/ome-advanced-message-encryption"><rect x="1056" y="304" width="96" height="80" rx="8" ry="8" class="g" data-feature="F6EB0FF7-1BFB-364C-9FF4-1EFD26300C70"/><text x="1074.4" y="331.4" class="h">Message <tspan x="1067.4" dy="1.2em" class="i">Encryption </tspan><tspan x="1067" dy="1.2em" class="i">(advanced)</tspan></text></a><a target="_blank" href="https://learn.microsoft.com/microsoft-365/compliance/information-barriers"><rect x="608" y="304" width="96" height="80" rx="8" ry="8" class="g" data-feature="F1375179-3953-074E-AF12-B724EFE6E49F"/><text x="617.5" y="339.8" class="h">Information <tspan x="629.2" dy="1.2em" class="i">Barriers</tspan></text></a><a target="_blank" href="https://learn.microsoft.com/office365/servicedescriptions/mya-service-description"><rect x="384" y="688" width="96" height="80" rx="8" ry="8" class="g" data-feature="B3843CC9-43FF-1442-BF42-BBC4CD47FFD7"/><text x="388.8" y="715.4" class="h">Viva Insights <tspan x="398.2" dy="1.2em" class="i">-</tspan> Personal <tspan x="397.8" dy="1.2em" class="i">(premium)</tspan></text></a><a target="_blank" href="https://learn.microsoft.com/microsoft-365/compliance/communication-compliance"><rect x="48" y="208" width="96" height="80" rx="8" ry="8" class="g" data-feature="F1AF0DA9-71CD-DA40-98CD-AC4BEFBBDC17"/><text x="74.2" y="243.8" class="h">Comm <tspan x="56.3" dy="1.2em" class="i">Compliance</tspan></text></a><a target="_blank" href="https://learn.microsoft.com/cloud-app-security/editions-cloud-app-security-o365"><rect x="1056" y="400" width="96" height="80" rx="8" ry="8" class="g" data-feature="8D7EB58E-7580-EE4F-9A22-85087CAB7B0A"/><text x="1070.5" y="427.4" class="h">Office 365 <tspan x="1068.6" dy="1.2em" class="i">Cloud App </tspan><tspan x="1076.4" dy="1.2em" class="i">Security</tspan></text></a><a target="_blank" href="https://learn.microsoft.com/microsoft-365/compliance/manage-data-governance"><rect x="496" y="208" width="96" height="80" rx="8" ry="8" class="g" data-feature="AD5D3C41-1E65-D04C-925B-760322E24EE0"/><text x="528.8" y="235.4" class="h">Data <tspan x="514" dy="1.2em" class="i">Lifecycle </tspan><tspan x="501.2" dy="1.2em" class="i">Management</tspan></text></a><a target="_blank" href="https://learn.microsoft.com/microsoft-365/compliance/records-management"><rect x="48" y="592" width="96" height="80" rx="8" ry="8" class="g" data-feature="553C8169-4F76-5F48-8454-84818DCCA6FD"/><text x="68" y="627.8" class="h">Records <tspan x="53.2" dy="1.2em" class="i">Management</tspan></text></a><a target="_blank" href="https://learn.microsoft.com/microsoft-365/compliance/advanced-audit"><rect x="608" y="112" width="96" height="80" rx="8" ry="8" class="g" data-feature="D3797D5E-AE78-C343-87E3-6173288F0889"/><text x="638.1" y="147.8" class="h">Audit <tspan x="621.8" dy="1.2em" class="i">(premium)</tspan></text></a><a target="_blank" href="https://learn.microsoft.com/microsoft-365/compliance/double-key-encryption"><rect x="944" y="208" width="96" height="80" rx="8" ry="8" class="g" data-feature="9055C65A-8017-7048-9F37-A6B64A5496B2"/><text x="953.5" y="243.8" class="h">Double Key <tspan x="955.4" dy="1.2em" class="i">Encryption</tspan></text></a><a target="_blank" href="https://learn.microsoft.com/office365/servicedescriptions/office-365-advanced-threat-protection-service-description#feature-availability-across-advanced-threat-protection-atp-plans"><rect x="720" y="208" width="96" height="80" rx="8" ry="8" class="g" data-feature="75399014-B3B3-0C4E-AC86-1AEB141F804B"/><text x="726.4" y="235.4" class="h">Defender for <tspan x="734.5" dy="1.2em" class="i">Office 365 </tspan><tspan x="747.4" dy="1.2em" class="i">Plan 2</tspan></text></a><a target="_blank" href="https://learn.microsoft.com/microsoft-365/compliance/apply-sensitivity-label-automatically"><rect x="384" y="592" width="96" height="80" rx="8" ry="8" class="g" data-feature="526521F3-5FAF-8540-8E69-3DF3D69724CD"/><text x="392.6" y="620.3" class="j">Rules-Based <tspan x="389.7" dy="1.2em" class="i">Classification</tspan><tspan x="396.6" dy="1.2em" class="i">(Office 365)</tspan></text></a><a target="_blank" href="https://www.microsoft.com/licensing/terms/product/CALandMLEquivalencyLicenses/"><rect x="720" y="592" width="96" height="80" rx="8" ry="8" class="g" data-feature="84FC6F4B-55D7-B044-AF60-E083D5A2346C"/><text x="736.1" y="619.4" class="h">Skype for <tspan x="736.9" dy="1.2em" class="i">Business </tspan><tspan x="736.9" dy="1.2em" class="i">Plus CAL</tspan></text></a><a target="_blank" href="https://learn.microsoft.com/microsoft-365/compliance/sit-learn-about-exact-data-match-based-sits"><rect x="48" y="304" width="96" height="80" rx="8" ry="8" class="g" data-feature="439CDDED-9DD8-E743-9842-DED9096ACA93"/><text x="60.2" y="339.8" class="h">Exact Data <tspan x="75.8" dy="1.2em" class="i">Match</tspan></text></a><a target="_blank" href="https://www.microsoft.com/microsoft-365/business/microsoft-365-apps-for-enterprise-product"><rect x="48" y="400" width="96" height="80" rx="8" ry="8" class="g" data-feature="BBAFE1A1-9AF8-1A43-8962-AA02F9A096E1"/><text x="64.5" y="427.4" class="h">Microsoft <tspan x="53.6" dy="1.2em" class="i">365 Apps for </tspan><tspan x="61.4" dy="1.2em" class="i">Enterprise</tspan></text></a><a target="_blank" href="https://products.office.com/business/task-management-software"><rect x="272" y="496" width="96" height="80" rx="8" ry="8" class="g" data-feature="6D135CF7-EE0E-B745-977C-3364388FF33F"/><text x="294.3" y="540.2" class="h">Planner</text></a><a target="_blank" href="https://learn.microsoft.com/microsoftteams/teams-live-events/what-are-teams-live-events"><rect x="944" y="304" width="96" height="80" rx="8" ry="8" class="g" data-feature="4EE2D1D0-2908-B449-9DCA-68B462773464"/><text x="953.1" y="348.2" class="h">Live Events</text></a><a target="_blank" href="https://learn.microsoft.com/microsoftteams/set-up-webinars"><rect x="608" y="688" width="96" height="80" rx="8" ry="8" class="g" data-feature="1AF037AF-D6DD-4645-BC14-54EBB04542A6"/><text x="624.5" y="732.2" class="h">Webinars</text></a><a target="_blank" href="https://products.office.com/microsoft-teams/"><rect x="720" y="400" width="96" height="80" rx="8" ry="8" class="g" data-feature="543B8269-DF36-CC4B-9823-FB05B4D1A849"/><text x="736.5" y="435.8" class="h">Microsoft <tspan x="745.8" dy="1.2em" class="i">Teams</tspan></text></a><a target="_blank" href="https://learn.microsoft.com/stream/"><rect x="832" y="592" width="96" height="80" rx="8" ry="8" class="g" data-feature="DB95A14F-DCD6-7743-9E57-AE0113AF61E6"/><text x="845" y="627.8" class="h">Stream for <tspan x="846.5" dy="1.2em" class="i">Office 365</tspan></text></a><a target="_blank" href="https://learn.microsoft.com/sharepoint/introduction"><rect x="608" y="592" width="96" height="80" rx="8" ry="8" class="g" data-feature="1F2336EF-5D0C-1345-A67D-B8B1D5807E45"/><text x="619" y="619.4" class="h">SharePoint <tspan x="634.2" dy="1.2em" class="i">Online </tspan><tspan x="635.4" dy="1.2em" class="i">Plan 2</tspan></text></a><a target="_blank" href="https://learn.microsoft.com/office365/servicedescriptions/onedrive-for-business-service-description"><rect x="160" y="496" width="96" height="80" rx="8" ry="8" class="g" data-feature="96B3F2C3-1008-4F45-B714-7B8DCBFB3119"/><text x="165.6" y="523.4" class="h">OneDrive for <tspan x="176.9" dy="1.2em" class="i">Business </tspan><tspan x="187.4" dy="1.2em" class="i">Plan 2</tspan></text></a><a target="_blank" href="https://support.office.com/sway"><rect x="944" y="592" width="96" height="80" rx="8" ry="8" class="g" data-feature="ED122C37-BAA0-8440-8FEB-21E7B044C63C"/><text x="974.1" y="636.2" class="h">Sway</text></a><a target="_blank" href="https://support.office.com/forms"><rect x="384" y="400" width="96" height="80" rx="8" ry="8" class="g" data-feature="BB2AC066-B28A-BB44-AE1B-D1FB72598720"/><text x="400.5" y="435.8" class="h">Microsoft <tspan x="410.6" dy="1.2em" class="i">Forms</tspan></text></a><a target="_blank" href="https://learn.microsoft.com/microsoft-365/compliance/dlp-learn-about-dlp"><rect x="608" y="208" width="96" height="80" rx="8" ry="8" class="g" data-feature="4DE7C810-36B6-114D-AC36-ECCE84D1622B"/><text x="622.6" y="243.8" class="h">Data Loss <tspan x="619.8" dy="1.2em" class="i">Prevention</tspan></text></a><a target="_blank" href="https://learn.microsoft.com/office365/servicedescriptions/exchange-online-protection-service-description/exchange-online-protection-service-description"><rect x="272" y="304" width="96" height="80" rx="8" ry="8" class="g" data-feature="BAC5A674-C259-6249-AB8A-12C313A32549"/><text x="286.9" y="331.4" class="h">Exchange <tspan x="298.2" dy="1.2em" class="i">Online </tspan><tspan x="285.4" dy="1.2em" class="i">Protection</tspan></text></a><a target="_blank" href="https://products.office.com/en/business/microsoft-kaizala"><rect x="832" y="304" width="96" height="80" rx="8" ry="8" class="g" data-feature="C1069EA8-18FC-D445-B5EC-9A17D2AEB587"/><text x="842.3" y="339.8" class="h">Kaizala Pro<tspan x="851.2" dy="1.2em" class="i">(retiring)</tspan></text></a><a target="_blank" href="https://learn.microsoft.com/office365/servicedescriptions/exchange-online-service-description/exchange-online-service-description#feature-availability-across-exchange-online-standalone-plans"><rect x="160" y="304" width="96" height="80" rx="8" ry="8" class="g" data-feature="1F97224E-BB22-114F-B70E-A27C23070C1E"/><text x="174.9" y="331.4" class="h">Exchange <tspan x="186.2" dy="1.2em" class="i">Online </tspan><tspan x="187.4" dy="1.2em" class="i">Plan 2</tspan></text></a><a target="_blank" href="https://learn.microsoft.com/powerapps/teams/overview-data-platform"><rect x="272" y="400" width="96" height="80" rx="8" ry="8" class="g" data-feature="2D026000-4DF7-DE43-A2E7-B4B8C40AE475"/><text x="288.5" y="427.4" class="h">Microsoft <tspan x="286.5" dy="1.2em" class="i">Dataverse </tspan><tspan x="286.6" dy="1.2em" class="i">for Teams</tspan></text></a><a target="_blank" href="https://www.microsoft.com/microsoft-365/microsoft-lists"><rect x="496" y="400" width="96" height="80" rx="8" ry="8" class="g" data-feature="F9326F34-585B-0E4F-ADB9-333C255E15E7"/><text x="512.5" y="435.8" class="h">Microsoft <tspan x="527.7" dy="1.2em" class="i">Lists</tspan></text></a><a target="_blank" href="https://learn.microsoft.com/microsoft-365/bookings/bookings-overview"><rect x="944" y="112" width="96" height="80" rx="8" ry="8" class="g" data-feature="DCC883D8-5878-A246-B691-B5F309BDED3A"/><text x="960.1" y="156.2" class="h">Bookings</text></a><a target="_blank" href="https://www.microsoft.com/download/details.aspx?id=48734"><rect x="496" y="304" width="96" height="80" rx="8" ry="8" class="g" data-feature="B7A2FC52-8021-E343-AC7C-FDC99F563B2A"/><text x="516" y="339.8" class="h">InfoPath<tspan x="530.4" dy="1.2em" class="i">App</tspan></text></a><a target="_blank" href="https://learn.microsoft.com/microsoft-365/compliance/alert-policies"><rect x="384" y="112" width="96" height="80" rx="8" ry="8" class="g" data-feature="A46AE7F8-3904-944A-9E4B-B3138DAB33CC"/><text x="416" y="147.8" class="h">Alert <tspan x="405.5" dy="1.2em" class="i">Policies</tspan></text></a><a target="_blank" href="https://learn.microsoft.com/microsoft-365/whiteboard/"><rect x="944" y="400" width="96" height="80" rx="8" ry="8" class="g" data-feature="141927E2-F8BF-CA48-8B9B-D4092C4563CB"/><text x="960.5" y="435.8" class="h">Microsoft <tspan x="953.5" dy="1.2em" class="i">Whiteboard</tspan></text></a><a target="_blank" href="https://www.microsoft.com/microsoft-365/microsoft-to-do-list-app"><rect x="832" y="400" width="96" height="80" rx="8" ry="8" class="g" data-feature="41DD4B93-73C7-C24A-84D9-E6B62756A0C5"/><text x="848.5" y="435.8" class="h">Microsoft <tspan x="860.2" dy="1.2em" class="i">To Do</tspan></text></a><a target="_blank" href="https://learn.microsoft.com/power-virtual-agents/teams/fundamentals-what-is-power-virtual-agents-teams"><rect x="720" y="496" width="96" height="80" rx="8" ry="8" class="g" data-feature="97B016E0-64CB-1040-9667-0B44302DCA50"/><text x="726.5" y="524.3" class="j">Power Virtual <tspan x="735.5" dy="1.2em" class="i">Agents for </tspan><tspan x="747.4" dy="1.2em" class="i">Teams</tspan></text></a><a target="_blank" href="https://www.microsoft.com/microsoft-365/mobile"><rect x="160" y="400" width="96" height="80" rx="8" ry="8" class="g" data-feature="6E7D2ACF-ECB0-0748-BC79-4D1931250DB5"/><text x="176.5" y="427.4" class="h">Microsoft <tspan x="172.2" dy="1.2em" class="i">365 Mobile </tspan><tspan x="194.4" dy="1.2em" class="i">App</tspan></text></a><a target="_blank" href="https://learn.microsoft.com/office365/servicedescriptions/office-online-service-description/office-online-service-description"><rect x="48" y="496" width="96" height="80" rx="8" ry="8" class="g" data-feature="A0E8EC70-C846-AC45-B82C-D036D8F58F6A"/><text x="76.2" y="523.4" class="h">Office<tspan x="57.5" dy="1.2em" class="i">for the Web</tspan><tspan x="60.6" dy="1.2em" class="i">(incl Visio)</tspan></text></a><a target="_blank" href="https://learn.microsoft.com/microsoft-365/admin/basic-mobility-security/capabilities"><rect x="832" y="112" width="96" height="80" rx="8" ry="8" class="g" data-feature="8330882F-39BB-5D48-A321-46276FC0F1B8"/><text x="861.3" y="139.4" class="h">Basic <tspan x="846.6" dy="1.2em" class="i">Mobility &amp; </tspan><tspan x="852.4" dy="1.2em" class="i">Security</tspan></text></a><a target="_blank" href="https://azure.microsoft.com/pricing/details/active-directory/"><rect x="720" y="112" width="96" height="80" rx="8" ry="8" class="g" data-feature="3E639B79-39CA-2141-81C1-BB7B9E63CE75"/><text x="725.2" y="147.8" class="h">Azure AD for <tspan x="734.5" dy="1.2em" class="i">Office 365</tspan></text></a><a target="_blank" href="https://learn.microsoft.com/microsoft-365/compliance/sensitivity-labels"><rect x="720" y="304" width="96" height="80" rx="8" ry="8" class="g" data-feature="1288BA2E-3A78-2647-8176-0E24BBD5D1D0"/><text x="729.5" y="331.4" class="h">Information <tspan x="733.4" dy="1.2em" class="i">Protection</tspan><tspan x="739.2" dy="1.2em" class="i">for M365</tspan></text></a><a target="_blank" href="https://www.microsoft.com/microsoft-viva/connections"><rect x="160" y="688" width="96" height="80" rx="8" ry="8" class="g" data-feature="213EE8A8-722C-D640-8BD8-008F939E3535"/><text x="193.6" y="723.8" class="h">Viva <tspan x="165.6" dy="1.2em" class="i">Connections</tspan></text></a><a target="_blank" href="https://www.microsoft.com/microsoft-viva/learning"><rect x="496" y="688" width="96" height="80" rx="8" ry="8" class="g" data-feature="C5598362-2311-A84B-933E-19D1583914D4"/><text x="529.6" y="715.4" class="h">Viva <tspan x="514.4" dy="1.2em" class="i">Learning </tspan><tspan x="521.4" dy="1.2em" class="i">(basic)</tspan></text></a><a target="_blank" href="https://www.microsoft.com/licensing/terms/product/CALandMLEquivalencyLicenses/"><rect x="944" y="496" width="96" height="80" rx="8" ry="8" class="g" data-feature="0BA0D8D4-9F57-3B46-B36D-7ED47A5ED319"/><text x="951.6" y="531.8" class="h">Productivity <tspan x="953.9" dy="1.2em" class="i">Server CAL</tspan></text></a><a target="_blank" href="https://learn.microsoft.com/project-for-the-web/office-365-user-view-access-to-project-and-roadmap"><rect x="1056" y="496" width="96" height="80" rx="8" ry="8" class="g" data-feature="FBF2EADB-FDA1-DE4F-B0CE-7E4B637C269B"/><text x="1073.3" y="523.4" class="h">Project &amp; <tspan x="1072.1" dy="1.2em" class="i">Roadmap </tspan><tspan x="1061.6" dy="1.2em" class="i">View Access</tspan></text></a><a target="_blank" href="https://learn.microsoft.com/viva/engage/overview"><rect x="272" y="688" width="96" height="80" rx="8" ry="8" class="g" data-feature="12330CC8-93BE-E043-8231-12CEA55876CC"/><text x="305.6" y="723.8" class="h">Viva <tspan x="294.7" dy="1.2em" class="i">Engage</tspan></text></a><a target="_blank" href="https://support.microsoft.com/office/1315665a-c6af-4409-a28d-49f8916878ca"><rect x="832" y="208" width="96" height="80" rx="8" ry="8" class="g" data-feature="74119099-BD75-764C-9212-820A6640E3AF"/><text x="861.3" y="252.2" class="h">Delve</text></a><a target="_blank" href="https://learn.microsoft.com/microsoft-365/compliance/compliance-manager-overview"><rect x="160" y="208" width="96" height="80" rx="8" ry="8" class="g" data-feature="5AE727ED-3979-B649-A986-6BA7098735F1"/><text x="168.3" y="243.8" class="h">Compliance <tspan x="179.2" dy="1.2em" class="i">Manager</tspan></text></a><a target="_blank" href="https://learn.microsoft.com/microsoft-365/security/defender/microsoft-secure-score"><rect x="496" y="592" width="96" height="80" rx="8" ry="8" class="g" data-feature="96B903EE-221F-DC4D-90C0-AE7FDE8D31CA"/><text x="520.6" y="627.8" class="h">Secure <tspan x="524.6" dy="1.2em" class="i">Score</tspan></text></a><a target="_blank" href="https://learn.microsoft.com/microsoft-365/admin/adoption/adoption-score"><rect x="272" y="112" width="96" height="80" rx="8" ry="8" class="g" data-feature="DED671DE-3A0F-C747-B5D8-5EE47650A117"/><text x="289.3" y="147.8" class="h">Adoption <tspan x="300.6" dy="1.2em" class="i">Score</tspan></text></a><a target="_blank" href="https://learn.microsoft.com/microsoft-365/admin/activity-reports/activity-reports"><rect x="160" y="112" width="96" height="80" rx="8" ry="8" class="g" data-feature="550D7638-34DC-364E-8932-11FAF49F5D4B"/><text x="182.7" y="147.8" class="h">Activity <tspan x="181.6" dy="1.2em" class="i">Reports</tspan></text></a><a target="_blank" href="https://learn.microsoft.com/viva/insights/personal/briefing/be-overview"><rect x="1056" y="112" width="96" height="80" rx="8" ry="8" class="g" data-feature="471EE84F-6301-804C-8E35-0F908F7FE28F"/><text x="1077.6" y="147.8" class="h">Briefing <tspan x="1085.3" dy="1.2em" class="i">Email</tspan></text></a><a target="_blank" href="https://m365maps.com/"><rect x="0" y="800" width="1200" height="16" class="k"/><text x="1110.6" y="811.6" class="l">m365maps.com</text></a><a target="_blank" href="https://learn.microsoft.com/microsoftsearch/overview-microsoft-search"><rect x="608" y="400" width="96" height="80" rx="8" ry="8" class="g" data-feature="3DF10631-B76A-1D47-9EB0-71A21637557F"/><text x="624.5" y="435.8" class="h">Microsoft <tspan x="632.6" dy="1.2em" class="i">Search</tspan></text></a><a target="_blank" href="https://learn.microsoft.com/microsoftsearch/licensing#entitlement-built-into-microsoft-365-or-office-365-e5-licenses"><rect x="384" y="304" width="96" height="80" rx="8" ry="8" class="g" data-feature="9C77DD0A-DF85-1542-A05F-82769D7C2945"/><text x="412.9" y="324.5" class="j">Graph <tspan x="399.5" dy="1.2em" class="i">Connector </tspan><tspan x="394.4" dy="1.2em" class="i">Index Quota </tspan><tspan x="389.4" dy="1.2em" class="i">(500 per user)</tspan></text></a><a target="_blank" href="https://powerapps.microsoft.com/"><rect x="496" y="496" width="96" height="80" rx="8" ry="8" class="g" data-feature="5F33A943-8E80-574B-8C6C-816268621A0A"/><text x="503.6" y="523.4" class="h">Power Apps<tspan x="534.7" dy="1.2em" class="i">for </tspan><tspan x="510.5" dy="1.2em" class="i">Office 365</tspan></text></a><a target="_blank" href="https://powerautomate.microsoft.com/"><rect x="608" y="496" width="96" height="80" rx="8" ry="8" class="g" data-feature="80D7F572-D88C-AF4E-8444-5DC902D3A938"/><text x="635" y="523.4" class="h">Power <tspan x="612.4" dy="1.2em" class="i">Automate for</tspan><tspan x="622.5" dy="1.2em" class="i">Office 365</tspan></text></a><a target="_blank" href="https://learn.microsoft.com/office365/servicedescriptions/microsoft-365-service-descriptions/microsoft-365-tenantlevel-services-licensing-guidance/microsoft-365-security-compliance-licensing-guidance#which-templates-are-included-by-default-free-of-cost"><rect x="48" y="112" width="96" height="80" rx="8" ry="8" class="g" data-feature="388F0EAC-6D6F-FA4F-AE9D-8BE50917D3EB"/><text x="56.3" y="131" class="h">3x Premium <tspan x="63" dy="1.2em" class="i">&amp; Custom </tspan><tspan x="56.3" dy="1.2em" class="i">Compliance </tspan><tspan x="61.4" dy="1.2em" class="i">Templates</tspan></text></a><a target="_blank" href="https://learn.microsoft.com/microsoft-365/compliance/retention"><rect x="160" y="592" width="96" height="80" rx="8" ry="8" class="g" data-feature="6D33576F-3845-1949-BB35-4D68A5BE59E0"/><text x="175.7" y="627.8" class="h">Retention <tspan x="185.8" dy="1.2em" class="i">Labels</tspan></text></a><a target="_blank" href="https://learn.microsoft.com/microsoft-365/compliance/create-retention-policies"><rect x="272" y="592" width="96" height="80" rx="8" ry="8" class="g" data-feature="A68AD6BA-4F38-474D-B943-0C392CFB6754"/><text x="287.7" y="627.8" class="h">Retention <tspan x="293.5" dy="1.2em" class="i">Policies</tspan></text></a></svg>