<svg xmlns="http://www.w3.org/2000/svg" width="1168" height="1184" viewBox="0 0 1168 1184" class="a"><style>
.b {fill:#a5a5a5;fill-opacity:0.2;stroke:#d04a00;stroke-linecap:round;stroke-linejoin:round;stroke-width:2.25}
.c {fill:#a5a5a5;fill-opacity:0.2;stroke:#e82200;stroke-dasharray:15.75,11.25;stroke-linecap:round;stroke-linejoin:round;stroke-width:2.25}
.d {fill:#d04a00;stroke:#d04a00;stroke-linecap:round;stroke-linejoin:round;stroke-width:2.25}
.e {fill:#ffffff;font-family:Arial;font-size:1.66667em;font-weight:bold}
.f {fill:#e82200;stroke:none;stroke-linecap:round;stroke-linejoin:round;stroke-width:1}
.g {fill:#ffffff;font-family:Arial;font-size:1.16666em;font-weight:bold}
.h {font-size:1em}
.i {fill:#ffffff;font-family:Arial;font-size:1.08334em;font-weight:bold}
.j {fill:none;stroke:none;stroke-linecap:round;stroke-linejoin:round;stroke-width:1}
.k {fill:#000000;font-family:Arial;font-size:1.16666em;font-weight:bold}
.l {fill:#0070c0;font-family:Arial;font-size:1.16666em;font-weight:bold}
.m {fill:#e82200;stroke:#e82200;stroke-linecap:round;stroke-linejoin:round;stroke-width:2.25}
.n {fill:#a5a5a5;fill-opacity:0.2;stroke:#d04a00;stroke-dasharray:2.25,4.5;stroke-linecap:round;stroke-linejoin:round;stroke-width:2.25}
.o {fill:#a5a5a5;fill-opacity:0.2;stroke:#d04a00;stroke-dasharray:15.75,11.25;stroke-linecap:round;stroke-linejoin:round;stroke-width:2.25}
.p {fill:#000000;font-family:Arial;font-size:1.33333em}
.q {fill:#d04a00;stroke:none;stroke-linecap:round;stroke-linejoin:round;stroke-width:1}
.r {fill:none;stroke:none;stroke-linecap:round;stroke-linejoin:round;stroke-width:0.75}
.s {fill:#7f7f7f;font-family:Arial;font-size:1.00001em}
.a {fill:none;fill-rule:evenodd;font-size:12px;overflow:visible;stroke-linecap:square;stroke-miterlimit:3}
</style><rect x="16" y="16" width="1136" height="1120" rx="8" ry="8" class="b"/><rect x="48" y="576" width="1008" height="528" rx="8" ry="8" class="c"/><a target="_blank" href="https://www.microsoft.com/microsoft-365/enterprise/compare-office-365-plans"><g transform="translate(-32,1136) rotate(-90)"><rect x="0" y="1120" width="1120" height="64" rx="8" ry="8" class="d"/><text x="496.1" y="1158" class="e">Office 365 G5</text></g></a><a target="_blank" href="https://www.microsoft.com/microsoft-365/business/microsoft-365-apps-for-enterprise-product"><rect x="144" y="800" width="96" height="80" rx="8" ry="8" class="f" data-feature="BBAFE1A1-9AF8-1A43-8962-AA02F9A096E1"/><text x="160.5" y="827.4" class="g">Microsoft <tspan x="149.6" dy="1.2em" class="h">365 Apps for </tspan><tspan x="157.4" dy="1.2em" class="h">Enterprise</tspan></text></a><a target="_blank" href="https://products.office.com/business/task-management-software"><rect x="480" y="896" width="96" height="80" rx="8" ry="8" class="f" data-feature="6D135CF7-EE0E-B745-977C-3364388FF33F"/><text x="502.3" y="940.2" class="g">Planner</text></a><a target="_blank" href="https://learn.microsoft.com/microsoftteams/teams-live-events/what-are-teams-live-events"><rect x="816" y="704" width="96" height="80" rx="8" ry="8" class="f" data-feature="4EE2D1D0-2908-B449-9DCA-68B462773464"/><text x="825.1" y="748.2" class="g">Live Events</text></a><a target="_blank" href="https://learn.microsoft.com/viva/insights/personal/overview/plans-environments"><rect x="816" y="992" width="96" height="80" rx="8" ry="8" class="f" data-feature="B3843CC9-43FF-1442-BF42-BBC4CD47FFD7"/><text x="820.8" y="1019.4" class="g">Viva Insights <tspan x="830.2" dy="1.2em" class="h">-</tspan> Personal <tspan x="841.4" dy="1.2em" class="h">(basic)</tspan></text></a><a target="_blank" href="https://products.office.com/microsoft-teams/"><rect x="816" y="800" width="96" height="80" rx="8" ry="8" class="f" data-feature="543B8269-DF36-CC4B-9823-FB05B4D1A849"/><text x="832.5" y="835.8" class="g">Microsoft <tspan x="841.8" dy="1.2em" class="h">Teams</tspan></text></a><a target="_blank" href="https://learn.microsoft.com/stream/"><rect x="480" y="992" width="96" height="80" rx="8" ry="8" class="f" data-feature="DB95A14F-DCD6-7743-9E57-AE0113AF61E6"/><text x="493" y="1027.8" class="g">Stream for <tspan x="494.5" dy="1.2em" class="h">Office 365</tspan></text></a><a target="_blank" href="https://learn.microsoft.com/sharepoint/introduction"><rect x="368" y="992" width="96" height="80" rx="8" ry="8" class="f" data-feature="1F2336EF-5D0C-1345-A67D-B8B1D5807E45"/><text x="379" y="1019.4" class="g">SharePoint <tspan x="394.2" dy="1.2em" class="h">Online </tspan><tspan x="395.4" dy="1.2em" class="h">Plan 2</tspan></text></a><a target="_blank" href="https://learn.microsoft.com/office365/servicedescriptions/onedrive-for-business-service-description"><rect x="368" y="896" width="96" height="80" rx="8" ry="8" class="f" data-feature="96B3F2C3-1008-4F45-B714-7B8DCBFB3119"/><text x="373.6" y="923.4" class="g">OneDrive for <tspan x="384.9" dy="1.2em" class="h">Business </tspan><tspan x="395.4" dy="1.2em" class="h">Plan 2</tspan></text></a><a target="_blank" href="https://powerapps.microsoft.com/"><rect x="592" y="896" width="96" height="80" rx="8" ry="8" class="f" data-feature="5F33A943-8E80-574B-8C6C-816268621A0A"/><text x="599.6" y="923.4" class="g">Power Apps<tspan x="630.7" dy="1.2em" class="h">for </tspan><tspan x="606.5" dy="1.2em" class="h">Office 365</tspan></text></a><a target="_blank" href="https://support.office.com/forms"><rect x="480" y="800" width="96" height="80" rx="8" ry="8" class="f" data-feature="BB2AC066-B28A-BB44-AE1B-D1FB72598720"/><text x="496.5" y="835.8" class="g">Microsoft <tspan x="506.6" dy="1.2em" class="h">Forms</tspan></text></a><a target="_blank" href="https://support.microsoft.com/office/1315665a-c6af-4409-a28d-49f8916878ca"><rect x="928" y="608" width="96" height="80" rx="8" ry="8" class="f" data-feature="74119099-BD75-764C-9212-820A6640E3AF"/><text x="957.3" y="652.2" class="g">Delve</text></a><a target="_blank" href="https://powerautomate.microsoft.com/"><rect x="704" y="896" width="96" height="80" rx="8" ry="8" class="f" data-feature="80D7F572-D88C-AF4E-8444-5DC902D3A938"/><text x="731" y="923.4" class="g">Power <tspan x="708.4" dy="1.2em" class="h">Automate for</tspan><tspan x="718.5" dy="1.2em" class="h">Office 365</tspan></text></a><a target="_blank" href="https://learn.microsoft.com/microsoft-365/compliance/dlp-learn-about-dlp"><rect x="816" y="608" width="96" height="80" rx="8" ry="8" class="f" data-feature="4DE7C810-36B6-114D-AC36-ECCE84D1622B"/><text x="830.6" y="643.8" class="g">Data Loss <tspan x="827.8" dy="1.2em" class="h">Prevention</tspan></text></a><a target="_blank" href="https://learn.microsoft.com/office365/servicedescriptions/exchange-online-protection-service-description/exchange-online-protection-service-description"><rect x="368" y="704" width="96" height="80" rx="8" ry="8" class="f" data-feature="BAC5A674-C259-6249-AB8A-12C313A32549"/><text x="382.9" y="731.4" class="g">Exchange <tspan x="394.2" dy="1.2em" class="h">Online </tspan><tspan x="381.4" dy="1.2em" class="h">Protection</tspan></text></a><a target="_blank" href="https://learn.microsoft.com/microsoft-365/compliance/get-started-core-ediscovery"><rect x="144" y="704" width="96" height="80" rx="8" ry="8" class="f" data-feature="8D90A5EA-9F8F-8D42-8676-FFE24CF363CE"/><text x="154.6" y="739.8" class="g">eDiscovery <tspan x="157.8" dy="1.2em" class="h">(standard)</tspan></text></a><a target="_blank" href="https://products.office.com/en/business/microsoft-kaizala"><rect x="704" y="704" width="96" height="80" rx="8" ry="8" class="f" data-feature="C1069EA8-18FC-D445-B5EC-9A17D2AEB587"/><text x="714.3" y="739.8" class="g">Kaizala Pro <tspan x="723.2" dy="1.2em" class="h">(retiring)</tspan></text></a><a target="_blank" href="https://learn.microsoft.com/office365/servicedescriptions/exchange-online-service-description/exchange-online-service-description#feature-availability-across-exchange-online-standalone-plans"><rect x="256" y="704" width="96" height="80" rx="8" ry="8" class="f" data-feature="1F97224E-BB22-114F-B70E-A27C23070C1E"/><text x="270.9" y="731.4" class="g">Exchange <tspan x="282.2" dy="1.2em" class="h">Online </tspan><tspan x="283.4" dy="1.2em" class="h">Plan 2</tspan></text></a><a target="_blank" href="https://learn.microsoft.com/powerapps/teams/overview-data-platform"><rect x="368" y="800" width="96" height="80" rx="8" ry="8" class="f" data-feature="2D026000-4DF7-DE43-A2E7-B4B8C40AE475"/><text x="384.5" y="827.4" class="g">Microsoft <tspan x="382.5" dy="1.2em" class="h">Dataverse </tspan><tspan x="382.6" dy="1.2em" class="h">for Teams</tspan></text></a><a target="_blank" href="https://www.microsoft.com/microsoft-365/microsoft-lists"><rect x="592" y="800" width="96" height="80" rx="8" ry="8" class="f" data-feature="F9326F34-585B-0E4F-ADB9-333C255E15E7"/><text x="608.5" y="835.8" class="g">Microsoft <tspan x="623.7" dy="1.2em" class="h">Lists</tspan></text></a><a target="_blank" href="https://learn.microsoft.com/microsoft-365/bookings/bookings-overview"><rect x="704" y="608" width="96" height="80" rx="8" ry="8" class="f" data-feature="DCC883D8-5878-A246-B691-B5F309BDED3A"/><text x="720.1" y="652.2" class="g">Bookings</text></a><a target="_blank" href="https://www.microsoft.com/download/details.aspx?id=48734"><rect x="480" y="704" width="96" height="80" rx="8" ry="8" class="f" data-feature="B7A2FC52-8021-E343-AC7C-FDC99F563B2A"/><text x="500" y="739.8" class="g">InfoPath <tspan x="514.4" dy="1.2em" class="h">App</tspan></text></a><a target="_blank" href="https://learn.microsoft.com/microsoft-365/compliance/search-the-audit-log-in-security-and-compliance"><rect x="368" y="608" width="96" height="80" rx="8" ry="8" class="f" data-feature="E67D07C0-53F5-FB41-B04D-D30974A72A1F"/><text x="398.1" y="643.8" class="g">Audit <tspan x="381.8" dy="1.2em" class="h">(standard)</tspan></text></a><a target="_blank" href="https://learn.microsoft.com/microsoft-365/compliance/alert-policies"><rect x="144" y="608" width="96" height="80" rx="8" ry="8" class="f" data-feature="A46AE7F8-3904-944A-9E4B-B3138DAB33CC"/><text x="176" y="643.8" class="g">Alert <tspan x="165.5" dy="1.2em" class="h">Policies</tspan></text></a><a target="_blank" href="https://www.microsoft.com/microsoft-365/microsoft-to-do-list-app"><rect x="928" y="800" width="96" height="80" rx="8" ry="8" class="f" data-feature="41DD4B93-73C7-C24A-84D9-E6B62756A0C5"/><text x="944.5" y="835.8" class="g">Microsoft <tspan x="956.2" dy="1.2em" class="h">To Do</tspan></text></a><a target="_blank" href="https://learn.microsoft.com/power-virtual-agents/teams/fundamentals-what-is-power-virtual-agents-teams"><rect x="816" y="896" width="96" height="80" rx="8" ry="8" class="f" data-feature="97B016E0-64CB-1040-9667-0B44302DCA50"/><text x="822.5" y="924.3" class="i">Power Virtual <tspan x="831.5" dy="1.2em" class="h">Agents for </tspan><tspan x="843.4" dy="1.2em" class="h">Teams</tspan></text></a><a target="_blank" href="https://www.microsoft.com/microsoft-365/mobile"><rect x="256" y="800" width="96" height="80" rx="8" ry="8" class="f" data-feature="6E7D2ACF-ECB0-0748-BC79-4D1931250DB5"/><text x="272.5" y="827.4" class="g">Microsoft <tspan x="268.2" dy="1.2em" class="h">365 Mobile </tspan><tspan x="290.4" dy="1.2em" class="h">App</tspan></text></a><a target="_blank" href="https://learn.microsoft.com/office365/servicedescriptions/office-online-service-description/office-online-service-description"><rect x="256" y="896" width="96" height="80" rx="8" ry="8" class="f" data-feature="A0E8EC70-C846-AC45-B82C-D036D8F58F6A"/><text x="284.2" y="923.4" class="g">Office<tspan x="265.5" dy="1.2em" class="h">for the Web</tspan><tspan x="268.6" dy="1.2em" class="h">(incl Visio)</tspan></text></a><rect x="16" y="16" width="1072" height="32" rx="8" ry="8" class="j"/><text x="34.2" y="36.2" class="k">United States Government</text><a target="_blank" href="https://learn.microsoft.com/office365/servicedescriptions/office-365-platform-service-description/office-365-us-government/office-365-us-government"><rect x="16" y="1136" width="1136" height="32" rx="8" ry="8" class="j"/><text x="175.2" y="1156.2" class="l">Not all features are available in GCC, GCC High, and DoD services. Refer to the service description for specific differences.</text></a><a target="_blank" href="https://www.microsoft.com/microsoft-365/enterprise/compare-office-365-plans"><g transform="translate(-1072,1104) rotate(-90)"><rect x="0" y="1120" width="528" height="64" rx="8" ry="8" class="m"/><text x="200.1" y="1158" class="e">Office 365 G3</text></g></a><a target="_blank" href="https://learn.microsoft.com/microsoft-365/admin/basic-mobility-security/capabilities"><rect x="592" y="608" width="96" height="80" rx="8" ry="8" class="f" data-feature="8330882F-39BB-5D48-A321-46276FC0F1B8"/><text x="621.3" y="635.4" class="g">Basic <tspan x="606.6" dy="1.2em" class="h">Mobility &amp; </tspan><tspan x="612.4" dy="1.2em" class="h">Security</tspan></text></a><a target="_blank" href="https://azure.microsoft.com/pricing/details/active-directory/"><rect x="480" y="608" width="96" height="80" rx="8" ry="8" class="f" data-feature="3E639B79-39CA-2141-81C1-BB7B9E63CE75"/><text x="485.2" y="643.8" class="g">Azure AD for <tspan x="494.5" dy="1.2em" class="h">Office 365</tspan></text></a><a target="_blank" href="https://learn.microsoft.com/microsoft-365/compliance/sensitivity-labels"><rect x="592" y="704" width="96" height="80" rx="8" ry="8" class="f" data-feature="1288BA2E-3A78-2647-8176-0E24BBD5D1D0"/><text x="601.5" y="731.4" class="g">Information <tspan x="605.4" dy="1.2em" class="h">Protection</tspan><tspan x="611.2" dy="1.2em" class="h">for M365</tspan></text></a><a target="_blank" href="https://learn.microsoft.com/microsoft-365/compliance/ome"><rect x="928" y="704" width="96" height="80" rx="8" ry="8" class="f" data-feature="50B3A769-5F38-BC4E-9856-7CCFDDAB1DD3"/><text x="946.4" y="731.4" class="g">Message <tspan x="939.4" dy="1.2em" class="h">Encryption </tspan><tspan x="953.4" dy="1.2em" class="h">(basic)</tspan></text></a><a target="_blank" href="https://www.microsoft.com/microsoft-viva/connections"><rect x="592" y="992" width="96" height="80" rx="8" ry="8" class="f" data-feature="213EE8A8-722C-D640-8BD8-008F939E3535"/><text x="625.6" y="1027.8" class="g">Viva <tspan x="597.6" dy="1.2em" class="h">Connections</tspan></text></a><a target="_blank" href="https://www.microsoft.com/licensing/terms/product/CALandMLEquivalencyLicenses/"><rect x="928" y="896" width="96" height="80" rx="8" ry="8" class="f" data-feature="0BA0D8D4-9F57-3B46-B36D-7ED47A5ED319"/><text x="935.6" y="931.8" class="g">Productivity <tspan x="937.9" dy="1.2em" class="h">Server CAL</tspan></text></a><a target="_blank" href="https://learn.microsoft.com/microsoft-365/whiteboard/"><rect x="144" y="896" width="96" height="80" rx="8" ry="8" class="f" data-feature="141927E2-F8BF-CA48-8B9B-D4092C4563CB"/><text x="162.8" y="924.3" class="i">Microsoft <tspan x="156.2" dy="1.2em" class="h">Whiteboard </tspan><tspan x="149.4" dy="1.2em" class="h">(Surface Hub)</tspan></text></a><rect x="64" y="48" width="384" height="496" rx="8" ry="8" class="n" data-feature="75399014-B3B3-0C4E-AC86-1AEB141F804B" data-group=""/><rect x="80" y="64" width="352" height="240" rx="8" ry="8" class="o" data-feature="E329E2BF-4252-3D4A-A8BE-F7FAC9E07214" data-group=""/><a target="_blank" href="https://learn.microsoft.com/office365/servicedescriptions/office-365-advanced-threat-protection-service-description#feature-availability-across-advanced-threat-protection-atp-plans"><rect x="64" y="496" width="384" height="48" rx="8" ry="8" class="j" data-feature="75399014-B3B3-0C4E-AC86-1AEB141F804B" data-header=""/><text x="172.8" y="515.2" class="p">Defender for Office 365 <tspan x="233.3" dy="1.2em" class="h">Plan 2</tspan></text></a><a target="_blank" href="https://learn.microsoft.com/office365/securitycompliance/threat-trackers"><rect x="320" y="416" width="96" height="80" rx="8" ry="8" class="q" data-feature="9DD3AB27-3254-AA4C-95F4-90D0A93463FE"/><text x="346.6" y="451.8" class="g">Threat <tspan x="338.8" dy="1.2em" class="h">Trackers</tspan></text></a><a target="_blank" href="https://learn.microsoft.com/microsoft-365/security/office-365-security/attack-simulation-training-get-started"><rect x="96" y="320" width="96" height="80" rx="8" ry="8" class="q" data-feature="E232F9D0-305B-0F42-AA60-DA3F6560395B"/><text x="122.6" y="347.4" class="g">Attack <tspan x="108.2" dy="1.2em" class="h">Simulation </tspan><tspan x="116.4" dy="1.2em" class="h">Training</tspan></text></a><a target="_blank" href="https://learn.microsoft.com/microsoft-365/security/office-365-security/threat-explorer"><rect x="208" y="416" width="96" height="80" rx="8" ry="8" class="q" data-feature="D462ECF0-3DDA-5148-8D73-726912A6A7E5"/><text x="234.6" y="451.8" class="g">Threat <tspan x="227.6" dy="1.2em" class="h">Explorer</tspan></text></a><a target="_blank" href="https://learn.microsoft.com/microsoft-365/security/office-365-security/automated-investigation-response-office"><rect x="208" y="320" width="96" height="80" rx="8" ry="8" class="q" data-feature="7E64282A-ACA1-2743-8CFF-8B7176A0A75D"/><text x="219.4" y="347.4" class="g">Automated <tspan x="212.8" dy="1.2em" class="h">Investigation </tspan><tspan x="215.6" dy="1.2em" class="h">&amp; Response</tspan></text></a><a target="_blank" href="https://learn.microsoft.com/microsoft-365/security/office-365-security/atp-safe-links"><rect x="208" y="176" width="96" height="80" rx="8" ry="8" class="q" data-feature="DBB9E5EA-1C80-FE41-AA68-649A18BA66F3"/><text x="221" y="220.2" class="g">Safe Links</text></a><a target="_blank" href="https://learn.microsoft.com/microsoft-365/security/office-365-security/atp-safe-attachments"><rect x="96" y="176" width="96" height="80" rx="8" ry="8" class="q" data-feature="C5A1BF13-211F-EA46-A65D-1BE834F07B49"/><text x="129.2" y="211.8" class="g">Safe <tspan x="101.6" dy="1.2em" class="h">Attachments</tspan></text></a><a target="_blank" href="https://learn.microsoft.com/microsoft-365/security/office-365-security/atp-anti-phishing"><rect x="96" y="80" width="96" height="80" rx="8" ry="8" class="q" data-feature="231098F3-BEDB-3E49-AA8A-C6D32334F060"/><text x="128.1" y="115.8" class="g">Anti-<tspan x="114.4" dy="1.2em" class="h">Phishing</tspan></text></a><a target="_blank" href="https://learn.microsoft.com/office365/servicedescriptions/office-365-advanced-threat-protection-service-description#feature-availability-across-advanced-threat-protection-atp-plans"><rect x="80" y="256" width="352" height="48" rx="8" ry="8" class="j" data-feature="E329E2BF-4252-3D4A-A8BE-F7FAC9E07214" data-header=""/><text x="172.8" y="275.2" class="p">Defender for Office 365 <tspan x="233.3" dy="1.2em" class="h">Plan 1</tspan></text></a><a target="_blank" href="https://learn.microsoft.com/microsoft-365/security/office-365-security/address-compromised-users-quickly"><rect x="96" y="416" width="96" height="80" rx="8" ry="8" class="q" data-feature="ECB13A46-F597-364F-AEDE-A4C302FDE672"/><text x="100.3" y="444.3" class="i">Compromised <tspan x="129.6" dy="1.2em" class="h">User </tspan><tspan x="114.4" dy="1.2em" class="h">Detection</tspan></text></a><a target="_blank" href="https://learn.microsoft.com/microsoft-365/security/office-365-security/campaigns"><rect x="320" y="320" width="96" height="80" rx="8" ry="8" class="q" data-feature="08290C34-E3D8-FF4D-8BBC-2BACD52BC0A6"/><text x="334.2" y="355.8" class="g">Campaign <tspan x="348.2" dy="1.2em" class="h">Views</tspan></text></a><a target="_blank" href="https://learn.microsoft.com/microsoft-365/security/office-365-security/view-reports-for-mdo"><rect x="320" y="80" width="96" height="80" rx="8" ry="8" class="q" data-feature="2C21FE78-5170-2A4D-AEF3-2C5507EA1201"/><text x="334.6" y="115.8" class="g">Real-Time <tspan x="341.6" dy="1.2em" class="h">Reports</tspan></text></a><a target="_blank" href="https://learn.microsoft.com/office365/servicedescriptions/exchange-online-protection-service-description/exchange-online-protection-service-description"><rect x="208" y="80" width="96" height="80" rx="8" ry="8" class="q" data-feature="BAC5A674-C259-6249-AB8A-12C313A32549"/><text x="222.9" y="107.4" class="g">Exchange <tspan x="234.2" dy="1.2em" class="h">Online </tspan><tspan x="221.4" dy="1.2em" class="h">Protection</tspan></text></a><a target="_blank" href="https://www.microsoftpartnercommunity.com/t5/Announcement-Discussions/Microsoft-365-Pricing-and-Audio-Conferencing-Licensing-Updates/td-p/60233#toc-hId--2041231687"><rect x="256" y="608" width="96" height="80" rx="8" ry="8" class="f" data-feature="91D948B6-82D9-E24F-B5C0-77D2E3C6443D"/><text x="285.6" y="636.3" class="i">Audio <tspan x="262.1" dy="1.2em" class="h">Conferencing </tspan><tspan x="264.3" dy="1.2em" class="h">(free add</tspan>-on)</text></a><a target="_blank" href="https://m365maps.com/"><rect x="0" y="1168" width="1168" height="16" class="r"/><text x="1078.6" y="1179.6" class="s">m365maps.com</text></a><a target="_blank" href="https://learn.microsoft.com/microsoftsearch/overview-microsoft-search"><rect x="704" y="800" width="96" height="80" rx="8" ry="8" class="f" data-feature="3DF10631-B76A-1D47-9EB0-71A21637557F"/><text x="720.5" y="827.4" class="g">Microsoft <tspan x="728.6" dy="1.2em" class="h">Search </tspan><tspan x="715.4" dy="1.2em" class="h">(GCC only)</tspan></text></a><a target="_blank" href="https://learn.microsoft.com/MicrosoftTeams/what-is-phone-system-in-office-365"><rect x="928" y="368" width="96" height="80" rx="8" ry="8" class="q" data-feature="EE5462AC-7DA2-B246-B249-8B2F748638CD"/><text x="953.8" y="403.8" class="g">Teams <tspan x="954.6" dy="1.2em" class="h">Phone</tspan></text></a><a target="_blank" href="https://learn.microsoft.com/microsoftteams/audio-conferencing-in-office-365"><rect x="592" y="80" width="96" height="80" rx="8" ry="8" class="q" data-feature="91D948B6-82D9-E24F-B5C0-77D2E3C6443D"/><text x="621.6" y="108.3" class="i">Audio <tspan x="598.1" dy="1.2em" class="h">Conferencing </tspan><tspan x="625.9" dy="1.2em" class="h">(full)</tspan></text></a><a target="_blank" href="https://learn.microsoft.com/power-bi/service-get-started"><rect x="816" y="272" width="96" height="80" rx="8" ry="8" class="q" data-feature="20663929-8D99-4849-AC90-36D5C2BA35BC"/><text x="820.4" y="316.2" class="g">Power BI Pro</text></a><a target="_blank" href="https://learn.microsoft.com/microsoft-365/compliance/customer-lockbox-requests"><rect x="480" y="176" width="96" height="80" rx="8" ry="8" class="q" data-feature="9673533A-0417-1A4D-AA9A-D28DD99FA3D2"/><text x="495.3" y="211.8" class="g">Customer <tspan x="499.2" dy="1.2em" class="h">Lockbox</tspan></text></a><a target="_blank" href="https://learn.microsoft.com/microsoft-365/compliance/customer-key-overview"><rect x="928" y="80" width="96" height="80" rx="8" ry="8" class="q" data-feature="E1E7FB24-1340-E046-AD37-940C3623CB4C"/><text x="943.3" y="115.8" class="g">Customer <tspan x="963.2" dy="1.2em" class="h">Key</tspan></text></a><a target="_blank" href="https://learn.microsoft.com/microsoft-365/compliance/overview-ediscovery-20"><rect x="816" y="176" width="96" height="80" rx="8" ry="8" class="q" data-feature="56C05B00-C1D4-244D-93F9-48E7F42CB8F6"/><text x="826.6" y="211.8" class="g">eDiscovery <tspan x="829.8" dy="1.2em" class="h">(premium)</tspan></text></a><a target="_blank" href="https://learn.microsoft.com/microsoft-365/compliance/privileged-access-management-solution-overview"><rect x="928" y="272" width="96" height="80" rx="8" ry="8" class="q" data-feature="49B8E745-E9DA-E44F-BC8A-A40B0D86FDD1"/><text x="942.5" y="299.4" class="g">Privileged <tspan x="951.5" dy="1.2em" class="h">Access </tspan><tspan x="933.2" dy="1.2em" class="h">Management</tspan></text></a><a target="_blank" href="https://learn.microsoft.com/microsoft-365/compliance/dlp-microsoft-teams"><rect x="816" y="368" width="96" height="80" rx="8" ry="8" class="q" data-feature="B757A084-ED7A-F04D-9CD7-D76682858898"/><text x="841.8" y="395.4" class="g">Teams <tspan x="830.6" dy="1.2em" class="h">Data Loss </tspan><tspan x="827.8" dy="1.2em" class="h">Prevention</tspan></text></a><a target="_blank" href="https://learn.microsoft.com/microsoft-365/compliance/ome-advanced-message-encryption"><rect x="592" y="272" width="96" height="80" rx="8" ry="8" class="q" data-feature="F6EB0FF7-1BFB-364C-9FF4-1EFD26300C70"/><text x="610.4" y="299.4" class="g">Message <tspan x="603.4" dy="1.2em" class="h">Encryption </tspan><tspan x="603" dy="1.2em" class="h">(advanced)</tspan></text></a><a target="_blank" href="https://learn.microsoft.com/microsoft-365/compliance/information-barriers"><rect x="480" y="272" width="96" height="80" rx="8" ry="8" class="q" data-feature="F1375179-3953-074E-AF12-B724EFE6E49F"/><text x="489.5" y="307.8" class="g">Information <tspan x="501.2" dy="1.2em" class="h">Barriers</tspan></text></a><a target="_blank" href="https://learn.microsoft.com/office365/servicedescriptions/mya-service-description"><rect x="480" y="464" width="96" height="80" rx="8" ry="8" class="q" data-feature="B3843CC9-43FF-1442-BF42-BBC4CD47FFD7"/><text x="484.8" y="491.4" class="g">Viva Insights <tspan x="494.2" dy="1.2em" class="h">-</tspan> Personal <tspan x="493.8" dy="1.2em" class="h">(premium)</tspan></text></a><a target="_blank" href="https://learn.microsoft.com/microsoft-365/compliance/communication-compliance"><rect x="816" y="80" width="96" height="80" rx="8" ry="8" class="q" data-feature="F1AF0DA9-71CD-DA40-98CD-AC4BEFBBDC17"/><text x="842.2" y="115.8" class="g">Comm <tspan x="824.3" dy="1.2em" class="h">Compliance</tspan></text></a><a target="_blank" href="https://learn.microsoft.com/cloud-app-security/editions-cloud-app-security-o365"><rect x="704" y="272" width="96" height="80" rx="8" ry="8" class="q" data-feature="8D7EB58E-7580-EE4F-9A22-85087CAB7B0A"/><text x="718.5" y="299.4" class="g">Office 365 <tspan x="716.6" dy="1.2em" class="h">Cloud App </tspan><tspan x="724.4" dy="1.2em" class="h">Security</tspan></text></a><a target="_blank" href="https://learn.microsoft.com/microsoft-365/compliance/manage-data-governance"><rect x="592" y="176" width="96" height="80" rx="8" ry="8" class="q" data-feature="AD5D3C41-1E65-D04C-925B-760322E24EE0"/><text x="624.8" y="203.4" class="g">Data <tspan x="610" dy="1.2em" class="h">Lifecycle </tspan><tspan x="597.2" dy="1.2em" class="h">Management</tspan></text></a><a target="_blank" href="https://learn.microsoft.com/microsoft-365/compliance/records-management"><rect x="480" y="368" width="96" height="80" rx="8" ry="8" class="q" data-feature="553C8169-4F76-5F48-8454-84818DCCA6FD"/><text x="500" y="403.8" class="g">Records <tspan x="485.2" dy="1.2em" class="h">Management</tspan></text></a><a target="_blank" href="https://learn.microsoft.com/microsoft-365/compliance/advanced-audit"><rect x="704" y="80" width="96" height="80" rx="8" ry="8" class="q" data-feature="D3797D5E-AE78-C343-87E3-6173288F0889"/><text x="734.1" y="115.8" class="g">Audit <tspan x="717.8" dy="1.2em" class="h">(premium)</tspan></text></a><a target="_blank" href="https://learn.microsoft.com/microsoft-365/compliance/double-key-encryption"><rect x="704" y="176" width="96" height="80" rx="8" ry="8" class="q" data-feature="9055C65A-8017-7048-9F37-A6B64A5496B2"/><text x="713.5" y="211.8" class="g">Double Key <tspan x="715.4" dy="1.2em" class="h">Encryption</tspan></text></a><a target="_blank" href="https://learn.microsoft.com/microsoft-365/compliance/apply-sensitivity-label-automatically"><rect x="592" y="368" width="96" height="80" rx="8" ry="8" class="q" data-feature="526521F3-5FAF-8540-8E69-3DF3D69724CD"/><text x="600.6" y="396.3" class="i">Rules-Based <tspan x="597.7" dy="1.2em" class="h">Classification</tspan><tspan x="604.6" dy="1.2em" class="h">(Office 365)</tspan></text></a><a target="_blank" href="https://www.microsoft.com/licensing/terms/product/CALandMLEquivalencyLicenses/"><rect x="704" y="368" width="96" height="80" rx="8" ry="8" class="q" data-feature="84FC6F4B-55D7-B044-AF60-E083D5A2346C"/><text x="720.1" y="395.4" class="g">Skype for <tspan x="720.9" dy="1.2em" class="h">Business </tspan><tspan x="720.9" dy="1.2em" class="h">Plus CAL</tspan></text></a><a target="_blank" href="https://learn.microsoft.com/microsoft-365/compliance/sit-learn-about-exact-data-match-based-sits"><rect x="928" y="176" width="96" height="80" rx="8" ry="8" class="q" data-feature="439CDDED-9DD8-E743-9842-DED9096ACA93"/><text x="940.2" y="211.8" class="g">Exact Data <tspan x="955.8" dy="1.2em" class="h">Match</tspan></text></a><a target="_blank" href="https://learn.microsoft.com/office365/servicedescriptions/microsoft-365-service-descriptions/microsoft-365-tenantlevel-services-licensing-guidance/microsoft-365-security-compliance-licensing-guidance#which-templates-are-included-by-default-free-of-cost"><rect x="480" y="80" width="96" height="80" rx="8" ry="8" class="q" data-feature="388F0EAC-6D6F-FA4F-AE9D-8BE50917D3EB"/><text x="488.3" y="99" class="g">3x Premium <tspan x="495" dy="1.2em" class="h">&amp; Custom </tspan><tspan x="488.3" dy="1.2em" class="h">Compliance </tspan><tspan x="493.4" dy="1.2em" class="h">Templates</tspan></text></a><a target="_blank" href="https://learn.microsoft.com/viva/engage/overview"><rect x="704" y="992" width="96" height="80" rx="8" ry="8" class="f" data-feature="12330CC8-93BE-E043-8231-12CEA55876CC"/><text x="737.6" y="1027.8" class="g">Viva <tspan x="726.7" dy="1.2em" class="h">Engage</tspan></text></a><a target="_blank" href="https://learn.microsoft.com/microsoft-365/compliance/retention"><rect x="144" y="992" width="96" height="80" rx="8" ry="8" class="f" data-feature="6D33576F-3845-1949-BB35-4D68A5BE59E0"/><text x="159.7" y="1027.8" class="g">Retention <tspan x="169.8" dy="1.2em" class="h">Labels</tspan></text></a><a target="_blank" href="https://learn.microsoft.com/microsoft-365/compliance/create-retention-policies"><rect x="256" y="992" width="96" height="80" rx="8" ry="8" class="f" data-feature="A68AD6BA-4F38-474D-B943-0C392CFB6754"/><text x="271.7" y="1027.8" class="g">Retention <tspan x="277.5" dy="1.2em" class="h">Policies</tspan></text></a></svg>