<svg xmlns="http://www.w3.org/2000/svg" width="1168" height="1200" viewBox="0 0 1168 1200" class="a"><style>
.b {fill:#a5a5a5;fill-opacity:0.2;stroke:#d04a00;stroke-linecap:round;stroke-linejoin:round;stroke-width:2.25}
.c {fill:#a5a5a5;fill-opacity:0.2;stroke:#e82200;stroke-dasharray:15.75,11.25;stroke-linecap:round;stroke-linejoin:round;stroke-width:2.25}
.d {fill:#a5a5a5;fill-opacity:0.2;stroke:#a41500;stroke-dasharray:2.25,4.5;stroke-linecap:round;stroke-linejoin:round;stroke-width:2.25}
.e {fill:#d04a00;stroke:#d04a00;stroke-linecap:round;stroke-linejoin:round;stroke-width:2.25}
.f {fill:#ffffff;font-family:Arial;font-size:1.66667em;font-weight:bold}
.g {fill:#e82200;stroke:#e82200;stroke-linecap:round;stroke-linejoin:round;stroke-width:2.25}
.h {fill:#e82200;stroke:none;stroke-linecap:round;stroke-linejoin:round;stroke-width:1}
.i {fill:#ffffff;font-family:Arial;font-size:1.16666em;font-weight:bold}
.j {font-size:1em}
.k {fill:#a41500;stroke:none;stroke-linecap:round;stroke-linejoin:round;stroke-width:1}
.l {fill:#a41500;stroke:#a41500;stroke-linecap:round;stroke-linejoin:round;stroke-width:2.25}
.m {fill:none;stroke:none;stroke-linecap:round;stroke-linejoin:round;stroke-width:0.75}
.n {fill:#000000;font-family:Arial;font-size:1.16666em;font-weight:bold}
.o {fill:#ffffff;font-family:Arial;font-size:1.08334em;font-weight:bold}
.p {fill:#7f7f7f;font-family:Arial;font-size:1.00001em}
.q {fill:#d04a00;stroke:none;stroke-linecap:round;stroke-linejoin:round;stroke-width:1}
.a {fill:none;fill-rule:evenodd;font-size:12px;overflow:visible;stroke-linecap:square;stroke-miterlimit:3}
</style><rect x="16" y="16" width="1136" height="1168" rx="8" ry="8" class="b"/><rect x="48" y="352" width="1008" height="800" rx="8" ry="8" class="c"/><rect x="128" y="592" width="912" height="544" rx="8" ry="8" class="d"/><a target="_blank" href="https://www.microsoft.com/microsoft-365/enterprise/compare-office-365-plans"><g transform="translate(-48,1184) rotate(-90)"><rect x="0" y="1136" width="1168" height="64" rx="8" ry="8" class="e"/><text x="521.2" y="1174" class="f">Office 365 E5</text></g></a><a target="_blank" href="https://www.microsoft.com/microsoft-365/enterprise/compare-office-365-plans"><g transform="translate(-1088,1152) rotate(-90)"><rect x="0" y="1136" width="800" height="64" rx="8" ry="8" class="g"/><text x="337.2" y="1174" class="f">Office 365 E3</text></g></a><a target="_blank" href="https://learn.microsoft.com/office365/servicedescriptions/exchange-online-service-description/exchange-online-service-description#feature-availability-across-exchange-online-standalone-plans"><rect x="368" y="384" width="96" height="80" rx="8" ry="8" class="h" data-feature="1F97224E-BB22-114F-B70E-A27C23070C1E"/><text x="382.9" y="411.4" class="i">Exchange <tspan x="394.2" dy="1.2em" class="j">Online </tspan><tspan x="395.4" dy="1.2em" class="j">Plan 2</tspan></text></a><a target="_blank" href="https://learn.microsoft.com/sharepoint/introduction"><rect x="368" y="480" width="96" height="80" rx="8" ry="8" class="h" data-feature="1F2336EF-5D0C-1345-A67D-B8B1D5807E45"/><text x="379" y="507.4" class="i">SharePoint <tspan x="394.2" dy="1.2em" class="j">Online </tspan><tspan x="395.4" dy="1.2em" class="j">Plan 2</tspan></text></a><a target="_blank" href="https://learn.microsoft.com/office365/servicedescriptions/onedrive-for-business-service-description"><rect x="928" y="384" width="96" height="80" rx="8" ry="8" class="h" data-feature="96B3F2C3-1008-4F45-B714-7B8DCBFB3119"/><text x="933.6" y="411.4" class="i">OneDrive for <tspan x="944.9" dy="1.2em" class="j">Business </tspan><tspan x="955.4" dy="1.2em" class="j">Plan 2</tspan></text></a><a target="_blank" href="https://learn.microsoft.com/microsoft-365/compliance/dlp-learn-about-dlp"><rect x="144" y="384" width="96" height="80" rx="8" ry="8" class="h" data-feature="4DE7C810-36B6-114D-AC36-ECCE84D1622B"/><text x="158.6" y="419.8" class="i">Data Loss <tspan x="155.8" dy="1.2em" class="j">Prevention</tspan></text></a><a target="_blank" href="https://www.microsoft.com/microsoft-365/business/microsoft-365-apps-for-enterprise-product"><rect x="816" y="384" width="96" height="80" rx="8" ry="8" class="h" data-feature="BBAFE1A1-9AF8-1A43-8962-AA02F9A096E1"/><text x="832.5" y="411.4" class="i">Microsoft <tspan x="821.6" dy="1.2em" class="j">365 Apps for </tspan><tspan x="829.4" dy="1.2em" class="j">Enterprise</tspan></text></a><a target="_blank" href="https://learn.microsoft.com/microsoft-365/compliance/get-started-core-ediscovery"><rect x="256" y="384" width="96" height="80" rx="8" ry="8" class="h" data-feature="8D90A5EA-9F8F-8D42-8676-FFE24CF363CE"/><text x="266.6" y="419.8" class="i">eDiscovery <tspan x="269.8" dy="1.2em" class="j">(standard)</tspan></text></a><a target="_blank" href="https://www.microsoft.com/download/details.aspx?id=48734"><rect x="480" y="384" width="96" height="80" rx="8" ry="8" class="h" data-feature="B7A2FC52-8021-E343-AC7C-FDC99F563B2A"/><text x="500" y="419.8" class="i">InfoPath<tspan x="514.4" dy="1.2em" class="j">App</tspan></text></a><a target="_blank" href="https://learn.microsoft.com/office365/servicedescriptions/exchange-online-service-description/exchange-online-service-description#feature-availability-across-exchange-online-standalone-plans"><rect x="480" y="704" width="96" height="80" rx="8" ry="8" class="k" data-feature="1F97224E-BB22-114F-B70E-A27C23070C1E"/><text x="494.9" y="731.4" class="i">Exchange <tspan x="506.2" dy="1.2em" class="j">Online</tspan><tspan x="507.4" dy="1.2em" class="j">Plan 1</tspan></text></a><a target="_blank" href="https://learn.microsoft.com/sharepoint/introduction"><rect x="144" y="992" width="96" height="80" rx="8" ry="8" class="k" data-feature="1F2336EF-5D0C-1345-A67D-B8B1D5807E45"/><text x="155" y="1019.4" class="i">SharePoint <tspan x="170.2" dy="1.2em" class="j">Online</tspan><tspan x="171.4" dy="1.2em" class="j">Plan 1</tspan></text></a><a target="_blank" href="https://learn.microsoft.com/office365/servicedescriptions/onedrive-for-business-service-description"><rect x="144" y="896" width="96" height="80" rx="8" ry="8" class="k" data-feature="96B3F2C3-1008-4F45-B714-7B8DCBFB3119"/><text x="149.6" y="923.4" class="i">OneDrive for <tspan x="160.9" dy="1.2em" class="j">Business </tspan><tspan x="171.4" dy="1.2em" class="j">Plan 1</tspan></text></a><a target="_blank" href="https://www.microsoft.com/microsoft-365/enterprise/compare-office-365-plans"><rect x="128" y="1088" width="912" height="48" rx="8" ry="8" class="l"/><text x="521.2" y="1118" class="f">Office 365 E1</text></a><rect x="16" y="16" width="1072" height="32" class="m"/><text x="34.2" y="36.2" class="n">Enterprise</text><a target="_blank" href="https://learn.microsoft.com/microsoft-365/compliance/sensitivity-labels"><rect x="592" y="384" width="96" height="80" rx="8" ry="8" class="h" data-feature="1288BA2E-3A78-2647-8176-0E24BBD5D1D0"/><text x="601.5" y="411.4" class="i">Information <tspan x="605.4" dy="1.2em" class="j">Protection</tspan><tspan x="611.2" dy="1.2em" class="j">for M365</tspan></text></a><a target="_blank" href="https://learn.microsoft.com/microsoft-365/compliance/ome"><rect x="704" y="384" width="96" height="80" rx="8" ry="8" class="h" data-feature="50B3A769-5F38-BC4E-9856-7CCFDDAB1DD3"/><text x="722.4" y="411.4" class="i">Message <tspan x="715.4" dy="1.2em" class="j">Encryption </tspan><tspan x="729.4" dy="1.2em" class="j">(basic)</tspan></text></a><a target="_blank" href="https://learn.microsoft.com/microsoftteams/set-up-webinars"><rect x="480" y="480" width="96" height="80" rx="8" ry="8" class="h" data-feature="1AF037AF-D6DD-4645-BC14-54EBB04542A6"/><text x="496.5" y="524.2" class="i">Webinars</text></a><a target="_blank" href="https://products.office.com/business/task-management-software"><rect x="256" y="896" width="96" height="80" rx="8" ry="8" class="k" data-feature="6D135CF7-EE0E-B745-977C-3364388FF33F"/><text x="278.3" y="940.2" class="i">Planner</text></a><a target="_blank" href="https://learn.microsoft.com/microsoftteams/teams-live-events/what-are-teams-live-events"><rect x="816" y="704" width="96" height="80" rx="8" ry="8" class="k" data-feature="4EE2D1D0-2908-B449-9DCA-68B462773464"/><text x="825.1" y="748.2" class="i">Live Events</text></a><a target="_blank" href="https://learn.microsoft.com/viva/insights/personal/overview/plans-environments"><rect x="704" y="992" width="96" height="80" rx="8" ry="8" class="k" data-feature="B3843CC9-43FF-1442-BF42-BBC4CD47FFD7"/><text x="708.8" y="1019.4" class="i">Viva Insights <tspan x="718.2" dy="1.2em" class="j">-</tspan> Personal <tspan x="729.4" dy="1.2em" class="j">(basic)</tspan></text></a><a target="_blank" href="https://products.office.com/microsoft-teams/"><rect x="592" y="800" width="96" height="80" rx="8" ry="8" class="k" data-feature="543B8269-DF36-CC4B-9823-FB05B4D1A849"/><text x="608.5" y="835.8" class="i">Microsoft <tspan x="617.8" dy="1.2em" class="j">Teams</tspan></text></a><a target="_blank" href="https://learn.microsoft.com/stream/"><rect x="256" y="992" width="96" height="80" rx="8" ry="8" class="k" data-feature="DB95A14F-DCD6-7743-9E57-AE0113AF61E6"/><text x="269" y="1027.8" class="i">Stream for <tspan x="270.5" dy="1.2em" class="j">Office 365</tspan></text></a><a target="_blank" href="https://support.office.com/sway"><rect x="368" y="992" width="96" height="80" rx="8" ry="8" class="k" data-feature="ED122C37-BAA0-8440-8FEB-21E7B044C63C"/><text x="398.1" y="1036.2" class="i">Sway</text></a><a target="_blank" href="https://support.office.com/forms"><rect x="256" y="800" width="96" height="80" rx="8" ry="8" class="k" data-feature="BB2AC066-B28A-BB44-AE1B-D1FB72598720"/><text x="272.5" y="835.8" class="i">Microsoft <tspan x="282.6" dy="1.2em" class="j">Forms</tspan></text></a><a target="_blank" href="https://learn.microsoft.com/office365/servicedescriptions/exchange-online-protection-service-description/exchange-online-protection-service-description"><rect x="592" y="704" width="96" height="80" rx="8" ry="8" class="k" data-feature="BAC5A674-C259-6249-AB8A-12C313A32549"/><text x="606.9" y="731.4" class="i">Exchange <tspan x="618.2" dy="1.2em" class="j">Online </tspan><tspan x="605.4" dy="1.2em" class="j">Protection</tspan></text></a><a target="_blank" href="https://products.office.com/en/business/microsoft-kaizala"><rect x="704" y="704" width="96" height="80" rx="8" ry="8" class="k" data-feature="C1069EA8-18FC-D445-B5EC-9A17D2AEB587"/><text x="714.3" y="739.8" class="i">Kaizala Pro<tspan x="723.2" dy="1.2em" class="j">(retiring)</tspan></text></a><a target="_blank" href="https://learn.microsoft.com/powerapps/teams/overview-data-platform"><rect x="144" y="800" width="96" height="80" rx="8" ry="8" class="k" data-feature="2D026000-4DF7-DE43-A2E7-B4B8C40AE475"/><text x="160.5" y="827.4" class="i">Microsoft <tspan x="158.5" dy="1.2em" class="j">Dataverse </tspan><tspan x="158.6" dy="1.2em" class="j">for Teams</tspan></text></a><a target="_blank" href="https://www.microsoft.com/microsoft-365/microsoft-lists"><rect x="368" y="800" width="96" height="80" rx="8" ry="8" class="k" data-feature="F9326F34-585B-0E4F-ADB9-333C255E15E7"/><text x="384.5" y="835.8" class="i">Microsoft <tspan x="399.7" dy="1.2em" class="j">Lists</tspan></text></a><a target="_blank" href="https://learn.microsoft.com/microsoft-365/bookings/bookings-overview"><rect x="928" y="608" width="96" height="80" rx="8" ry="8" class="k" data-feature="DCC883D8-5878-A246-B691-B5F309BDED3A"/><text x="944.1" y="652.2" class="i">Bookings</text></a><a target="_blank" href="https://learn.microsoft.com/microsoft-365/compliance/search-the-audit-log-in-security-and-compliance"><rect x="592" y="608" width="96" height="80" rx="8" ry="8" class="k" data-feature="E67D07C0-53F5-FB41-B04D-D30974A72A1F"/><text x="622.1" y="643.8" class="i">Audit <tspan x="605.8" dy="1.2em" class="j">(standard)</tspan></text></a><a target="_blank" href="https://learn.microsoft.com/microsoft-365/compliance/alert-policies"><rect x="368" y="608" width="96" height="80" rx="8" ry="8" class="k" data-feature="A46AE7F8-3904-944A-9E4B-B3138DAB33CC"/><text x="400" y="643.8" class="i">Alert <tspan x="389.5" dy="1.2em" class="j">Policies</tspan></text></a><a target="_blank" href="https://learn.microsoft.com/microsoft-365/whiteboard/"><rect x="816" y="800" width="96" height="80" rx="8" ry="8" class="k" data-feature="141927E2-F8BF-CA48-8B9B-D4092C4563CB"/><text x="832.5" y="835.8" class="i">Microsoft <tspan x="825.5" dy="1.2em" class="j">Whiteboard</tspan></text></a><a target="_blank" href="https://www.microsoft.com/microsoft-365/microsoft-to-do-list-app"><rect x="704" y="800" width="96" height="80" rx="8" ry="8" class="k" data-feature="41DD4B93-73C7-C24A-84D9-E6B62756A0C5"/><text x="720.5" y="835.8" class="i">Microsoft <tspan x="732.2" dy="1.2em" class="j">To Do</tspan></text></a><a target="_blank" href="https://learn.microsoft.com/power-virtual-agents/teams/fundamentals-what-is-power-virtual-agents-teams"><rect x="592" y="896" width="96" height="80" rx="8" ry="8" class="k" data-feature="97B016E0-64CB-1040-9667-0B44302DCA50"/><text x="598.5" y="924.3" class="o">Power Virtual <tspan x="607.5" dy="1.2em" class="j">Agents for </tspan><tspan x="619.4" dy="1.2em" class="j">Teams</tspan></text></a><a target="_blank" href="https://www.microsoft.com/microsoft-365/mobile"><rect x="928" y="704" width="96" height="80" rx="8" ry="8" class="k" data-feature="6E7D2ACF-ECB0-0748-BC79-4D1931250DB5"/><text x="944.5" y="731.4" class="i">Microsoft <tspan x="940.2" dy="1.2em" class="j">365 Mobile </tspan><tspan x="962.4" dy="1.2em" class="j">App</tspan></text></a><a target="_blank" href="https://learn.microsoft.com/office365/servicedescriptions/office-online-service-description/office-online-service-description"><rect x="928" y="800" width="96" height="80" rx="8" ry="8" class="k" data-feature="A0E8EC70-C846-AC45-B82C-D036D8F58F6A"/><text x="956.2" y="827.4" class="i">Office<tspan x="937.5" dy="1.2em" class="j">for the Web</tspan><tspan x="940.6" dy="1.2em" class="j">(incl Visio)</tspan></text></a><a target="_blank" href="https://learn.microsoft.com/microsoft-365/admin/basic-mobility-security/capabilities"><rect x="816" y="608" width="96" height="80" rx="8" ry="8" class="k" data-feature="8330882F-39BB-5D48-A321-46276FC0F1B8"/><text x="845.3" y="635.4" class="i">Basic <tspan x="830.6" dy="1.2em" class="j">Mobility &amp; </tspan><tspan x="836.4" dy="1.2em" class="j">Security</tspan></text></a><a target="_blank" href="https://azure.microsoft.com/pricing/details/active-directory/"><rect x="704" y="608" width="96" height="80" rx="8" ry="8" class="k" data-feature="3E639B79-39CA-2141-81C1-BB7B9E63CE75"/><text x="709.2" y="643.8" class="i">Azure AD for <tspan x="718.5" dy="1.2em" class="j">Office 365</tspan></text></a><a target="_blank" href="https://www.microsoftpartnercommunity.com/t5/Announcement-Discussions/Microsoft-365-Pricing-and-Audio-Conferencing-Licensing-Updates/td-p/60233#toc-hId--2041231687"><rect x="480" y="608" width="96" height="80" rx="8" ry="8" class="k" data-feature="91D948B6-82D9-E24F-B5C0-77D2E3C6443D"/><text x="509.6" y="636.3" class="o">Audio <tspan x="486.1" dy="1.2em" class="j">Conferencing </tspan><tspan x="488.3" dy="1.2em" class="j">(free add</tspan>-on)</text></a><a target="_blank" href="https://www.microsoft.com/microsoft-viva/connections"><rect x="480" y="992" width="96" height="80" rx="8" ry="8" class="k" data-feature="213EE8A8-722C-D640-8BD8-008F939E3535"/><text x="513.6" y="1027.8" class="i">Viva <tspan x="485.6" dy="1.2em" class="j">Connections</tspan></text></a><a target="_blank" href="https://www.microsoft.com/microsoft-viva/learning"><rect x="816" y="992" width="96" height="80" rx="8" ry="8" class="k" data-feature="C5598362-2311-A84B-933E-19D1583914D4"/><text x="849.6" y="1019.4" class="i">Viva <tspan x="834.4" dy="1.2em" class="j">Learning </tspan><tspan x="841.4" dy="1.2em" class="j">(basic)</tspan></text></a><a target="_blank" href="https://www.microsoft.com/licensing/terms/product/CALandMLEquivalencyLicenses/"><rect x="704" y="896" width="96" height="80" rx="8" ry="8" class="k" data-feature="0BA0D8D4-9F57-3B46-B36D-7ED47A5ED319"/><text x="711.6" y="931.8" class="i">Productivity <tspan x="713.9" dy="1.2em" class="j">Server CAL</tspan></text></a><a target="_blank" href="https://learn.microsoft.com/project-for-the-web/office-365-user-view-access-to-project-and-roadmap"><rect x="816" y="896" width="96" height="80" rx="8" ry="8" class="k" data-feature="FBF2EADB-FDA1-DE4F-B0CE-7E4B637C269B"/><text x="833.3" y="923.4" class="i">Project &amp; <tspan x="832.1" dy="1.2em" class="j">Roadmap </tspan><tspan x="821.6" dy="1.2em" class="j">View Access</tspan></text></a><a target="_blank" href="https://learn.microsoft.com/viva/engage/overview"><rect x="592" y="992" width="96" height="80" rx="8" ry="8" class="k" data-feature="12330CC8-93BE-E043-8231-12CEA55876CC"/><text x="625.6" y="1027.8" class="i">Viva <tspan x="614.7" dy="1.2em" class="j">Engage</tspan></text></a><a target="_blank" href="https://support.microsoft.com/office/1315665a-c6af-4409-a28d-49f8916878ca"><rect x="368" y="704" width="96" height="80" rx="8" ry="8" class="k" data-feature="74119099-BD75-764C-9212-820A6640E3AF"/><text x="397.3" y="748.2" class="i">Delve</text></a><a target="_blank" href="https://learn.microsoft.com/microsoft-365/compliance/compliance-manager-overview"><rect x="256" y="704" width="96" height="80" rx="8" ry="8" class="k" data-feature="5AE727ED-3979-B649-A986-6BA7098735F1"/><text x="264.3" y="739.8" class="i">Compliance <tspan x="275.2" dy="1.2em" class="j">Manager</tspan></text></a><a target="_blank" href="https://learn.microsoft.com/microsoft-365/security/defender/microsoft-secure-score"><rect x="928" y="896" width="96" height="80" rx="8" ry="8" class="k" data-feature="96B903EE-221F-DC4D-90C0-AE7FDE8D31CA"/><text x="952.6" y="931.8" class="i">Secure <tspan x="956.6" dy="1.2em" class="j">Score</tspan></text></a><a target="_blank" href="https://learn.microsoft.com/microsoft-365/admin/adoption/adoption-score"><rect x="256" y="608" width="96" height="80" rx="8" ry="8" class="k" data-feature="DED671DE-3A0F-C747-B5D8-5EE47650A117"/><text x="273.3" y="643.8" class="i">Adoption <tspan x="284.6" dy="1.2em" class="j">Score</tspan></text></a><a target="_blank" href="https://learn.microsoft.com/microsoft-365/admin/activity-reports/activity-reports"><rect x="144" y="608" width="96" height="80" rx="8" ry="8" class="k" data-feature="550D7638-34DC-364E-8932-11FAF49F5D4B"/><text x="166.7" y="643.8" class="i">Activity <tspan x="165.6" dy="1.2em" class="j">Reports</tspan></text></a><a target="_blank" href="https://learn.microsoft.com/viva/insights/personal/briefing/be-overview"><rect x="144" y="704" width="96" height="80" rx="8" ry="8" class="k" data-feature="471EE84F-6301-804C-8E35-0F908F7FE28F"/><text x="165.6" y="739.8" class="i">Briefing <tspan x="173.3" dy="1.2em" class="j">Email</tspan></text></a><a target="_blank" href="https://m365maps.com/"><rect x="0" y="1184" width="1168" height="16" class="m"/><text x="1078.6" y="1195.6" class="p">m365maps.com</text></a><a target="_blank" href="https://learn.microsoft.com/microsoftsearch/overview-microsoft-search"><rect x="480" y="800" width="96" height="80" rx="8" ry="8" class="k" data-feature="3DF10631-B76A-1D47-9EB0-71A21637557F"/><text x="496.5" y="835.8" class="i">Microsoft <tspan x="504.6" dy="1.2em" class="j">Search</tspan></text></a><a target="_blank" href="https://learn.microsoft.com/MicrosoftTeams/what-is-phone-system-in-office-365"><rect x="704" y="240" width="96" height="80" rx="8" ry="8" class="q" data-feature="EE5462AC-7DA2-B246-B249-8B2F748638CD"/><text x="729.8" y="275.8" class="i">Teams <tspan x="730.6" dy="1.2em" class="j">Phone</tspan></text></a><a target="_blank" href="https://learn.microsoft.com/microsoftteams/audio-conferencing-in-office-365"><rect x="256" y="48" width="96" height="80" rx="8" ry="8" class="q" data-feature="91D948B6-82D9-E24F-B5C0-77D2E3C6443D"/><text x="285.6" y="76.3" class="o">Audio <tspan x="262.1" dy="1.2em" class="j">Conferencing </tspan><tspan x="289.9" dy="1.2em" class="j">(full)</tspan></text></a><a target="_blank" href="https://learn.microsoft.com/power-bi/service-get-started"><rect x="928" y="144" width="96" height="80" rx="8" ry="8" class="q" data-feature="20663929-8D99-4849-AC90-36D5C2BA35BC"/><text x="932.4" y="188.2" class="i">Power BI Pro</text></a><a target="_blank" href="https://learn.microsoft.com/microsoft-365/compliance/customer-lockbox-requests"><rect x="704" y="48" width="96" height="80" rx="8" ry="8" class="q" data-feature="9673533A-0417-1A4D-AA9A-D28DD99FA3D2"/><text x="719.3" y="83.8" class="i">Customer <tspan x="723.2" dy="1.2em" class="j">Lockbox</tspan></text></a><a target="_blank" href="https://learn.microsoft.com/microsoft-365/compliance/customer-key-overview"><rect x="592" y="48" width="96" height="80" rx="8" ry="8" class="q" data-feature="E1E7FB24-1340-E046-AD37-940C3623CB4C"/><text x="607.3" y="83.8" class="i">Customer <tspan x="627.2" dy="1.2em" class="j">Key</tspan></text></a><a target="_blank" href="https://learn.microsoft.com/microsoft-365/compliance/overview-ediscovery-20"><rect x="256" y="144" width="96" height="80" rx="8" ry="8" class="q" data-feature="56C05B00-C1D4-244D-93F9-48E7F42CB8F6"/><text x="266.6" y="179.8" class="i">eDiscovery <tspan x="269.8" dy="1.2em" class="j">(premium)</tspan></text></a><a target="_blank" href="https://learn.microsoft.com/microsoft-365/compliance/privileged-access-management-solution-overview"><rect x="144" y="240" width="96" height="80" rx="8" ry="8" class="q" data-feature="49B8E745-E9DA-E44F-BC8A-A40B0D86FDD1"/><text x="158.5" y="267.4" class="i">Privileged <tspan x="167.5" dy="1.2em" class="j">Access </tspan><tspan x="149.2" dy="1.2em" class="j">Management</tspan></text></a><a target="_blank" href="https://learn.microsoft.com/microsoft-365/compliance/dlp-microsoft-teams"><rect x="592" y="240" width="96" height="80" rx="8" ry="8" class="q" data-feature="B757A084-ED7A-F04D-9CD7-D76682858898"/><text x="617.8" y="267.4" class="i">Teams<tspan x="606.6" dy="1.2em" class="j">Data Loss </tspan><tspan x="603.8" dy="1.2em" class="j">Prevention</tspan></text></a><a target="_blank" href="https://learn.microsoft.com/microsoft-365/compliance/ome-advanced-message-encryption"><rect x="704" y="144" width="96" height="80" rx="8" ry="8" class="q" data-feature="F6EB0FF7-1BFB-364C-9FF4-1EFD26300C70"/><text x="722.4" y="171.4" class="i">Message <tspan x="715.4" dy="1.2em" class="j">Encryption </tspan><tspan x="715" dy="1.2em" class="j">(advanced)</tspan></text></a><a target="_blank" href="https://learn.microsoft.com/microsoft-365/compliance/information-barriers"><rect x="592" y="144" width="96" height="80" rx="8" ry="8" class="q" data-feature="F1375179-3953-074E-AF12-B724EFE6E49F"/><text x="601.5" y="179.8" class="i">Information <tspan x="613.2" dy="1.2em" class="j">Barriers</tspan></text></a><a target="_blank" href="https://learn.microsoft.com/office365/servicedescriptions/mya-service-description"><rect x="816" y="240" width="96" height="80" rx="8" ry="8" class="q" data-feature="B3843CC9-43FF-1442-BF42-BBC4CD47FFD7"/><text x="820.8" y="267.4" class="i">Viva Insights <tspan x="830.2" dy="1.2em" class="j">-</tspan> Personal <tspan x="829.8" dy="1.2em" class="j">(premium)</tspan></text></a><a target="_blank" href="https://learn.microsoft.com/microsoft-365/compliance/communication-compliance"><rect x="480" y="48" width="96" height="80" rx="8" ry="8" class="q" data-feature="F1AF0DA9-71CD-DA40-98CD-AC4BEFBBDC17"/><text x="506.2" y="83.8" class="i">Comm <tspan x="488.3" dy="1.2em" class="j">Compliance</tspan></text></a><a target="_blank" href="https://learn.microsoft.com/cloud-app-security/editions-cloud-app-security-o365"><rect x="816" y="144" width="96" height="80" rx="8" ry="8" class="q" data-feature="8D7EB58E-7580-EE4F-9A22-85087CAB7B0A"/><text x="830.5" y="171.4" class="i">Office 365 <tspan x="828.6" dy="1.2em" class="j">Cloud App </tspan><tspan x="836.4" dy="1.2em" class="j">Security</tspan></text></a><a target="_blank" href="https://learn.microsoft.com/microsoft-365/compliance/manage-data-governance"><rect x="816" y="48" width="96" height="80" rx="8" ry="8" class="q" data-feature="AD5D3C41-1E65-D04C-925B-760322E24EE0"/><text x="848.8" y="75.4" class="i">Data <tspan x="834" dy="1.2em" class="j">Lifecycle </tspan><tspan x="821.2" dy="1.2em" class="j">Management</tspan></text></a><a target="_blank" href="https://learn.microsoft.com/microsoft-365/compliance/records-management"><rect x="256" y="240" width="96" height="80" rx="8" ry="8" class="q" data-feature="553C8169-4F76-5F48-8454-84818DCCA6FD"/><text x="276" y="275.8" class="i">Records <tspan x="261.2" dy="1.2em" class="j">Management</tspan></text></a><a target="_blank" href="https://learn.microsoft.com/microsoft-365/compliance/advanced-audit"><rect x="368" y="48" width="96" height="80" rx="8" ry="8" class="q" data-feature="D3797D5E-AE78-C343-87E3-6173288F0889"/><text x="398.1" y="83.8" class="i">Audit <tspan x="381.8" dy="1.2em" class="j">(premium)</tspan></text></a><a target="_blank" href="https://learn.microsoft.com/microsoft-365/compliance/double-key-encryption"><rect x="144" y="144" width="96" height="80" rx="8" ry="8" class="q" data-feature="9055C65A-8017-7048-9F37-A6B64A5496B2"/><text x="153.5" y="179.8" class="i">Double Key <tspan x="155.4" dy="1.2em" class="j">Encryption</tspan></text></a><a target="_blank" href="https://learn.microsoft.com/office365/servicedescriptions/office-365-advanced-threat-protection-service-description#feature-availability-across-advanced-threat-protection-atp-plans"><rect x="928" y="48" width="96" height="80" rx="8" ry="8" class="q" data-feature="75399014-B3B3-0C4E-AC86-1AEB141F804B"/><text x="934.4" y="75.4" class="i">Defender for <tspan x="942.5" dy="1.2em" class="j">Office 365 </tspan><tspan x="955.4" dy="1.2em" class="j">Plan 2</tspan></text></a><a target="_blank" href="https://learn.microsoft.com/microsoft-365/compliance/apply-sensitivity-label-automatically"><rect x="368" y="240" width="96" height="80" rx="8" ry="8" class="q" data-feature="526521F3-5FAF-8540-8E69-3DF3D69724CD"/><text x="376.6" y="268.3" class="o">Rules-Based <tspan x="373.7" dy="1.2em" class="j">Classification</tspan><tspan x="380.6" dy="1.2em" class="j">(Office 365)</tspan></text></a><a target="_blank" href="https://www.microsoft.com/licensing/terms/product/CALandMLEquivalencyLicenses/"><rect x="480" y="240" width="96" height="80" rx="8" ry="8" class="q" data-feature="84FC6F4B-55D7-B044-AF60-E083D5A2346C"/><text x="496.1" y="267.4" class="i">Skype for <tspan x="496.9" dy="1.2em" class="j">Business </tspan><tspan x="496.9" dy="1.2em" class="j">Plus CAL</tspan></text></a><a target="_blank" href="https://learn.microsoft.com/microsoft-365/compliance/sit-learn-about-exact-data-match-based-sits"><rect x="368" y="144" width="96" height="80" rx="8" ry="8" class="q" data-feature="439CDDED-9DD8-E743-9842-DED9096ACA93"/><text x="380.2" y="179.8" class="i">Exact Data <tspan x="395.8" dy="1.2em" class="j">Match</tspan></text></a><a target="_blank" href="https://learn.microsoft.com/microsoftsearch/licensing#entitlement-built-into-microsoft-365-or-office-365-e5-licenses"><rect x="480" y="144" width="96" height="80" rx="8" ry="8" class="q" data-feature="9C77DD0A-DF85-1542-A05F-82769D7C2945"/><text x="508.9" y="164.5" class="o">Graph <tspan x="495.5" dy="1.2em" class="j">Connector </tspan><tspan x="490.4" dy="1.2em" class="j">Index Quota </tspan><tspan x="485.4" dy="1.2em" class="j">(500 per user)</tspan></text></a><a target="_blank" href="https://powerapps.microsoft.com/"><rect x="368" y="896" width="96" height="80" rx="8" ry="8" class="k" data-feature="5F33A943-8E80-574B-8C6C-816268621A0A"/><text x="375.6" y="923.4" class="i">Power Apps<tspan x="406.7" dy="1.2em" class="j">for </tspan><tspan x="382.5" dy="1.2em" class="j">Office 365</tspan></text></a><a target="_blank" href="https://powerautomate.microsoft.com/"><rect x="480" y="896" width="96" height="80" rx="8" ry="8" class="k" data-feature="80D7F572-D88C-AF4E-8444-5DC902D3A938"/><text x="507" y="923.4" class="i">Power <tspan x="484.4" dy="1.2em" class="j">Automate for</tspan><tspan x="494.5" dy="1.2em" class="j">Office 365</tspan></text></a><a target="_blank" href="https://learn.microsoft.com/office365/servicedescriptions/microsoft-365-service-descriptions/microsoft-365-tenantlevel-services-licensing-guidance/microsoft-365-security-compliance-licensing-guidance#which-templates-are-included-by-default-free-of-cost"><rect x="144" y="48" width="96" height="80" rx="8" ry="8" class="q" data-feature="388F0EAC-6D6F-FA4F-AE9D-8BE50917D3EB"/><text x="152.3" y="67" class="i">3x Premium <tspan x="159" dy="1.2em" class="j">&amp; Custom </tspan><tspan x="152.3" dy="1.2em" class="j">Compliance </tspan><tspan x="157.4" dy="1.2em" class="j">Templates</tspan></text></a><a target="_blank" href="https://learn.microsoft.com/microsoft-365/compliance/retention"><rect x="144" y="480" width="96" height="80" rx="8" ry="8" class="h" data-feature="6D33576F-3845-1949-BB35-4D68A5BE59E0"/><text x="159.7" y="515.8" class="i">Retention <tspan x="169.8" dy="1.2em" class="j">Labels</tspan></text></a><a target="_blank" href="https://learn.microsoft.com/microsoft-365/compliance/create-retention-policies"><rect x="256" y="480" width="96" height="80" rx="8" ry="8" class="h" data-feature="A68AD6BA-4F38-474D-B943-0C392CFB6754"/><text x="271.7" y="515.8" class="i">Retention <tspan x="277.5" dy="1.2em" class="j">Policies</tspan></text></a></svg>