<svg xmlns="http://www.w3.org/2000/svg" width="976" height="720" viewBox="0 0 976 720" class="a"><style>
.b {fill:#a5a5a5;fill-opacity:0.2;stroke:#e82200;stroke-linecap:round;stroke-linejoin:round;stroke-width:2.25}
.c {fill:#e82200;stroke:#e82200;stroke-linecap:round;stroke-linejoin:round;stroke-width:2.25}
.d {fill:#ffffff;font-family:Arial;font-size:1.66667em;font-weight:bold}
.e {fill:none;stroke:none;stroke-linecap:round;stroke-linejoin:round;stroke-width:1}
.f {fill:#000000;font-family:Arial;font-size:1.16666em;font-weight:bold}
.g {fill:#e82200;stroke:none;stroke-linecap:round;stroke-linejoin:round;stroke-width:1}
.h {fill:#ffffff;font-family:Arial;font-size:1.16666em;font-weight:bold}
.i {font-size:1em}
.j {fill:#ffffff;font-family:Arial;font-size:1.08334em;font-weight:bold}
.k {fill:none;stroke:none;stroke-linecap:round;stroke-linejoin:round;stroke-width:0.75}
.l {fill:#7f7f7f;font-family:Arial;font-size:1.00001em}
.a {fill:none;fill-rule:evenodd;font-size:12px;overflow:visible;stroke-linecap:square;stroke-miterlimit:3}
</style><rect x="16" y="16" width="944" height="688" rx="8" ry="8" class="b"/><a target="_blank" href="https://www.microsoft.com/microsoft-365/enterprise/compare-office-365-plans"><rect x="16" y="16" width="944" height="64" rx="8" ry="8" class="c"/><text x="425.2" y="54" class="d">Office 365 E3</text></a><rect x="16" y="80" width="944" height="32" rx="8" ry="8" class="e"/><text x="34.2" y="100.2" class="f">Enterprise</text><a target="_blank" href="https://www.microsoft.com/microsoft-365/business/microsoft-365-apps-for-enterprise-product"><rect x="496" y="304" width="96" height="80" rx="8" ry="8" class="g" data-feature="BBAFE1A1-9AF8-1A43-8962-AA02F9A096E1"/><text x="512.5" y="331.4" class="h">Microsoft <tspan x="501.6" dy="1.2em" class="i">365 Apps for </tspan><tspan x="509.4" dy="1.2em" class="i">Enterprise</tspan></text></a><a target="_blank" href="https://products.office.com/business/task-management-software"><rect x="832" y="400" width="96" height="80" rx="8" ry="8" class="g" data-feature="6D135CF7-EE0E-B745-977C-3364388FF33F"/><text x="854.3" y="444.2" class="h">Planner</text></a><a target="_blank" href="https://learn.microsoft.com/microsoftteams/teams-live-events/what-are-teams-live-events"><rect x="272" y="304" width="96" height="80" rx="8" ry="8" class="g" data-feature="4EE2D1D0-2908-B449-9DCA-68B462773464"/><text x="281.1" y="348.2" class="h">Live Events</text></a><a target="_blank" href="https://learn.microsoft.com/viva/insights/personal/overview/plans-environments"><rect x="608" y="592" width="96" height="80" rx="8" ry="8" class="g" data-feature="B3843CC9-43FF-1442-BF42-BBC4CD47FFD7"/><text x="612.8" y="619.4" class="h">Viva Insights <tspan x="622.2" dy="1.2em" class="i">-</tspan> Personal <tspan x="633.4" dy="1.2em" class="i">(basic)</tspan></text></a><a target="_blank" href="https://learn.microsoft.com/microsoftteams/set-up-webinars"><rect x="832" y="592" width="96" height="80" rx="8" ry="8" class="g" data-feature="1AF037AF-D6DD-4645-BC14-54EBB04542A6"/><text x="848.5" y="636.2" class="h">Webinars</text></a><a target="_blank" href="https://products.office.com/microsoft-teams/"><rect x="272" y="400" width="96" height="80" rx="8" ry="8" class="g" data-feature="543B8269-DF36-CC4B-9823-FB05B4D1A849"/><text x="288.5" y="435.8" class="h">Microsoft <tspan x="297.8" dy="1.2em" class="i">Teams</tspan></text></a><a target="_blank" href="https://learn.microsoft.com/stream/"><rect x="160" y="592" width="96" height="80" rx="8" ry="8" class="g" data-feature="DB95A14F-DCD6-7743-9E57-AE0113AF61E6"/><text x="173" y="627.8" class="h">Stream for <tspan x="174.5" dy="1.2em" class="i">Office 365</tspan></text></a><a target="_blank" href="https://learn.microsoft.com/sharepoint/introduction"><rect x="48" y="592" width="96" height="80" rx="8" ry="8" class="g" data-feature="1F2336EF-5D0C-1345-A67D-B8B1D5807E45"/><text x="59" y="619.4" class="h">SharePoint <tspan x="74.2" dy="1.2em" class="i">Online </tspan><tspan x="75.4" dy="1.2em" class="i">Plan 2</tspan></text></a><a target="_blank" href="https://learn.microsoft.com/office365/servicedescriptions/onedrive-for-business-service-description"><rect x="720" y="400" width="96" height="80" rx="8" ry="8" class="g" data-feature="96B3F2C3-1008-4F45-B714-7B8DCBFB3119"/><text x="725.6" y="427.4" class="h">OneDrive for <tspan x="736.9" dy="1.2em" class="i">Business </tspan><tspan x="747.4" dy="1.2em" class="i">Plan 2</tspan></text></a><a target="_blank" href="https://support.office.com/sway"><rect x="272" y="592" width="96" height="80" rx="8" ry="8" class="g" data-feature="ED122C37-BAA0-8440-8FEB-21E7B044C63C"/><text x="302.1" y="636.2" class="h">Sway</text></a><a target="_blank" href="https://support.office.com/forms"><rect x="832" y="304" width="96" height="80" rx="8" ry="8" class="g" data-feature="BB2AC066-B28A-BB44-AE1B-D1FB72598720"/><text x="848.5" y="339.8" class="h">Microsoft <tspan x="858.6" dy="1.2em" class="i">Forms</tspan></text></a><a target="_blank" href="https://learn.microsoft.com/microsoft-365/compliance/dlp-learn-about-dlp"><rect x="272" y="208" width="96" height="80" rx="8" ry="8" class="g" data-feature="4DE7C810-36B6-114D-AC36-ECCE84D1622B"/><text x="286.6" y="243.8" class="h">Data Loss <tspan x="283.8" dy="1.2em" class="i">Prevention</tspan></text></a><a target="_blank" href="https://learn.microsoft.com/office365/servicedescriptions/exchange-online-protection-service-description/exchange-online-protection-service-description"><rect x="720" y="208" width="96" height="80" rx="8" ry="8" class="g" data-feature="BAC5A674-C259-6249-AB8A-12C313A32549"/><text x="734.9" y="235.4" class="h">Exchange <tspan x="746.2" dy="1.2em" class="i">Online </tspan><tspan x="733.4" dy="1.2em" class="i">Protection</tspan></text></a><a target="_blank" href="https://learn.microsoft.com/microsoft-365/compliance/get-started-core-ediscovery"><rect x="496" y="208" width="96" height="80" rx="8" ry="8" class="g" data-feature="8D90A5EA-9F8F-8D42-8676-FFE24CF363CE"/><text x="506.6" y="243.8" class="h">eDiscovery <tspan x="509.8" dy="1.2em" class="i">(standard)</tspan></text></a><a target="_blank" href="https://products.office.com/en/business/microsoft-kaizala"><rect x="160" y="304" width="96" height="80" rx="8" ry="8" class="g" data-feature="C1069EA8-18FC-D445-B5EC-9A17D2AEB587"/><text x="170.3" y="339.8" class="h">Kaizala Pro<tspan x="179.2" dy="1.2em" class="i">(retiring)</tspan></text></a><a target="_blank" href="https://learn.microsoft.com/office365/servicedescriptions/exchange-online-service-description/exchange-online-service-description#feature-availability-across-exchange-online-standalone-plans"><rect x="608" y="208" width="96" height="80" rx="8" ry="8" class="g" data-feature="1F97224E-BB22-114F-B70E-A27C23070C1E"/><text x="622.9" y="235.4" class="h">Exchange <tspan x="634.2" dy="1.2em" class="i">Online </tspan><tspan x="635.4" dy="1.2em" class="i">Plan 2</tspan></text></a><a target="_blank" href="https://learn.microsoft.com/powerapps/teams/overview-data-platform"><rect x="720" y="304" width="96" height="80" rx="8" ry="8" class="g" data-feature="2D026000-4DF7-DE43-A2E7-B4B8C40AE475"/><text x="736.5" y="331.4" class="h">Microsoft <tspan x="734.5" dy="1.2em" class="i">Dataverse </tspan><tspan x="734.6" dy="1.2em" class="i">for Teams</tspan></text></a><a target="_blank" href="https://www.microsoft.com/microsoft-365/microsoft-lists"><rect x="48" y="400" width="96" height="80" rx="8" ry="8" class="g" data-feature="F9326F34-585B-0E4F-ADB9-333C255E15E7"/><text x="64.5" y="435.8" class="h">Microsoft <tspan x="79.7" dy="1.2em" class="i">Lists</tspan></text></a><a target="_blank" href="https://learn.microsoft.com/microsoft-365/bookings/bookings-overview"><rect x="832" y="112" width="96" height="80" rx="8" ry="8" class="g" data-feature="DCC883D8-5878-A246-B691-B5F309BDED3A"/><text x="848.1" y="156.2" class="h">Bookings</text></a><a target="_blank" href="https://www.microsoft.com/download/details.aspx?id=48734"><rect x="832" y="208" width="96" height="80" rx="8" ry="8" class="g" data-feature="B7A2FC52-8021-E343-AC7C-FDC99F563B2A"/><text x="852" y="243.8" class="h">InfoPath<tspan x="866.4" dy="1.2em" class="i">App</tspan></text></a><a target="_blank" href="https://learn.microsoft.com/microsoft-365/compliance/search-the-audit-log-in-security-and-compliance"><rect x="496" y="112" width="96" height="80" rx="8" ry="8" class="g" data-feature="E67D07C0-53F5-FB41-B04D-D30974A72A1F"/><text x="526.1" y="147.8" class="h">Audit <tspan x="509.8" dy="1.2em" class="i">(standard)</tspan></text></a><a target="_blank" href="https://learn.microsoft.com/microsoft-365/compliance/alert-policies"><rect x="272" y="112" width="96" height="80" rx="8" ry="8" class="g" data-feature="A46AE7F8-3904-944A-9E4B-B3138DAB33CC"/><text x="304" y="147.8" class="h">Alert <tspan x="293.5" dy="1.2em" class="i">Policies</tspan></text></a><a target="_blank" href="https://learn.microsoft.com/microsoft-365/whiteboard/"><rect x="496" y="400" width="96" height="80" rx="8" ry="8" class="g" data-feature="141927E2-F8BF-CA48-8B9B-D4092C4563CB"/><text x="512.5" y="435.8" class="h">Microsoft <tspan x="505.5" dy="1.2em" class="i">Whiteboard</tspan></text></a><a target="_blank" href="https://www.microsoft.com/microsoft-365/microsoft-to-do-list-app"><rect x="384" y="400" width="96" height="80" rx="8" ry="8" class="g" data-feature="41DD4B93-73C7-C24A-84D9-E6B62756A0C5"/><text x="400.5" y="435.8" class="h">Microsoft <tspan x="412.2" dy="1.2em" class="i">To Do</tspan></text></a><a target="_blank" href="https://learn.microsoft.com/power-virtual-agents/teams/fundamentals-what-is-power-virtual-agents-teams"><rect x="272" y="496" width="96" height="80" rx="8" ry="8" class="g" data-feature="97B016E0-64CB-1040-9667-0B44302DCA50"/><text x="278.5" y="524.3" class="j">Power Virtual <tspan x="287.5" dy="1.2em" class="i">Agents for </tspan><tspan x="299.4" dy="1.2em" class="i">Teams</tspan></text></a><a target="_blank" href="https://www.microsoft.com/microsoft-365/mobile"><rect x="608" y="304" width="96" height="80" rx="8" ry="8" class="g" data-feature="6E7D2ACF-ECB0-0748-BC79-4D1931250DB5"/><text x="624.5" y="331.4" class="h">Microsoft <tspan x="620.2" dy="1.2em" class="i">365 Mobile </tspan><tspan x="642.4" dy="1.2em" class="i">App</tspan></text></a><a target="_blank" href="https://learn.microsoft.com/office365/servicedescriptions/office-online-service-description/office-online-service-description"><rect x="608" y="400" width="96" height="80" rx="8" ry="8" class="g" data-feature="A0E8EC70-C846-AC45-B82C-D036D8F58F6A"/><text x="636.2" y="427.4" class="h">Office<tspan x="617.5" dy="1.2em" class="i">for the Web</tspan><tspan x="620.6" dy="1.2em" class="i">(incl Visio)</tspan></text></a><a target="_blank" href="https://learn.microsoft.com/microsoft-365/admin/basic-mobility-security/capabilities"><rect x="720" y="112" width="96" height="80" rx="8" ry="8" class="g" data-feature="8330882F-39BB-5D48-A321-46276FC0F1B8"/><text x="749.3" y="139.4" class="h">Basic <tspan x="734.6" dy="1.2em" class="i">Mobility &amp; </tspan><tspan x="740.4" dy="1.2em" class="i">Security</tspan></text></a><a target="_blank" href="https://azure.microsoft.com/pricing/details/active-directory/"><rect x="608" y="112" width="96" height="80" rx="8" ry="8" class="g" data-feature="3E639B79-39CA-2141-81C1-BB7B9E63CE75"/><text x="613.2" y="147.8" class="h">Azure AD for <tspan x="622.5" dy="1.2em" class="i">Office 365</tspan></text></a><a target="_blank" href="https://learn.microsoft.com/microsoft-365/compliance/sensitivity-labels"><rect x="48" y="304" width="96" height="80" rx="8" ry="8" class="g" data-feature="1288BA2E-3A78-2647-8176-0E24BBD5D1D0"/><text x="57.5" y="331.4" class="h">Information <tspan x="61.4" dy="1.2em" class="i">Protection</tspan><tspan x="67.2" dy="1.2em" class="i">for M365</tspan></text></a><a target="_blank" href="https://www.microsoftpartnercommunity.com/t5/Announcement-Discussions/Microsoft-365-Pricing-and-Audio-Conferencing-Licensing-Updates/td-p/60233#toc-hId--2041231687"><rect x="384" y="112" width="96" height="80" rx="8" ry="8" class="g" data-feature="91D948B6-82D9-E24F-B5C0-77D2E3C6443D"/><text x="413.6" y="140.3" class="j">Audio <tspan x="390.1" dy="1.2em" class="i">Conferencing </tspan><tspan x="392.3" dy="1.2em" class="i">(free add</tspan>-on)</text></a><a target="_blank" href="https://learn.microsoft.com/microsoft-365/compliance/ome"><rect x="384" y="304" width="96" height="80" rx="8" ry="8" class="g" data-feature="50B3A769-5F38-BC4E-9856-7CCFDDAB1DD3"/><text x="402.4" y="331.4" class="h">Message <tspan x="395.4" dy="1.2em" class="i">Encryption </tspan><tspan x="409.4" dy="1.2em" class="i">(basic)</tspan></text></a><a target="_blank" href="https://www.microsoft.com/microsoft-viva/connections"><rect x="384" y="592" width="96" height="80" rx="8" ry="8" class="g" data-feature="213EE8A8-722C-D640-8BD8-008F939E3535"/><text x="417.6" y="627.8" class="h">Viva <tspan x="389.6" dy="1.2em" class="i">Connections</tspan></text></a><a target="_blank" href="https://www.microsoft.com/microsoft-viva/learning"><rect x="720" y="592" width="96" height="80" rx="8" ry="8" class="g" data-feature="C5598362-2311-A84B-933E-19D1583914D4"/><text x="753.6" y="619.4" class="h">Viva <tspan x="738.4" dy="1.2em" class="i">Learning </tspan><tspan x="745.4" dy="1.2em" class="i">(basic)</tspan></text></a><a target="_blank" href="https://www.microsoft.com/licensing/terms/product/CALandMLEquivalencyLicenses/"><rect x="384" y="496" width="96" height="80" rx="8" ry="8" class="g" data-feature="0BA0D8D4-9F57-3B46-B36D-7ED47A5ED319"/><text x="391.6" y="531.8" class="h">Productivity <tspan x="393.9" dy="1.2em" class="i">Server CAL</tspan></text></a><a target="_blank" href="https://learn.microsoft.com/project-for-the-web/office-365-user-view-access-to-project-and-roadmap"><rect x="496" y="496" width="96" height="80" rx="8" ry="8" class="g" data-feature="FBF2EADB-FDA1-DE4F-B0CE-7E4B637C269B"/><text x="513.3" y="523.4" class="h">Project &amp; <tspan x="512.1" dy="1.2em" class="i">Roadmap </tspan><tspan x="501.6" dy="1.2em" class="i">View Access</tspan></text></a><a target="_blank" href="https://learn.microsoft.com/viva/engage/overview"><rect x="496" y="592" width="96" height="80" rx="8" ry="8" class="g" data-feature="12330CC8-93BE-E043-8231-12CEA55876CC"/><text x="529.6" y="627.8" class="h">Viva <tspan x="518.7" dy="1.2em" class="i">Engage</tspan></text></a><a target="_blank" href="https://support.microsoft.com/office/1315665a-c6af-4409-a28d-49f8916878ca"><rect x="384" y="208" width="96" height="80" rx="8" ry="8" class="g" data-feature="74119099-BD75-764C-9212-820A6640E3AF"/><text x="413.3" y="252.2" class="h">Delve</text></a><a target="_blank" href="https://learn.microsoft.com/microsoft-365/compliance/compliance-manager-overview"><rect x="160" y="208" width="96" height="80" rx="8" ry="8" class="g" data-feature="5AE727ED-3979-B649-A986-6BA7098735F1"/><text x="168.3" y="243.8" class="h">Compliance <tspan x="179.2" dy="1.2em" class="i">Manager</tspan></text></a><a target="_blank" href="https://learn.microsoft.com/microsoft-365/security/defender/microsoft-secure-score"><rect x="832" y="496" width="96" height="80" rx="8" ry="8" class="g" data-feature="96B903EE-221F-DC4D-90C0-AE7FDE8D31CA"/><text x="856.6" y="531.8" class="h">Secure <tspan x="860.6" dy="1.2em" class="i">Score</tspan></text></a><a target="_blank" href="https://learn.microsoft.com/microsoft-365/admin/adoption/adoption-score"><rect x="160" y="112" width="96" height="80" rx="8" ry="8" class="g" data-feature="DED671DE-3A0F-C747-B5D8-5EE47650A117"/><text x="177.3" y="147.8" class="h">Adoption <tspan x="188.6" dy="1.2em" class="i">Score</tspan></text></a><a target="_blank" href="https://learn.microsoft.com/microsoft-365/admin/activity-reports/activity-reports"><rect x="48" y="112" width="96" height="80" rx="8" ry="8" class="g" data-feature="550D7638-34DC-364E-8932-11FAF49F5D4B"/><text x="70.7" y="147.8" class="h">Activity <tspan x="69.6" dy="1.2em" class="i">Reports</tspan></text></a><a target="_blank" href="https://learn.microsoft.com/viva/insights/personal/briefing/be-overview"><rect x="48" y="208" width="96" height="80" rx="8" ry="8" class="g" data-feature="471EE84F-6301-804C-8E35-0F908F7FE28F"/><text x="69.6" y="243.8" class="h">Briefing <tspan x="77.3" dy="1.2em" class="i">Email</tspan></text></a><a target="_blank" href="https://m365maps.com/"><rect x="0" y="704" width="976" height="16" class="k"/><text x="886.6" y="715.6" class="l">m365maps.com</text></a><a target="_blank" href="https://learn.microsoft.com/microsoftsearch/overview-microsoft-search"><rect x="160" y="400" width="96" height="80" rx="8" ry="8" class="g" data-feature="3DF10631-B76A-1D47-9EB0-71A21637557F"/><text x="176.5" y="435.8" class="h">Microsoft <tspan x="184.6" dy="1.2em" class="i">Search</tspan></text></a><a target="_blank" href="https://powerapps.microsoft.com/"><rect x="48" y="496" width="96" height="80" rx="8" ry="8" class="g" data-feature="5F33A943-8E80-574B-8C6C-816268621A0A"/><text x="55.6" y="523.4" class="h">Power Apps<tspan x="86.7" dy="1.2em" class="i">for </tspan><tspan x="62.5" dy="1.2em" class="i">Office 365</tspan></text></a><a target="_blank" href="https://powerautomate.microsoft.com/"><rect x="160" y="496" width="96" height="80" rx="8" ry="8" class="g" data-feature="80D7F572-D88C-AF4E-8444-5DC902D3A938"/><text x="187" y="523.4" class="h">Power <tspan x="164.4" dy="1.2em" class="i">Automate for</tspan><tspan x="174.5" dy="1.2em" class="i">Office 365</tspan></text></a><a target="_blank" href="https://learn.microsoft.com/microsoft-365/compliance/retention"><rect x="608" y="496" width="96" height="80" rx="8" ry="8" class="g" data-feature="6D33576F-3845-1949-BB35-4D68A5BE59E0"/><text x="623.7" y="531.8" class="h">Retention <tspan x="633.8" dy="1.2em" class="i">Labels</tspan></text></a><a target="_blank" href="https://learn.microsoft.com/microsoft-365/compliance/create-retention-policies"><rect x="720" y="496" width="96" height="80" rx="8" ry="8" class="g" data-feature="A68AD6BA-4F38-474D-B943-0C392CFB6754"/><text x="735.7" y="531.8" class="h">Retention <tspan x="741.5" dy="1.2em" class="i">Policies</tspan></text></a></svg>